<mxfile host="Electron" modified="2024-02-03T08:31:56.909Z" agent="Mozilla/5.0 (X11; Linux x86_64) AppleWebKit/537.36 (KHTML, like Gecko) draw.io/21.5.1 Chrome/112.0.5615.204 Electron/24.6.0 Safari/537.36" etag="zj3Ywh_Oac9RQCjDn_zl" version="21.5.1" type="device">
  <diagram name="Page-1" id="Na8425xBiCrPurX4iJq9">
    <mxGraphModel dx="1157" dy="759" grid="1" gridSize="10" guides="1" tooltips="1" connect="1" arrows="1" fold="1" page="1" pageScale="1" pageWidth="827" pageHeight="1169" math="0" shadow="0">
      <root>
        <mxCell id="0" />
        <mxCell id="1" parent="0" />
        <mxCell id="BhIajO4M1uqcpxpR8eOI-14" value="" style="group" parent="1" vertex="1" connectable="0">
          <mxGeometry x="1110" y="402" width="120" height="60" as="geometry" />
        </mxCell>
        <mxCell id="BhIajO4M1uqcpxpR8eOI-15" value="node5" style="rounded=1;whiteSpace=wrap;html=1;fillColor=#1ba1e2;strokeColor=#006EAF;fontColor=#ffffff;fontSize=15;fontStyle=1" parent="BhIajO4M1uqcpxpR8eOI-14" vertex="1">
          <mxGeometry width="120" height="60" as="geometry" />
        </mxCell>
        <mxCell id="BhIajO4M1uqcpxpR8eOI-16" value="" style="shape=image;verticalLabelPosition=bottom;labelBackgroundColor=default;verticalAlign=top;aspect=fixed;imageAspect=0;image=data:image/png,iVBORw0KGgoAAAANSUhEUgAAAZEAAAIACAMAAAB0LaEeAAAABGdBTUEAALGPC/xhBQAAAAFzUkdCAK7OHOkAAAMAUExURUdwTAAAAAAAAAAAAAAAAAAAAAAAAAAAAAAAAAAAAAAAAAAAAAAAAAAAAAAAAAAAAAAAAAAAAAAAAAAAAAAAAAAAAAAAAAAAAAAAAAAAAAAAAAAAAAAAAAAAAAAAAAAAAAAAAAAAAAAAAAAAAAAAAAAAAAAAAAAAAAAAAAAAAAAAAAAAAAAAAAAAAAAAAAAAAAAAAAAAAAAAAAAAAAAAAAAAAAAAAAAAAAAAAAAAAAAAAAAAAAAAAAAAAAAAAAAAAAAAAAAAAAAAAAAAAAAAAAAAAAAAAAAAAAAAAAAAAAAAALwRQnWpKAEAALsRQQMAAbgRQAECAAkBAxsCCVcIHgcBAnSoKDMFEhICBq8QPQMFAQ8BBRQCBwQAArMQP44NMQ0BBDAEEbYQQAUIAiMDDC0EEKQPOREZBngLKiUDDW8KJxAXBTcFEwcKAklqGXQKKaEPOJ0ON4kMMA0UBB8DC5kONa4QPZYONX0LLDkFFKoPPJ8OOJMNM6kPOxYCCGEJIosNMSkEDiY3DQgMA2QJI26eJXKlJ1kIH5ENMj4GFnOmJ2aUI2wKJioED4ALLQsBBG+gJnGkJ6cPOnoLK0oHGjRLEroRQVAHHGKOIUwHG0gGGaYPOqsPPBYfB3CiJj1ZFUdnGF4IIbUQP2YJJF6IIDtVFBgjCCk7DoMMLkIGF5QNNH4LLGqYJC1BDzFIERwoCWCLIaAOODwFFTBFECAvC1J3HGubJFIHHScEDhkCCTVOEgsQBAoOA1V7HTUFEx4rCkBdFoUML1qDHxIbBjdPEys+DkAGF3ULKThSE1QIHj9bFbIQPoIMLnIKKGkJJVmBHkNhFyEDDEUGGE4HG5sONl8JIWSQImiWI0ttGkFfFhomCR0DCrAQPlyFH09zGyQ0DFR5HUxvGpoONm0KJksHGmWSIyIyDEMGGFsIIBUeB2oKJVd/Hk5xG1F1HBABBnsLK4cML0YGGUVkGBchCEZlGGydJVZ8HWUJI4YML0RiFzNKEWeVI2gJJHEKKBQcB1B0G1MUs30AAABKdFJOUwD3Eu/8+vT+BAEG630Wwp/lIxoMr9ceD4W902UvWuBRNJaajMkqkkQ8c3jMpwm2xVXdN4GyTCdJ0DGkq9q5amxAiehhXuNwLMBvWdPASwAAIABJREFUeNrUXLtP21wUh/IIlEeA0hZoQcBXyqtAW2i/9EH7lb4tM2TJkJUhQ9Qs+Q+IYCBLMkRiIWSAsBBAImEgIBAPCbHAlBIkHhlAQoWFlwSV6JeHE/teO46vYzvumeLbYv/OPT7vc52WJhEV55fnKTKLytur0/4iym0oK+/KzCzqbLqX9jdT8TvlN9Xd5s6ad9U5kZWvpQosSs+aCv4SPkryq2KoFW9eRhZznn+vLVe9rShUvn/5d7CR87EZIym79NP9tNsfMjEqpSsfylYpyJ/Vr7MA1FntOWm3PnZkU5ZUH3PkL5D6txhEWW8eYTQqrGxJK6isKSzKUmSral/IgbHbT5UV2VhmV1tNZUFay6c2OuhHpVnw0tt6uSvIY4wrZatIQ4YVNbakGPmdpjwSjkKVzZmPxzJUk9v1TcrWb4Wdb2qayjG+VPU0pcaqsog38m/5taXlbYWtyqb627KQx72aDEwQKkxdFPa8TRgWMmpkEJI1pmOCUeuDsg5VXnZ60SNl5S2Rcd/6pGzuSs/OU3WUPSgXjoX0L6kOTZSYSJSuLBYzPn+dJRbw2tyUSqQGE4/S88XymTllWSLifhx5hmQyuP9v/pO2qowsRVZGUcUjTFQqFCeVLBEZdvPdrnQFpsj+/OhJ/ov7Ihvf94WZmIRUJUZW/LBIShYy276L5xILarIxiSlP+OS+OkNqJtJrSsRx4o1I8lCrGRYX1nWo8eTDlAvEOHzIlb+42fAXEdz9rVZERjZ3NseM8OIa7plE1JI6YU0WqkCcxxo/vObt9S8Z1Ei3aRXcnxSoUF+tbj+O477TvR5g9RjHN0CZ/EhwnyIho+CXXYlgg3Cc+zg+D+y91r3pCzLmUCNuh0pgb9Ki4mE/Z/EQWXd7tRSGfwaXPFTb5fUss9/m8/fGpvz2sg/JKEvdh7L2/KbG74mcun6XqtbGQBDsxRxFHL3H9jBTwzwiMIEqdy3Fda/qCnJeJ3xgD8OaSxOGj1tOj2JrY6GF/lGKkM771zi9cPzzk9vt3PKPbps9QPEUs+Hdn4gt6PwXEX5wG8cNAEjZcu9h9aviZARz711HlYLrK7Dt2zHMuk3g4gQepUt39DWzhK8Hz0h3j+Mjy5yeUcHPzVff5ejCN3B8L3a1PBIGOhDd6UmPJsrMGvh3pgWbY8ns5rpTRR1f+FW/GloVSFqpM4fA/j62OSlv/G5MJPgS4T4GI5cDs7GXK3hlX6XuTHw1ecCDkXcsCkJ9VG9fEIg3ejVtjeD8STiUS5KTeYpWnV0HwnyPD6HslaKzAT01Ry9YGc0EYovnOvrOO3EK7epJHQnSCeFE1eGrU9KOeVzxH/IaVenvPGGB3LtB7u16GAah5D1bUZRhHfFuaSh8LESdzsRJH7E0voy6W0rE4KvkLg9PvmwhUR/4J0OqYqRKBLcG3QdpyHBfxMEPRa5+xSzeFpvjbEarrJSwhSTXGk9MUT3U3TaOkChXMLXNArARdorOYR+FsSH03bqLlDbef8YrOXUBwMf9Z9goDpIvagzC1Bfm30FcDUZNyDprcPkMpbJS95kF7nDwOVFXsEOAOA7v9gwF5MDECMSEH7tZ/w2s2Pjs1luUeLiDNaoKOrL5qYPf5sGlkyubm2KK1TMQ9kENzkoDQfu0EPs/Zn3kNivB31vxRZLHvbPVwJYPXgUfs05E4IMxSL1BW2ZlR40PQtcWSuTodV9feXZ8P8fNU78Ma4cmFgCl3AXyL3syDuGZ8axsE/u3hKPSqP6CvDAbYxLBA/FFksFVJA1sdZ/T0FMWwz/nKFtsubFpUJmYIlyRc/YEfie32HbyX84SYa9WdzvomCx/poNRypwdWSI4YKJ9JtKMsWhJxituvdrshO/VbljpAbPUh87DQPBNmnMdM/zlMWum1ca5wZYokTIw4hpZQ1cRmJaC+q8l3rNTlvojl/ydtYQ1TLwPwXhPvZ807JGVJUbF+pMg9eVaIHqXsK4bwMUiA4YtRn+zRFxViSOuEraKyTXleX7RmPFoE2wk1/QqcatWvSsaFxOL5O9pliD4TqJwsYIF/xj5RjtWRWNlP5FAiAZwYirl0P04wSUgTaymsWBCDFRy6c2DnlidY6FfCvSXCQXCOdrqBPiY83qNRqNer9MtL98MDTm3F9y9qzaDFDzhVieBwrBDK+Q1svLQTuNeexlNB2/6JAEfmHX1Hi5MOs+Gjm6WdTq9PriNXq+JykgrHx1xDuAppBkiRTnAN2CRZP7HFr/TanLaffyCyBjMqeRIs0AB9YajRMDZ3ZVU4ifiYSOTEeiKn/OW0MKs7pDnG6LHupLTIh8/AsZa6o2UcrAREsQ0ERZxtMK5nTSb5Y9W0aXxgPGTSS2fWOsh1Fezp5SHQDeGbRA1P4g+xmHgO00g05HqB1E7SR31HwGwuLZFcz/H6zulhNaxM7LmBI54MHd+immjyG4i2nWn2AZDva4qzlWUD5ANXkoxG1HLbz2DdrqDET5tsFoXLdUMTmhSa7PAHP4D9zllKFIZSi0flK4LPLjCdOjkEy3MmpIJfBycwlEgTNk8YaqTyoF24Z41PXW/nwdLxCAX9AEQ1xOE/kgZPDJmlwtTcG+oLEHsTuujpZAG9CCwdoTOG21WYF02XDmhWQjYub+EsS9b5YL9HJ7j4N4NLaRFj17ZsDWoZVd9uP2p3pELco0e3tVyrgJ5ylATc8iFLzDpDbpHcIargT5pLFcfGKQXHNMRpjkUp2wY00yyRcCweh/1ywY4w4idKpkuu2wiSPwAqjk+p2Cvh23WiGxg/2ba1Xpeoa/ctB/uLVKV5BvjMLgsaJ1xjo6TRPKYx+Pkw9sAeCxI8TWuF/Fa5IPayTj3z+mkSJx+l4/9gRYJUxYPNHkaN9Dakg6T5YL932eYd5XLFN1XtvkmtpqN449kXhQ8hpZVEqf6MykVHuvuZiKHFWDeVS4pSR04qzxvWLe5eg/3phP7yF9u16U0FbADLWPiDqXr3dK4dc2lyz2fuMg4sefeW7UNG/ZdqPNBt8Aq3TiSOTnyzkoSlIFTKnmRL8TcgSbmxiQp59q8N39Q/qAPGOK4w8WRgN0RxOGZgA4b8s+Ivg/joJJUhoE/gFRkUHQYM4tHmNGAZheAytwzTrFWLcgYYlNXc+7F1Ie7Ys9LTAAYv4WBN0urIgO7h2psbhPReY4ALZJaThKBsiw9agRpHf6BYXO2QSmVpJjejFb7RLZWcxjWM4q8OTcAyP94VVF6kdFe2EL7te2wS6YkocL2P1gy5haJ7I5QdqGeQDfP4PGxCo6VxkooQhtFh2xeDSlnz7R4bv6gG7LHOdBRdfECrZHpcB1n7AD9TzcTt0AZlQQyyNg5H62OFNa2t8RKUtxQcatemtKo1RBJvhf4VPm3eJ5WSHuVmfjESGK6jBzOM80eiLI1YOL+Dzw/Lk4r1zwbiV2XPXz+GjqllPWVexOxXZAeosYQOYvcfXgpRmIGHLJ+lgsaLZMILTbN/GHEVHrPeSXC593gpjahfKSN1kXkN1ZjHyUq5zfnwu8QWAKGkhGb8N78lDghrV3jVb/UrMEdRKTvCdGnAt38BsrHXYSmmlZ+CrxFYMMhT1y//nM2mmqv8uPDAo//Ye+RjoEztBF1POP7qegwuHpV4MiL5RC5UeDoaizqAbZ5tu3NR/RviiB9aoeJSxPfkezdWMvfLahDGeVwqk0I2o8dMDAe87zFzlwSpxAZKkTRquM8Tzz9w7FG7FBAuOrwVHyJ/BLOnQdiqtgzytcZLjF+WOhTEhN0UUi8CxPjrlicoXcIVvPSxxOISSixW8/JZ4zxdoRm5u8MIEzQgbG9WitE8W5kmzTymwIFXnFPjvYKc3+730vOPm8IgRP4uuNjBImAw/H7W6u60J10o0m1rQ2kLfWuC9IAd8STiCAjmPZ1ErDpNBmtsw+HA2f9mGFDzTohG5/e05qj/b8Pkt7EvgkSj2nYLqIjuRRCHqSp6Z6+SPZ2Fp85ZBj2+JywCn+/QqSKxBRl+s3rT9p2aeKdT076MK51kRIcOQVLbk4AlK9QcnYw3/oh3OnWLS9FJlfJViGdcT6Hl+Rt+68oKE0OwaLDGSAGzkPK2aE+olO4Am7fNKW6g9oRZe82COTYNQZqxcx1IRjrwMFpNMdOHxESsv2zQ821bzzJ3GqFWSLTSVkWapfvRsiDymCTTYH4TfxSEYdMNYvUhGkyiVOOi8wSSeL459I2NSUeFnJcYJH/CSvGgzGLgtbtgJhjj3fiaWCWCG+sPqAc6Ba0sQOF6unIn/ouYzyjLxgde6nv4jXP4MjDLBGesWGfjZotmIQdUTVAzZF89O9IV8T5SJhQHh7wyqYrXi7+F7NEeH1ramATqHWsXvxP3bUHVXWc8YMoD5Uo2khsKozYJBqDUSdWbbWNmlo9x4teVB4XEx8oEhTwgZqoiIIUBS0hCKKRRy03jB0eGh5RUEEuNI5mgjpTH0SF2OhI0dgmQqt2sDR1Es45u+exd7+9h9/fsHd3f2f3e+73UV2uNFo1mqC+90suFK9nFDpEbqlOEjfmfXpnpEOUtrO+he5apcXbXIha3QyTV4+lm9WbLrol+OZUe+9mcidKqjieVEb3lUNglbQmtg9Z3Xi5BziBcmy2TlRK2qLb230OzYjedzzpVpHxv6qN7ipTGqQT7E9GCOcu7xNYQ/mJjOSYrNR5WVRpqQStihaxV7+McuJfrqzFzxiOFIhOmjm0s6wbxQ+mmnUFIRrQjJTrGaNIfGGtp503k9TEE7+a1vT+zVZEecbpJSI1JOyaDmGF6cIQpX2IwAvi8F4D7YqBlYhsgIGkhLghl7uKdk7JnFPVYiea5gSJ2zhvvOb0hKNiX+XJp7TXVtmJmF5vUkYGI8svN9Gv7dQuvjjMZzVK+HyV+sqqPl5Jc6A79B++FNSYEPMjbjYkFnh1FVej77W1z4FAtPjuWKnNwVeIY6RGm8tT/P1aYCokJbV9FX31fl13JcSVWI44K1bwp4pUsfwzZ2o4JrnYxgUWDR97epX4gOSAPngReeCm09K1QCkJrBcfb5v65ViLzw5Sdy/USbrqlIDW4hF7tch1rWmQ/l81AW+uVwmTpVfjGQlr1ydBEitAl5ZvIk4LUgy3Q5fiKBLH2PhOZaXrglL9b+WZHpWopE1XQBcmPcx2dKadBOzZkt5cVvGXa6klPCJdJomCXRF4TZIxUQX6jjVQWjdvtB0dEeWVtsphK420SIR1Od4eLVYuko+PtRdJyipFwdZkTk8grKrFaSvUynfCVl1/IkkvSbyv1xZRcwC3SJKiW2/DXsUf0/Nqfd82VN7nJrEDdAW/l6aOliGVoALVVhJm5DxTpFdIIWyFnTrZ3drPzmbtr8gbbprzQNcw56Fks3MQYfj29eo9Uk4ixHWq5Is1X4NdywVZ26Q+b3J2YlhvhG8VtsxGo+ReCbsn/YsrmjpCyt8g3Yxiet6TEuQurbGc3fBxkq+1ugV0JanSDS8RK0MF1bwmJLYp31g22LIQjfKD7DKBo4DxqBZdJaDXb26ztHBnd33iZhivEebuEfeiUjpPK7XqWFVyH6P3ZI4KPFD9EWmHPiU6/GOsPhGYZ+K140dTo1F6sIpBrZAbCDf86704SvBFuuXLkljKRPMza7FRZ1NhWwtGxoLqJ7mZqM/GlxYh3C+Ra22CrW12X3o3FabLckY0oTy7S6eW2pMW2BKOl2vIK5fqbmxlKS55XJ+Xfwq8rFmd1Nmek33WwhPA/DhbGusO64CefXtHfl59ZklxGHE2vBJeFX+rrLq/Ha3mgXCSVWHmQJG9O5MaI28y9W39iNurYAipzma0AIlPayQ1RvxcmOrx3RTWTghCVrFqiCixq5z7cmCiPYxVaeNKAEpWXmE0+fuJUIIdEbriC5N6KiUri9jM/ANZuGAyRUY4ed/g6ntsFtbeSvnKYkRIhcyF8iuahCBaDHYJeDbSpHIlTULWs5EhT+R2E6Z5IzFmo3JwqphcXakUleCTTL6iXCvCbnqRowxkV5LEWhb9rbITaRHCpMtxyqNqUA/KDwmOs9C3wEMG9uIdWow0MbAJo5FG1FQ36oxwg5/DiMpo6H4KSRZajJihr9nAezbkD0/14wDg9xOcPnkVlpNoenLkK1g+bmJ09df6ciBwn4ZbaOe9HnFpUSu8hVF4MYEC1/7uHBR8nHFL/a6xB1xaXddWO9g0bzRhfrPfRA4QQ4ZiVtpQ2RMuLdp1EkSmbJkZ+YtjBnGgcP+12OuYaOFNiaVWQLsr0EbVZAcUeVfyak6aeIso38V5BgcOceXZBvAWb1SPCIP2b+miEkGeHAN4ixWtNtgFpqyny4gN2H4SZzw8z4IQboDUDQzqKvqWtu8X9F1SkcThO5wJIz4y/1YxXDLzB9Qju4lw6lZqiVQtnMiEET+5CmxuPgW0yEL6ESuojmNtCTJlq58bE0akDaOeKTEg+lY0DwAIw/1KHipo8AIbQjgPF4wf7xrteOnlMAhGwmi75IselSJ/yLkXI0a4Ubi1mprO0Vxteg4PAhvNZJrUWpyxrrPDiF1m4lCF5XbW36C01pQ7PBBqaFXLLbAqBJ3HuDNjhOv1U+V8qLIOQxPC8wk0TPfGEkVbaZIXxxAeo1VS0ikQ0swDIoHCKclT/IWf9+KYYvAA4E8wPYEHBYXEzMAGhfF9/TjW8PktVpfJs5+Q2zk8MCg8Og68gMsA8J7AOQB+o6ajZEhCNAVN5mkUDw4alTdyrxYiZMnAmX6cY+D3lrxuYDmF8lspVTwT0KhOUyAVd66zhrlxDsSQUbOkj3m/e2Rn9KrDxjOCvY7r9nyJLdJn6OwhnMMhTwo2fVxfUUTsj0jgGYK8XVhly9kmmSPrZ5wR4N4PfU03NZz99mZddqWugESSNYxnCku9Ll9wSmV23dOH1uJSVIND8pKYlDFcZdFRq0oLrS1a7uyiTMZ8fK8a1ms5z+mnrIWlq1SmN8IgjPzOVcvCo1RdrkeLLbxDYGlQdfxUaMl0dfU0CCPonGAZlFddVNvKOxCt15QPSrZZwyADjEII5+GsYbpK/bmf5JebeQfDVPPoicIUreojTPcwDCPcK71Vp4utXpfb8tjGGwStmRVY87ZE7Z/trwpEE2P7qEhPZL5BytH84lYzbyiYcsryC5BuyGhlse7kwxkKIwcqrVKarpJ7uS26qtlmMDK65Q3YEurzOy6nSxNNFCbsPZ4zGLyG42+u0kxrXt652nN5Z+vLCu80dUbxPQRRttLmhpIqa15tbdfsrVXl2BvrZS/OePD0dXHMPRO6LfbixdjY+cELHUSc88tDOGPCa8bUPgw3Ym7skfgHmzZnCT/gnWPrIj9dGsqUDqc3hvlxBobXWF9vFvuwMGjn4sMCBuEZB75kQ8eU4RMGc4aH+wjofQj++swyQQUfRa5+G5yQEW5cD8D40bC7ELBve5agCdcjTs8FpmTSSMPz4THAFXQL3o15R9CBzTtPAHMywMPYhMxwhly96ZOtgl74/zsIWNF60cB8eA4FVa0ubRGIcOsvJlBOZnkaVaLPBLVHdhPy8T9sgeXEZaa7EQkZ8hzkondsFezChqWgx+Q5Ax6Tt/RIEFNAaOiStADNH25ojL9gLz4HlfEuMwzGh5eWoJVpW9CBP2VsX7vx8LP99T8ft3ZdxM79q+cra6lHNgoUcPguqIHymqE8W5NV7fQv/7ln12H8bs3bEo/drtA/CJSwYbmCE+DE3t37k3f+7bOILkR+Eb/gUtDyJbooGTfZQDqvk+JUF+17sFl9uxZg/jvokEAN85IRF6VpR3LMYvQEQ/6ckRyk2U3mZBQ9uK+v4uG4u0mbDIhE33Tx/gJNrJPv7x5Vh0zEvhPaRJ5vXyMQgqzz/wxLDmhXkT5FDZD2D4EyPtwh/Q1NToDwvy/V4pF53QAWvOc47PQuxizTYVujVKETawXqWHZE8iNab8WQyL3qJ2XcSw73K/bDzS1ou66Neg8xxPJDAgQkEitC+38eS1YV9s4O9j364GT60l36dikrFmEVXhdgsFP0Myt0qdCRsWryfYIjCRmLia3HrtO7Sf+RD3L8vACFf4l+aLE+1+V7KpzQaFVFmZC0PVl6tyg8QM5qiACHuyLqdapz/hnK5n/vYQYj5P3NujfIX+51Cv5QgMQlXfqvzK6JDzDiKfFBErIkg2B/4mXDvL0LlBBh3vHuYclw3f8f974iJQ6RJeORQn0vyae9WK7qfyEA46O07rPO0j9AhJLa5eQAjcsTqfYuIFiaEBcsV9UEcGR0/71kggEOKQUnnX/BmpBeU1Deugd2XyDPBgqHZ0Q43d1Zc4ZgAP94BTN+CuMCA26o8NQ3W+0Xsv/HXQaECGu672caUYRyu4IXcijbzCFUStYJsg/7r4gEoBAWjAhfizyiRNbPGoVMvWksCZmISAGKjSPalgjEWg4wIURYI3JTBZGIQCFkBZ4Shs8XBiGk+kWyON92VKBqKxtGBLFoPkjmuDyNl+6DWBGCKq81n8wpuAllaaX5M2IkRvy78WSWzSd4UcIqRQVRgi6YTIZsQUrGvYwIEeIk0bEYolGy8MbibEZpQPK0rIBbZNGjbWg3DCtGBIl/au7nZKcEK0tc2LwreUMeeiXLTdiMUVTYMSKVAQsXEw1zHptRMZWJO0v+u38kWsdGnFd7BzNGDspE2Caywx7sQH1rsLzQ2WkiSRyC/bBCmTGyX+4o3UA00C5cbpM3/Pur/nJTnUjNun4cr8ivYcXIPsTnQBbaj8St5VVwf5Y8mfQMESHvKrjp9rBiZDXqAdcxoqFwOjB4FeYXZD+5j+jKUiKEnfqLjAUuIqIkZBvuZRzwEZFpvt+EUCeE52+xIeQQ5pkjmdcRkzrkAntI5B7GCJKduKj2VoQNI5/xNCk5iBkNtJy/l+yIrCCYepzq02YTG88W9k1JMIl4D8G45p0h31f/hoZTMFzDQ47l8xgQslbhwQqJXRKBGQyyoP/zFK6XLYu05DSziFnt/i93VxcT1ZmGx11csVur66o13a2tXavtRlvZ1rWtxrhtbe05mZ8MECAzA4MRwhASkMwgIAgmJGjCQAJkCD83wg3CldwgNyTcQMhAk1W8gis10Xgh5cpe2GQVg3XOeb/vvN/vMftdkjnnfLzv9/P+PM/7Ur7fxYO8INyOJ9UFHE/bThd2s+QiDvzPlWZlvIrptPlWeZf7IWUaOSG+RVqD2EICCcUKKXY4PPM5gnUELMRhZbwEWxka5tN2AU884/TU0GPWka09x/zOJniTbFJlAJ+ywd9ZZ7zIUhUjfEGlQu4iTs5nzG8lxOVVka9sqcMF+VLIMHgU4ho7UJcZM4xrhpBMVOSvW1GlYTasQKqflf4aqValkDbkDNZY4RBwhiFLDfXqezELdXiCg5I8MKxCHwH82qhinMDPOo+tXdbPMOXW665wscSXFXjvg0mWYhNsGJs6uDLhLhUKOWJFXt9imelN3ooL3r60ZIVUdDFNIJctW3MDDjeqIPEet35lhCXHJlA7sbBaJlqohrm4U4hpm47CLzmtIzPCcGitilUZjS/I0kfdJEclDiZfMQDvwC8UaOSsVUz4WV4XLjpyfjUlQR9D7UG+k5PlOHgIE90VoOGt18gkdornZg0J4/JT0XI1iV7+SjW9+AXRCb5gs3wExL940+tDVww5IzIxyh+jr6u8JfTxUjSTOw3HJeQXMbdCSyPICpYXw4a8Ee2d4VFK42KBcCGnZbTJBdvWPyj3RmK46fXIrhwerOq4wGJ7Fde2x6SUBIy2Ct2a8uO/J3k4Hr52Q8UINbTUIm6VQKK6Lyav4q8fCVoqAZ/eLVshb1mDWpiQ00qVoW4UFvQ9Hk2ASJi6xMz9+YZc6eWXB1BHZjH43SzZPuLH1i8sOU9tSXX14/X7LBwrnbj9oG9+frKvf+3adDJeqK74XxJVPAGONspulXjUuoWdl8tq0Pi/G2GM/74GPiq7NIcV7pvrGHuffNOl68+d7n3UUd1T3zPXcbdvIoYKd0UqeXMvb0vWyDeMHI/m5ButjanexXu2Xd79a0tVVMJlUgs+941kjVgbJsw7TCr05mrDW9ZBDsn5xlqcKs3FnAJ65VriKNZW7FRL0Hed0QPwXy7tH6leHW1taprpqWzpK32ibne0ObK8m+/TwwxdDoFPH+iD7ZAc1bIS2Otp/1EZ02X58LcL9oNgqHWkQIHNVDaK8y4v5dGOL69D+RfQ2MqSWwNim/X9FFDCKP7Eyp+YoxwBxZ0DhXKNVwaa4fAiDZ2cHGSHbcllt/9ofT0xynOuD+1JTM85pgdT9WXSuiJMMULifOMUCH8X7WW3wUc+lKqRQ9bXk0KhiThSPpefIaPriV4poTF/OzuIglb+z9tPLp0Ll/c+LlUj71tfDx+kvjbk2R9jyUA1ronvkzAf9ivwlOzmxhNsgBS5LuIP1hMHzmEjr/RSVtr4mKh308Cd7momI+gjbQQzYRH8udwCENYkexTaICO44yXOA3vvEbnjI0I1BjvJny6D7ZJVDU77QeshYJ/GBdw6Dt3ny5g38jfZya81hUYRGfsXfOxD41HkUkT3O2lkuB11g3jvcNe59t3ljK53icOHF8m7PwlYnTAzZb9UjWx30MjCZZyBJbRaS7hOrtBFU3ws5ZJ34N0ALme1XWmgsTDTQMWdKN7bgoXgyzkSLiE5nAda8m25FaWRE0rZVU9elxPSOI2Kdz9qjjNf6iWmnJGieL7ea+UIjcjF/lpxD/5Xq/3mGvJ4j8uodlIXY9SIRL5DB2XhReZXHO+RL6Vq5DMDjP2mOguwzluDHED1CptK8mRCuHtoa6/rUZGDrfWZWnqV907neMcEGmXubZeFpm5mud6n5VZ8HKXak13zG8xJOH0qtfrZTsH+rP4KeWIZw4e5oo2m3DFDN/G9pR3PlZJahX/1p50KjV/W67VTplhW0VGuOVP2WHC8NINTxINDovn7oVjP9chy/otpAAAd/UlEQVSoXLFgYXnTpvxRIRD03CIPIHRWSCH5sjvoBXA2cJeSnjJPBSQhjbL7gZhCaqVLZQxlcLeYSka/gCwkNYrJPimE/FhVIJU8jLNerEYjKYG+4rul5NqP7BfaIkpWamDZ+cMjpqJRJwCePSgB/fuJ0A7hq+KIyFk4frhwWJVGzDEBkMxuUWZP9n/EzKyClCKpOLruKhthdQhIZMteoZNrzwExRyQ3rUooo072xIpCjZhCLIx3BDzF038U9AzH1AnFgd14Q6VCzEYhEO2fuRvBncoSxBu0KRTKDP3TrUo1Yo4LyWXzd1z62PoPUUROqcrOLj5q1nJKdVOZBjHR8FSczd4uqpBQo1KZPKJ9+7pihZjdgnSl/czVNLN3iSrE26lWJuW0CNOYao1AzbKZxuFs3QoxJlTLhOI7R9V3wgrkOiQg4jE6O+gw0y7JPiyskK5G1TKZI39cR5Vzqv09VfECoHKJGnDZzqKSj4hyvt558Ze2XIRGHisXyRD52FrUoBGTAqlt2AAMUaGYB/lpoK+uhtmXCz/1s2PwdTmlXiRkMoGOtrwExMmLUfU7gmullyKkT7kLMm544L/H1eudQjszGkQyT7xGTC2DVDstlAH7XiB7k1uOIqsEbYI3SO/rsbsRukLKdEik1tWvkzdJj8XBJ1e92/Q1iuC2A1Z8Jh3SRy2O5L2qQyLnSBtVU19eE5ZB3GroUYiy+xDVsrM/h5ed1XQao7kDBXokQsru6uqDNY41KzqJ/iSiZ/heeNXZL+qke1GljTHr7ufNFFQ7LAglZu4RYz6OrJJDUD4ELD1BSRrd0iSRFjdNrRfjOtoX6iZlPbMcAsF/gC4RuBVHgAxoXNUkENKiSOvSSLfX8V5/lQsm5dj2vcvESli3JQn1cogEvcKUJoHUENIyprZhd8q9pN536SQPsO4YJF9SJa0ekkYe6ZJHALYuCvVpxB7JIRfdXSG1raXQqt8FziwyI6aZZPoOahMIbMLE9WkkbTPA1yhhH0L06cxf0WxDg96MOeyqf/ZiwBZMUt8EbP3EDVr9rUFClIvIGf3abmdRG5ZPuBjmezlirmuk0vpxKqerCfZpsz4mpHHtvqG3h/Z+uK2Kv0ifPApcNb7XrS3rx+lJiEUmQPD79l/SKUr1cHZdozzgXRrTOAPT4mcEHX5+B1bJB2D4JMceDKGn4hKuhjDIGvmvTo1YCKPnnWJxcTwg2NbJzQg7nD/FoPFZo1EcMJJtWadGVhk5K/fgqwTACx351naJONIMoETyZZ3igO+RsM4pDKKNX2oe44wdov2T7UeTrGfo+hjQKQ44j+1P6ZxDIcPNux6bhw1EW++x7DO2ve9cYxnKNFfrlAYh1d3s3j5FcCTgPEaO9Sb5jv3MgiNbF3RK47xbaK3XRh7aQdwYMEvLWhCNq8/3A8DH1ykMk5DC7tQ5h8zQFoYmXgRGzb9yqMMYxNAqJ10NoTw3Jb1uIZNeG1fZFwPcoeQTevdJVEfZR+6luGnReOOBzklkBlxRvOQ0uLczesbssfISulChECCHd1+nMEhgEK1Ouy/CnlAG40+bt9Egczg+J4BG/lWnMCpITKKAzlmE2TWyAqYR/klpiRRMo14MVFG95J6Z89pIuGbwIUEXYLGu9yid9fpMXo0M65RFqau4X3AWSI3UgDbJ34mZKn8Nr0aCOkVhEukAvTpnkUG3wha4KKBmrrZak7lVJq9GpnSKopwIhtEaXMtAjWGL8oBX4D7ioTWOfO2Iu1YOhZ6pM3KQ0Ui3HvlQcZB2bNkKXmNNlbvuOoiU6igjGqdxg9Vnt+txY2x0qH6P18Fqdwvw+3JQijqVuqWRSuxT9ZRIyk7r39Hll+xRlGmNkhikYMH9aX3zyEhkPsM+lYYyV1u2gfn1INq/euCqRippfIkKffMo5UMPgqb7UZB0iCfZzrp6alGLk2g8tmIcnhwpkvKytnwOt3tV4ObNfo5a09SrL92fAePD12O5CiIg1uHw1r/eRL/UzjE6r08jDiW2tIGPzQjfsR0AIRAvOFfHLX97gp9Lrpuu2TRdI2FdyfYhXocMxMofAuK+DLUaQi4SBbqdCNwzmiZylRcH00+K/1qTVfgSTBBZQBvEtMWJUa/rbq/OXJL4+h+grXgCiMTjyyV3uxkHdy5fWaJnIhZWPb6FWQkhIp+dxU3iGwPeOK5JIa3OdUA0WeIWv2IJ/WAdyHDf6vkLfzx9AXhjmyaNFCBKszTpmIivi/v6As33PTaiGwNBCToIZ/UopAlTvr1Kx0wSDIweR1N13dg6xb/X291DQeOKierYJB1MBA/nOMrfPF/wp98ggr93RYdCLuI6HMTUFz6zFWy8JiY/421bVIuhwmHSNTcAW7eyUvlMbLEcBoLXAziy9aXlLwy1pEGeY54GhYxhm4BE61RPxVbklqGSVB7skHzOjW2H2eQa8ro+fHcx5dwJeyt2/CIAndyznq+4HYolOOjarVwjlWiFKC8rNWxPl18V08gBGyge77KPu3R210XxGjGW1QLIKkQING2w076PWyMtLhUY6DVYRp/SuSRFLlJQIzmeb7ltpYeGK8dWE1tvL69KJDLEVm4QW9I7PDu4NUK6X1vUntzLBtsIKVwhN4TQe3kwis56amEhYKYv35VcEXtjr6QypHwNmKMpEvpXcviz7JeIIlBJOhvl6EeojGX0UCwL8BDOtO/mZYzVEyWgsC5JedTgGIpoRgmvWNGLAhhEd4AXMUDpNlGrSiGBWzwKMfy/KJkNgSyxhn0exGS+Y+vzjY40UmJLV1RpZM3gG0EVfGpSDT50PgPc77tsTYzRSQVajfp6NQoZMXhH6JL0yRQ9IdnbadwL0uDTH3msvZGwhXcGaQKYOqdCIZ1+bo0YhTdlz+aaaIJ/DHx4r+dTzqxuvXb8Wkm+ITDCkkGOlO4nT7kjMM/HT/Y2xkiHit7aNiKfUpOIGkKj8J7M2SxRlgfSa4dNo2OeHzkNpTL6/39etlu2FDIER1RikneF1hQH2bMJBm/823NkCxc9KeDUgCTvTVOIYeSPy5pNgL4ecQgh8D/KesvjOcOFJilxjPBJ9dybooaE4ZWEXfLNSvBIYV5rjsdjS+vi6LaOIE8jKPEqqQ0acsY1GU3bfQNOX+G/2HcBSGxvHf8hmBkEldbt7beIIWvExddJasDxxsJcJLcNEhL7GI979z/mriUmqiwN3xZ8a4+vNtq240y/xkczbfsaRzM9xrZ7pm/lFhWwUhgtQEJVgJhIkXpYQoEkJkAikKiBaLEBN6Ar2AAbk95oDGLiY1awckysuPCx0kWbjN3iiPf859zz+M+h/qVc/3tuffee8//f/wrwvLS1Ezh7xGHHxpOgKsk1wJEIw0MRwB3Ff6tWWO7+R55S3TNcTz+GAUnyuI0r15UCJqc7OW7BESKKwf9zHtSmhucgOcz38GPqxQvtzTa2lNTJZ9a1l/HcISJ7EH8Cj6Pk2Grv8iYeZBV3rP5iW4OMSTKPPS18JxpHp3Y4Avt2aOV28W8uw72zlym5ZTEv9j0cHzl87nZ7Y990VU+g/Eg01XCy/0Vrt7cdfE/mVRnu5H3sm5K04O63k5IWCifBCWRMheWzhQL9rDfSKb38OkFhBrLXDnd6vM3hUVFTcCDHb/Kl5TatwpkJSu6glePJk4ZEtogRyVTPQUYZVXDkpNdLXv7q/jG21XVfZAJZz+QxEYvOK00MZmE+numL4qZ/PdtmTov5B2Uy7nuCjnp4pIszL+7qKPMgdtINnGd8YFIwBcaDsGm3KcTvTN9Mgrn2y0XP6B+x6Dy82A3qSTX1RMSA8w9eZ5554/0cS8v2lwk/sUxwZeGqdw223NuWfZut74SwcRPuFdm6mtK0X9E5Lh7Dj/ayAyu1LQnWG5icDEl4qGHm82aLmZuWZf3k/hO78jgpQ2qUjHJaN1U3a+m7jJzVmmzzCHY9HapLQVlmE2dynZLmd52EO/fP98ON57sfncknn5NbY7jDe9f2V1ykm66d8onupy95/rDB6qH+k2cenp8YCASmMw8banIdUwr0DStFKglzUB/NGnu83/1HZsOVMellNo+2M0ApH3zE2K+PXVDyNWPYZIyXpIQ/kX2z+v0eIJxOht+eUCL+jnbUpQAv4nwX24NwepU5spqjRhGhFxOdpuyhm5mjFRhxq4vKiw1Xd+TquipSscZYoqJrMvei08vLHsdo4JAcMYlIkGoSUrLO9rKHWDnUM3S6xDYujzECTW9k0uTaaWQUrYpyg8cUK+qYx1+N4xG86cOS2JS5ZR+FX6Meiim5wjXJivDbaZ0OA2WmAWlOIQbsJ9LmFg7nbb2kXP2Ta0bP6qUExLCP81/TgNT2oSa1+EcdYx8J1G2hkXKsHyxyjxZbxhe/DzQbBiRU7kOWc8YguQX4v7SR4FuJ6XurV3DtW2cNAzKioUDqZrGhxYcbiXs/olz6YxE5onIDSXyQCk8bNrQ6tFTQXTAFScTtD0/SrjwEjZ7eS1x2lyC9h8wCktZU0jhpauNyWcBnaK/CtsXQqOO/AL+IC+NnjlFAIlU+TXLF0BMUf0DFJaiO8GZ4HPh+8soPJ7lmu40CUqqxDecl1JUeS7e97nr+6tmdS7Wud7ZyFmf7kErj7IMBsZYXkNfOLgSZrjYKSOWwPkB8/hDWMsOhuvoPwimtH/z5fZFEggrI0nkURKxDwNXv+20NdBoFxBn06ZQkjhkff0K6bRUf/FDBmUjJK7pRtNGiyj+Ay3tnzpJhs18I34xMBbmKkExMiWj6T36wvcfPNQ0P3qfbd7vogFhrCyCD57dRzn0thu3eWu1dxltUlxihE9LRUn41BasYiJDZdL/vH/FQddgsHnawUTcgPr/aLjzF3FWj/MGYTRZTPrfzQ0z0DY4pvGbBsx5kwnNeR+FrNiBW0ad5AUjcyGSEnDzbFsWyr/cu8UDE+mqBkAd0d6Q319LSdvH6FCYz4Zjp+V4laW+V8GTOTnPtWwv2WJ6yfSHvwsbbKmY51VVX76SxTv+0z4zUyBkdfKXxdRyqFu62OGQZ32ucBt7jQMNFjPSCYmMDJmUs+lucdDRP4GKrxSX7eN4TWhVC4FRImfy6YQoQr9FLgHTzJzF757X9gQ8Qq+hLT1VDrPckdlHNVnYeGkOEuzTp/yaHALVT7kUDfruEExGIBXa9xB7JiZleFUxMjvCbFDzghLLGej20beYFhBz/5pIx7500+0J+7xo0iEhA6Ny7JVbAmPA41ldzI0K003QZf1y2RiIiCUiz3yAi7qFHTINDuFwsztT3CT8gUKREwp+ueSqFSM4kIL4H3N9yUPzbbUE51+HsrdnvMHcywpF7EluX02gUEW4DWKb10AOmxu8FENnBUiTy7f4inm8XNwsIMGQeDhNK+UhMl+QzAUQWMaiUo0LBb/Hs5zbDiDzg4yeiUspZWesFiwUQsdbTFY0KLqpOsJlfu2FEfDw1uFMZOd3PGDr/KgIIi0kRzsJNjIsAUtJjGpHHHIDItkE6zVC6RQgR+kEiMct4WqSS9LhpQFxjWMGjTT71mHGQ/F0IkUUFND0yTdhF+jHljCPyQNsX4mP1oF0qdIwwPBK55so13KxKl3FE/B4HXWlGQTk9T3qfGCBAFvCMSC6vgrfRYr1xRDwqXZuzKrpfyaQEgbKKErcqkw5q88Xrwn7ziDCTmZ+q5fFFaXoL5wkiYm3D5mXPx3kQKTUPiK+fFQ5JaNoSPxYFhGb/KgzqSvKMMQzNASIMRj6oHPCPo9i+v2dAwIquKCxugiNBamgOEBmkc2zqdsZ1iuqVwoiQJe4Kpta7oJo3JL1zgEgTCoVHEUqS0F5xQKx1oCa1r9gbktwcIBKjBqj0HVLLJBD5DNSkGAKf8DpLWuYAkXrKWq5jEDqUHKE9EojA21ZUcYFH4nOfXeqWDIXuRRk1fwpt06JYW8qdxzPNeYcI3Fc0jNPYoEElT8slKyFV6uX+w8xcg//kza51Dkc5aDYsXCuFiPWlFkR8TcE8ildRT/brSMpTOO7hW/kZ0IUxpPaak1/WL9RYtPK0Trg3SCKyvFATEdiWDwmm7+U2sI4aLOXQsNv58yQRIaZXykQQQbInlEcBK5BFOaF1S1wjC4i1kVR2BmWZfWX5xDSShT0lWTTlUDxsuzQiRWRKyjOcdVJrwop7zCNCTqV6iaccONkLlkgjQox4te07SAul9dCxh80jQvAIU4gNi4ARbJ/LAwIkyd9CWmj5OGrUWEV6iIjzK0Ttv6ikxAP9hIimWyNYK33l5ItD8kBrjIYsrPtusQIixBxk7kHIMrv3HBlbbi7QSWBqv0M84ToVQEgCOIgWB8/AZaTBgGlEbmgNmpG+11dKiJAEcBRtrZRU/jOmEXFZ4sW42TBDOLTve9mpL5+KUk1+2DAgbvP0Hq76CEasitkoBTHIdzMvfERXkM9BNr+JPO9Nioj8S6Mh4o/rCFOKimsRHbjaJ3Cih7PddncmXTdiitszbdFt+U0rpVe9XbhIERHrO7fKB7o/kjKjRIqrwjmCrP6kSjkoLGs0xdYYJ8k1g4C4uwB06QXctr9RRmQrUWSPSWCA5lbEICIu97AZ+/tsVc9l9KS2ujEXDSbzO1eNAeIv1ZucNEBwZgeUESFmvKK6cEfAmPsJY4i4JjsWZ5D1V6j0eaDJp1ptIXCCkJMyBEjPlL4dGXJ2bHubOiDW10RmGeaSm+aUbqzTbVMQx8gXCIhs0hNrpzhoM3LbCCATLkqrG5vlTBIhh90IiJAHCeq2BRfqjVeZQGTUddfL2DcgvJF3477V5FuiIQVmZVrGmbPAVcLd7LMB+w5E8ch6DEBIjwR35RGdWbcsCbj7z1ViOyPkAOKfURAhq61Q2ThKN8OpAd2IELGkx9h3eIJRWcUVtQonEZd93sFrZSAi5Lwc9KSLauxoFb1s4azWdc84JTVaAckQ7diKp5Fv0Y5UpMBTtoDauI/WKzyY0HmIEJ4CfUqqrHRgFSnwlC1gulIV1CZjGX2IAF0F+pFvESW2xX9jAQK05BjDfF2pvc2rJ3QBkkMveiXlMnGHQ2iIrC7Qunx6pnxEk8F1BbAmwshOaT3xiSwtQkPE+rNW5onRBSOkxXevg8y7Vt2nCAqnRXdJMOdRNLAaoJXjA/LEweh2KHw6LlyJiAhQ24P4kSRZ/dBak+hnCHw7XGO7pxqxjgeSA+QTPMdbPrOguhQ3x7DnMuU+uBM2AAJ1ByoigAFcjeeTsPs4HsUMWvbReqeHUUktYETWx7iAWH8jn+EJ2vo9ercXX0G7UxP1c0Rt/FwFDNE4gIwIycnbYTSfus6rf82JPpT7+M/S20WOYCJyn9S/HhsQ6CRBo2efezZ5KsMIKkaPM+6AmQAO9ULZjI4IVEqNRV/HvDuhOR2qNpf/HHPuGWJiYH23rdnQeit7CrU9RpKng2PlE6Wzt91jhgIeUxcAOlbNX6kBETIp5c1RgtPk3c83SzEunwJa3+HVAxrP470HaP9CByDWvIPA/p5FeYhum0/G5Kpo6zlGnaG5I78Cyn9crQURqAWEHUehZ4/ZvFJ9QXjvSg3xfILnkQBpgG62ydIk0Pj2EIZnJTJNtSwn8l0O1LTyqUUiaxLQ575LFyDWWmhQzJDfLCJv7K7Ia77fL/D8Bfdc2SMogGShhi/sAezYoSuclljCs5WKO1+mvGYy3hzqFtCI8o0kwQzNjZZG2aXHuZKakFyZbmmAf8dA4vXlKcGhZhgR5GmwU+t+nYBYy1fogCQgP83yaORy/+RgeyybSfZlh1MNF670pktlBpMjlOjC3Yz/OE8rItaBQg3Rnqw996LuWU2AtHLhDkuzwB3+7ylZXBV5gIhyAeIR2KjbohsQa/Ea8MZpFdZxMg8QUWX8+2CW5htLv6yGW/zXKhyNvXmAyCM1QBrhfmF7iwwgYq1cCue7yddz1uYBIrVqeQ7wUKiDay0jsvkjOC4qOxsiWZwHiCila72GebMFf7IMyXbKkKvHciRXjZ0PIl8UE6DMGCncZBmT7ylPNd4k80ShvEBEmnqI0jbdHyyDspXGbrSJF1dGnbxA5KmkAf+MxtVssYzKTtqDTQmHfh7Z+SFSBT1J6lDQZZZhWUdlZofEmuDHwnmCiIy1deopTdtOy7jQx1OX9Ask6/ojdr7IBeHYJP0E3GrNgfyvvTP5aeuI4/gANrbBrGYzhkAwaxxcMCmERYStGLAMFsUyFVuQAAWEBEYJe0IrIYUeIBJYWBAu1CfaU3xBXCrlUoSEkSDqCZ+qSFg5JOWUSyNVantpwntv5i3j5+f5/AFPb35fzcxvm5lWBXVV6Qw6hN8XjSAdvWgZ+e9OKGe3oh4EhWw5TU52Ba4E5LOKR5GOSYTi208e6peCI8pAkCiKphme3QVxJN0jJkE6OlzQeV4PzdtPUQ0gaJhv0bcpnNEnu+YcHSJjEsorGTukq06WV4IgEhfPUBJfX6W6mtQ2P8x9gli7j8Yd3ou37kP3G3dPYH8/0OPe/dEx/szO8oMv/mLKptjmHbT/rY0EQUVZyFzm83qGPj8qPj2FVAT/Uone0d2VR0Nj1A6E3/nnRI/3HF2Z3lWaDX7w9IqhAq1XgmCTHQ1lweGL5x7f1vzW8Vngap2LGvYfdibWoDtHOl9tBBYQGysGFo5vWrxsyx8dTLFTVBkQAZX3ca3y1m+vfX+wSXZsfnCPoC2Rl9dnM6/+C6s6955seHbHISJZQxIQBTF6BQY5nrm2OL2INzu/i9yENNDX39/bDaulIkMJxEJDubBqdI16lvjop1p+fiTcT9YVAxGhKRRumnQ5fDye151z9wnyl7LGUiAucg3C6HH+bs/CLzbYVmAU8rOA6FDpmngfp/1amMuY1yb5zRU0NauAGNFkRPM6zr7ArEUofh7m7z+j1RogVuL0/GnycHXQIiS/9POkR2MkEDORan7WroETv0Vg/Ac8/GeiWtx6/BOdlBnlnAe67rRgYIJjW5L8Xo4ShASa9ghu/u5KpwULp1wqyhH1GhA6VHMJGfuGLLjYYu9z1WWBkCK9ln26ZNqCjx22f3lXA0KNepYr13ucglj83exWLB0IQbJSWe0hmN8MdbH5yUwzCEk0CSwG+xavIKyajvNKQahSFoU8RTYxK/I9sh5ROSCESWtDHO4oZkEsp6iCaJNBSKMqQdvgT3ArsoK4pbeqQKhjRir6/o5bEbQmV0MBkADKChn8kA8xCzKNEiLK1UogDarhp8k4ZkVQDqUazEAyKNWwu4nViVWQl/CJrYg7SiAlKuMhB36AVREvvIuVBCSGSgcXm1iXMQoyD6tHbAuQIJEJUP0qj23YBNmEbEtR5EUCaWKC6ld5g0uQ7XXIPhMTkCxQ/SoCPymGmmRMbFEBKaPJYPa67GtYBFmF6muo0ACpk8y8nTzE4QIfQ8SGsrxkEA4UpDCe4RC+arXF3PWgqK0E4UKukcEY/UsCC/KIWZCULBBO5N6jX7vePxFUkAmmJUuRUg3Cjawa2gTkixkBBQkwCCKvKQDhSFohXU/qgE8oPWwXDEVCfRoIV9JLaI5fW93bggiyRx8Ylreng3BG9bWRekMZXRRAkDW6s28KY5UKhD1JGYmUXjD/m8lHmvz7NxVpRI5/yydVtRSRvPWQ37zjIvUtExF3yfT4346io9Dk8RyPgnygvF0mWpdORPiMIgpJunr4elLu6QK1e1VMBLhBEipf+IiPp/cs2++ob5qIzSXmv4liyvDkV+6px6FzmoMHScT4N2OiLPx27XBzhJcWaKJ0bSQxPWVWOJG6aNLD/uDu2AVdXlGvJIanSaxk0hSyDtl1aTsvBiTbV43DC9bSpbp+Q29UmaG/TCCexISM0WIebdZpZALlVPWs51LyfdUYeEDfJmz3bsAFKINbCwPh1hUnlBfM1LBi9/qYtpTNT5NMFwI2tRBTw5LM3JJqvXQdO2/O1nc6p1xHjG0Ncj1Jm6BsJhVQ7Y/28YPA1Ou56UW/f3bv6ebS8utPgasRqMsya8mChbpy3RLyTrs2E7EwuhucIJge8Q3EvKyoEmaaGEmalzUavYxvOeQ1WcSuXDC38apHbEYysSlXcur4u9yyuZTYkw9HuD6RDzmiCslyxRul7Vw1kRnLYogd+SRGl8pltWqPIybkHVWVkd2l2/l3SLpdKNLUqPGJTPuAyCHsRCm+DX91bWxNNkklYhGlMRNicsSrTaQUhY+47LxU6k1FZtBXaYiRsJNeVJJg+KK9K1qbQdQI7mwxlbU2JqRo8++n1n11u9ksiZXqbzs05edFq7kxAAAAAElFTkSuQmCC;" parent="BhIajO4M1uqcpxpR8eOI-14" vertex="1">
          <mxGeometry x="90" y="10" width="22.17" height="28.31" as="geometry" />
        </mxCell>
        <mxCell id="BhIajO4M1uqcpxpR8eOI-42" style="edgeStyle=orthogonalEdgeStyle;rounded=0;orthogonalLoop=1;jettySize=auto;html=1;" parent="1" source="BhIajO4M1uqcpxpR8eOI-18" target="BhIajO4M1uqcpxpR8eOI-15" edge="1">
          <mxGeometry relative="1" as="geometry" />
        </mxCell>
        <mxCell id="BhIajO4M1uqcpxpR8eOI-43" style="edgeStyle=orthogonalEdgeStyle;rounded=0;orthogonalLoop=1;jettySize=auto;html=1;entryX=0;entryY=0.5;entryDx=0;entryDy=0;" parent="1" source="BhIajO4M1uqcpxpR8eOI-18" target="BhIajO4M1uqcpxpR8eOI-25" edge="1">
          <mxGeometry relative="1" as="geometry" />
        </mxCell>
        <mxCell id="BhIajO4M1uqcpxpR8eOI-44" style="edgeStyle=orthogonalEdgeStyle;rounded=0;orthogonalLoop=1;jettySize=auto;html=1;entryX=0;entryY=0.5;entryDx=0;entryDy=0;" parent="1" source="BhIajO4M1uqcpxpR8eOI-18" target="BhIajO4M1uqcpxpR8eOI-28" edge="1">
          <mxGeometry relative="1" as="geometry" />
        </mxCell>
        <mxCell id="BhIajO4M1uqcpxpR8eOI-46" style="edgeStyle=orthogonalEdgeStyle;rounded=0;orthogonalLoop=1;jettySize=auto;html=1;entryX=0;entryY=0.5;entryDx=0;entryDy=0;" parent="1" source="BhIajO4M1uqcpxpR8eOI-18" target="BhIajO4M1uqcpxpR8eOI-31" edge="1">
          <mxGeometry relative="1" as="geometry" />
        </mxCell>
        <mxCell id="BhIajO4M1uqcpxpR8eOI-47" style="edgeStyle=orthogonalEdgeStyle;rounded=0;orthogonalLoop=1;jettySize=auto;html=1;entryX=0;entryY=0.5;entryDx=0;entryDy=0;" parent="1" source="BhIajO4M1uqcpxpR8eOI-18" target="BhIajO4M1uqcpxpR8eOI-34" edge="1">
          <mxGeometry relative="1" as="geometry" />
        </mxCell>
        <mxCell id="BhIajO4M1uqcpxpR8eOI-48" style="edgeStyle=orthogonalEdgeStyle;rounded=0;orthogonalLoop=1;jettySize=auto;html=1;entryX=0;entryY=0.5;entryDx=0;entryDy=0;" parent="1" source="BhIajO4M1uqcpxpR8eOI-18" target="BhIajO4M1uqcpxpR8eOI-20" edge="1">
          <mxGeometry relative="1" as="geometry" />
        </mxCell>
        <mxCell id="BhIajO4M1uqcpxpR8eOI-49" style="edgeStyle=orthogonalEdgeStyle;rounded=0;orthogonalLoop=1;jettySize=auto;html=1;entryX=0;entryY=0.5;entryDx=0;entryDy=0;" parent="1" source="BhIajO4M1uqcpxpR8eOI-18" target="BhIajO4M1uqcpxpR8eOI-37" edge="1">
          <mxGeometry relative="1" as="geometry" />
        </mxCell>
        <mxCell id="BhIajO4M1uqcpxpR8eOI-50" style="edgeStyle=orthogonalEdgeStyle;rounded=0;orthogonalLoop=1;jettySize=auto;html=1;entryX=0;entryY=0.5;entryDx=0;entryDy=0;" parent="1" source="BhIajO4M1uqcpxpR8eOI-18" target="BhIajO4M1uqcpxpR8eOI-40" edge="1">
          <mxGeometry relative="1" as="geometry" />
        </mxCell>
        <mxCell id="ERmWKFbeFvTbtj414zn3-7" style="edgeStyle=orthogonalEdgeStyle;rounded=0;orthogonalLoop=1;jettySize=auto;html=1;entryX=0;entryY=0.5;entryDx=0;entryDy=0;" edge="1" parent="1" source="BhIajO4M1uqcpxpR8eOI-18" target="ERmWKFbeFvTbtj414zn3-2">
          <mxGeometry relative="1" as="geometry" />
        </mxCell>
        <mxCell id="BhIajO4M1uqcpxpR8eOI-18" value="" style="shape=image;verticalLabelPosition=bottom;labelBackgroundColor=default;verticalAlign=top;aspect=fixed;imageAspect=0;image=data:image/png,iVBORw0KGgoAAAANSUhEUgAAAQoAAABwCAYAAADmBT7aAAAAAXNSR0IArs4c6QAAAARnQU1BAACxjwv8YQUAAAAJcEhZcwAADsMAAA7DAcdvqGQAABHKSURBVHhe7Z19qB3FGcZXq4K1lGtp/mgFI7TFUmmwBaGVoFKIhYAghTRUaBEbIQSlgVbaasRgbWPENnKpVtOQlKLRGO2tGslN0JDEj/gZa5r40Wuj15jEJtpbc2PizfXet/PsnjmZ7D3n7OzuzM7M7vvHkujZPTk7+85vnnfmnWcjIor44DbgGOAY6BUDjYLEp5NEWz8kenAf0eJ/Ec15mQ9uA44BGQNX/iPpG/JAf5HwaAwojk0ch8R1rxGd+riQUuv44DYoEAPX/pkiHDWKnzPWE9327wQSa1uwUBVGI0ABSGw8mDTCgp0FAqNGAVGn4HZyL2tGKPrMKRRFUfLnt79P0dKngoaGCon+f35Ii59+O+4rjQIFQ4LBaBQoZ38jgYQ4tm3bRv39/cl/n9FH0aU/pWjlO0FBY9pGomW7k0EUkIiuWNw8UBz+lGj9gaQRkH8ZDRhWGc1rz6uXtSGxYsWK9og7MTFB27dvp9mzZyefTzuboh//xvv2ASTufCfpH7ds2xNDonGgACQeez9pBEzWMCS4DUrFgJJyzJgxgyYn45m+Kan76OgoASJ9fUJhnHwyRV/5FkWLH/cu/lRI3PSUUEEtSDQKFAwJT6CADoJRuA7Hl7/aVhMHD4oJr4yyAoBk165dNHfu3OS6U06j6OIfUfTHV51D45wniVbtSQbRG7fsPgESjQHFyDGih/cnjTDrOU86TBPTFEjvVi5fpz/VlCMLFvLzsbExWr16NU2fPj1pky98iaLLrqUIKqXi2FAhMX9g+xRINAIUKiQueTYASPzygdots8WBr0ACEnxwcJA2b95ci6NbyqELjaGhIZo3b14CjJNOoghKpaKl1vO2HFcS3SBRe1B8MJYoifv2EnkLCYwgc35FEWbOsbT2+S86GVWsjmIpSOjIdN1OVqfzxsfHY4BivqO91PrNi60ttZ6/NekbazCxv+b5jkqi9pOZ+z9JikTQEGgQqx0hr1REnv7dyxMoqFK8BYm5YqJ1UKzMzHzGs9+d9z47KAmGhF5Z+PDwMC1atCiJEcSK4SVWFRI/WLmpJyRqqyi8hARGVcx2YwIrlacjT+2/ezkNjU7QRKtEdtEbDIk6qYWi9zIu4mHbiNlBA+paKgkdSNQSFMNHEiWBGVzkX86UBGayMaONSaoOE3hYXx8YGKBOIyxDQm/ULdr5QrwO48eKd8vHMyCBSf0HxHHR7QOZSqKWqcfbHyeNAEhgJrdySGAC6uvfoei00zvCAVISRTjIRbsFK0OCISFjY1SEyWaxYXHeq2ZiWYXEhUvXakOiVorCCSSQN6JEF1V3mK1OKQdMSmEJbN++uEg+cw9NLSCBeQkAU9RJ9P3sLjo4KiSexr3zORQh7Rw6LMqm3yaabnigQ4EhBtH735ukvJCoDSh2HkoaAaWnZz1hhr5d1QiWL7Hp5/TPdVQNWOZCvf+RI/k6SG0g0Zrw7BskOihWnRgAvQcItBEmrjGBbUsBS0is3jNB596wMpeSqE3qoUICJajGGxvLlyiEwdo2ym87TUSKTUBYC0d9f5GOUTdIGH8GRVZbylyjVFzOnDmzZ6qY93ljcnKXGNiWvEUEmNpuK+knUQYSwSuKHS0lgZ1uRiHRbfmyBQk5EYka/ryBkj5/0cCz4ZYze7hfoVTHw6CgLFmbgsS+o0QDop5n9gv2waDeP+wToLT/OjxeWEkEryhe+F/SCDDWwN75UgGC0UcteuqwSrFkyZK4Tr/XRGReaMTr5KGWNKM4LHDPhRNixiAkxoSw3P4RkUulKCFx7/AxmrZA7K1RNngV+XuQfhRGIIEg77F8idEkz0RkXkiMjIyEW768ZStt3ns4npHHEXxhGCallZWqvEoCS5dYll8tivtctwVc2uDWhkHUFCSCSz3g1/ecKD6R/pa5lQR2LHYpesLILicisWEnb8dv6vkARWk1V2Y+oey1BSFxRFgWoBDK1NKliTYEJK4XhXroHyuGPqbPXnVraSURXOqhmuCiMXL7WyK1SJVMxxWRYiIS5bJlN/Y0ERQmCoBMdJDC3wFVKS3sRGzMnP9rGk9KY6csZculS9zzDJeFfF3AaBMSwSiK0pBQGnfu4DANPvMSmZiIbCIc5D1jrb9wBy2rAkxcjzkJLHNjABF/R8qAFQn1maLgyfbSpYk2VP0tl79xyKiSCEZRwN/yyQ+Om+DmVhIdggpBjpyyyR29zL27nKQz0bHS3yEhIZcubRQ82fjd+M60CW6RiUqda7yezLRtgovqN0xAYeQo03Gaci0GXJuFQbY6U9b3oqah6qXLrN+k8zlKAqSdvjTB1en0Rc7xFhQqJK7eYV/mIlAwOdUtR20KDLrdJ0bbOkJCp0P6eE43E9wiENC5xktQuPa3XLgrqblPUtbsPRrdzkGRDb6rDoePE3i5OjD2n1jwdcj1G0zMrYjv6GWCq9Ppi5zjHShcQ0J98CixxSx3kT0LmANxEUT8b6baHZOW2NGrFrahRBt7dgx13Cq/B7uilw8nc3Zpp+wiANC9xitQwN/ykZadvm85I0ZUKARU3WWpDCylBT8CB9iJpnRYqAjFKAi7ebEUjgrb+H0b2NiH3b+B3KuOCa5ux897njegCMkEF7k6NvZIN6o0OIJcOoTRTh0s9OU9pFQEnLLTtTKojo3f6oXNfvCm9MA2vxu0XELCmzqKkCCRfpCYMVeXWoNMOdTCo1D3nnT53VARWT6d2PXbNrWFt0hFDti6Skb6W8KVKssEN69S0D3fuaKI/S1bTtkXPB1uXi+XWoNLOVDCLKsTRWfDPoe62OjDFyRvxS1Sk9g6HykL0hIH79lQAZLXBFe34+c9zykovDTBDSRf1R2Nep5XcJ9D1hxNHT7Hfp/4NYBnnpnsD3KwUxYDZ14T3LwA0D3fGSgYEo7VE0ZKvG27Jdnz7pisAwx07kG+BhDtExslV/SiYelveb8oCPzeHY8a29ylC4b0eU5A4cTfsqhSgDkLtqMjd8WymmMpakRJoC0sGLTodLyQz8FcB3xJ4lQNMWH4XRvy2ZYxwS0KgqzrKgeF95BQwaBa3ylv8Aq+QtGi1VvIIND97Se80Qs2iUUHoQ7XXf5iORPcrA5f9PNKQfGWqHaUJrhO7PQ7PVAU3qBiD7Kygydm7FPx8+vjXYQovEK1ZtCbopBvc7qR6YiuCw1U8JrypDBhglsUBFnXVQYK6ya4ulRXwdDBYl8a2GC5LL2sBkigHNvkCFLpdyFtatUZzFy6RuxrKWYGrNuJmnAe9sAAFmVVps+QqKyOwikksCYO3wEohpxgUAO9TjsnO3kvNKFTm7hHCQaU9puyvTNpgpulDIp+bl1RvCxMRqUJbt+GCkZjCYb0C4CVghysk3dSDLxzsoLno6v8up0Ho5nWs1y4cGFmOX1ZONgAg6oiTZvgFgVB1nVWQWHEBDcrsCCloRgMgkENLgSKqZGj0jQjq91C/BwTzS1ViIrLou9R6QUPlOVLo1yb+41gwBQKJKymHtYgATCgLl+pAUhb3udVDN0CBwaqwVVahggAnd+MpcjWBq++vj5jVoZVgUEdJGz7W2apgyKfG1cUJv0t48atEAwqMI4c/YSmX/rDBEqhHlBadan7UN4Kj92fRVMKF2AIHRLGFUVpSCCoUfmGnX9d3u3Za1WiaPCkr8NqBxy6g305j5yPqaiK0HpKBVC37gll1Xmes2swqG0Df8vfik2EmLO7+/WPrJjgFlELOtcYUxSwrtsq3vGARsASYm4TXGzxRfVjh12AplIJ3QCDQze2IAd9HBkj7MrFgRoQ651ZJ30oco4yeYk4yHqGPoEhDYmq/C11On7ec4yAwqgJrgDGvJuX0eCGDZnbg7OChj+nCGv8wUICk5dIOYSimLH43il2+ni+WLZ29W5P3Xatyik7b+fPc35pUBiFRGvEwRo1O2MX9+qUgMT7L3WD2ffzoIzSYChb5FTFPav+lrc+v9f55q48cFDPLQUK+FuuF7IW6cYVr5gPSpTG8vs3igEj+Ff9KWkKSuZhQxgCGFT4uDDBLQqCrOsKg6JKE1wsUcJKv6wrdlNSkeBf9VdkLsOza856gujOd5JB9MYtu4NVEhIghUABSEgTXNSoVyHh8G9IV2wdg9umQCF9nwyJ6uLRV3/LLHWQ9/NzfnE3rdp9NIaeGm89d9YhV4QMxEXYN18VJNL/DlZWMInVVCB0uu+gd7V6pgiKxrVrE9y8EMg6//yb721DAhYRWqDw0QQX5dWYtMuTlmC7eB1eyqPeg81y46KdpmnXwd9y1R4imODOe+jF4NMNQOK+d8fpwb2T9F6HQbmjovhAdC5pgnuh6Jy+BYE0t02/kXpKMZW4D6Qwvv1+/j1hPxNfTHCzFILu5xISawUkYFvZScFOAUVo/paw0O/0di/8P4ZE2B3SR6DWDRKX/OHv8dTC2n3dIQFwnACK0CChBhLkOAqOcFMMCQaEDcioJrgX/X4g+HTjOCQm4qreXnOAbVCghgFkQd71tU3hBhrSElYS4T4/Gx3cxHf6aIKrm1p0Om9W/7q4vz+8fzITEm1F4b0Jbk1myU0ELH9H9RCc9VzLBFfk8BcuXRu8kpjzl80xJAZEupGlJKTKiHa0XKlwIeT7eaLgiQ9uA46BJAZQhYy+cd+eCTr3hpW1gcQj+ycINVK6JQcRGoEPbgOOge4xsLomkLhyzba4rz/2/mQuSMSpBy5c9uYY3bTjYz64DTgGlBi4Z7eoKxD947J7NgavJBY8+kp8L+v/k09JtFOPuOpyndjpdtcuPrgNOAaUGJj/7EhSlSyWEMtMHLq+VoUEdoDrphsnVGYyKBiQPEh0joHQQXHqT26h6za+HsNu40GiopBopx6sKBgWDIupMRAyKACJ6zcNxZCAG10ZSDAoONXgVKNHDIQKijQk4G9bJN3g1IMBwYDQiIEQQXHGVbfSbS/tbysJE5BgRaERLCzJm5uWhQYKFRJ4105ZFcGKggHBikIjBkICRd/829tKwjQkWFFoBAsrClYUvi+PTrvmDrpzZ7KUi/f/mlQSXEfBkGBVkREDISgKFRI7D9mBBCsKhgXDIuBVD/hbLn9jNFYSNiHBoGBQMCgCBYVqgvtmy4fFRsrBqQdDgiERaOqhQiJtgmsLFvGmMK7MbO6EHU/Wdn/2Ps5RtE1wRb+tChKcerCqYFURUOqR5ZRtS00wKBgUDIpAQHHB7x6I7fSzTHBtwYJTD4YFw6JLDPiSeug6ZduCBCsKhgRDwnNFISHxUA5/SxvAYEXBsGBYeKooZv9pMJdTtg1A8PIoA4IB4fHyaBGnbAYFd2ru1A5iwNUchYREERNcW7Dg1MNBAHLtQhh1Ky5AcfXfXizslG0LEjyZyZBgpeLRZGZZp2wGBXdo7tAOYqBKRSEhUdYE1xYsOPVwEICcenDqIS38VX9LXyHBqQdDgpWKw9TDtFO2LTXBoGBQMCgcgQL+lqqdvikTXFuw4NSDYcGwqLjgypZTti1IsKJgSDAkKlYUNp2yGRTcoblDO4gB06se8LeU79yw4ZTNoHAQJLwyEcbKhM3nZBIUVThlMygYFKwoHMSAKVBU5ZTNoHAQJDZHKv7uMNSKCVBU6ZTNoGBQsKJwEANlQVG1UzaDwkGQ8Kgfxqhv8zmVAYULp2wGBYOCFYWDGCgKCldO2QwKB0Fic6Ti7w5DrRQBhYQETHDfOyq6LlFUh4MrMxlCrFYMVWa6dsq2CSQGBYOCQWEAFD44ZTMouDNzZ3YQA7qph4TEw/snaeRYfdINFTysKBwEIM9R1GeOwienbFYU3JlZUTiIgSxF4ZtTNoPCQZDwqB/GqG/zOfUChY9O2QwKBgUrCgcx0A0UvjplMygcBInNkYq/Owy10gkUqgnu4U/rOXHZCTg8mckQYrWiuTzqu1M2KwruzNyZHcSAVBSz+te1/S19dspmUDgIEk4PwkgPbD4nCYpVu4/Gb+/a+iHRsYnmpBtT6iiue/kQzdl0gA9uA44BJQaWvpYAQkLCd6ds64pCNgb/mQQFH9wGcQzsTdphwwGiJkMiduE+MEbEB7cBx8DUGNjxkUg3/kt0tKHpxgmph025wt9djy3G/Bz5Of4f2Bvz7psBvm0AAAAASUVORK5CYII=;" parent="1" vertex="1">
          <mxGeometry x="821" y="405" width="123.5" height="52" as="geometry" />
        </mxCell>
        <mxCell id="BhIajO4M1uqcpxpR8eOI-19" value="" style="group" parent="1" vertex="1" connectable="0">
          <mxGeometry x="1110" y="560" width="120" height="60" as="geometry" />
        </mxCell>
        <mxCell id="BhIajO4M1uqcpxpR8eOI-20" value="&lt;font color=&quot;#ffffff&quot;&gt;node-hp-1&lt;/font&gt;" style="rounded=1;whiteSpace=wrap;html=1;fillColor=#fa6800;strokeColor=#C73500;fontColor=#000000;fontSize=15;fontStyle=1" parent="BhIajO4M1uqcpxpR8eOI-19" vertex="1">
          <mxGeometry width="120" height="60" as="geometry" />
        </mxCell>
        <mxCell id="BhIajO4M1uqcpxpR8eOI-22" value="" style="shape=image;verticalLabelPosition=bottom;labelBackgroundColor=default;verticalAlign=top;aspect=fixed;imageAspect=0;image=https://upload.wikimedia.org/wikipedia/commons/thumb/a/ad/HP_logo_2012.svg/2048px-HP_logo_2012.svg.png;" parent="BhIajO4M1uqcpxpR8eOI-19" vertex="1">
          <mxGeometry x="99.99999999999996" y="10" width="20" height="20" as="geometry" />
        </mxCell>
        <mxCell id="BhIajO4M1uqcpxpR8eOI-24" value="" style="group" parent="1" vertex="1" connectable="0">
          <mxGeometry x="1110" y="322" width="120" height="60" as="geometry" />
        </mxCell>
        <mxCell id="BhIajO4M1uqcpxpR8eOI-25" value="node4" style="rounded=1;whiteSpace=wrap;html=1;fillColor=#1ba1e2;strokeColor=#006EAF;fontColor=#ffffff;fontSize=15;fontStyle=1" parent="BhIajO4M1uqcpxpR8eOI-24" vertex="1">
          <mxGeometry width="120" height="60" as="geometry" />
        </mxCell>
        <mxCell id="BhIajO4M1uqcpxpR8eOI-26" value="" style="shape=image;verticalLabelPosition=bottom;labelBackgroundColor=default;verticalAlign=top;aspect=fixed;imageAspect=0;image=data:image/png,iVBORw0KGgoAAAANSUhEUgAAAZEAAAIACAMAAAB0LaEeAAAABGdBTUEAALGPC/xhBQAAAAFzUkdCAK7OHOkAAAMAUExURUdwTAAAAAAAAAAAAAAAAAAAAAAAAAAAAAAAAAAAAAAAAAAAAAAAAAAAAAAAAAAAAAAAAAAAAAAAAAAAAAAAAAAAAAAAAAAAAAAAAAAAAAAAAAAAAAAAAAAAAAAAAAAAAAAAAAAAAAAAAAAAAAAAAAAAAAAAAAAAAAAAAAAAAAAAAAAAAAAAAAAAAAAAAAAAAAAAAAAAAAAAAAAAAAAAAAAAAAAAAAAAAAAAAAAAAAAAAAAAAAAAAAAAAAAAAAAAAAAAAAAAAAAAAAAAAAAAAAAAAAAAAAAAAAAAAAAAAAAAALwRQnWpKAEAALsRQQMAAbgRQAECAAkBAxsCCVcIHgcBAnSoKDMFEhICBq8QPQMFAQ8BBRQCBwQAArMQP44NMQ0BBDAEEbYQQAUIAiMDDC0EEKQPOREZBngLKiUDDW8KJxAXBTcFEwcKAklqGXQKKaEPOJ0ON4kMMA0UBB8DC5kONa4QPZYONX0LLDkFFKoPPJ8OOJMNM6kPOxYCCGEJIosNMSkEDiY3DQgMA2QJI26eJXKlJ1kIH5ENMj4GFnOmJ2aUI2wKJioED4ALLQsBBG+gJnGkJ6cPOnoLK0oHGjRLEroRQVAHHGKOIUwHG0gGGaYPOqsPPBYfB3CiJj1ZFUdnGF4IIbUQP2YJJF6IIDtVFBgjCCk7DoMMLkIGF5QNNH4LLGqYJC1BDzFIERwoCWCLIaAOODwFFTBFECAvC1J3HGubJFIHHScEDhkCCTVOEgsQBAoOA1V7HTUFEx4rCkBdFoUML1qDHxIbBjdPEys+DkAGF3ULKThSE1QIHj9bFbIQPoIMLnIKKGkJJVmBHkNhFyEDDEUGGE4HG5sONl8JIWSQImiWI0ttGkFfFhomCR0DCrAQPlyFH09zGyQ0DFR5HUxvGpoONm0KJksHGmWSIyIyDEMGGFsIIBUeB2oKJVd/Hk5xG1F1HBABBnsLK4cML0YGGUVkGBchCEZlGGydJVZ8HWUJI4YML0RiFzNKEWeVI2gJJHEKKBQcB1B0G1MUs30AAABKdFJOUwD3Eu/8+vT+BAEG630Wwp/lIxoMr9ceD4W902UvWuBRNJaajMkqkkQ8c3jMpwm2xVXdN4GyTCdJ0DGkq9q5amxAiehhXuNwLMBvWdPASwAAIABJREFUeNrUXLtP21wUh/IIlEeA0hZoQcBXyqtAW2i/9EH7lb4tM2TJkJUhQ9Qs+Q+IYCBLMkRiIWSAsBBAImEgIBAPCbHAlBIkHhlAQoWFlwSV6JeHE/teO46vYzvumeLbYv/OPT7vc52WJhEV55fnKTKLytur0/4iym0oK+/KzCzqbLqX9jdT8TvlN9Xd5s6ad9U5kZWvpQosSs+aCv4SPkryq2KoFW9eRhZznn+vLVe9rShUvn/5d7CR87EZIym79NP9tNsfMjEqpSsfylYpyJ/Vr7MA1FntOWm3PnZkU5ZUH3PkL5D6txhEWW8eYTQqrGxJK6isKSzKUmSral/IgbHbT5UV2VhmV1tNZUFay6c2OuhHpVnw0tt6uSvIY4wrZatIQ4YVNbakGPmdpjwSjkKVzZmPxzJUk9v1TcrWb4Wdb2qayjG+VPU0pcaqsog38m/5taXlbYWtyqb627KQx72aDEwQKkxdFPa8TRgWMmpkEJI1pmOCUeuDsg5VXnZ60SNl5S2Rcd/6pGzuSs/OU3WUPSgXjoX0L6kOTZSYSJSuLBYzPn+dJRbw2tyUSqQGE4/S88XymTllWSLifhx5hmQyuP9v/pO2qowsRVZGUcUjTFQqFCeVLBEZdvPdrnQFpsj+/OhJ/ov7Ihvf94WZmIRUJUZW/LBIShYy276L5xILarIxiSlP+OS+OkNqJtJrSsRx4o1I8lCrGRYX1nWo8eTDlAvEOHzIlb+42fAXEdz9rVZERjZ3NseM8OIa7plE1JI6YU0WqkCcxxo/vObt9S8Z1Ei3aRXcnxSoUF+tbj+O477TvR5g9RjHN0CZ/EhwnyIho+CXXYlgg3Cc+zg+D+y91r3pCzLmUCNuh0pgb9Ki4mE/Z/EQWXd7tRSGfwaXPFTb5fUss9/m8/fGpvz2sg/JKEvdh7L2/KbG74mcun6XqtbGQBDsxRxFHL3H9jBTwzwiMIEqdy3Fda/qCnJeJ3xgD8OaSxOGj1tOj2JrY6GF/lGKkM771zi9cPzzk9vt3PKPbps9QPEUs+Hdn4gt6PwXEX5wG8cNAEjZcu9h9aviZARz711HlYLrK7Dt2zHMuk3g4gQepUt39DWzhK8Hz0h3j+Mjy5yeUcHPzVff5ejCN3B8L3a1PBIGOhDd6UmPJsrMGvh3pgWbY8ns5rpTRR1f+FW/GloVSFqpM4fA/j62OSlv/G5MJPgS4T4GI5cDs7GXK3hlX6XuTHw1ecCDkXcsCkJ9VG9fEIg3ejVtjeD8STiUS5KTeYpWnV0HwnyPD6HslaKzAT01Ry9YGc0EYovnOvrOO3EK7epJHQnSCeFE1eGrU9KOeVzxH/IaVenvPGGB3LtB7u16GAah5D1bUZRhHfFuaSh8LESdzsRJH7E0voy6W0rE4KvkLg9PvmwhUR/4J0OqYqRKBLcG3QdpyHBfxMEPRa5+xSzeFpvjbEarrJSwhSTXGk9MUT3U3TaOkChXMLXNArARdorOYR+FsSH03bqLlDbef8YrOXUBwMf9Z9goDpIvagzC1Bfm30FcDUZNyDprcPkMpbJS95kF7nDwOVFXsEOAOA7v9gwF5MDECMSEH7tZ/w2s2Pjs1luUeLiDNaoKOrL5qYPf5sGlkyubm2KK1TMQ9kENzkoDQfu0EPs/Zn3kNivB31vxRZLHvbPVwJYPXgUfs05E4IMxSL1BW2ZlR40PQtcWSuTodV9feXZ8P8fNU78Ma4cmFgCl3AXyL3syDuGZ8axsE/u3hKPSqP6CvDAbYxLBA/FFksFVJA1sdZ/T0FMWwz/nKFtsubFpUJmYIlyRc/YEfie32HbyX84SYa9WdzvomCx/poNRypwdWSI4YKJ9JtKMsWhJxituvdrshO/VbljpAbPUh87DQPBNmnMdM/zlMWum1ca5wZYokTIw4hpZQ1cRmJaC+q8l3rNTlvojl/ydtYQ1TLwPwXhPvZ807JGVJUbF+pMg9eVaIHqXsK4bwMUiA4YtRn+zRFxViSOuEraKyTXleX7RmPFoE2wk1/QqcatWvSsaFxOL5O9pliD4TqJwsYIF/xj5RjtWRWNlP5FAiAZwYirl0P04wSUgTaymsWBCDFRy6c2DnlidY6FfCvSXCQXCOdrqBPiY83qNRqNer9MtL98MDTm3F9y9qzaDFDzhVieBwrBDK+Q1svLQTuNeexlNB2/6JAEfmHX1Hi5MOs+Gjm6WdTq9PriNXq+JykgrHx1xDuAppBkiRTnAN2CRZP7HFr/TanLaffyCyBjMqeRIs0AB9YajRMDZ3ZVU4ifiYSOTEeiKn/OW0MKs7pDnG6LHupLTIh8/AsZa6o2UcrAREsQ0ERZxtMK5nTSb5Y9W0aXxgPGTSS2fWOsh1Fezp5SHQDeGbRA1P4g+xmHgO00g05HqB1E7SR31HwGwuLZFcz/H6zulhNaxM7LmBI54MHd+immjyG4i2nWn2AZDva4qzlWUD5ANXkoxG1HLbz2DdrqDET5tsFoXLdUMTmhSa7PAHP4D9zllKFIZSi0flK4LPLjCdOjkEy3MmpIJfBycwlEgTNk8YaqTyoF24Z41PXW/nwdLxCAX9AEQ1xOE/kgZPDJmlwtTcG+oLEHsTuujpZAG9CCwdoTOG21WYF02XDmhWQjYub+EsS9b5YL9HJ7j4N4NLaRFj17ZsDWoZVd9uP2p3pELco0e3tVyrgJ5ylATc8iFLzDpDbpHcIargT5pLFcfGKQXHNMRpjkUp2wY00yyRcCweh/1ywY4w4idKpkuu2wiSPwAqjk+p2Cvh23WiGxg/2ba1Xpeoa/ctB/uLVKV5BvjMLgsaJ1xjo6TRPKYx+Pkw9sAeCxI8TWuF/Fa5IPayTj3z+mkSJx+l4/9gRYJUxYPNHkaN9Dakg6T5YL932eYd5XLFN1XtvkmtpqN449kXhQ8hpZVEqf6MykVHuvuZiKHFWDeVS4pSR04qzxvWLe5eg/3phP7yF9u16U0FbADLWPiDqXr3dK4dc2lyz2fuMg4sefeW7UNG/ZdqPNBt8Aq3TiSOTnyzkoSlIFTKnmRL8TcgSbmxiQp59q8N39Q/qAPGOK4w8WRgN0RxOGZgA4b8s+Ivg/joJJUhoE/gFRkUHQYM4tHmNGAZheAytwzTrFWLcgYYlNXc+7F1Ie7Ys9LTAAYv4WBN0urIgO7h2psbhPReY4ALZJaThKBsiw9agRpHf6BYXO2QSmVpJjejFb7RLZWcxjWM4q8OTcAyP94VVF6kdFe2EL7te2wS6YkocL2P1gy5haJ7I5QdqGeQDfP4PGxCo6VxkooQhtFh2xeDSlnz7R4bv6gG7LHOdBRdfECrZHpcB1n7AD9TzcTt0AZlQQyyNg5H62OFNa2t8RKUtxQcatemtKo1RBJvhf4VPm3eJ5WSHuVmfjESGK6jBzOM80eiLI1YOL+Dzw/Lk4r1zwbiV2XPXz+GjqllPWVexOxXZAeosYQOYvcfXgpRmIGHLJ+lgsaLZMILTbN/GHEVHrPeSXC593gpjahfKSN1kXkN1ZjHyUq5zfnwu8QWAKGkhGb8N78lDghrV3jVb/UrMEdRKTvCdGnAt38BsrHXYSmmlZ+CrxFYMMhT1y//nM2mmqv8uPDAo//Ye+RjoEztBF1POP7qegwuHpV4MiL5RC5UeDoaizqAbZ5tu3NR/RviiB9aoeJSxPfkezdWMvfLahDGeVwqk0I2o8dMDAe87zFzlwSpxAZKkTRquM8Tzz9w7FG7FBAuOrwVHyJ/BLOnQdiqtgzytcZLjF+WOhTEhN0UUi8CxPjrlicoXcIVvPSxxOISSixW8/JZ4zxdoRm5u8MIEzQgbG9WitE8W5kmzTymwIFXnFPjvYKc3+730vOPm8IgRP4uuNjBImAw/H7W6u60J10o0m1rQ2kLfWuC9IAd8STiCAjmPZ1ErDpNBmtsw+HA2f9mGFDzTohG5/e05qj/b8Pkt7EvgkSj2nYLqIjuRRCHqSp6Z6+SPZ2Fp85ZBj2+JywCn+/QqSKxBRl+s3rT9p2aeKdT076MK51kRIcOQVLbk4AlK9QcnYw3/oh3OnWLS9FJlfJViGdcT6Hl+Rt+68oKE0OwaLDGSAGzkPK2aE+olO4Am7fNKW6g9oRZe82COTYNQZqxcx1IRjrwMFpNMdOHxESsv2zQ821bzzJ3GqFWSLTSVkWapfvRsiDymCTTYH4TfxSEYdMNYvUhGkyiVOOi8wSSeL459I2NSUeFnJcYJH/CSvGgzGLgtbtgJhjj3fiaWCWCG+sPqAc6Ba0sQOF6unIn/ouYzyjLxgde6nv4jXP4MjDLBGesWGfjZotmIQdUTVAzZF89O9IV8T5SJhQHh7wyqYrXi7+F7NEeH1ramATqHWsXvxP3bUHVXWc8YMoD5Uo2khsKozYJBqDUSdWbbWNmlo9x4teVB4XEx8oEhTwgZqoiIIUBS0hCKKRRy03jB0eGh5RUEEuNI5mgjpTH0SF2OhI0dgmQqt2sDR1Es45u+exd7+9h9/fsHd3f2f3e+73UV2uNFo1mqC+90suFK9nFDpEbqlOEjfmfXpnpEOUtrO+he5apcXbXIha3QyTV4+lm9WbLrol+OZUe+9mcidKqjieVEb3lUNglbQmtg9Z3Xi5BziBcmy2TlRK2qLb230OzYjedzzpVpHxv6qN7ipTGqQT7E9GCOcu7xNYQ/mJjOSYrNR5WVRpqQStihaxV7+McuJfrqzFzxiOFIhOmjm0s6wbxQ+mmnUFIRrQjJTrGaNIfGGtp503k9TEE7+a1vT+zVZEecbpJSI1JOyaDmGF6cIQpX2IwAvi8F4D7YqBlYhsgIGkhLghl7uKdk7JnFPVYiea5gSJ2zhvvOb0hKNiX+XJp7TXVtmJmF5vUkYGI8svN9Gv7dQuvjjMZzVK+HyV+sqqPl5Jc6A79B++FNSYEPMjbjYkFnh1FVej77W1z4FAtPjuWKnNwVeIY6RGm8tT/P1aYCokJbV9FX31fl13JcSVWI44K1bwp4pUsfwzZ2o4JrnYxgUWDR97epX4gOSAPngReeCm09K1QCkJrBcfb5v65ViLzw5Sdy/USbrqlIDW4hF7tch1rWmQ/l81AW+uVwmTpVfjGQlr1ydBEitAl5ZvIk4LUgy3Q5fiKBLH2PhOZaXrglL9b+WZHpWopE1XQBcmPcx2dKadBOzZkt5cVvGXa6klPCJdJomCXRF4TZIxUQX6jjVQWjdvtB0dEeWVtsphK420SIR1Od4eLVYuko+PtRdJyipFwdZkTk8grKrFaSvUynfCVl1/IkkvSbyv1xZRcwC3SJKiW2/DXsUf0/Nqfd82VN7nJrEDdAW/l6aOliGVoALVVhJm5DxTpFdIIWyFnTrZ3drPzmbtr8gbbprzQNcw56Fks3MQYfj29eo9Uk4ixHWq5Is1X4NdywVZ26Q+b3J2YlhvhG8VtsxGo+ReCbsn/YsrmjpCyt8g3Yxiet6TEuQurbGc3fBxkq+1ugV0JanSDS8RK0MF1bwmJLYp31g22LIQjfKD7DKBo4DxqBZdJaDXb26ztHBnd33iZhivEebuEfeiUjpPK7XqWFVyH6P3ZI4KPFD9EWmHPiU6/GOsPhGYZ+K140dTo1F6sIpBrZAbCDf86704SvBFuuXLkljKRPMza7FRZ1NhWwtGxoLqJ7mZqM/GlxYh3C+Ra22CrW12X3o3FabLckY0oTy7S6eW2pMW2BKOl2vIK5fqbmxlKS55XJ+Xfwq8rFmd1Nmek33WwhPA/DhbGusO64CefXtHfl59ZklxGHE2vBJeFX+rrLq/Ha3mgXCSVWHmQJG9O5MaI28y9W39iNurYAipzma0AIlPayQ1RvxcmOrx3RTWTghCVrFqiCixq5z7cmCiPYxVaeNKAEpWXmE0+fuJUIIdEbriC5N6KiUri9jM/ANZuGAyRUY4ed/g6ntsFtbeSvnKYkRIhcyF8iuahCBaDHYJeDbSpHIlTULWs5EhT+R2E6Z5IzFmo3JwqphcXakUleCTTL6iXCvCbnqRowxkV5LEWhb9rbITaRHCpMtxyqNqUA/KDwmOs9C3wEMG9uIdWow0MbAJo5FG1FQ36oxwg5/DiMpo6H4KSRZajJihr9nAezbkD0/14wDg9xOcPnkVlpNoenLkK1g+bmJ09df6ciBwn4ZbaOe9HnFpUSu8hVF4MYEC1/7uHBR8nHFL/a6xB1xaXddWO9g0bzRhfrPfRA4QQ4ZiVtpQ2RMuLdp1EkSmbJkZ+YtjBnGgcP+12OuYaOFNiaVWQLsr0EbVZAcUeVfyak6aeIso38V5BgcOceXZBvAWb1SPCIP2b+miEkGeHAN4ixWtNtgFpqyny4gN2H4SZzw8z4IQboDUDQzqKvqWtu8X9F1SkcThO5wJIz4y/1YxXDLzB9Qju4lw6lZqiVQtnMiEET+5CmxuPgW0yEL6ESuojmNtCTJlq58bE0akDaOeKTEg+lY0DwAIw/1KHipo8AIbQjgPF4wf7xrteOnlMAhGwmi75IselSJ/yLkXI0a4Ubi1mprO0Vxteg4PAhvNZJrUWpyxrrPDiF1m4lCF5XbW36C01pQ7PBBqaFXLLbAqBJ3HuDNjhOv1U+V8qLIOQxPC8wk0TPfGEkVbaZIXxxAeo1VS0ikQ0swDIoHCKclT/IWf9+KYYvAA4E8wPYEHBYXEzMAGhfF9/TjW8PktVpfJs5+Q2zk8MCg8Og68gMsA8J7AOQB+o6ajZEhCNAVN5mkUDw4alTdyrxYiZMnAmX6cY+D3lrxuYDmF8lspVTwT0KhOUyAVd66zhrlxDsSQUbOkj3m/e2Rn9KrDxjOCvY7r9nyJLdJn6OwhnMMhTwo2fVxfUUTsj0jgGYK8XVhly9kmmSPrZ5wR4N4PfU03NZz99mZddqWugESSNYxnCku9Ll9wSmV23dOH1uJSVIND8pKYlDFcZdFRq0oLrS1a7uyiTMZ8fK8a1ms5z+mnrIWlq1SmN8IgjPzOVcvCo1RdrkeLLbxDYGlQdfxUaMl0dfU0CCPonGAZlFddVNvKOxCt15QPSrZZwyADjEII5+GsYbpK/bmf5JebeQfDVPPoicIUreojTPcwDCPcK71Vp4utXpfb8tjGGwStmRVY87ZE7Z/trwpEE2P7qEhPZL5BytH84lYzbyiYcsryC5BuyGhlse7kwxkKIwcqrVKarpJ7uS26qtlmMDK65Q3YEurzOy6nSxNNFCbsPZ4zGLyG42+u0kxrXt652nN5Z+vLCu80dUbxPQRRttLmhpIqa15tbdfsrVXl2BvrZS/OePD0dXHMPRO6LfbixdjY+cELHUSc88tDOGPCa8bUPgw3Ym7skfgHmzZnCT/gnWPrIj9dGsqUDqc3hvlxBobXWF9vFvuwMGjn4sMCBuEZB75kQ8eU4RMGc4aH+wjofQj++swyQQUfRa5+G5yQEW5cD8D40bC7ELBve5agCdcjTs8FpmTSSMPz4THAFXQL3o15R9CBzTtPAHMywMPYhMxwhly96ZOtgl74/zsIWNF60cB8eA4FVa0ubRGIcOsvJlBOZnkaVaLPBLVHdhPy8T9sgeXEZaa7EQkZ8hzkondsFezChqWgx+Q5Ax6Tt/RIEFNAaOiStADNH25ojL9gLz4HlfEuMwzGh5eWoJVpW9CBP2VsX7vx8LP99T8ft3ZdxM79q+cra6lHNgoUcPguqIHymqE8W5NV7fQv/7ln12H8bs3bEo/drtA/CJSwYbmCE+DE3t37k3f+7bOILkR+Eb/gUtDyJbooGTfZQDqvk+JUF+17sFl9uxZg/jvokEAN85IRF6VpR3LMYvQEQ/6ckRyk2U3mZBQ9uK+v4uG4u0mbDIhE33Tx/gJNrJPv7x5Vh0zEvhPaRJ5vXyMQgqzz/wxLDmhXkT5FDZD2D4EyPtwh/Q1NToDwvy/V4pF53QAWvOc47PQuxizTYVujVKETawXqWHZE8iNab8WQyL3qJ2XcSw73K/bDzS1ou66Neg8xxPJDAgQkEitC+38eS1YV9s4O9j364GT60l36dikrFmEVXhdgsFP0Myt0qdCRsWryfYIjCRmLia3HrtO7Sf+RD3L8vACFf4l+aLE+1+V7KpzQaFVFmZC0PVl6tyg8QM5qiACHuyLqdapz/hnK5n/vYQYj5P3NujfIX+51Cv5QgMQlXfqvzK6JDzDiKfFBErIkg2B/4mXDvL0LlBBh3vHuYclw3f8f974iJQ6RJeORQn0vyae9WK7qfyEA46O07rPO0j9AhJLa5eQAjcsTqfYuIFiaEBcsV9UEcGR0/71kggEOKQUnnX/BmpBeU1Deugd2XyDPBgqHZ0Q43d1Zc4ZgAP94BTN+CuMCA26o8NQ3W+0Xsv/HXQaECGu672caUYRyu4IXcijbzCFUStYJsg/7r4gEoBAWjAhfizyiRNbPGoVMvWksCZmISAGKjSPalgjEWg4wIURYI3JTBZGIQCFkBZ4Shs8XBiGk+kWyON92VKBqKxtGBLFoPkjmuDyNl+6DWBGCKq81n8wpuAllaaX5M2IkRvy78WSWzSd4UcIqRQVRgi6YTIZsQUrGvYwIEeIk0bEYolGy8MbibEZpQPK0rIBbZNGjbWg3DCtGBIl/au7nZKcEK0tc2LwreUMeeiXLTdiMUVTYMSKVAQsXEw1zHptRMZWJO0v+u38kWsdGnFd7BzNGDspE2Caywx7sQH1rsLzQ2WkiSRyC/bBCmTGyX+4o3UA00C5cbpM3/Pur/nJTnUjNun4cr8ivYcXIPsTnQBbaj8St5VVwf5Y8mfQMESHvKrjp9rBiZDXqAdcxoqFwOjB4FeYXZD+5j+jKUiKEnfqLjAUuIqIkZBvuZRzwEZFpvt+EUCeE52+xIeQQ5pkjmdcRkzrkAntI5B7GCJKduKj2VoQNI5/xNCk5iBkNtJy/l+yIrCCYepzq02YTG88W9k1JMIl4D8G45p0h31f/hoZTMFzDQ47l8xgQslbhwQqJXRKBGQyyoP/zFK6XLYu05DSziFnt/i93VxcT1ZmGx11csVur66o13a2tXavtRlvZ1rWtxrhtbe05mZ8MECAzA4MRwhASkMwgIAgmJGjCQAJkCD83wg3CldwgNyTcQMhAk1W8gis10Xgh5cpe2GQVg3XOeb/vvN/vMftdkjnnfLzv9/P+PM/7Ur7fxYO8INyOJ9UFHE/bThd2s+QiDvzPlWZlvIrptPlWeZf7IWUaOSG+RVqD2EICCcUKKXY4PPM5gnUELMRhZbwEWxka5tN2AU884/TU0GPWka09x/zOJniTbFJlAJ+ywd9ZZ7zIUhUjfEGlQu4iTs5nzG8lxOVVka9sqcMF+VLIMHgU4ho7UJcZM4xrhpBMVOSvW1GlYTasQKqflf4aqValkDbkDNZY4RBwhiFLDfXqezELdXiCg5I8MKxCHwH82qhinMDPOo+tXdbPMOXW665wscSXFXjvg0mWYhNsGJs6uDLhLhUKOWJFXt9imelN3ooL3r60ZIVUdDFNIJctW3MDDjeqIPEet35lhCXHJlA7sbBaJlqohrm4U4hpm47CLzmtIzPCcGitilUZjS/I0kfdJEclDiZfMQDvwC8UaOSsVUz4WV4XLjpyfjUlQR9D7UG+k5PlOHgIE90VoOGt18gkdornZg0J4/JT0XI1iV7+SjW9+AXRCb5gs3wExL940+tDVww5IzIxyh+jr6u8JfTxUjSTOw3HJeQXMbdCSyPICpYXw4a8Ee2d4VFK42KBcCGnZbTJBdvWPyj3RmK46fXIrhwerOq4wGJ7Fde2x6SUBIy2Ct2a8uO/J3k4Hr52Q8UINbTUIm6VQKK6Lyav4q8fCVoqAZ/eLVshb1mDWpiQ00qVoW4UFvQ9Hk2ASJi6xMz9+YZc6eWXB1BHZjH43SzZPuLH1i8sOU9tSXX14/X7LBwrnbj9oG9+frKvf+3adDJeqK74XxJVPAGONspulXjUuoWdl8tq0Pi/G2GM/74GPiq7NIcV7pvrGHuffNOl68+d7n3UUd1T3zPXcbdvIoYKd0UqeXMvb0vWyDeMHI/m5ButjanexXu2Xd79a0tVVMJlUgs+941kjVgbJsw7TCr05mrDW9ZBDsn5xlqcKs3FnAJ65VriKNZW7FRL0Hed0QPwXy7tH6leHW1taprpqWzpK32ibne0ObK8m+/TwwxdDoFPH+iD7ZAc1bIS2Otp/1EZ02X58LcL9oNgqHWkQIHNVDaK8y4v5dGOL69D+RfQ2MqSWwNim/X9FFDCKP7Eyp+YoxwBxZ0DhXKNVwaa4fAiDZ2cHGSHbcllt/9ofT0xynOuD+1JTM85pgdT9WXSuiJMMULifOMUCH8X7WW3wUc+lKqRQ9bXk0KhiThSPpefIaPriV4poTF/OzuIglb+z9tPLp0Ll/c+LlUj71tfDx+kvjbk2R9jyUA1ronvkzAf9ivwlOzmxhNsgBS5LuIP1hMHzmEjr/RSVtr4mKh308Cd7momI+gjbQQzYRH8udwCENYkexTaICO44yXOA3vvEbnjI0I1BjvJny6D7ZJVDU77QeshYJ/GBdw6Dt3ny5g38jfZya81hUYRGfsXfOxD41HkUkT3O2lkuB11g3jvcNe59t3ljK53icOHF8m7PwlYnTAzZb9UjWx30MjCZZyBJbRaS7hOrtBFU3ws5ZJ34N0ALme1XWmgsTDTQMWdKN7bgoXgyzkSLiE5nAda8m25FaWRE0rZVU9elxPSOI2Kdz9qjjNf6iWmnJGieL7ea+UIjcjF/lpxD/5Xq/3mGvJ4j8uodlIXY9SIRL5DB2XhReZXHO+RL6Vq5DMDjP2mOguwzluDHED1CptK8mRCuHtoa6/rUZGDrfWZWnqV907neMcEGmXubZeFpm5mud6n5VZ8HKXak13zG8xJOH0qtfrZTsH+rP4KeWIZw4e5oo2m3DFDN/G9pR3PlZJahX/1p50KjV/W67VTplhW0VGuOVP2WHC8NINTxINDovn7oVjP9chy/otpAAAd/UlEQVSoXLFgYXnTpvxRIRD03CIPIHRWSCH5sjvoBXA2cJeSnjJPBSQhjbL7gZhCaqVLZQxlcLeYSka/gCwkNYrJPimE/FhVIJU8jLNerEYjKYG+4rul5NqP7BfaIkpWamDZ+cMjpqJRJwCePSgB/fuJ0A7hq+KIyFk4frhwWJVGzDEBkMxuUWZP9n/EzKyClCKpOLruKhthdQhIZMteoZNrzwExRyQ3rUooo072xIpCjZhCLIx3BDzF038U9AzH1AnFgd14Q6VCzEYhEO2fuRvBncoSxBu0KRTKDP3TrUo1Yo4LyWXzd1z62PoPUUROqcrOLj5q1nJKdVOZBjHR8FSczd4uqpBQo1KZPKJ9+7pihZjdgnSl/czVNLN3iSrE26lWJuW0CNOYao1AzbKZxuFs3QoxJlTLhOI7R9V3wgrkOiQg4jE6O+gw0y7JPiyskK5G1TKZI39cR5Vzqv09VfECoHKJGnDZzqKSj4hyvt558Ze2XIRGHisXyRD52FrUoBGTAqlt2AAMUaGYB/lpoK+uhtmXCz/1s2PwdTmlXiRkMoGOtrwExMmLUfU7gmullyKkT7kLMm544L/H1eudQjszGkQyT7xGTC2DVDstlAH7XiB7k1uOIqsEbYI3SO/rsbsRukLKdEik1tWvkzdJj8XBJ1e92/Q1iuC2A1Z8Jh3SRy2O5L2qQyLnSBtVU19eE5ZB3GroUYiy+xDVsrM/h5ed1XQao7kDBXokQsru6uqDNY41KzqJ/iSiZ/heeNXZL+qke1GljTHr7ufNFFQ7LAglZu4RYz6OrJJDUD4ELD1BSRrd0iSRFjdNrRfjOtoX6iZlPbMcAsF/gC4RuBVHgAxoXNUkENKiSOvSSLfX8V5/lQsm5dj2vcvESli3JQn1cogEvcKUJoHUENIyprZhd8q9pN536SQPsO4YJF9SJa0ekkYe6ZJHALYuCvVpxB7JIRfdXSG1raXQqt8FziwyI6aZZPoOahMIbMLE9WkkbTPA1yhhH0L06cxf0WxDg96MOeyqf/ZiwBZMUt8EbP3EDVr9rUFClIvIGf3abmdRG5ZPuBjmezlirmuk0vpxKqerCfZpsz4mpHHtvqG3h/Z+uK2Kv0ifPApcNb7XrS3rx+lJiEUmQPD79l/SKUr1cHZdozzgXRrTOAPT4mcEHX5+B1bJB2D4JMceDKGn4hKuhjDIGvmvTo1YCKPnnWJxcTwg2NbJzQg7nD/FoPFZo1EcMJJtWadGVhk5K/fgqwTACx351naJONIMoETyZZ3igO+RsM4pDKKNX2oe44wdov2T7UeTrGfo+hjQKQ44j+1P6ZxDIcPNux6bhw1EW++x7DO2ve9cYxnKNFfrlAYh1d3s3j5FcCTgPEaO9Sb5jv3MgiNbF3RK47xbaK3XRh7aQdwYMEvLWhCNq8/3A8DH1ykMk5DC7tQ5h8zQFoYmXgRGzb9yqMMYxNAqJ10NoTw3Jb1uIZNeG1fZFwPcoeQTevdJVEfZR+6luGnReOOBzklkBlxRvOQ0uLczesbssfISulChECCHd1+nMEhgEK1Ouy/CnlAG40+bt9Egczg+J4BG/lWnMCpITKKAzlmE2TWyAqYR/klpiRRMo14MVFG95J6Z89pIuGbwIUEXYLGu9yid9fpMXo0M65RFqau4X3AWSI3UgDbJ34mZKn8Nr0aCOkVhEukAvTpnkUG3wha4KKBmrrZak7lVJq9GpnSKopwIhtEaXMtAjWGL8oBX4D7ioTWOfO2Iu1YOhZ6pM3KQ0Ui3HvlQcZB2bNkKXmNNlbvuOoiU6igjGqdxg9Vnt+txY2x0qH6P18Fqdwvw+3JQijqVuqWRSuxT9ZRIyk7r39Hll+xRlGmNkhikYMH9aX3zyEhkPsM+lYYyV1u2gfn1INq/euCqRippfIkKffMo5UMPgqb7UZB0iCfZzrp6alGLk2g8tmIcnhwpkvKytnwOt3tV4ObNfo5a09SrL92fAePD12O5CiIg1uHw1r/eRL/UzjE6r08jDiW2tIGPzQjfsR0AIRAvOFfHLX97gp9Lrpuu2TRdI2FdyfYhXocMxMofAuK+DLUaQi4SBbqdCNwzmiZylRcH00+K/1qTVfgSTBBZQBvEtMWJUa/rbq/OXJL4+h+grXgCiMTjyyV3uxkHdy5fWaJnIhZWPb6FWQkhIp+dxU3iGwPeOK5JIa3OdUA0WeIWv2IJ/WAdyHDf6vkLfzx9AXhjmyaNFCBKszTpmIivi/v6As33PTaiGwNBCToIZ/UopAlTvr1Kx0wSDIweR1N13dg6xb/X291DQeOKierYJB1MBA/nOMrfPF/wp98ggr93RYdCLuI6HMTUFz6zFWy8JiY/421bVIuhwmHSNTcAW7eyUvlMbLEcBoLXAziy9aXlLwy1pEGeY54GhYxhm4BE61RPxVbklqGSVB7skHzOjW2H2eQa8ro+fHcx5dwJeyt2/CIAndyznq+4HYolOOjarVwjlWiFKC8rNWxPl18V08gBGyge77KPu3R210XxGjGW1QLIKkQING2w076PWyMtLhUY6DVYRp/SuSRFLlJQIzmeb7ltpYeGK8dWE1tvL69KJDLEVm4QW9I7PDu4NUK6X1vUntzLBtsIKVwhN4TQe3kwis56amEhYKYv35VcEXtjr6QypHwNmKMpEvpXcviz7JeIIlBJOhvl6EeojGX0UCwL8BDOtO/mZYzVEyWgsC5JedTgGIpoRgmvWNGLAhhEd4AXMUDpNlGrSiGBWzwKMfy/KJkNgSyxhn0exGS+Y+vzjY40UmJLV1RpZM3gG0EVfGpSDT50PgPc77tsTYzRSQVajfp6NQoZMXhH6JL0yRQ9IdnbadwL0uDTH3msvZGwhXcGaQKYOqdCIZ1+bo0YhTdlz+aaaIJ/DHx4r+dTzqxuvXb8Wkm+ITDCkkGOlO4nT7kjMM/HT/Y2xkiHit7aNiKfUpOIGkKj8J7M2SxRlgfSa4dNo2OeHzkNpTL6/39etlu2FDIER1RikneF1hQH2bMJBm/823NkCxc9KeDUgCTvTVOIYeSPy5pNgL4ecQgh8D/KesvjOcOFJilxjPBJ9dybooaE4ZWEXfLNSvBIYV5rjsdjS+vi6LaOIE8jKPEqqQ0acsY1GU3bfQNOX+G/2HcBSGxvHf8hmBkEldbt7beIIWvExddJasDxxsJcJLcNEhL7GI979z/mriUmqiwN3xZ8a4+vNtq240y/xkczbfsaRzM9xrZ7pm/lFhWwUhgtQEJVgJhIkXpYQoEkJkAikKiBaLEBN6Ar2AAbk95oDGLiY1awckysuPCx0kWbjN3iiPf859zz+M+h/qVc/3tuffee8//f/wrwvLS1Ezh7xGHHxpOgKsk1wJEIw0MRwB3Ff6tWWO7+R55S3TNcTz+GAUnyuI0r15UCJqc7OW7BESKKwf9zHtSmhucgOcz38GPqxQvtzTa2lNTJZ9a1l/HcISJ7EH8Cj6Pk2Grv8iYeZBV3rP5iW4OMSTKPPS18JxpHp3Y4Avt2aOV28W8uw72zlym5ZTEv9j0cHzl87nZ7Y990VU+g/Eg01XCy/0Vrt7cdfE/mVRnu5H3sm5K04O63k5IWCifBCWRMheWzhQL9rDfSKb38OkFhBrLXDnd6vM3hUVFTcCDHb/Kl5TatwpkJSu6glePJk4ZEtogRyVTPQUYZVXDkpNdLXv7q/jG21XVfZAJZz+QxEYvOK00MZmE+numL4qZ/PdtmTov5B2Uy7nuCjnp4pIszL+7qKPMgdtINnGd8YFIwBcaDsGm3KcTvTN9Mgrn2y0XP6B+x6Dy82A3qSTX1RMSA8w9eZ5554/0cS8v2lwk/sUxwZeGqdw223NuWfZut74SwcRPuFdm6mtK0X9E5Lh7Dj/ayAyu1LQnWG5icDEl4qGHm82aLmZuWZf3k/hO78jgpQ2qUjHJaN1U3a+m7jJzVmmzzCHY9HapLQVlmE2dynZLmd52EO/fP98ON57sfncknn5NbY7jDe9f2V1ykm66d8onupy95/rDB6qH+k2cenp8YCASmMw8banIdUwr0DStFKglzUB/NGnu83/1HZsOVMellNo+2M0ApH3zE2K+PXVDyNWPYZIyXpIQ/kX2z+v0eIJxOht+eUCL+jnbUpQAv4nwX24NwepU5spqjRhGhFxOdpuyhm5mjFRhxq4vKiw1Xd+TquipSscZYoqJrMvei08vLHsdo4JAcMYlIkGoSUrLO9rKHWDnUM3S6xDYujzECTW9k0uTaaWQUrYpyg8cUK+qYx1+N4xG86cOS2JS5ZR+FX6Meiim5wjXJivDbaZ0OA2WmAWlOIQbsJ9LmFg7nbb2kXP2Ta0bP6qUExLCP81/TgNT2oSa1+EcdYx8J1G2hkXKsHyxyjxZbxhe/DzQbBiRU7kOWc8YguQX4v7SR4FuJ6XurV3DtW2cNAzKioUDqZrGhxYcbiXs/olz6YxE5onIDSXyQCk8bNrQ6tFTQXTAFScTtD0/SrjwEjZ7eS1x2lyC9h8wCktZU0jhpauNyWcBnaK/CtsXQqOO/AL+IC+NnjlFAIlU+TXLF0BMUf0DFJaiO8GZ4HPh+8soPJ7lmu40CUqqxDecl1JUeS7e97nr+6tmdS7Wud7ZyFmf7kErj7IMBsZYXkNfOLgSZrjYKSOWwPkB8/hDWMsOhuvoPwimtH/z5fZFEggrI0nkURKxDwNXv+20NdBoFxBn06ZQkjhkff0K6bRUf/FDBmUjJK7pRtNGiyj+Ay3tnzpJhs18I34xMBbmKkExMiWj6T36wvcfPNQ0P3qfbd7vogFhrCyCD57dRzn0thu3eWu1dxltUlxihE9LRUn41BasYiJDZdL/vH/FQddgsHnawUTcgPr/aLjzF3FWj/MGYTRZTPrfzQ0z0DY4pvGbBsx5kwnNeR+FrNiBW0ad5AUjcyGSEnDzbFsWyr/cu8UDE+mqBkAd0d6Q319LSdvH6FCYz4Zjp+V4laW+V8GTOTnPtWwv2WJ6yfSHvwsbbKmY51VVX76SxTv+0z4zUyBkdfKXxdRyqFu62OGQZ32ucBt7jQMNFjPSCYmMDJmUs+lucdDRP4GKrxSX7eN4TWhVC4FRImfy6YQoQr9FLgHTzJzF757X9gQ8Qq+hLT1VDrPckdlHNVnYeGkOEuzTp/yaHALVT7kUDfruEExGIBXa9xB7JiZleFUxMjvCbFDzghLLGej20beYFhBz/5pIx7500+0J+7xo0iEhA6Ny7JVbAmPA41ldzI0K003QZf1y2RiIiCUiz3yAi7qFHTINDuFwsztT3CT8gUKREwp+ueSqFSM4kIL4H3N9yUPzbbUE51+HsrdnvMHcywpF7EluX02gUEW4DWKb10AOmxu8FENnBUiTy7f4inm8XNwsIMGQeDhNK+UhMl+QzAUQWMaiUo0LBb/Hs5zbDiDzg4yeiUspZWesFiwUQsdbTFY0KLqpOsJlfu2FEfDw1uFMZOd3PGDr/KgIIi0kRzsJNjIsAUtJjGpHHHIDItkE6zVC6RQgR+kEiMct4WqSS9LhpQFxjWMGjTT71mHGQ/F0IkUUFND0yTdhF+jHljCPyQNsX4mP1oF0qdIwwPBK55so13KxKl3FE/B4HXWlGQTk9T3qfGCBAFvCMSC6vgrfRYr1xRDwqXZuzKrpfyaQEgbKKErcqkw5q88Xrwn7ziDCTmZ+q5fFFaXoL5wkiYm3D5mXPx3kQKTUPiK+fFQ5JaNoSPxYFhGb/KgzqSvKMMQzNASIMRj6oHPCPo9i+v2dAwIquKCxugiNBamgOEBmkc2zqdsZ1iuqVwoiQJe4Kpta7oJo3JL1zgEgTCoVHEUqS0F5xQKx1oCa1r9gbktwcIBKjBqj0HVLLJBD5DNSkGAKf8DpLWuYAkXrKWq5jEDqUHKE9EojA21ZUcYFH4nOfXeqWDIXuRRk1fwpt06JYW8qdxzPNeYcI3Fc0jNPYoEElT8slKyFV6uX+w8xcg//kza51Dkc5aDYsXCuFiPWlFkR8TcE8ildRT/brSMpTOO7hW/kZ0IUxpPaak1/WL9RYtPK0Trg3SCKyvFATEdiWDwmm7+U2sI4aLOXQsNv58yQRIaZXykQQQbInlEcBK5BFOaF1S1wjC4i1kVR2BmWZfWX5xDSShT0lWTTlUDxsuzQiRWRKyjOcdVJrwop7zCNCTqV6iaccONkLlkgjQox4te07SAul9dCxh80jQvAIU4gNi4ARbJ/LAwIkyd9CWmj5OGrUWEV6iIjzK0Ttv6ikxAP9hIimWyNYK33l5ItD8kBrjIYsrPtusQIixBxk7kHIMrv3HBlbbi7QSWBqv0M84ToVQEgCOIgWB8/AZaTBgGlEbmgNmpG+11dKiJAEcBRtrZRU/jOmEXFZ4sW42TBDOLTve9mpL5+KUk1+2DAgbvP0Hq76CEasitkoBTHIdzMvfERXkM9BNr+JPO9Nioj8S6Mh4o/rCFOKimsRHbjaJ3Cih7PddncmXTdiitszbdFt+U0rpVe9XbhIERHrO7fKB7o/kjKjRIqrwjmCrP6kSjkoLGs0xdYYJ8k1g4C4uwB06QXctr9RRmQrUWSPSWCA5lbEICIu97AZ+/tsVc9l9KS2ujEXDSbzO1eNAeIv1ZucNEBwZgeUESFmvKK6cEfAmPsJY4i4JjsWZ5D1V6j0eaDJp1ptIXCCkJMyBEjPlL4dGXJ2bHubOiDW10RmGeaSm+aUbqzTbVMQx8gXCIhs0hNrpzhoM3LbCCATLkqrG5vlTBIhh90IiJAHCeq2BRfqjVeZQGTUddfL2DcgvJF3477V5FuiIQVmZVrGmbPAVcLd7LMB+w5E8ch6DEBIjwR35RGdWbcsCbj7z1ViOyPkAOKfURAhq61Q2ThKN8OpAd2IELGkx9h3eIJRWcUVtQonEZd93sFrZSAi5Lwc9KSLauxoFb1s4azWdc84JTVaAckQ7diKp5Fv0Y5UpMBTtoDauI/WKzyY0HmIEJ4CfUqqrHRgFSnwlC1gulIV1CZjGX2IAF0F+pFvESW2xX9jAQK05BjDfF2pvc2rJ3QBkkMveiXlMnGHQ2iIrC7Qunx6pnxEk8F1BbAmwshOaT3xiSwtQkPE+rNW5onRBSOkxXevg8y7Vt2nCAqnRXdJMOdRNLAaoJXjA/LEweh2KHw6LlyJiAhQ24P4kSRZ/dBak+hnCHw7XGO7pxqxjgeSA+QTPMdbPrOguhQ3x7DnMuU+uBM2AAJ1ByoigAFcjeeTsPs4HsUMWvbReqeHUUktYETWx7iAWH8jn+EJ2vo9ercXX0G7UxP1c0Rt/FwFDNE4gIwIycnbYTSfus6rf82JPpT7+M/S20WOYCJyn9S/HhsQ6CRBo2efezZ5KsMIKkaPM+6AmQAO9ULZjI4IVEqNRV/HvDuhOR2qNpf/HHPuGWJiYH23rdnQeit7CrU9RpKng2PlE6Wzt91jhgIeUxcAOlbNX6kBETIp5c1RgtPk3c83SzEunwJa3+HVAxrP470HaP9CByDWvIPA/p5FeYhum0/G5Kpo6zlGnaG5I78Cyn9crQURqAWEHUehZ4/ZvFJ9QXjvSg3xfILnkQBpgG62ydIk0Pj2EIZnJTJNtSwn8l0O1LTyqUUiaxLQ575LFyDWWmhQzJDfLCJv7K7Ia77fL/D8Bfdc2SMogGShhi/sAezYoSuclljCs5WKO1+mvGYy3hzqFtCI8o0kwQzNjZZG2aXHuZKakFyZbmmAf8dA4vXlKcGhZhgR5GmwU+t+nYBYy1fogCQgP83yaORy/+RgeyybSfZlh1MNF670pktlBpMjlOjC3Yz/OE8rItaBQg3Rnqw996LuWU2AtHLhDkuzwB3+7ylZXBV5gIhyAeIR2KjbohsQa/Ea8MZpFdZxMg8QUWX8+2CW5htLv6yGW/zXKhyNvXmAyCM1QBrhfmF7iwwgYq1cCue7yddz1uYBIrVqeQ7wUKiDay0jsvkjOC4qOxsiWZwHiCila72GebMFf7IMyXbKkKvHciRXjZ0PIl8UE6DMGCncZBmT7ylPNd4k80ShvEBEmnqI0jbdHyyDspXGbrSJF1dGnbxA5KmkAf+MxtVssYzKTtqDTQmHfh7Z+SFSBT1J6lDQZZZhWUdlZofEmuDHwnmCiIy1deopTdtOy7jQx1OX9Ask6/ojdr7IBeHYJP0E3GrNgfyvvTP5aeuI4/gANrbBrGYzhkAwaxxcMCmERYStGLAMFsUyFVuQAAWEBEYJe0IrIYUeIBJYWBAu1CfaU3xBXCrlUoSEkSDqCZ+qSFg5JOWUSyNVantpwntv5i3j5+f5/AFPb35fzcxvm5lWBXVV6Qw6hN8XjSAdvWgZ+e9OKGe3oh4EhWw5TU52Ba4E5LOKR5GOSYTi208e6peCI8pAkCiKphme3QVxJN0jJkE6OlzQeV4PzdtPUQ0gaJhv0bcpnNEnu+YcHSJjEsorGTukq06WV4IgEhfPUBJfX6W6mtQ2P8x9gli7j8Yd3ou37kP3G3dPYH8/0OPe/dEx/szO8oMv/mLKptjmHbT/rY0EQUVZyFzm83qGPj8qPj2FVAT/Uone0d2VR0Nj1A6E3/nnRI/3HF2Z3lWaDX7w9IqhAq1XgmCTHQ1lweGL5x7f1vzW8Vngap2LGvYfdibWoDtHOl9tBBYQGysGFo5vWrxsyx8dTLFTVBkQAZX3ca3y1m+vfX+wSXZsfnCPoC2Rl9dnM6/+C6s6955seHbHISJZQxIQBTF6BQY5nrm2OL2INzu/i9yENNDX39/bDaulIkMJxEJDubBqdI16lvjop1p+fiTcT9YVAxGhKRRumnQ5fDye151z9wnyl7LGUiAucg3C6HH+bs/CLzbYVmAU8rOA6FDpmngfp/1amMuY1yb5zRU0NauAGNFkRPM6zr7ArEUofh7m7z+j1RogVuL0/GnycHXQIiS/9POkR2MkEDORan7WroETv0Vg/Ac8/GeiWtx6/BOdlBnlnAe67rRgYIJjW5L8Xo4ShASa9ghu/u5KpwULp1wqyhH1GhA6VHMJGfuGLLjYYu9z1WWBkCK9ln26ZNqCjx22f3lXA0KNepYr13ucglj83exWLB0IQbJSWe0hmN8MdbH5yUwzCEk0CSwG+xavIKyajvNKQahSFoU8RTYxK/I9sh5ROSCESWtDHO4oZkEsp6iCaJNBSKMqQdvgT3ArsoK4pbeqQKhjRir6/o5bEbQmV0MBkADKChn8kA8xCzKNEiLK1UogDarhp8k4ZkVQDqUazEAyKNWwu4nViVWQl/CJrYg7SiAlKuMhB36AVREvvIuVBCSGSgcXm1iXMQoyD6tHbAuQIJEJUP0qj23YBNmEbEtR5EUCaWKC6ld5g0uQ7XXIPhMTkCxQ/SoCPymGmmRMbFEBKaPJYPa67GtYBFmF6muo0ACpk8y8nTzE4QIfQ8SGsrxkEA4UpDCe4RC+arXF3PWgqK0E4UKukcEY/UsCC/KIWZCULBBO5N6jX7vePxFUkAmmJUuRUg3Cjawa2gTkixkBBQkwCCKvKQDhSFohXU/qgE8oPWwXDEVCfRoIV9JLaI5fW93bggiyRx8Ylreng3BG9bWRekMZXRRAkDW6s28KY5UKhD1JGYmUXjD/m8lHmvz7NxVpRI5/yydVtRSRvPWQ37zjIvUtExF3yfT4346io9Dk8RyPgnygvF0mWpdORPiMIgpJunr4elLu6QK1e1VMBLhBEipf+IiPp/cs2++ob5qIzSXmv4liyvDkV+6px6FzmoMHScT4N2OiLPx27XBzhJcWaKJ0bSQxPWVWOJG6aNLD/uDu2AVdXlGvJIanSaxk0hSyDtl1aTsvBiTbV43DC9bSpbp+Q29UmaG/TCCexISM0WIebdZpZALlVPWs51LyfdUYeEDfJmz3bsAFKINbCwPh1hUnlBfM1LBi9/qYtpTNT5NMFwI2tRBTw5LM3JJqvXQdO2/O1nc6p1xHjG0Ncj1Jm6BsJhVQ7Y/28YPA1Ou56UW/f3bv6ebS8utPgasRqMsya8mChbpy3RLyTrs2E7EwuhucIJge8Q3EvKyoEmaaGEmalzUavYxvOeQ1WcSuXDC38apHbEYysSlXcur4u9yyuZTYkw9HuD6RDzmiCslyxRul7Vw1kRnLYogd+SRGl8pltWqPIybkHVWVkd2l2/l3SLpdKNLUqPGJTPuAyCHsRCm+DX91bWxNNkklYhGlMRNicsSrTaQUhY+47LxU6k1FZtBXaYiRsJNeVJJg+KK9K1qbQdQI7mwxlbU2JqRo8++n1n11u9ksiZXqbzs05edFq7kxAAAAAElFTkSuQmCC;" parent="BhIajO4M1uqcpxpR8eOI-24" vertex="1">
          <mxGeometry x="90" y="10" width="22.17" height="28.31" as="geometry" />
        </mxCell>
        <mxCell id="BhIajO4M1uqcpxpR8eOI-27" value="" style="group" parent="1" vertex="1" connectable="0">
          <mxGeometry x="1110" y="242" width="120" height="60" as="geometry" />
        </mxCell>
        <mxCell id="BhIajO4M1uqcpxpR8eOI-28" value="node3" style="rounded=1;whiteSpace=wrap;html=1;fillColor=#1ba1e2;strokeColor=#006EAF;fontColor=#ffffff;fontSize=15;fontStyle=1" parent="BhIajO4M1uqcpxpR8eOI-27" vertex="1">
          <mxGeometry width="120" height="60" as="geometry" />
        </mxCell>
        <mxCell id="BhIajO4M1uqcpxpR8eOI-29" value="" style="shape=image;verticalLabelPosition=bottom;labelBackgroundColor=default;verticalAlign=top;aspect=fixed;imageAspect=0;image=data:image/png,iVBORw0KGgoAAAANSUhEUgAAAZEAAAIACAMAAAB0LaEeAAAABGdBTUEAALGPC/xhBQAAAAFzUkdCAK7OHOkAAAMAUExURUdwTAAAAAAAAAAAAAAAAAAAAAAAAAAAAAAAAAAAAAAAAAAAAAAAAAAAAAAAAAAAAAAAAAAAAAAAAAAAAAAAAAAAAAAAAAAAAAAAAAAAAAAAAAAAAAAAAAAAAAAAAAAAAAAAAAAAAAAAAAAAAAAAAAAAAAAAAAAAAAAAAAAAAAAAAAAAAAAAAAAAAAAAAAAAAAAAAAAAAAAAAAAAAAAAAAAAAAAAAAAAAAAAAAAAAAAAAAAAAAAAAAAAAAAAAAAAAAAAAAAAAAAAAAAAAAAAAAAAAAAAAAAAAAAAAAAAAAAAALwRQnWpKAEAALsRQQMAAbgRQAECAAkBAxsCCVcIHgcBAnSoKDMFEhICBq8QPQMFAQ8BBRQCBwQAArMQP44NMQ0BBDAEEbYQQAUIAiMDDC0EEKQPOREZBngLKiUDDW8KJxAXBTcFEwcKAklqGXQKKaEPOJ0ON4kMMA0UBB8DC5kONa4QPZYONX0LLDkFFKoPPJ8OOJMNM6kPOxYCCGEJIosNMSkEDiY3DQgMA2QJI26eJXKlJ1kIH5ENMj4GFnOmJ2aUI2wKJioED4ALLQsBBG+gJnGkJ6cPOnoLK0oHGjRLEroRQVAHHGKOIUwHG0gGGaYPOqsPPBYfB3CiJj1ZFUdnGF4IIbUQP2YJJF6IIDtVFBgjCCk7DoMMLkIGF5QNNH4LLGqYJC1BDzFIERwoCWCLIaAOODwFFTBFECAvC1J3HGubJFIHHScEDhkCCTVOEgsQBAoOA1V7HTUFEx4rCkBdFoUML1qDHxIbBjdPEys+DkAGF3ULKThSE1QIHj9bFbIQPoIMLnIKKGkJJVmBHkNhFyEDDEUGGE4HG5sONl8JIWSQImiWI0ttGkFfFhomCR0DCrAQPlyFH09zGyQ0DFR5HUxvGpoONm0KJksHGmWSIyIyDEMGGFsIIBUeB2oKJVd/Hk5xG1F1HBABBnsLK4cML0YGGUVkGBchCEZlGGydJVZ8HWUJI4YML0RiFzNKEWeVI2gJJHEKKBQcB1B0G1MUs30AAABKdFJOUwD3Eu/8+vT+BAEG630Wwp/lIxoMr9ceD4W902UvWuBRNJaajMkqkkQ8c3jMpwm2xVXdN4GyTCdJ0DGkq9q5amxAiehhXuNwLMBvWdPASwAAIABJREFUeNrUXLtP21wUh/IIlEeA0hZoQcBXyqtAW2i/9EH7lb4tM2TJkJUhQ9Qs+Q+IYCBLMkRiIWSAsBBAImEgIBAPCbHAlBIkHhlAQoWFlwSV6JeHE/teO46vYzvumeLbYv/OPT7vc52WJhEV55fnKTKLytur0/4iym0oK+/KzCzqbLqX9jdT8TvlN9Xd5s6ad9U5kZWvpQosSs+aCv4SPkryq2KoFW9eRhZznn+vLVe9rShUvn/5d7CR87EZIym79NP9tNsfMjEqpSsfylYpyJ/Vr7MA1FntOWm3PnZkU5ZUH3PkL5D6txhEWW8eYTQqrGxJK6isKSzKUmSral/IgbHbT5UV2VhmV1tNZUFay6c2OuhHpVnw0tt6uSvIY4wrZatIQ4YVNbakGPmdpjwSjkKVzZmPxzJUk9v1TcrWb4Wdb2qayjG+VPU0pcaqsog38m/5taXlbYWtyqb627KQx72aDEwQKkxdFPa8TRgWMmpkEJI1pmOCUeuDsg5VXnZ60SNl5S2Rcd/6pGzuSs/OU3WUPSgXjoX0L6kOTZSYSJSuLBYzPn+dJRbw2tyUSqQGE4/S88XymTllWSLifhx5hmQyuP9v/pO2qowsRVZGUcUjTFQqFCeVLBEZdvPdrnQFpsj+/OhJ/ov7Ihvf94WZmIRUJUZW/LBIShYy276L5xILarIxiSlP+OS+OkNqJtJrSsRx4o1I8lCrGRYX1nWo8eTDlAvEOHzIlb+42fAXEdz9rVZERjZ3NseM8OIa7plE1JI6YU0WqkCcxxo/vObt9S8Z1Ei3aRXcnxSoUF+tbj+O477TvR5g9RjHN0CZ/EhwnyIho+CXXYlgg3Cc+zg+D+y91r3pCzLmUCNuh0pgb9Ki4mE/Z/EQWXd7tRSGfwaXPFTb5fUss9/m8/fGpvz2sg/JKEvdh7L2/KbG74mcun6XqtbGQBDsxRxFHL3H9jBTwzwiMIEqdy3Fda/qCnJeJ3xgD8OaSxOGj1tOj2JrY6GF/lGKkM771zi9cPzzk9vt3PKPbps9QPEUs+Hdn4gt6PwXEX5wG8cNAEjZcu9h9aviZARz711HlYLrK7Dt2zHMuk3g4gQepUt39DWzhK8Hz0h3j+Mjy5yeUcHPzVff5ejCN3B8L3a1PBIGOhDd6UmPJsrMGvh3pgWbY8ns5rpTRR1f+FW/GloVSFqpM4fA/j62OSlv/G5MJPgS4T4GI5cDs7GXK3hlX6XuTHw1ecCDkXcsCkJ9VG9fEIg3ejVtjeD8STiUS5KTeYpWnV0HwnyPD6HslaKzAT01Ry9YGc0EYovnOvrOO3EK7epJHQnSCeFE1eGrU9KOeVzxH/IaVenvPGGB3LtB7u16GAah5D1bUZRhHfFuaSh8LESdzsRJH7E0voy6W0rE4KvkLg9PvmwhUR/4J0OqYqRKBLcG3QdpyHBfxMEPRa5+xSzeFpvjbEarrJSwhSTXGk9MUT3U3TaOkChXMLXNArARdorOYR+FsSH03bqLlDbef8YrOXUBwMf9Z9goDpIvagzC1Bfm30FcDUZNyDprcPkMpbJS95kF7nDwOVFXsEOAOA7v9gwF5MDECMSEH7tZ/w2s2Pjs1luUeLiDNaoKOrL5qYPf5sGlkyubm2KK1TMQ9kENzkoDQfu0EPs/Zn3kNivB31vxRZLHvbPVwJYPXgUfs05E4IMxSL1BW2ZlR40PQtcWSuTodV9feXZ8P8fNU78Ma4cmFgCl3AXyL3syDuGZ8axsE/u3hKPSqP6CvDAbYxLBA/FFksFVJA1sdZ/T0FMWwz/nKFtsubFpUJmYIlyRc/YEfie32HbyX84SYa9WdzvomCx/poNRypwdWSI4YKJ9JtKMsWhJxituvdrshO/VbljpAbPUh87DQPBNmnMdM/zlMWum1ca5wZYokTIw4hpZQ1cRmJaC+q8l3rNTlvojl/ydtYQ1TLwPwXhPvZ807JGVJUbF+pMg9eVaIHqXsK4bwMUiA4YtRn+zRFxViSOuEraKyTXleX7RmPFoE2wk1/QqcatWvSsaFxOL5O9pliD4TqJwsYIF/xj5RjtWRWNlP5FAiAZwYirl0P04wSUgTaymsWBCDFRy6c2DnlidY6FfCvSXCQXCOdrqBPiY83qNRqNer9MtL98MDTm3F9y9qzaDFDzhVieBwrBDK+Q1svLQTuNeexlNB2/6JAEfmHX1Hi5MOs+Gjm6WdTq9PriNXq+JykgrHx1xDuAppBkiRTnAN2CRZP7HFr/TanLaffyCyBjMqeRIs0AB9YajRMDZ3ZVU4ifiYSOTEeiKn/OW0MKs7pDnG6LHupLTIh8/AsZa6o2UcrAREsQ0ERZxtMK5nTSb5Y9W0aXxgPGTSS2fWOsh1Fezp5SHQDeGbRA1P4g+xmHgO00g05HqB1E7SR31HwGwuLZFcz/H6zulhNaxM7LmBI54MHd+immjyG4i2nWn2AZDva4qzlWUD5ANXkoxG1HLbz2DdrqDET5tsFoXLdUMTmhSa7PAHP4D9zllKFIZSi0flK4LPLjCdOjkEy3MmpIJfBycwlEgTNk8YaqTyoF24Z41PXW/nwdLxCAX9AEQ1xOE/kgZPDJmlwtTcG+oLEHsTuujpZAG9CCwdoTOG21WYF02XDmhWQjYub+EsS9b5YL9HJ7j4N4NLaRFj17ZsDWoZVd9uP2p3pELco0e3tVyrgJ5ylATc8iFLzDpDbpHcIargT5pLFcfGKQXHNMRpjkUp2wY00yyRcCweh/1ywY4w4idKpkuu2wiSPwAqjk+p2Cvh23WiGxg/2ba1Xpeoa/ctB/uLVKV5BvjMLgsaJ1xjo6TRPKYx+Pkw9sAeCxI8TWuF/Fa5IPayTj3z+mkSJx+l4/9gRYJUxYPNHkaN9Dakg6T5YL932eYd5XLFN1XtvkmtpqN449kXhQ8hpZVEqf6MykVHuvuZiKHFWDeVS4pSR04qzxvWLe5eg/3phP7yF9u16U0FbADLWPiDqXr3dK4dc2lyz2fuMg4sefeW7UNG/ZdqPNBt8Aq3TiSOTnyzkoSlIFTKnmRL8TcgSbmxiQp59q8N39Q/qAPGOK4w8WRgN0RxOGZgA4b8s+Ivg/joJJUhoE/gFRkUHQYM4tHmNGAZheAytwzTrFWLcgYYlNXc+7F1Ie7Ys9LTAAYv4WBN0urIgO7h2psbhPReY4ALZJaThKBsiw9agRpHf6BYXO2QSmVpJjejFb7RLZWcxjWM4q8OTcAyP94VVF6kdFe2EL7te2wS6YkocL2P1gy5haJ7I5QdqGeQDfP4PGxCo6VxkooQhtFh2xeDSlnz7R4bv6gG7LHOdBRdfECrZHpcB1n7AD9TzcTt0AZlQQyyNg5H62OFNa2t8RKUtxQcatemtKo1RBJvhf4VPm3eJ5WSHuVmfjESGK6jBzOM80eiLI1YOL+Dzw/Lk4r1zwbiV2XPXz+GjqllPWVexOxXZAeosYQOYvcfXgpRmIGHLJ+lgsaLZMILTbN/GHEVHrPeSXC593gpjahfKSN1kXkN1ZjHyUq5zfnwu8QWAKGkhGb8N78lDghrV3jVb/UrMEdRKTvCdGnAt38BsrHXYSmmlZ+CrxFYMMhT1y//nM2mmqv8uPDAo//Ye+RjoEztBF1POP7qegwuHpV4MiL5RC5UeDoaizqAbZ5tu3NR/RviiB9aoeJSxPfkezdWMvfLahDGeVwqk0I2o8dMDAe87zFzlwSpxAZKkTRquM8Tzz9w7FG7FBAuOrwVHyJ/BLOnQdiqtgzytcZLjF+WOhTEhN0UUi8CxPjrlicoXcIVvPSxxOISSixW8/JZ4zxdoRm5u8MIEzQgbG9WitE8W5kmzTymwIFXnFPjvYKc3+730vOPm8IgRP4uuNjBImAw/H7W6u60J10o0m1rQ2kLfWuC9IAd8STiCAjmPZ1ErDpNBmtsw+HA2f9mGFDzTohG5/e05qj/b8Pkt7EvgkSj2nYLqIjuRRCHqSp6Z6+SPZ2Fp85ZBj2+JywCn+/QqSKxBRl+s3rT9p2aeKdT076MK51kRIcOQVLbk4AlK9QcnYw3/oh3OnWLS9FJlfJViGdcT6Hl+Rt+68oKE0OwaLDGSAGzkPK2aE+olO4Am7fNKW6g9oRZe82COTYNQZqxcx1IRjrwMFpNMdOHxESsv2zQ821bzzJ3GqFWSLTSVkWapfvRsiDymCTTYH4TfxSEYdMNYvUhGkyiVOOi8wSSeL459I2NSUeFnJcYJH/CSvGgzGLgtbtgJhjj3fiaWCWCG+sPqAc6Ba0sQOF6unIn/ouYzyjLxgde6nv4jXP4MjDLBGesWGfjZotmIQdUTVAzZF89O9IV8T5SJhQHh7wyqYrXi7+F7NEeH1ramATqHWsXvxP3bUHVXWc8YMoD5Uo2khsKozYJBqDUSdWbbWNmlo9x4teVB4XEx8oEhTwgZqoiIIUBS0hCKKRRy03jB0eGh5RUEEuNI5mgjpTH0SF2OhI0dgmQqt2sDR1Es45u+exd7+9h9/fsHd3f2f3e+73UV2uNFo1mqC+90suFK9nFDpEbqlOEjfmfXpnpEOUtrO+he5apcXbXIha3QyTV4+lm9WbLrol+OZUe+9mcidKqjieVEb3lUNglbQmtg9Z3Xi5BziBcmy2TlRK2qLb230OzYjedzzpVpHxv6qN7ipTGqQT7E9GCOcu7xNYQ/mJjOSYrNR5WVRpqQStihaxV7+McuJfrqzFzxiOFIhOmjm0s6wbxQ+mmnUFIRrQjJTrGaNIfGGtp503k9TEE7+a1vT+zVZEecbpJSI1JOyaDmGF6cIQpX2IwAvi8F4D7YqBlYhsgIGkhLghl7uKdk7JnFPVYiea5gSJ2zhvvOb0hKNiX+XJp7TXVtmJmF5vUkYGI8svN9Gv7dQuvjjMZzVK+HyV+sqqPl5Jc6A79B++FNSYEPMjbjYkFnh1FVej77W1z4FAtPjuWKnNwVeIY6RGm8tT/P1aYCokJbV9FX31fl13JcSVWI44K1bwp4pUsfwzZ2o4JrnYxgUWDR97epX4gOSAPngReeCm09K1QCkJrBcfb5v65ViLzw5Sdy/USbrqlIDW4hF7tch1rWmQ/l81AW+uVwmTpVfjGQlr1ydBEitAl5ZvIk4LUgy3Q5fiKBLH2PhOZaXrglL9b+WZHpWopE1XQBcmPcx2dKadBOzZkt5cVvGXa6klPCJdJomCXRF4TZIxUQX6jjVQWjdvtB0dEeWVtsphK420SIR1Od4eLVYuko+PtRdJyipFwdZkTk8grKrFaSvUynfCVl1/IkkvSbyv1xZRcwC3SJKiW2/DXsUf0/Nqfd82VN7nJrEDdAW/l6aOliGVoALVVhJm5DxTpFdIIWyFnTrZ3drPzmbtr8gbbprzQNcw56Fks3MQYfj29eo9Uk4ixHWq5Is1X4NdywVZ26Q+b3J2YlhvhG8VtsxGo+ReCbsn/YsrmjpCyt8g3Yxiet6TEuQurbGc3fBxkq+1ugV0JanSDS8RK0MF1bwmJLYp31g22LIQjfKD7DKBo4DxqBZdJaDXb26ztHBnd33iZhivEebuEfeiUjpPK7XqWFVyH6P3ZI4KPFD9EWmHPiU6/GOsPhGYZ+K140dTo1F6sIpBrZAbCDf86704SvBFuuXLkljKRPMza7FRZ1NhWwtGxoLqJ7mZqM/GlxYh3C+Ra22CrW12X3o3FabLckY0oTy7S6eW2pMW2BKOl2vIK5fqbmxlKS55XJ+Xfwq8rFmd1Nmek33WwhPA/DhbGusO64CefXtHfl59ZklxGHE2vBJeFX+rrLq/Ha3mgXCSVWHmQJG9O5MaI28y9W39iNurYAipzma0AIlPayQ1RvxcmOrx3RTWTghCVrFqiCixq5z7cmCiPYxVaeNKAEpWXmE0+fuJUIIdEbriC5N6KiUri9jM/ANZuGAyRUY4ed/g6ntsFtbeSvnKYkRIhcyF8iuahCBaDHYJeDbSpHIlTULWs5EhT+R2E6Z5IzFmo3JwqphcXakUleCTTL6iXCvCbnqRowxkV5LEWhb9rbITaRHCpMtxyqNqUA/KDwmOs9C3wEMG9uIdWow0MbAJo5FG1FQ36oxwg5/DiMpo6H4KSRZajJihr9nAezbkD0/14wDg9xOcPnkVlpNoenLkK1g+bmJ09df6ciBwn4ZbaOe9HnFpUSu8hVF4MYEC1/7uHBR8nHFL/a6xB1xaXddWO9g0bzRhfrPfRA4QQ4ZiVtpQ2RMuLdp1EkSmbJkZ+YtjBnGgcP+12OuYaOFNiaVWQLsr0EbVZAcUeVfyak6aeIso38V5BgcOceXZBvAWb1SPCIP2b+miEkGeHAN4ixWtNtgFpqyny4gN2H4SZzw8z4IQboDUDQzqKvqWtu8X9F1SkcThO5wJIz4y/1YxXDLzB9Qju4lw6lZqiVQtnMiEET+5CmxuPgW0yEL6ESuojmNtCTJlq58bE0akDaOeKTEg+lY0DwAIw/1KHipo8AIbQjgPF4wf7xrteOnlMAhGwmi75IselSJ/yLkXI0a4Ubi1mprO0Vxteg4PAhvNZJrUWpyxrrPDiF1m4lCF5XbW36C01pQ7PBBqaFXLLbAqBJ3HuDNjhOv1U+V8qLIOQxPC8wk0TPfGEkVbaZIXxxAeo1VS0ikQ0swDIoHCKclT/IWf9+KYYvAA4E8wPYEHBYXEzMAGhfF9/TjW8PktVpfJs5+Q2zk8MCg8Og68gMsA8J7AOQB+o6ajZEhCNAVN5mkUDw4alTdyrxYiZMnAmX6cY+D3lrxuYDmF8lspVTwT0KhOUyAVd66zhrlxDsSQUbOkj3m/e2Rn9KrDxjOCvY7r9nyJLdJn6OwhnMMhTwo2fVxfUUTsj0jgGYK8XVhly9kmmSPrZ5wR4N4PfU03NZz99mZddqWugESSNYxnCku9Ll9wSmV23dOH1uJSVIND8pKYlDFcZdFRq0oLrS1a7uyiTMZ8fK8a1ms5z+mnrIWlq1SmN8IgjPzOVcvCo1RdrkeLLbxDYGlQdfxUaMl0dfU0CCPonGAZlFddVNvKOxCt15QPSrZZwyADjEII5+GsYbpK/bmf5JebeQfDVPPoicIUreojTPcwDCPcK71Vp4utXpfb8tjGGwStmRVY87ZE7Z/trwpEE2P7qEhPZL5BytH84lYzbyiYcsryC5BuyGhlse7kwxkKIwcqrVKarpJ7uS26qtlmMDK65Q3YEurzOy6nSxNNFCbsPZ4zGLyG42+u0kxrXt652nN5Z+vLCu80dUbxPQRRttLmhpIqa15tbdfsrVXl2BvrZS/OePD0dXHMPRO6LfbixdjY+cELHUSc88tDOGPCa8bUPgw3Ym7skfgHmzZnCT/gnWPrIj9dGsqUDqc3hvlxBobXWF9vFvuwMGjn4sMCBuEZB75kQ8eU4RMGc4aH+wjofQj++swyQQUfRa5+G5yQEW5cD8D40bC7ELBve5agCdcjTs8FpmTSSMPz4THAFXQL3o15R9CBzTtPAHMywMPYhMxwhly96ZOtgl74/zsIWNF60cB8eA4FVa0ubRGIcOsvJlBOZnkaVaLPBLVHdhPy8T9sgeXEZaa7EQkZ8hzkondsFezChqWgx+Q5Ax6Tt/RIEFNAaOiStADNH25ojL9gLz4HlfEuMwzGh5eWoJVpW9CBP2VsX7vx8LP99T8ft3ZdxM79q+cra6lHNgoUcPguqIHymqE8W5NV7fQv/7ln12H8bs3bEo/drtA/CJSwYbmCE+DE3t37k3f+7bOILkR+Eb/gUtDyJbooGTfZQDqvk+JUF+17sFl9uxZg/jvokEAN85IRF6VpR3LMYvQEQ/6ckRyk2U3mZBQ9uK+v4uG4u0mbDIhE33Tx/gJNrJPv7x5Vh0zEvhPaRJ5vXyMQgqzz/wxLDmhXkT5FDZD2D4EyPtwh/Q1NToDwvy/V4pF53QAWvOc47PQuxizTYVujVKETawXqWHZE8iNab8WQyL3qJ2XcSw73K/bDzS1ou66Neg8xxPJDAgQkEitC+38eS1YV9s4O9j364GT60l36dikrFmEVXhdgsFP0Myt0qdCRsWryfYIjCRmLia3HrtO7Sf+RD3L8vACFf4l+aLE+1+V7KpzQaFVFmZC0PVl6tyg8QM5qiACHuyLqdapz/hnK5n/vYQYj5P3NujfIX+51Cv5QgMQlXfqvzK6JDzDiKfFBErIkg2B/4mXDvL0LlBBh3vHuYclw3f8f974iJQ6RJeORQn0vyae9WK7qfyEA46O07rPO0j9AhJLa5eQAjcsTqfYuIFiaEBcsV9UEcGR0/71kggEOKQUnnX/BmpBeU1Deugd2XyDPBgqHZ0Q43d1Zc4ZgAP94BTN+CuMCA26o8NQ3W+0Xsv/HXQaECGu672caUYRyu4IXcijbzCFUStYJsg/7r4gEoBAWjAhfizyiRNbPGoVMvWksCZmISAGKjSPalgjEWg4wIURYI3JTBZGIQCFkBZ4Shs8XBiGk+kWyON92VKBqKxtGBLFoPkjmuDyNl+6DWBGCKq81n8wpuAllaaX5M2IkRvy78WSWzSd4UcIqRQVRgi6YTIZsQUrGvYwIEeIk0bEYolGy8MbibEZpQPK0rIBbZNGjbWg3DCtGBIl/au7nZKcEK0tc2LwreUMeeiXLTdiMUVTYMSKVAQsXEw1zHptRMZWJO0v+u38kWsdGnFd7BzNGDspE2Caywx7sQH1rsLzQ2WkiSRyC/bBCmTGyX+4o3UA00C5cbpM3/Pur/nJTnUjNun4cr8ivYcXIPsTnQBbaj8St5VVwf5Y8mfQMESHvKrjp9rBiZDXqAdcxoqFwOjB4FeYXZD+5j+jKUiKEnfqLjAUuIqIkZBvuZRzwEZFpvt+EUCeE52+xIeQQ5pkjmdcRkzrkAntI5B7GCJKduKj2VoQNI5/xNCk5iBkNtJy/l+yIrCCYepzq02YTG88W9k1JMIl4D8G45p0h31f/hoZTMFzDQ47l8xgQslbhwQqJXRKBGQyyoP/zFK6XLYu05DSziFnt/i93VxcT1ZmGx11csVur66o13a2tXavtRlvZ1rWtxrhtbe05mZ8MECAzA4MRwhASkMwgIAgmJGjCQAJkCD83wg3CldwgNyTcQMhAk1W8gis10Xgh5cpe2GQVg3XOeb/vvN/vMftdkjnnfLzv9/P+PM/7Ur7fxYO8INyOJ9UFHE/bThd2s+QiDvzPlWZlvIrptPlWeZf7IWUaOSG+RVqD2EICCcUKKXY4PPM5gnUELMRhZbwEWxka5tN2AU884/TU0GPWka09x/zOJniTbFJlAJ+ywd9ZZ7zIUhUjfEGlQu4iTs5nzG8lxOVVka9sqcMF+VLIMHgU4ho7UJcZM4xrhpBMVOSvW1GlYTasQKqflf4aqValkDbkDNZY4RBwhiFLDfXqezELdXiCg5I8MKxCHwH82qhinMDPOo+tXdbPMOXW665wscSXFXjvg0mWYhNsGJs6uDLhLhUKOWJFXt9imelN3ooL3r60ZIVUdDFNIJctW3MDDjeqIPEet35lhCXHJlA7sbBaJlqohrm4U4hpm47CLzmtIzPCcGitilUZjS/I0kfdJEclDiZfMQDvwC8UaOSsVUz4WV4XLjpyfjUlQR9D7UG+k5PlOHgIE90VoOGt18gkdornZg0J4/JT0XI1iV7+SjW9+AXRCb5gs3wExL940+tDVww5IzIxyh+jr6u8JfTxUjSTOw3HJeQXMbdCSyPICpYXw4a8Ee2d4VFK42KBcCGnZbTJBdvWPyj3RmK46fXIrhwerOq4wGJ7Fde2x6SUBIy2Ct2a8uO/J3k4Hr52Q8UINbTUIm6VQKK6Lyav4q8fCVoqAZ/eLVshb1mDWpiQ00qVoW4UFvQ9Hk2ASJi6xMz9+YZc6eWXB1BHZjH43SzZPuLH1i8sOU9tSXX14/X7LBwrnbj9oG9+frKvf+3adDJeqK74XxJVPAGONspulXjUuoWdl8tq0Pi/G2GM/74GPiq7NIcV7pvrGHuffNOl68+d7n3UUd1T3zPXcbdvIoYKd0UqeXMvb0vWyDeMHI/m5ButjanexXu2Xd79a0tVVMJlUgs+941kjVgbJsw7TCr05mrDW9ZBDsn5xlqcKs3FnAJ65VriKNZW7FRL0Hed0QPwXy7tH6leHW1taprpqWzpK32ibne0ObK8m+/TwwxdDoFPH+iD7ZAc1bIS2Otp/1EZ02X58LcL9oNgqHWkQIHNVDaK8y4v5dGOL69D+RfQ2MqSWwNim/X9FFDCKP7Eyp+YoxwBxZ0DhXKNVwaa4fAiDZ2cHGSHbcllt/9ofT0xynOuD+1JTM85pgdT9WXSuiJMMULifOMUCH8X7WW3wUc+lKqRQ9bXk0KhiThSPpefIaPriV4poTF/OzuIglb+z9tPLp0Ll/c+LlUj71tfDx+kvjbk2R9jyUA1ronvkzAf9ivwlOzmxhNsgBS5LuIP1hMHzmEjr/RSVtr4mKh308Cd7momI+gjbQQzYRH8udwCENYkexTaICO44yXOA3vvEbnjI0I1BjvJny6D7ZJVDU77QeshYJ/GBdw6Dt3ny5g38jfZya81hUYRGfsXfOxD41HkUkT3O2lkuB11g3jvcNe59t3ljK53icOHF8m7PwlYnTAzZb9UjWx30MjCZZyBJbRaS7hOrtBFU3ws5ZJ34N0ALme1XWmgsTDTQMWdKN7bgoXgyzkSLiE5nAda8m25FaWRE0rZVU9elxPSOI2Kdz9qjjNf6iWmnJGieL7ea+UIjcjF/lpxD/5Xq/3mGvJ4j8uodlIXY9SIRL5DB2XhReZXHO+RL6Vq5DMDjP2mOguwzluDHED1CptK8mRCuHtoa6/rUZGDrfWZWnqV907neMcEGmXubZeFpm5mud6n5VZ8HKXak13zG8xJOH0qtfrZTsH+rP4KeWIZw4e5oo2m3DFDN/G9pR3PlZJahX/1p50KjV/W67VTplhW0VGuOVP2WHC8NINTxINDovn7oVjP9chy/otpAAAd/UlEQVSoXLFgYXnTpvxRIRD03CIPIHRWSCH5sjvoBXA2cJeSnjJPBSQhjbL7gZhCaqVLZQxlcLeYSka/gCwkNYrJPimE/FhVIJU8jLNerEYjKYG+4rul5NqP7BfaIkpWamDZ+cMjpqJRJwCePSgB/fuJ0A7hq+KIyFk4frhwWJVGzDEBkMxuUWZP9n/EzKyClCKpOLruKhthdQhIZMteoZNrzwExRyQ3rUooo072xIpCjZhCLIx3BDzF038U9AzH1AnFgd14Q6VCzEYhEO2fuRvBncoSxBu0KRTKDP3TrUo1Yo4LyWXzd1z62PoPUUROqcrOLj5q1nJKdVOZBjHR8FSczd4uqpBQo1KZPKJ9+7pihZjdgnSl/czVNLN3iSrE26lWJuW0CNOYao1AzbKZxuFs3QoxJlTLhOI7R9V3wgrkOiQg4jE6O+gw0y7JPiyskK5G1TKZI39cR5Vzqv09VfECoHKJGnDZzqKSj4hyvt558Ze2XIRGHisXyRD52FrUoBGTAqlt2AAMUaGYB/lpoK+uhtmXCz/1s2PwdTmlXiRkMoGOtrwExMmLUfU7gmullyKkT7kLMm544L/H1eudQjszGkQyT7xGTC2DVDstlAH7XiB7k1uOIqsEbYI3SO/rsbsRukLKdEik1tWvkzdJj8XBJ1e92/Q1iuC2A1Z8Jh3SRy2O5L2qQyLnSBtVU19eE5ZB3GroUYiy+xDVsrM/h5ed1XQao7kDBXokQsru6uqDNY41KzqJ/iSiZ/heeNXZL+qke1GljTHr7ufNFFQ7LAglZu4RYz6OrJJDUD4ELD1BSRrd0iSRFjdNrRfjOtoX6iZlPbMcAsF/gC4RuBVHgAxoXNUkENKiSOvSSLfX8V5/lQsm5dj2vcvESli3JQn1cogEvcKUJoHUENIyprZhd8q9pN536SQPsO4YJF9SJa0ekkYe6ZJHALYuCvVpxB7JIRfdXSG1raXQqt8FziwyI6aZZPoOahMIbMLE9WkkbTPA1yhhH0L06cxf0WxDg96MOeyqf/ZiwBZMUt8EbP3EDVr9rUFClIvIGf3abmdRG5ZPuBjmezlirmuk0vpxKqerCfZpsz4mpHHtvqG3h/Z+uK2Kv0ifPApcNb7XrS3rx+lJiEUmQPD79l/SKUr1cHZdozzgXRrTOAPT4mcEHX5+B1bJB2D4JMceDKGn4hKuhjDIGvmvTo1YCKPnnWJxcTwg2NbJzQg7nD/FoPFZo1EcMJJtWadGVhk5K/fgqwTACx351naJONIMoETyZZ3igO+RsM4pDKKNX2oe44wdov2T7UeTrGfo+hjQKQ44j+1P6ZxDIcPNux6bhw1EW++x7DO2ve9cYxnKNFfrlAYh1d3s3j5FcCTgPEaO9Sb5jv3MgiNbF3RK47xbaK3XRh7aQdwYMEvLWhCNq8/3A8DH1ykMk5DC7tQ5h8zQFoYmXgRGzb9yqMMYxNAqJ10NoTw3Jb1uIZNeG1fZFwPcoeQTevdJVEfZR+6luGnReOOBzklkBlxRvOQ0uLczesbssfISulChECCHd1+nMEhgEK1Ouy/CnlAG40+bt9Egczg+J4BG/lWnMCpITKKAzlmE2TWyAqYR/klpiRRMo14MVFG95J6Z89pIuGbwIUEXYLGu9yid9fpMXo0M65RFqau4X3AWSI3UgDbJ34mZKn8Nr0aCOkVhEukAvTpnkUG3wha4KKBmrrZak7lVJq9GpnSKopwIhtEaXMtAjWGL8oBX4D7ioTWOfO2Iu1YOhZ6pM3KQ0Ui3HvlQcZB2bNkKXmNNlbvuOoiU6igjGqdxg9Vnt+txY2x0qH6P18Fqdwvw+3JQijqVuqWRSuxT9ZRIyk7r39Hll+xRlGmNkhikYMH9aX3zyEhkPsM+lYYyV1u2gfn1INq/euCqRippfIkKffMo5UMPgqb7UZB0iCfZzrp6alGLk2g8tmIcnhwpkvKytnwOt3tV4ObNfo5a09SrL92fAePD12O5CiIg1uHw1r/eRL/UzjE6r08jDiW2tIGPzQjfsR0AIRAvOFfHLX97gp9Lrpuu2TRdI2FdyfYhXocMxMofAuK+DLUaQi4SBbqdCNwzmiZylRcH00+K/1qTVfgSTBBZQBvEtMWJUa/rbq/OXJL4+h+grXgCiMTjyyV3uxkHdy5fWaJnIhZWPb6FWQkhIp+dxU3iGwPeOK5JIa3OdUA0WeIWv2IJ/WAdyHDf6vkLfzx9AXhjmyaNFCBKszTpmIivi/v6As33PTaiGwNBCToIZ/UopAlTvr1Kx0wSDIweR1N13dg6xb/X291DQeOKierYJB1MBA/nOMrfPF/wp98ggr93RYdCLuI6HMTUFz6zFWy8JiY/421bVIuhwmHSNTcAW7eyUvlMbLEcBoLXAziy9aXlLwy1pEGeY54GhYxhm4BE61RPxVbklqGSVB7skHzOjW2H2eQa8ro+fHcx5dwJeyt2/CIAndyznq+4HYolOOjarVwjlWiFKC8rNWxPl18V08gBGyge77KPu3R210XxGjGW1QLIKkQING2w076PWyMtLhUY6DVYRp/SuSRFLlJQIzmeb7ltpYeGK8dWE1tvL69KJDLEVm4QW9I7PDu4NUK6X1vUntzLBtsIKVwhN4TQe3kwis56amEhYKYv35VcEXtjr6QypHwNmKMpEvpXcviz7JeIIlBJOhvl6EeojGX0UCwL8BDOtO/mZYzVEyWgsC5JedTgGIpoRgmvWNGLAhhEd4AXMUDpNlGrSiGBWzwKMfy/KJkNgSyxhn0exGS+Y+vzjY40UmJLV1RpZM3gG0EVfGpSDT50PgPc77tsTYzRSQVajfp6NQoZMXhH6JL0yRQ9IdnbadwL0uDTH3msvZGwhXcGaQKYOqdCIZ1+bo0YhTdlz+aaaIJ/DHx4r+dTzqxuvXb8Wkm+ITDCkkGOlO4nT7kjMM/HT/Y2xkiHit7aNiKfUpOIGkKj8J7M2SxRlgfSa4dNo2OeHzkNpTL6/39etlu2FDIER1RikneF1hQH2bMJBm/823NkCxc9KeDUgCTvTVOIYeSPy5pNgL4ecQgh8D/KesvjOcOFJilxjPBJ9dybooaE4ZWEXfLNSvBIYV5rjsdjS+vi6LaOIE8jKPEqqQ0acsY1GU3bfQNOX+G/2HcBSGxvHf8hmBkEldbt7beIIWvExddJasDxxsJcJLcNEhL7GI979z/mriUmqiwN3xZ8a4+vNtq240y/xkczbfsaRzM9xrZ7pm/lFhWwUhgtQEJVgJhIkXpYQoEkJkAikKiBaLEBN6Ar2AAbk95oDGLiY1awckysuPCx0kWbjN3iiPf859zz+M+h/qVc/3tuffee8//f/wrwvLS1Ezh7xGHHxpOgKsk1wJEIw0MRwB3Ff6tWWO7+R55S3TNcTz+GAUnyuI0r15UCJqc7OW7BESKKwf9zHtSmhucgOcz38GPqxQvtzTa2lNTJZ9a1l/HcISJ7EH8Cj6Pk2Grv8iYeZBV3rP5iW4OMSTKPPS18JxpHp3Y4Avt2aOV28W8uw72zlym5ZTEv9j0cHzl87nZ7Y990VU+g/Eg01XCy/0Vrt7cdfE/mVRnu5H3sm5K04O63k5IWCifBCWRMheWzhQL9rDfSKb38OkFhBrLXDnd6vM3hUVFTcCDHb/Kl5TatwpkJSu6glePJk4ZEtogRyVTPQUYZVXDkpNdLXv7q/jG21XVfZAJZz+QxEYvOK00MZmE+numL4qZ/PdtmTov5B2Uy7nuCjnp4pIszL+7qKPMgdtINnGd8YFIwBcaDsGm3KcTvTN9Mgrn2y0XP6B+x6Dy82A3qSTX1RMSA8w9eZ5554/0cS8v2lwk/sUxwZeGqdw223NuWfZut74SwcRPuFdm6mtK0X9E5Lh7Dj/ayAyu1LQnWG5icDEl4qGHm82aLmZuWZf3k/hO78jgpQ2qUjHJaN1U3a+m7jJzVmmzzCHY9HapLQVlmE2dynZLmd52EO/fP98ON57sfncknn5NbY7jDe9f2V1ykm66d8onupy95/rDB6qH+k2cenp8YCASmMw8banIdUwr0DStFKglzUB/NGnu83/1HZsOVMellNo+2M0ApH3zE2K+PXVDyNWPYZIyXpIQ/kX2z+v0eIJxOht+eUCL+jnbUpQAv4nwX24NwepU5spqjRhGhFxOdpuyhm5mjFRhxq4vKiw1Xd+TquipSscZYoqJrMvei08vLHsdo4JAcMYlIkGoSUrLO9rKHWDnUM3S6xDYujzECTW9k0uTaaWQUrYpyg8cUK+qYx1+N4xG86cOS2JS5ZR+FX6Meiim5wjXJivDbaZ0OA2WmAWlOIQbsJ9LmFg7nbb2kXP2Ta0bP6qUExLCP81/TgNT2oSa1+EcdYx8J1G2hkXKsHyxyjxZbxhe/DzQbBiRU7kOWc8YguQX4v7SR4FuJ6XurV3DtW2cNAzKioUDqZrGhxYcbiXs/olz6YxE5onIDSXyQCk8bNrQ6tFTQXTAFScTtD0/SrjwEjZ7eS1x2lyC9h8wCktZU0jhpauNyWcBnaK/CtsXQqOO/AL+IC+NnjlFAIlU+TXLF0BMUf0DFJaiO8GZ4HPh+8soPJ7lmu40CUqqxDecl1JUeS7e97nr+6tmdS7Wud7ZyFmf7kErj7IMBsZYXkNfOLgSZrjYKSOWwPkB8/hDWMsOhuvoPwimtH/z5fZFEggrI0nkURKxDwNXv+20NdBoFxBn06ZQkjhkff0K6bRUf/FDBmUjJK7pRtNGiyj+Ay3tnzpJhs18I34xMBbmKkExMiWj6T36wvcfPNQ0P3qfbd7vogFhrCyCD57dRzn0thu3eWu1dxltUlxihE9LRUn41BasYiJDZdL/vH/FQddgsHnawUTcgPr/aLjzF3FWj/MGYTRZTPrfzQ0z0DY4pvGbBsx5kwnNeR+FrNiBW0ad5AUjcyGSEnDzbFsWyr/cu8UDE+mqBkAd0d6Q319LSdvH6FCYz4Zjp+V4laW+V8GTOTnPtWwv2WJ6yfSHvwsbbKmY51VVX76SxTv+0z4zUyBkdfKXxdRyqFu62OGQZ32ucBt7jQMNFjPSCYmMDJmUs+lucdDRP4GKrxSX7eN4TWhVC4FRImfy6YQoQr9FLgHTzJzF757X9gQ8Qq+hLT1VDrPckdlHNVnYeGkOEuzTp/yaHALVT7kUDfruEExGIBXa9xB7JiZleFUxMjvCbFDzghLLGej20beYFhBz/5pIx7500+0J+7xo0iEhA6Ny7JVbAmPA41ldzI0K003QZf1y2RiIiCUiz3yAi7qFHTINDuFwsztT3CT8gUKREwp+ueSqFSM4kIL4H3N9yUPzbbUE51+HsrdnvMHcywpF7EluX02gUEW4DWKb10AOmxu8FENnBUiTy7f4inm8XNwsIMGQeDhNK+UhMl+QzAUQWMaiUo0LBb/Hs5zbDiDzg4yeiUspZWesFiwUQsdbTFY0KLqpOsJlfu2FEfDw1uFMZOd3PGDr/KgIIi0kRzsJNjIsAUtJjGpHHHIDItkE6zVC6RQgR+kEiMct4WqSS9LhpQFxjWMGjTT71mHGQ/F0IkUUFND0yTdhF+jHljCPyQNsX4mP1oF0qdIwwPBK55so13KxKl3FE/B4HXWlGQTk9T3qfGCBAFvCMSC6vgrfRYr1xRDwqXZuzKrpfyaQEgbKKErcqkw5q88Xrwn7ziDCTmZ+q5fFFaXoL5wkiYm3D5mXPx3kQKTUPiK+fFQ5JaNoSPxYFhGb/KgzqSvKMMQzNASIMRj6oHPCPo9i+v2dAwIquKCxugiNBamgOEBmkc2zqdsZ1iuqVwoiQJe4Kpta7oJo3JL1zgEgTCoVHEUqS0F5xQKx1oCa1r9gbktwcIBKjBqj0HVLLJBD5DNSkGAKf8DpLWuYAkXrKWq5jEDqUHKE9EojA21ZUcYFH4nOfXeqWDIXuRRk1fwpt06JYW8qdxzPNeYcI3Fc0jNPYoEElT8slKyFV6uX+w8xcg//kza51Dkc5aDYsXCuFiPWlFkR8TcE8ildRT/brSMpTOO7hW/kZ0IUxpPaak1/WL9RYtPK0Trg3SCKyvFATEdiWDwmm7+U2sI4aLOXQsNv58yQRIaZXykQQQbInlEcBK5BFOaF1S1wjC4i1kVR2BmWZfWX5xDSShT0lWTTlUDxsuzQiRWRKyjOcdVJrwop7zCNCTqV6iaccONkLlkgjQox4te07SAul9dCxh80jQvAIU4gNi4ARbJ/LAwIkyd9CWmj5OGrUWEV6iIjzK0Ttv6ikxAP9hIimWyNYK33l5ItD8kBrjIYsrPtusQIixBxk7kHIMrv3HBlbbi7QSWBqv0M84ToVQEgCOIgWB8/AZaTBgGlEbmgNmpG+11dKiJAEcBRtrZRU/jOmEXFZ4sW42TBDOLTve9mpL5+KUk1+2DAgbvP0Hq76CEasitkoBTHIdzMvfERXkM9BNr+JPO9Nioj8S6Mh4o/rCFOKimsRHbjaJ3Cih7PddncmXTdiitszbdFt+U0rpVe9XbhIERHrO7fKB7o/kjKjRIqrwjmCrP6kSjkoLGs0xdYYJ8k1g4C4uwB06QXctr9RRmQrUWSPSWCA5lbEICIu97AZ+/tsVc9l9KS2ujEXDSbzO1eNAeIv1ZucNEBwZgeUESFmvKK6cEfAmPsJY4i4JjsWZ5D1V6j0eaDJp1ptIXCCkJMyBEjPlL4dGXJ2bHubOiDW10RmGeaSm+aUbqzTbVMQx8gXCIhs0hNrpzhoM3LbCCATLkqrG5vlTBIhh90IiJAHCeq2BRfqjVeZQGTUddfL2DcgvJF3477V5FuiIQVmZVrGmbPAVcLd7LMB+w5E8ch6DEBIjwR35RGdWbcsCbj7z1ViOyPkAOKfURAhq61Q2ThKN8OpAd2IELGkx9h3eIJRWcUVtQonEZd93sFrZSAi5Lwc9KSLauxoFb1s4azWdc84JTVaAckQ7diKp5Fv0Y5UpMBTtoDauI/WKzyY0HmIEJ4CfUqqrHRgFSnwlC1gulIV1CZjGX2IAF0F+pFvESW2xX9jAQK05BjDfF2pvc2rJ3QBkkMveiXlMnGHQ2iIrC7Qunx6pnxEk8F1BbAmwshOaT3xiSwtQkPE+rNW5onRBSOkxXevg8y7Vt2nCAqnRXdJMOdRNLAaoJXjA/LEweh2KHw6LlyJiAhQ24P4kSRZ/dBak+hnCHw7XGO7pxqxjgeSA+QTPMdbPrOguhQ3x7DnMuU+uBM2AAJ1ByoigAFcjeeTsPs4HsUMWvbReqeHUUktYETWx7iAWH8jn+EJ2vo9ercXX0G7UxP1c0Rt/FwFDNE4gIwIycnbYTSfus6rf82JPpT7+M/S20WOYCJyn9S/HhsQ6CRBo2efezZ5KsMIKkaPM+6AmQAO9ULZjI4IVEqNRV/HvDuhOR2qNpf/HHPuGWJiYH23rdnQeit7CrU9RpKng2PlE6Wzt91jhgIeUxcAOlbNX6kBETIp5c1RgtPk3c83SzEunwJa3+HVAxrP470HaP9CByDWvIPA/p5FeYhum0/G5Kpo6zlGnaG5I78Cyn9crQURqAWEHUehZ4/ZvFJ9QXjvSg3xfILnkQBpgG62ydIk0Pj2EIZnJTJNtSwn8l0O1LTyqUUiaxLQ575LFyDWWmhQzJDfLCJv7K7Ia77fL/D8Bfdc2SMogGShhi/sAezYoSuclljCs5WKO1+mvGYy3hzqFtCI8o0kwQzNjZZG2aXHuZKakFyZbmmAf8dA4vXlKcGhZhgR5GmwU+t+nYBYy1fogCQgP83yaORy/+RgeyybSfZlh1MNF670pktlBpMjlOjC3Yz/OE8rItaBQg3Rnqw996LuWU2AtHLhDkuzwB3+7ylZXBV5gIhyAeIR2KjbohsQa/Ea8MZpFdZxMg8QUWX8+2CW5htLv6yGW/zXKhyNvXmAyCM1QBrhfmF7iwwgYq1cCue7yddz1uYBIrVqeQ7wUKiDay0jsvkjOC4qOxsiWZwHiCila72GebMFf7IMyXbKkKvHciRXjZ0PIl8UE6DMGCncZBmT7ylPNd4k80ShvEBEmnqI0jbdHyyDspXGbrSJF1dGnbxA5KmkAf+MxtVssYzKTtqDTQmHfh7Z+SFSBT1J6lDQZZZhWUdlZofEmuDHwnmCiIy1deopTdtOy7jQx1OX9Ask6/ojdr7IBeHYJP0E3GrNgfyvvTP5aeuI4/gANrbBrGYzhkAwaxxcMCmERYStGLAMFsUyFVuQAAWEBEYJe0IrIYUeIBJYWBAu1CfaU3xBXCrlUoSEkSDqCZ+qSFg5JOWUSyNVantpwntv5i3j5+f5/AFPb35fzcxvm5lWBXVV6Qw6hN8XjSAdvWgZ+e9OKGe3oh4EhWw5TU52Ba4E5LOKR5GOSYTi208e6peCI8pAkCiKphme3QVxJN0jJkE6OlzQeV4PzdtPUQ0gaJhv0bcpnNEnu+YcHSJjEsorGTukq06WV4IgEhfPUBJfX6W6mtQ2P8x9gli7j8Yd3ou37kP3G3dPYH8/0OPe/dEx/szO8oMv/mLKptjmHbT/rY0EQUVZyFzm83qGPj8qPj2FVAT/Uone0d2VR0Nj1A6E3/nnRI/3HF2Z3lWaDX7w9IqhAq1XgmCTHQ1lweGL5x7f1vzW8Vngap2LGvYfdibWoDtHOl9tBBYQGysGFo5vWrxsyx8dTLFTVBkQAZX3ca3y1m+vfX+wSXZsfnCPoC2Rl9dnM6/+C6s6955seHbHISJZQxIQBTF6BQY5nrm2OL2INzu/i9yENNDX39/bDaulIkMJxEJDubBqdI16lvjop1p+fiTcT9YVAxGhKRRumnQ5fDye151z9wnyl7LGUiAucg3C6HH+bs/CLzbYVmAU8rOA6FDpmngfp/1amMuY1yb5zRU0NauAGNFkRPM6zr7ArEUofh7m7z+j1RogVuL0/GnycHXQIiS/9POkR2MkEDORan7WroETv0Vg/Ac8/GeiWtx6/BOdlBnlnAe67rRgYIJjW5L8Xo4ShASa9ghu/u5KpwULp1wqyhH1GhA6VHMJGfuGLLjYYu9z1WWBkCK9ln26ZNqCjx22f3lXA0KNepYr13ucglj83exWLB0IQbJSWe0hmN8MdbH5yUwzCEk0CSwG+xavIKyajvNKQahSFoU8RTYxK/I9sh5ROSCESWtDHO4oZkEsp6iCaJNBSKMqQdvgT3ArsoK4pbeqQKhjRir6/o5bEbQmV0MBkADKChn8kA8xCzKNEiLK1UogDarhp8k4ZkVQDqUazEAyKNWwu4nViVWQl/CJrYg7SiAlKuMhB36AVREvvIuVBCSGSgcXm1iXMQoyD6tHbAuQIJEJUP0qj23YBNmEbEtR5EUCaWKC6ld5g0uQ7XXIPhMTkCxQ/SoCPymGmmRMbFEBKaPJYPa67GtYBFmF6muo0ACpk8y8nTzE4QIfQ8SGsrxkEA4UpDCe4RC+arXF3PWgqK0E4UKukcEY/UsCC/KIWZCULBBO5N6jX7vePxFUkAmmJUuRUg3Cjawa2gTkixkBBQkwCCKvKQDhSFohXU/qgE8oPWwXDEVCfRoIV9JLaI5fW93bggiyRx8Ylreng3BG9bWRekMZXRRAkDW6s28KY5UKhD1JGYmUXjD/m8lHmvz7NxVpRI5/yydVtRSRvPWQ37zjIvUtExF3yfT4346io9Dk8RyPgnygvF0mWpdORPiMIgpJunr4elLu6QK1e1VMBLhBEipf+IiPp/cs2++ob5qIzSXmv4liyvDkV+6px6FzmoMHScT4N2OiLPx27XBzhJcWaKJ0bSQxPWVWOJG6aNLD/uDu2AVdXlGvJIanSaxk0hSyDtl1aTsvBiTbV43DC9bSpbp+Q29UmaG/TCCexISM0WIebdZpZALlVPWs51LyfdUYeEDfJmz3bsAFKINbCwPh1hUnlBfM1LBi9/qYtpTNT5NMFwI2tRBTw5LM3JJqvXQdO2/O1nc6p1xHjG0Ncj1Jm6BsJhVQ7Y/28YPA1Ou56UW/f3bv6ebS8utPgasRqMsya8mChbpy3RLyTrs2E7EwuhucIJge8Q3EvKyoEmaaGEmalzUavYxvOeQ1WcSuXDC38apHbEYysSlXcur4u9yyuZTYkw9HuD6RDzmiCslyxRul7Vw1kRnLYogd+SRGl8pltWqPIybkHVWVkd2l2/l3SLpdKNLUqPGJTPuAyCHsRCm+DX91bWxNNkklYhGlMRNicsSrTaQUhY+47LxU6k1FZtBXaYiRsJNeVJJg+KK9K1qbQdQI7mwxlbU2JqRo8++n1n11u9ksiZXqbzs05edFq7kxAAAAAElFTkSuQmCC;" parent="BhIajO4M1uqcpxpR8eOI-27" vertex="1">
          <mxGeometry x="90" y="10" width="22.17" height="28.31" as="geometry" />
        </mxCell>
        <mxCell id="BhIajO4M1uqcpxpR8eOI-30" value="" style="group" parent="1" vertex="1" connectable="0">
          <mxGeometry x="1110" y="162" width="120" height="60" as="geometry" />
        </mxCell>
        <mxCell id="BhIajO4M1uqcpxpR8eOI-31" value="node2" style="rounded=1;whiteSpace=wrap;html=1;fillColor=#1ba1e2;strokeColor=#006EAF;fontColor=#ffffff;fontSize=15;fontStyle=1" parent="BhIajO4M1uqcpxpR8eOI-30" vertex="1">
          <mxGeometry width="120" height="60" as="geometry" />
        </mxCell>
        <mxCell id="BhIajO4M1uqcpxpR8eOI-32" value="" style="shape=image;verticalLabelPosition=bottom;labelBackgroundColor=default;verticalAlign=top;aspect=fixed;imageAspect=0;image=data:image/png,iVBORw0KGgoAAAANSUhEUgAAAZEAAAIACAMAAAB0LaEeAAAABGdBTUEAALGPC/xhBQAAAAFzUkdCAK7OHOkAAAMAUExURUdwTAAAAAAAAAAAAAAAAAAAAAAAAAAAAAAAAAAAAAAAAAAAAAAAAAAAAAAAAAAAAAAAAAAAAAAAAAAAAAAAAAAAAAAAAAAAAAAAAAAAAAAAAAAAAAAAAAAAAAAAAAAAAAAAAAAAAAAAAAAAAAAAAAAAAAAAAAAAAAAAAAAAAAAAAAAAAAAAAAAAAAAAAAAAAAAAAAAAAAAAAAAAAAAAAAAAAAAAAAAAAAAAAAAAAAAAAAAAAAAAAAAAAAAAAAAAAAAAAAAAAAAAAAAAAAAAAAAAAAAAAAAAAAAAAAAAAAAAALwRQnWpKAEAALsRQQMAAbgRQAECAAkBAxsCCVcIHgcBAnSoKDMFEhICBq8QPQMFAQ8BBRQCBwQAArMQP44NMQ0BBDAEEbYQQAUIAiMDDC0EEKQPOREZBngLKiUDDW8KJxAXBTcFEwcKAklqGXQKKaEPOJ0ON4kMMA0UBB8DC5kONa4QPZYONX0LLDkFFKoPPJ8OOJMNM6kPOxYCCGEJIosNMSkEDiY3DQgMA2QJI26eJXKlJ1kIH5ENMj4GFnOmJ2aUI2wKJioED4ALLQsBBG+gJnGkJ6cPOnoLK0oHGjRLEroRQVAHHGKOIUwHG0gGGaYPOqsPPBYfB3CiJj1ZFUdnGF4IIbUQP2YJJF6IIDtVFBgjCCk7DoMMLkIGF5QNNH4LLGqYJC1BDzFIERwoCWCLIaAOODwFFTBFECAvC1J3HGubJFIHHScEDhkCCTVOEgsQBAoOA1V7HTUFEx4rCkBdFoUML1qDHxIbBjdPEys+DkAGF3ULKThSE1QIHj9bFbIQPoIMLnIKKGkJJVmBHkNhFyEDDEUGGE4HG5sONl8JIWSQImiWI0ttGkFfFhomCR0DCrAQPlyFH09zGyQ0DFR5HUxvGpoONm0KJksHGmWSIyIyDEMGGFsIIBUeB2oKJVd/Hk5xG1F1HBABBnsLK4cML0YGGUVkGBchCEZlGGydJVZ8HWUJI4YML0RiFzNKEWeVI2gJJHEKKBQcB1B0G1MUs30AAABKdFJOUwD3Eu/8+vT+BAEG630Wwp/lIxoMr9ceD4W902UvWuBRNJaajMkqkkQ8c3jMpwm2xVXdN4GyTCdJ0DGkq9q5amxAiehhXuNwLMBvWdPASwAAIABJREFUeNrUXLtP21wUh/IIlEeA0hZoQcBXyqtAW2i/9EH7lb4tM2TJkJUhQ9Qs+Q+IYCBLMkRiIWSAsBBAImEgIBAPCbHAlBIkHhlAQoWFlwSV6JeHE/teO46vYzvumeLbYv/OPT7vc52WJhEV55fnKTKLytur0/4iym0oK+/KzCzqbLqX9jdT8TvlN9Xd5s6ad9U5kZWvpQosSs+aCv4SPkryq2KoFW9eRhZznn+vLVe9rShUvn/5d7CR87EZIym79NP9tNsfMjEqpSsfylYpyJ/Vr7MA1FntOWm3PnZkU5ZUH3PkL5D6txhEWW8eYTQqrGxJK6isKSzKUmSral/IgbHbT5UV2VhmV1tNZUFay6c2OuhHpVnw0tt6uSvIY4wrZatIQ4YVNbakGPmdpjwSjkKVzZmPxzJUk9v1TcrWb4Wdb2qayjG+VPU0pcaqsog38m/5taXlbYWtyqb627KQx72aDEwQKkxdFPa8TRgWMmpkEJI1pmOCUeuDsg5VXnZ60SNl5S2Rcd/6pGzuSs/OU3WUPSgXjoX0L6kOTZSYSJSuLBYzPn+dJRbw2tyUSqQGE4/S88XymTllWSLifhx5hmQyuP9v/pO2qowsRVZGUcUjTFQqFCeVLBEZdvPdrnQFpsj+/OhJ/ov7Ihvf94WZmIRUJUZW/LBIShYy276L5xILarIxiSlP+OS+OkNqJtJrSsRx4o1I8lCrGRYX1nWo8eTDlAvEOHzIlb+42fAXEdz9rVZERjZ3NseM8OIa7plE1JI6YU0WqkCcxxo/vObt9S8Z1Ei3aRXcnxSoUF+tbj+O477TvR5g9RjHN0CZ/EhwnyIho+CXXYlgg3Cc+zg+D+y91r3pCzLmUCNuh0pgb9Ki4mE/Z/EQWXd7tRSGfwaXPFTb5fUss9/m8/fGpvz2sg/JKEvdh7L2/KbG74mcun6XqtbGQBDsxRxFHL3H9jBTwzwiMIEqdy3Fda/qCnJeJ3xgD8OaSxOGj1tOj2JrY6GF/lGKkM771zi9cPzzk9vt3PKPbps9QPEUs+Hdn4gt6PwXEX5wG8cNAEjZcu9h9aviZARz711HlYLrK7Dt2zHMuk3g4gQepUt39DWzhK8Hz0h3j+Mjy5yeUcHPzVff5ejCN3B8L3a1PBIGOhDd6UmPJsrMGvh3pgWbY8ns5rpTRR1f+FW/GloVSFqpM4fA/j62OSlv/G5MJPgS4T4GI5cDs7GXK3hlX6XuTHw1ecCDkXcsCkJ9VG9fEIg3ejVtjeD8STiUS5KTeYpWnV0HwnyPD6HslaKzAT01Ry9YGc0EYovnOvrOO3EK7epJHQnSCeFE1eGrU9KOeVzxH/IaVenvPGGB3LtB7u16GAah5D1bUZRhHfFuaSh8LESdzsRJH7E0voy6W0rE4KvkLg9PvmwhUR/4J0OqYqRKBLcG3QdpyHBfxMEPRa5+xSzeFpvjbEarrJSwhSTXGk9MUT3U3TaOkChXMLXNArARdorOYR+FsSH03bqLlDbef8YrOXUBwMf9Z9goDpIvagzC1Bfm30FcDUZNyDprcPkMpbJS95kF7nDwOVFXsEOAOA7v9gwF5MDECMSEH7tZ/w2s2Pjs1luUeLiDNaoKOrL5qYPf5sGlkyubm2KK1TMQ9kENzkoDQfu0EPs/Zn3kNivB31vxRZLHvbPVwJYPXgUfs05E4IMxSL1BW2ZlR40PQtcWSuTodV9feXZ8P8fNU78Ma4cmFgCl3AXyL3syDuGZ8axsE/u3hKPSqP6CvDAbYxLBA/FFksFVJA1sdZ/T0FMWwz/nKFtsubFpUJmYIlyRc/YEfie32HbyX84SYa9WdzvomCx/poNRypwdWSI4YKJ9JtKMsWhJxituvdrshO/VbljpAbPUh87DQPBNmnMdM/zlMWum1ca5wZYokTIw4hpZQ1cRmJaC+q8l3rNTlvojl/ydtYQ1TLwPwXhPvZ807JGVJUbF+pMg9eVaIHqXsK4bwMUiA4YtRn+zRFxViSOuEraKyTXleX7RmPFoE2wk1/QqcatWvSsaFxOL5O9pliD4TqJwsYIF/xj5RjtWRWNlP5FAiAZwYirl0P04wSUgTaymsWBCDFRy6c2DnlidY6FfCvSXCQXCOdrqBPiY83qNRqNer9MtL98MDTm3F9y9qzaDFDzhVieBwrBDK+Q1svLQTuNeexlNB2/6JAEfmHX1Hi5MOs+Gjm6WdTq9PriNXq+JykgrHx1xDuAppBkiRTnAN2CRZP7HFr/TanLaffyCyBjMqeRIs0AB9YajRMDZ3ZVU4ifiYSOTEeiKn/OW0MKs7pDnG6LHupLTIh8/AsZa6o2UcrAREsQ0ERZxtMK5nTSb5Y9W0aXxgPGTSS2fWOsh1Fezp5SHQDeGbRA1P4g+xmHgO00g05HqB1E7SR31HwGwuLZFcz/H6zulhNaxM7LmBI54MHd+immjyG4i2nWn2AZDva4qzlWUD5ANXkoxG1HLbz2DdrqDET5tsFoXLdUMTmhSa7PAHP4D9zllKFIZSi0flK4LPLjCdOjkEy3MmpIJfBycwlEgTNk8YaqTyoF24Z41PXW/nwdLxCAX9AEQ1xOE/kgZPDJmlwtTcG+oLEHsTuujpZAG9CCwdoTOG21WYF02XDmhWQjYub+EsS9b5YL9HJ7j4N4NLaRFj17ZsDWoZVd9uP2p3pELco0e3tVyrgJ5ylATc8iFLzDpDbpHcIargT5pLFcfGKQXHNMRpjkUp2wY00yyRcCweh/1ywY4w4idKpkuu2wiSPwAqjk+p2Cvh23WiGxg/2ba1Xpeoa/ctB/uLVKV5BvjMLgsaJ1xjo6TRPKYx+Pkw9sAeCxI8TWuF/Fa5IPayTj3z+mkSJx+l4/9gRYJUxYPNHkaN9Dakg6T5YL932eYd5XLFN1XtvkmtpqN449kXhQ8hpZVEqf6MykVHuvuZiKHFWDeVS4pSR04qzxvWLe5eg/3phP7yF9u16U0FbADLWPiDqXr3dK4dc2lyz2fuMg4sefeW7UNG/ZdqPNBt8Aq3TiSOTnyzkoSlIFTKnmRL8TcgSbmxiQp59q8N39Q/qAPGOK4w8WRgN0RxOGZgA4b8s+Ivg/joJJUhoE/gFRkUHQYM4tHmNGAZheAytwzTrFWLcgYYlNXc+7F1Ie7Ys9LTAAYv4WBN0urIgO7h2psbhPReY4ALZJaThKBsiw9agRpHf6BYXO2QSmVpJjejFb7RLZWcxjWM4q8OTcAyP94VVF6kdFe2EL7te2wS6YkocL2P1gy5haJ7I5QdqGeQDfP4PGxCo6VxkooQhtFh2xeDSlnz7R4bv6gG7LHOdBRdfECrZHpcB1n7AD9TzcTt0AZlQQyyNg5H62OFNa2t8RKUtxQcatemtKo1RBJvhf4VPm3eJ5WSHuVmfjESGK6jBzOM80eiLI1YOL+Dzw/Lk4r1zwbiV2XPXz+GjqllPWVexOxXZAeosYQOYvcfXgpRmIGHLJ+lgsaLZMILTbN/GHEVHrPeSXC593gpjahfKSN1kXkN1ZjHyUq5zfnwu8QWAKGkhGb8N78lDghrV3jVb/UrMEdRKTvCdGnAt38BsrHXYSmmlZ+CrxFYMMhT1y//nM2mmqv8uPDAo//Ye+RjoEztBF1POP7qegwuHpV4MiL5RC5UeDoaizqAbZ5tu3NR/RviiB9aoeJSxPfkezdWMvfLahDGeVwqk0I2o8dMDAe87zFzlwSpxAZKkTRquM8Tzz9w7FG7FBAuOrwVHyJ/BLOnQdiqtgzytcZLjF+WOhTEhN0UUi8CxPjrlicoXcIVvPSxxOISSixW8/JZ4zxdoRm5u8MIEzQgbG9WitE8W5kmzTymwIFXnFPjvYKc3+730vOPm8IgRP4uuNjBImAw/H7W6u60J10o0m1rQ2kLfWuC9IAd8STiCAjmPZ1ErDpNBmtsw+HA2f9mGFDzTohG5/e05qj/b8Pkt7EvgkSj2nYLqIjuRRCHqSp6Z6+SPZ2Fp85ZBj2+JywCn+/QqSKxBRl+s3rT9p2aeKdT076MK51kRIcOQVLbk4AlK9QcnYw3/oh3OnWLS9FJlfJViGdcT6Hl+Rt+68oKE0OwaLDGSAGzkPK2aE+olO4Am7fNKW6g9oRZe82COTYNQZqxcx1IRjrwMFpNMdOHxESsv2zQ821bzzJ3GqFWSLTSVkWapfvRsiDymCTTYH4TfxSEYdMNYvUhGkyiVOOi8wSSeL459I2NSUeFnJcYJH/CSvGgzGLgtbtgJhjj3fiaWCWCG+sPqAc6Ba0sQOF6unIn/ouYzyjLxgde6nv4jXP4MjDLBGesWGfjZotmIQdUTVAzZF89O9IV8T5SJhQHh7wyqYrXi7+F7NEeH1ramATqHWsXvxP3bUHVXWc8YMoD5Uo2khsKozYJBqDUSdWbbWNmlo9x4teVB4XEx8oEhTwgZqoiIIUBS0hCKKRRy03jB0eGh5RUEEuNI5mgjpTH0SF2OhI0dgmQqt2sDR1Es45u+exd7+9h9/fsHd3f2f3e+73UV2uNFo1mqC+90suFK9nFDpEbqlOEjfmfXpnpEOUtrO+he5apcXbXIha3QyTV4+lm9WbLrol+OZUe+9mcidKqjieVEb3lUNglbQmtg9Z3Xi5BziBcmy2TlRK2qLb230OzYjedzzpVpHxv6qN7ipTGqQT7E9GCOcu7xNYQ/mJjOSYrNR5WVRpqQStihaxV7+McuJfrqzFzxiOFIhOmjm0s6wbxQ+mmnUFIRrQjJTrGaNIfGGtp503k9TEE7+a1vT+zVZEecbpJSI1JOyaDmGF6cIQpX2IwAvi8F4D7YqBlYhsgIGkhLghl7uKdk7JnFPVYiea5gSJ2zhvvOb0hKNiX+XJp7TXVtmJmF5vUkYGI8svN9Gv7dQuvjjMZzVK+HyV+sqqPl5Jc6A79B++FNSYEPMjbjYkFnh1FVej77W1z4FAtPjuWKnNwVeIY6RGm8tT/P1aYCokJbV9FX31fl13JcSVWI44K1bwp4pUsfwzZ2o4JrnYxgUWDR97epX4gOSAPngReeCm09K1QCkJrBcfb5v65ViLzw5Sdy/USbrqlIDW4hF7tch1rWmQ/l81AW+uVwmTpVfjGQlr1ydBEitAl5ZvIk4LUgy3Q5fiKBLH2PhOZaXrglL9b+WZHpWopE1XQBcmPcx2dKadBOzZkt5cVvGXa6klPCJdJomCXRF4TZIxUQX6jjVQWjdvtB0dEeWVtsphK420SIR1Od4eLVYuko+PtRdJyipFwdZkTk8grKrFaSvUynfCVl1/IkkvSbyv1xZRcwC3SJKiW2/DXsUf0/Nqfd82VN7nJrEDdAW/l6aOliGVoALVVhJm5DxTpFdIIWyFnTrZ3drPzmbtr8gbbprzQNcw56Fks3MQYfj29eo9Uk4ixHWq5Is1X4NdywVZ26Q+b3J2YlhvhG8VtsxGo+ReCbsn/YsrmjpCyt8g3Yxiet6TEuQurbGc3fBxkq+1ugV0JanSDS8RK0MF1bwmJLYp31g22LIQjfKD7DKBo4DxqBZdJaDXb26ztHBnd33iZhivEebuEfeiUjpPK7XqWFVyH6P3ZI4KPFD9EWmHPiU6/GOsPhGYZ+K140dTo1F6sIpBrZAbCDf86704SvBFuuXLkljKRPMza7FRZ1NhWwtGxoLqJ7mZqM/GlxYh3C+Ra22CrW12X3o3FabLckY0oTy7S6eW2pMW2BKOl2vIK5fqbmxlKS55XJ+Xfwq8rFmd1Nmek33WwhPA/DhbGusO64CefXtHfl59ZklxGHE2vBJeFX+rrLq/Ha3mgXCSVWHmQJG9O5MaI28y9W39iNurYAipzma0AIlPayQ1RvxcmOrx3RTWTghCVrFqiCixq5z7cmCiPYxVaeNKAEpWXmE0+fuJUIIdEbriC5N6KiUri9jM/ANZuGAyRUY4ed/g6ntsFtbeSvnKYkRIhcyF8iuahCBaDHYJeDbSpHIlTULWs5EhT+R2E6Z5IzFmo3JwqphcXakUleCTTL6iXCvCbnqRowxkV5LEWhb9rbITaRHCpMtxyqNqUA/KDwmOs9C3wEMG9uIdWow0MbAJo5FG1FQ36oxwg5/DiMpo6H4KSRZajJihr9nAezbkD0/14wDg9xOcPnkVlpNoenLkK1g+bmJ09df6ciBwn4ZbaOe9HnFpUSu8hVF4MYEC1/7uHBR8nHFL/a6xB1xaXddWO9g0bzRhfrPfRA4QQ4ZiVtpQ2RMuLdp1EkSmbJkZ+YtjBnGgcP+12OuYaOFNiaVWQLsr0EbVZAcUeVfyak6aeIso38V5BgcOceXZBvAWb1SPCIP2b+miEkGeHAN4ixWtNtgFpqyny4gN2H4SZzw8z4IQboDUDQzqKvqWtu8X9F1SkcThO5wJIz4y/1YxXDLzB9Qju4lw6lZqiVQtnMiEET+5CmxuPgW0yEL6ESuojmNtCTJlq58bE0akDaOeKTEg+lY0DwAIw/1KHipo8AIbQjgPF4wf7xrteOnlMAhGwmi75IselSJ/yLkXI0a4Ubi1mprO0Vxteg4PAhvNZJrUWpyxrrPDiF1m4lCF5XbW36C01pQ7PBBqaFXLLbAqBJ3HuDNjhOv1U+V8qLIOQxPC8wk0TPfGEkVbaZIXxxAeo1VS0ikQ0swDIoHCKclT/IWf9+KYYvAA4E8wPYEHBYXEzMAGhfF9/TjW8PktVpfJs5+Q2zk8MCg8Og68gMsA8J7AOQB+o6ajZEhCNAVN5mkUDw4alTdyrxYiZMnAmX6cY+D3lrxuYDmF8lspVTwT0KhOUyAVd66zhrlxDsSQUbOkj3m/e2Rn9KrDxjOCvY7r9nyJLdJn6OwhnMMhTwo2fVxfUUTsj0jgGYK8XVhly9kmmSPrZ5wR4N4PfU03NZz99mZddqWugESSNYxnCku9Ll9wSmV23dOH1uJSVIND8pKYlDFcZdFRq0oLrS1a7uyiTMZ8fK8a1ms5z+mnrIWlq1SmN8IgjPzOVcvCo1RdrkeLLbxDYGlQdfxUaMl0dfU0CCPonGAZlFddVNvKOxCt15QPSrZZwyADjEII5+GsYbpK/bmf5JebeQfDVPPoicIUreojTPcwDCPcK71Vp4utXpfb8tjGGwStmRVY87ZE7Z/trwpEE2P7qEhPZL5BytH84lYzbyiYcsryC5BuyGhlse7kwxkKIwcqrVKarpJ7uS26qtlmMDK65Q3YEurzOy6nSxNNFCbsPZ4zGLyG42+u0kxrXt652nN5Z+vLCu80dUbxPQRRttLmhpIqa15tbdfsrVXl2BvrZS/OePD0dXHMPRO6LfbixdjY+cELHUSc88tDOGPCa8bUPgw3Ym7skfgHmzZnCT/gnWPrIj9dGsqUDqc3hvlxBobXWF9vFvuwMGjn4sMCBuEZB75kQ8eU4RMGc4aH+wjofQj++swyQQUfRa5+G5yQEW5cD8D40bC7ELBve5agCdcjTs8FpmTSSMPz4THAFXQL3o15R9CBzTtPAHMywMPYhMxwhly96ZOtgl74/zsIWNF60cB8eA4FVa0ubRGIcOsvJlBOZnkaVaLPBLVHdhPy8T9sgeXEZaa7EQkZ8hzkondsFezChqWgx+Q5Ax6Tt/RIEFNAaOiStADNH25ojL9gLz4HlfEuMwzGh5eWoJVpW9CBP2VsX7vx8LP99T8ft3ZdxM79q+cra6lHNgoUcPguqIHymqE8W5NV7fQv/7ln12H8bs3bEo/drtA/CJSwYbmCE+DE3t37k3f+7bOILkR+Eb/gUtDyJbooGTfZQDqvk+JUF+17sFl9uxZg/jvokEAN85IRF6VpR3LMYvQEQ/6ckRyk2U3mZBQ9uK+v4uG4u0mbDIhE33Tx/gJNrJPv7x5Vh0zEvhPaRJ5vXyMQgqzz/wxLDmhXkT5FDZD2D4EyPtwh/Q1NToDwvy/V4pF53QAWvOc47PQuxizTYVujVKETawXqWHZE8iNab8WQyL3qJ2XcSw73K/bDzS1ou66Neg8xxPJDAgQkEitC+38eS1YV9s4O9j364GT60l36dikrFmEVXhdgsFP0Myt0qdCRsWryfYIjCRmLia3HrtO7Sf+RD3L8vACFf4l+aLE+1+V7KpzQaFVFmZC0PVl6tyg8QM5qiACHuyLqdapz/hnK5n/vYQYj5P3NujfIX+51Cv5QgMQlXfqvzK6JDzDiKfFBErIkg2B/4mXDvL0LlBBh3vHuYclw3f8f974iJQ6RJeORQn0vyae9WK7qfyEA46O07rPO0j9AhJLa5eQAjcsTqfYuIFiaEBcsV9UEcGR0/71kggEOKQUnnX/BmpBeU1Deugd2XyDPBgqHZ0Q43d1Zc4ZgAP94BTN+CuMCA26o8NQ3W+0Xsv/HXQaECGu672caUYRyu4IXcijbzCFUStYJsg/7r4gEoBAWjAhfizyiRNbPGoVMvWksCZmISAGKjSPalgjEWg4wIURYI3JTBZGIQCFkBZ4Shs8XBiGk+kWyON92VKBqKxtGBLFoPkjmuDyNl+6DWBGCKq81n8wpuAllaaX5M2IkRvy78WSWzSd4UcIqRQVRgi6YTIZsQUrGvYwIEeIk0bEYolGy8MbibEZpQPK0rIBbZNGjbWg3DCtGBIl/au7nZKcEK0tc2LwreUMeeiXLTdiMUVTYMSKVAQsXEw1zHptRMZWJO0v+u38kWsdGnFd7BzNGDspE2Caywx7sQH1rsLzQ2WkiSRyC/bBCmTGyX+4o3UA00C5cbpM3/Pur/nJTnUjNun4cr8ivYcXIPsTnQBbaj8St5VVwf5Y8mfQMESHvKrjp9rBiZDXqAdcxoqFwOjB4FeYXZD+5j+jKUiKEnfqLjAUuIqIkZBvuZRzwEZFpvt+EUCeE52+xIeQQ5pkjmdcRkzrkAntI5B7GCJKduKj2VoQNI5/xNCk5iBkNtJy/l+yIrCCYepzq02YTG88W9k1JMIl4D8G45p0h31f/hoZTMFzDQ47l8xgQslbhwQqJXRKBGQyyoP/zFK6XLYu05DSziFnt/i93VxcT1ZmGx11csVur66o13a2tXavtRlvZ1rWtxrhtbe05mZ8MECAzA4MRwhASkMwgIAgmJGjCQAJkCD83wg3CldwgNyTcQMhAk1W8gis10Xgh5cpe2GQVg3XOeb/vvN/vMftdkjnnfLzv9/P+PM/7Ur7fxYO8INyOJ9UFHE/bThd2s+QiDvzPlWZlvIrptPlWeZf7IWUaOSG+RVqD2EICCcUKKXY4PPM5gnUELMRhZbwEWxka5tN2AU884/TU0GPWka09x/zOJniTbFJlAJ+ywd9ZZ7zIUhUjfEGlQu4iTs5nzG8lxOVVka9sqcMF+VLIMHgU4ho7UJcZM4xrhpBMVOSvW1GlYTasQKqflf4aqValkDbkDNZY4RBwhiFLDfXqezELdXiCg5I8MKxCHwH82qhinMDPOo+tXdbPMOXW665wscSXFXjvg0mWYhNsGJs6uDLhLhUKOWJFXt9imelN3ooL3r60ZIVUdDFNIJctW3MDDjeqIPEet35lhCXHJlA7sbBaJlqohrm4U4hpm47CLzmtIzPCcGitilUZjS/I0kfdJEclDiZfMQDvwC8UaOSsVUz4WV4XLjpyfjUlQR9D7UG+k5PlOHgIE90VoOGt18gkdornZg0J4/JT0XI1iV7+SjW9+AXRCb5gs3wExL940+tDVww5IzIxyh+jr6u8JfTxUjSTOw3HJeQXMbdCSyPICpYXw4a8Ee2d4VFK42KBcCGnZbTJBdvWPyj3RmK46fXIrhwerOq4wGJ7Fde2x6SUBIy2Ct2a8uO/J3k4Hr52Q8UINbTUIm6VQKK6Lyav4q8fCVoqAZ/eLVshb1mDWpiQ00qVoW4UFvQ9Hk2ASJi6xMz9+YZc6eWXB1BHZjH43SzZPuLH1i8sOU9tSXX14/X7LBwrnbj9oG9+frKvf+3adDJeqK74XxJVPAGONspulXjUuoWdl8tq0Pi/G2GM/74GPiq7NIcV7pvrGHuffNOl68+d7n3UUd1T3zPXcbdvIoYKd0UqeXMvb0vWyDeMHI/m5ButjanexXu2Xd79a0tVVMJlUgs+941kjVgbJsw7TCr05mrDW9ZBDsn5xlqcKs3FnAJ65VriKNZW7FRL0Hed0QPwXy7tH6leHW1taprpqWzpK32ibne0ObK8m+/TwwxdDoFPH+iD7ZAc1bIS2Otp/1EZ02X58LcL9oNgqHWkQIHNVDaK8y4v5dGOL69D+RfQ2MqSWwNim/X9FFDCKP7Eyp+YoxwBxZ0DhXKNVwaa4fAiDZ2cHGSHbcllt/9ofT0xynOuD+1JTM85pgdT9WXSuiJMMULifOMUCH8X7WW3wUc+lKqRQ9bXk0KhiThSPpefIaPriV4poTF/OzuIglb+z9tPLp0Ll/c+LlUj71tfDx+kvjbk2R9jyUA1ronvkzAf9ivwlOzmxhNsgBS5LuIP1hMHzmEjr/RSVtr4mKh308Cd7momI+gjbQQzYRH8udwCENYkexTaICO44yXOA3vvEbnjI0I1BjvJny6D7ZJVDU77QeshYJ/GBdw6Dt3ny5g38jfZya81hUYRGfsXfOxD41HkUkT3O2lkuB11g3jvcNe59t3ljK53icOHF8m7PwlYnTAzZb9UjWx30MjCZZyBJbRaS7hOrtBFU3ws5ZJ34N0ALme1XWmgsTDTQMWdKN7bgoXgyzkSLiE5nAda8m25FaWRE0rZVU9elxPSOI2Kdz9qjjNf6iWmnJGieL7ea+UIjcjF/lpxD/5Xq/3mGvJ4j8uodlIXY9SIRL5DB2XhReZXHO+RL6Vq5DMDjP2mOguwzluDHED1CptK8mRCuHtoa6/rUZGDrfWZWnqV907neMcEGmXubZeFpm5mud6n5VZ8HKXak13zG8xJOH0qtfrZTsH+rP4KeWIZw4e5oo2m3DFDN/G9pR3PlZJahX/1p50KjV/W67VTplhW0VGuOVP2WHC8NINTxINDovn7oVjP9chy/otpAAAd/UlEQVSoXLFgYXnTpvxRIRD03CIPIHRWSCH5sjvoBXA2cJeSnjJPBSQhjbL7gZhCaqVLZQxlcLeYSka/gCwkNYrJPimE/FhVIJU8jLNerEYjKYG+4rul5NqP7BfaIkpWamDZ+cMjpqJRJwCePSgB/fuJ0A7hq+KIyFk4frhwWJVGzDEBkMxuUWZP9n/EzKyClCKpOLruKhthdQhIZMteoZNrzwExRyQ3rUooo072xIpCjZhCLIx3BDzF038U9AzH1AnFgd14Q6VCzEYhEO2fuRvBncoSxBu0KRTKDP3TrUo1Yo4LyWXzd1z62PoPUUROqcrOLj5q1nJKdVOZBjHR8FSczd4uqpBQo1KZPKJ9+7pihZjdgnSl/czVNLN3iSrE26lWJuW0CNOYao1AzbKZxuFs3QoxJlTLhOI7R9V3wgrkOiQg4jE6O+gw0y7JPiyskK5G1TKZI39cR5Vzqv09VfECoHKJGnDZzqKSj4hyvt558Ze2XIRGHisXyRD52FrUoBGTAqlt2AAMUaGYB/lpoK+uhtmXCz/1s2PwdTmlXiRkMoGOtrwExMmLUfU7gmullyKkT7kLMm544L/H1eudQjszGkQyT7xGTC2DVDstlAH7XiB7k1uOIqsEbYI3SO/rsbsRukLKdEik1tWvkzdJj8XBJ1e92/Q1iuC2A1Z8Jh3SRy2O5L2qQyLnSBtVU19eE5ZB3GroUYiy+xDVsrM/h5ed1XQao7kDBXokQsru6uqDNY41KzqJ/iSiZ/heeNXZL+qke1GljTHr7ufNFFQ7LAglZu4RYz6OrJJDUD4ELD1BSRrd0iSRFjdNrRfjOtoX6iZlPbMcAsF/gC4RuBVHgAxoXNUkENKiSOvSSLfX8V5/lQsm5dj2vcvESli3JQn1cogEvcKUJoHUENIyprZhd8q9pN536SQPsO4YJF9SJa0ekkYe6ZJHALYuCvVpxB7JIRfdXSG1raXQqt8FziwyI6aZZPoOahMIbMLE9WkkbTPA1yhhH0L06cxf0WxDg96MOeyqf/ZiwBZMUt8EbP3EDVr9rUFClIvIGf3abmdRG5ZPuBjmezlirmuk0vpxKqerCfZpsz4mpHHtvqG3h/Z+uK2Kv0ifPApcNb7XrS3rx+lJiEUmQPD79l/SKUr1cHZdozzgXRrTOAPT4mcEHX5+B1bJB2D4JMceDKGn4hKuhjDIGvmvTo1YCKPnnWJxcTwg2NbJzQg7nD/FoPFZo1EcMJJtWadGVhk5K/fgqwTACx351naJONIMoETyZZ3igO+RsM4pDKKNX2oe44wdov2T7UeTrGfo+hjQKQ44j+1P6ZxDIcPNux6bhw1EW++x7DO2ve9cYxnKNFfrlAYh1d3s3j5FcCTgPEaO9Sb5jv3MgiNbF3RK47xbaK3XRh7aQdwYMEvLWhCNq8/3A8DH1ykMk5DC7tQ5h8zQFoYmXgRGzb9yqMMYxNAqJ10NoTw3Jb1uIZNeG1fZFwPcoeQTevdJVEfZR+6luGnReOOBzklkBlxRvOQ0uLczesbssfISulChECCHd1+nMEhgEK1Ouy/CnlAG40+bt9Egczg+J4BG/lWnMCpITKKAzlmE2TWyAqYR/klpiRRMo14MVFG95J6Z89pIuGbwIUEXYLGu9yid9fpMXo0M65RFqau4X3AWSI3UgDbJ34mZKn8Nr0aCOkVhEukAvTpnkUG3wha4KKBmrrZak7lVJq9GpnSKopwIhtEaXMtAjWGL8oBX4D7ioTWOfO2Iu1YOhZ6pM3KQ0Ui3HvlQcZB2bNkKXmNNlbvuOoiU6igjGqdxg9Vnt+txY2x0qH6P18Fqdwvw+3JQijqVuqWRSuxT9ZRIyk7r39Hll+xRlGmNkhikYMH9aX3zyEhkPsM+lYYyV1u2gfn1INq/euCqRippfIkKffMo5UMPgqb7UZB0iCfZzrp6alGLk2g8tmIcnhwpkvKytnwOt3tV4ObNfo5a09SrL92fAePD12O5CiIg1uHw1r/eRL/UzjE6r08jDiW2tIGPzQjfsR0AIRAvOFfHLX97gp9Lrpuu2TRdI2FdyfYhXocMxMofAuK+DLUaQi4SBbqdCNwzmiZylRcH00+K/1qTVfgSTBBZQBvEtMWJUa/rbq/OXJL4+h+grXgCiMTjyyV3uxkHdy5fWaJnIhZWPb6FWQkhIp+dxU3iGwPeOK5JIa3OdUA0WeIWv2IJ/WAdyHDf6vkLfzx9AXhjmyaNFCBKszTpmIivi/v6As33PTaiGwNBCToIZ/UopAlTvr1Kx0wSDIweR1N13dg6xb/X291DQeOKierYJB1MBA/nOMrfPF/wp98ggr93RYdCLuI6HMTUFz6zFWy8JiY/421bVIuhwmHSNTcAW7eyUvlMbLEcBoLXAziy9aXlLwy1pEGeY54GhYxhm4BE61RPxVbklqGSVB7skHzOjW2H2eQa8ro+fHcx5dwJeyt2/CIAndyznq+4HYolOOjarVwjlWiFKC8rNWxPl18V08gBGyge77KPu3R210XxGjGW1QLIKkQING2w076PWyMtLhUY6DVYRp/SuSRFLlJQIzmeb7ltpYeGK8dWE1tvL69KJDLEVm4QW9I7PDu4NUK6X1vUntzLBtsIKVwhN4TQe3kwis56amEhYKYv35VcEXtjr6QypHwNmKMpEvpXcviz7JeIIlBJOhvl6EeojGX0UCwL8BDOtO/mZYzVEyWgsC5JedTgGIpoRgmvWNGLAhhEd4AXMUDpNlGrSiGBWzwKMfy/KJkNgSyxhn0exGS+Y+vzjY40UmJLV1RpZM3gG0EVfGpSDT50PgPc77tsTYzRSQVajfp6NQoZMXhH6JL0yRQ9IdnbadwL0uDTH3msvZGwhXcGaQKYOqdCIZ1+bo0YhTdlz+aaaIJ/DHx4r+dTzqxuvXb8Wkm+ITDCkkGOlO4nT7kjMM/HT/Y2xkiHit7aNiKfUpOIGkKj8J7M2SxRlgfSa4dNo2OeHzkNpTL6/39etlu2FDIER1RikneF1hQH2bMJBm/823NkCxc9KeDUgCTvTVOIYeSPy5pNgL4ecQgh8D/KesvjOcOFJilxjPBJ9dybooaE4ZWEXfLNSvBIYV5rjsdjS+vi6LaOIE8jKPEqqQ0acsY1GU3bfQNOX+G/2HcBSGxvHf8hmBkEldbt7beIIWvExddJasDxxsJcJLcNEhL7GI979z/mriUmqiwN3xZ8a4+vNtq240y/xkczbfsaRzM9xrZ7pm/lFhWwUhgtQEJVgJhIkXpYQoEkJkAikKiBaLEBN6Ar2AAbk95oDGLiY1awckysuPCx0kWbjN3iiPf859zz+M+h/qVc/3tuffee8//f/wrwvLS1Ezh7xGHHxpOgKsk1wJEIw0MRwB3Ff6tWWO7+R55S3TNcTz+GAUnyuI0r15UCJqc7OW7BESKKwf9zHtSmhucgOcz38GPqxQvtzTa2lNTJZ9a1l/HcISJ7EH8Cj6Pk2Grv8iYeZBV3rP5iW4OMSTKPPS18JxpHp3Y4Avt2aOV28W8uw72zlym5ZTEv9j0cHzl87nZ7Y990VU+g/Eg01XCy/0Vrt7cdfE/mVRnu5H3sm5K04O63k5IWCifBCWRMheWzhQL9rDfSKb38OkFhBrLXDnd6vM3hUVFTcCDHb/Kl5TatwpkJSu6glePJk4ZEtogRyVTPQUYZVXDkpNdLXv7q/jG21XVfZAJZz+QxEYvOK00MZmE+numL4qZ/PdtmTov5B2Uy7nuCjnp4pIszL+7qKPMgdtINnGd8YFIwBcaDsGm3KcTvTN9Mgrn2y0XP6B+x6Dy82A3qSTX1RMSA8w9eZ5554/0cS8v2lwk/sUxwZeGqdw223NuWfZut74SwcRPuFdm6mtK0X9E5Lh7Dj/ayAyu1LQnWG5icDEl4qGHm82aLmZuWZf3k/hO78jgpQ2qUjHJaN1U3a+m7jJzVmmzzCHY9HapLQVlmE2dynZLmd52EO/fP98ON57sfncknn5NbY7jDe9f2V1ykm66d8onupy95/rDB6qH+k2cenp8YCASmMw8banIdUwr0DStFKglzUB/NGnu83/1HZsOVMellNo+2M0ApH3zE2K+PXVDyNWPYZIyXpIQ/kX2z+v0eIJxOht+eUCL+jnbUpQAv4nwX24NwepU5spqjRhGhFxOdpuyhm5mjFRhxq4vKiw1Xd+TquipSscZYoqJrMvei08vLHsdo4JAcMYlIkGoSUrLO9rKHWDnUM3S6xDYujzECTW9k0uTaaWQUrYpyg8cUK+qYx1+N4xG86cOS2JS5ZR+FX6Meiim5wjXJivDbaZ0OA2WmAWlOIQbsJ9LmFg7nbb2kXP2Ta0bP6qUExLCP81/TgNT2oSa1+EcdYx8J1G2hkXKsHyxyjxZbxhe/DzQbBiRU7kOWc8YguQX4v7SR4FuJ6XurV3DtW2cNAzKioUDqZrGhxYcbiXs/olz6YxE5onIDSXyQCk8bNrQ6tFTQXTAFScTtD0/SrjwEjZ7eS1x2lyC9h8wCktZU0jhpauNyWcBnaK/CtsXQqOO/AL+IC+NnjlFAIlU+TXLF0BMUf0DFJaiO8GZ4HPh+8soPJ7lmu40CUqqxDecl1JUeS7e97nr+6tmdS7Wud7ZyFmf7kErj7IMBsZYXkNfOLgSZrjYKSOWwPkB8/hDWMsOhuvoPwimtH/z5fZFEggrI0nkURKxDwNXv+20NdBoFxBn06ZQkjhkff0K6bRUf/FDBmUjJK7pRtNGiyj+Ay3tnzpJhs18I34xMBbmKkExMiWj6T36wvcfPNQ0P3qfbd7vogFhrCyCD57dRzn0thu3eWu1dxltUlxihE9LRUn41BasYiJDZdL/vH/FQddgsHnawUTcgPr/aLjzF3FWj/MGYTRZTPrfzQ0z0DY4pvGbBsx5kwnNeR+FrNiBW0ad5AUjcyGSEnDzbFsWyr/cu8UDE+mqBkAd0d6Q319LSdvH6FCYz4Zjp+V4laW+V8GTOTnPtWwv2WJ6yfSHvwsbbKmY51VVX76SxTv+0z4zUyBkdfKXxdRyqFu62OGQZ32ucBt7jQMNFjPSCYmMDJmUs+lucdDRP4GKrxSX7eN4TWhVC4FRImfy6YQoQr9FLgHTzJzF757X9gQ8Qq+hLT1VDrPckdlHNVnYeGkOEuzTp/yaHALVT7kUDfruEExGIBXa9xB7JiZleFUxMjvCbFDzghLLGej20beYFhBz/5pIx7500+0J+7xo0iEhA6Ny7JVbAmPA41ldzI0K003QZf1y2RiIiCUiz3yAi7qFHTINDuFwsztT3CT8gUKREwp+ueSqFSM4kIL4H3N9yUPzbbUE51+HsrdnvMHcywpF7EluX02gUEW4DWKb10AOmxu8FENnBUiTy7f4inm8XNwsIMGQeDhNK+UhMl+QzAUQWMaiUo0LBb/Hs5zbDiDzg4yeiUspZWesFiwUQsdbTFY0KLqpOsJlfu2FEfDw1uFMZOd3PGDr/KgIIi0kRzsJNjIsAUtJjGpHHHIDItkE6zVC6RQgR+kEiMct4WqSS9LhpQFxjWMGjTT71mHGQ/F0IkUUFND0yTdhF+jHljCPyQNsX4mP1oF0qdIwwPBK55so13KxKl3FE/B4HXWlGQTk9T3qfGCBAFvCMSC6vgrfRYr1xRDwqXZuzKrpfyaQEgbKKErcqkw5q88Xrwn7ziDCTmZ+q5fFFaXoL5wkiYm3D5mXPx3kQKTUPiK+fFQ5JaNoSPxYFhGb/KgzqSvKMMQzNASIMRj6oHPCPo9i+v2dAwIquKCxugiNBamgOEBmkc2zqdsZ1iuqVwoiQJe4Kpta7oJo3JL1zgEgTCoVHEUqS0F5xQKx1oCa1r9gbktwcIBKjBqj0HVLLJBD5DNSkGAKf8DpLWuYAkXrKWq5jEDqUHKE9EojA21ZUcYFH4nOfXeqWDIXuRRk1fwpt06JYW8qdxzPNeYcI3Fc0jNPYoEElT8slKyFV6uX+w8xcg//kza51Dkc5aDYsXCuFiPWlFkR8TcE8ildRT/brSMpTOO7hW/kZ0IUxpPaak1/WL9RYtPK0Trg3SCKyvFATEdiWDwmm7+U2sI4aLOXQsNv58yQRIaZXykQQQbInlEcBK5BFOaF1S1wjC4i1kVR2BmWZfWX5xDSShT0lWTTlUDxsuzQiRWRKyjOcdVJrwop7zCNCTqV6iaccONkLlkgjQox4te07SAul9dCxh80jQvAIU4gNi4ARbJ/LAwIkyd9CWmj5OGrUWEV6iIjzK0Ttv6ikxAP9hIimWyNYK33l5ItD8kBrjIYsrPtusQIixBxk7kHIMrv3HBlbbi7QSWBqv0M84ToVQEgCOIgWB8/AZaTBgGlEbmgNmpG+11dKiJAEcBRtrZRU/jOmEXFZ4sW42TBDOLTve9mpL5+KUk1+2DAgbvP0Hq76CEasitkoBTHIdzMvfERXkM9BNr+JPO9Nioj8S6Mh4o/rCFOKimsRHbjaJ3Cih7PddncmXTdiitszbdFt+U0rpVe9XbhIERHrO7fKB7o/kjKjRIqrwjmCrP6kSjkoLGs0xdYYJ8k1g4C4uwB06QXctr9RRmQrUWSPSWCA5lbEICIu97AZ+/tsVc9l9KS2ujEXDSbzO1eNAeIv1ZucNEBwZgeUESFmvKK6cEfAmPsJY4i4JjsWZ5D1V6j0eaDJp1ptIXCCkJMyBEjPlL4dGXJ2bHubOiDW10RmGeaSm+aUbqzTbVMQx8gXCIhs0hNrpzhoM3LbCCATLkqrG5vlTBIhh90IiJAHCeq2BRfqjVeZQGTUddfL2DcgvJF3477V5FuiIQVmZVrGmbPAVcLd7LMB+w5E8ch6DEBIjwR35RGdWbcsCbj7z1ViOyPkAOKfURAhq61Q2ThKN8OpAd2IELGkx9h3eIJRWcUVtQonEZd93sFrZSAi5Lwc9KSLauxoFb1s4azWdc84JTVaAckQ7diKp5Fv0Y5UpMBTtoDauI/WKzyY0HmIEJ4CfUqqrHRgFSnwlC1gulIV1CZjGX2IAF0F+pFvESW2xX9jAQK05BjDfF2pvc2rJ3QBkkMveiXlMnGHQ2iIrC7Qunx6pnxEk8F1BbAmwshOaT3xiSwtQkPE+rNW5onRBSOkxXevg8y7Vt2nCAqnRXdJMOdRNLAaoJXjA/LEweh2KHw6LlyJiAhQ24P4kSRZ/dBak+hnCHw7XGO7pxqxjgeSA+QTPMdbPrOguhQ3x7DnMuU+uBM2AAJ1ByoigAFcjeeTsPs4HsUMWvbReqeHUUktYETWx7iAWH8jn+EJ2vo9ercXX0G7UxP1c0Rt/FwFDNE4gIwIycnbYTSfus6rf82JPpT7+M/S20WOYCJyn9S/HhsQ6CRBo2efezZ5KsMIKkaPM+6AmQAO9ULZjI4IVEqNRV/HvDuhOR2qNpf/HHPuGWJiYH23rdnQeit7CrU9RpKng2PlE6Wzt91jhgIeUxcAOlbNX6kBETIp5c1RgtPk3c83SzEunwJa3+HVAxrP470HaP9CByDWvIPA/p5FeYhum0/G5Kpo6zlGnaG5I78Cyn9crQURqAWEHUehZ4/ZvFJ9QXjvSg3xfILnkQBpgG62ydIk0Pj2EIZnJTJNtSwn8l0O1LTyqUUiaxLQ575LFyDWWmhQzJDfLCJv7K7Ia77fL/D8Bfdc2SMogGShhi/sAezYoSuclljCs5WKO1+mvGYy3hzqFtCI8o0kwQzNjZZG2aXHuZKakFyZbmmAf8dA4vXlKcGhZhgR5GmwU+t+nYBYy1fogCQgP83yaORy/+RgeyybSfZlh1MNF670pktlBpMjlOjC3Yz/OE8rItaBQg3Rnqw996LuWU2AtHLhDkuzwB3+7ylZXBV5gIhyAeIR2KjbohsQa/Ea8MZpFdZxMg8QUWX8+2CW5htLv6yGW/zXKhyNvXmAyCM1QBrhfmF7iwwgYq1cCue7yddz1uYBIrVqeQ7wUKiDay0jsvkjOC4qOxsiWZwHiCila72GebMFf7IMyXbKkKvHciRXjZ0PIl8UE6DMGCncZBmT7ylPNd4k80ShvEBEmnqI0jbdHyyDspXGbrSJF1dGnbxA5KmkAf+MxtVssYzKTtqDTQmHfh7Z+SFSBT1J6lDQZZZhWUdlZofEmuDHwnmCiIy1deopTdtOy7jQx1OX9Ask6/ojdr7IBeHYJP0E3GrNgfyvvTP5aeuI4/gANrbBrGYzhkAwaxxcMCmERYStGLAMFsUyFVuQAAWEBEYJe0IrIYUeIBJYWBAu1CfaU3xBXCrlUoSEkSDqCZ+qSFg5JOWUSyNVantpwntv5i3j5+f5/AFPb35fzcxvm5lWBXVV6Qw6hN8XjSAdvWgZ+e9OKGe3oh4EhWw5TU52Ba4E5LOKR5GOSYTi208e6peCI8pAkCiKphme3QVxJN0jJkE6OlzQeV4PzdtPUQ0gaJhv0bcpnNEnu+YcHSJjEsorGTukq06WV4IgEhfPUBJfX6W6mtQ2P8x9gli7j8Yd3ou37kP3G3dPYH8/0OPe/dEx/szO8oMv/mLKptjmHbT/rY0EQUVZyFzm83qGPj8qPj2FVAT/Uone0d2VR0Nj1A6E3/nnRI/3HF2Z3lWaDX7w9IqhAq1XgmCTHQ1lweGL5x7f1vzW8Vngap2LGvYfdibWoDtHOl9tBBYQGysGFo5vWrxsyx8dTLFTVBkQAZX3ca3y1m+vfX+wSXZsfnCPoC2Rl9dnM6/+C6s6955seHbHISJZQxIQBTF6BQY5nrm2OL2INzu/i9yENNDX39/bDaulIkMJxEJDubBqdI16lvjop1p+fiTcT9YVAxGhKRRumnQ5fDye151z9wnyl7LGUiAucg3C6HH+bs/CLzbYVmAU8rOA6FDpmngfp/1amMuY1yb5zRU0NauAGNFkRPM6zr7ArEUofh7m7z+j1RogVuL0/GnycHXQIiS/9POkR2MkEDORan7WroETv0Vg/Ac8/GeiWtx6/BOdlBnlnAe67rRgYIJjW5L8Xo4ShASa9ghu/u5KpwULp1wqyhH1GhA6VHMJGfuGLLjYYu9z1WWBkCK9ln26ZNqCjx22f3lXA0KNepYr13ucglj83exWLB0IQbJSWe0hmN8MdbH5yUwzCEk0CSwG+xavIKyajvNKQahSFoU8RTYxK/I9sh5ROSCESWtDHO4oZkEsp6iCaJNBSKMqQdvgT3ArsoK4pbeqQKhjRir6/o5bEbQmV0MBkADKChn8kA8xCzKNEiLK1UogDarhp8k4ZkVQDqUazEAyKNWwu4nViVWQl/CJrYg7SiAlKuMhB36AVREvvIuVBCSGSgcXm1iXMQoyD6tHbAuQIJEJUP0qj23YBNmEbEtR5EUCaWKC6ld5g0uQ7XXIPhMTkCxQ/SoCPymGmmRMbFEBKaPJYPa67GtYBFmF6muo0ACpk8y8nTzE4QIfQ8SGsrxkEA4UpDCe4RC+arXF3PWgqK0E4UKukcEY/UsCC/KIWZCULBBO5N6jX7vePxFUkAmmJUuRUg3Cjawa2gTkixkBBQkwCCKvKQDhSFohXU/qgE8oPWwXDEVCfRoIV9JLaI5fW93bggiyRx8Ylreng3BG9bWRekMZXRRAkDW6s28KY5UKhD1JGYmUXjD/m8lHmvz7NxVpRI5/yydVtRSRvPWQ37zjIvUtExF3yfT4346io9Dk8RyPgnygvF0mWpdORPiMIgpJunr4elLu6QK1e1VMBLhBEipf+IiPp/cs2++ob5qIzSXmv4liyvDkV+6px6FzmoMHScT4N2OiLPx27XBzhJcWaKJ0bSQxPWVWOJG6aNLD/uDu2AVdXlGvJIanSaxk0hSyDtl1aTsvBiTbV43DC9bSpbp+Q29UmaG/TCCexISM0WIebdZpZALlVPWs51LyfdUYeEDfJmz3bsAFKINbCwPh1hUnlBfM1LBi9/qYtpTNT5NMFwI2tRBTw5LM3JJqvXQdO2/O1nc6p1xHjG0Ncj1Jm6BsJhVQ7Y/28YPA1Ou56UW/f3bv6ebS8utPgasRqMsya8mChbpy3RLyTrs2E7EwuhucIJge8Q3EvKyoEmaaGEmalzUavYxvOeQ1WcSuXDC38apHbEYysSlXcur4u9yyuZTYkw9HuD6RDzmiCslyxRul7Vw1kRnLYogd+SRGl8pltWqPIybkHVWVkd2l2/l3SLpdKNLUqPGJTPuAyCHsRCm+DX91bWxNNkklYhGlMRNicsSrTaQUhY+47LxU6k1FZtBXaYiRsJNeVJJg+KK9K1qbQdQI7mwxlbU2JqRo8++n1n11u9ksiZXqbzs05edFq7kxAAAAAElFTkSuQmCC;" parent="BhIajO4M1uqcpxpR8eOI-30" vertex="1">
          <mxGeometry x="90" y="10" width="22.17" height="28.31" as="geometry" />
        </mxCell>
        <mxCell id="BhIajO4M1uqcpxpR8eOI-33" value="" style="group" parent="1" vertex="1" connectable="0">
          <mxGeometry x="1110" y="82" width="120" height="60" as="geometry" />
        </mxCell>
        <mxCell id="BhIajO4M1uqcpxpR8eOI-34" value="node1" style="rounded=1;whiteSpace=wrap;html=1;fillColor=#1ba1e2;strokeColor=#006EAF;fontColor=#ffffff;fontSize=15;fontStyle=1" parent="BhIajO4M1uqcpxpR8eOI-33" vertex="1">
          <mxGeometry width="120" height="60" as="geometry" />
        </mxCell>
        <mxCell id="BhIajO4M1uqcpxpR8eOI-35" value="" style="shape=image;verticalLabelPosition=bottom;labelBackgroundColor=default;verticalAlign=top;aspect=fixed;imageAspect=0;image=data:image/png,iVBORw0KGgoAAAANSUhEUgAAAZEAAAIACAMAAAB0LaEeAAAABGdBTUEAALGPC/xhBQAAAAFzUkdCAK7OHOkAAAMAUExURUdwTAAAAAAAAAAAAAAAAAAAAAAAAAAAAAAAAAAAAAAAAAAAAAAAAAAAAAAAAAAAAAAAAAAAAAAAAAAAAAAAAAAAAAAAAAAAAAAAAAAAAAAAAAAAAAAAAAAAAAAAAAAAAAAAAAAAAAAAAAAAAAAAAAAAAAAAAAAAAAAAAAAAAAAAAAAAAAAAAAAAAAAAAAAAAAAAAAAAAAAAAAAAAAAAAAAAAAAAAAAAAAAAAAAAAAAAAAAAAAAAAAAAAAAAAAAAAAAAAAAAAAAAAAAAAAAAAAAAAAAAAAAAAAAAAAAAAAAAALwRQnWpKAEAALsRQQMAAbgRQAECAAkBAxsCCVcIHgcBAnSoKDMFEhICBq8QPQMFAQ8BBRQCBwQAArMQP44NMQ0BBDAEEbYQQAUIAiMDDC0EEKQPOREZBngLKiUDDW8KJxAXBTcFEwcKAklqGXQKKaEPOJ0ON4kMMA0UBB8DC5kONa4QPZYONX0LLDkFFKoPPJ8OOJMNM6kPOxYCCGEJIosNMSkEDiY3DQgMA2QJI26eJXKlJ1kIH5ENMj4GFnOmJ2aUI2wKJioED4ALLQsBBG+gJnGkJ6cPOnoLK0oHGjRLEroRQVAHHGKOIUwHG0gGGaYPOqsPPBYfB3CiJj1ZFUdnGF4IIbUQP2YJJF6IIDtVFBgjCCk7DoMMLkIGF5QNNH4LLGqYJC1BDzFIERwoCWCLIaAOODwFFTBFECAvC1J3HGubJFIHHScEDhkCCTVOEgsQBAoOA1V7HTUFEx4rCkBdFoUML1qDHxIbBjdPEys+DkAGF3ULKThSE1QIHj9bFbIQPoIMLnIKKGkJJVmBHkNhFyEDDEUGGE4HG5sONl8JIWSQImiWI0ttGkFfFhomCR0DCrAQPlyFH09zGyQ0DFR5HUxvGpoONm0KJksHGmWSIyIyDEMGGFsIIBUeB2oKJVd/Hk5xG1F1HBABBnsLK4cML0YGGUVkGBchCEZlGGydJVZ8HWUJI4YML0RiFzNKEWeVI2gJJHEKKBQcB1B0G1MUs30AAABKdFJOUwD3Eu/8+vT+BAEG630Wwp/lIxoMr9ceD4W902UvWuBRNJaajMkqkkQ8c3jMpwm2xVXdN4GyTCdJ0DGkq9q5amxAiehhXuNwLMBvWdPASwAAIABJREFUeNrUXLtP21wUh/IIlEeA0hZoQcBXyqtAW2i/9EH7lb4tM2TJkJUhQ9Qs+Q+IYCBLMkRiIWSAsBBAImEgIBAPCbHAlBIkHhlAQoWFlwSV6JeHE/teO46vYzvumeLbYv/OPT7vc52WJhEV55fnKTKLytur0/4iym0oK+/KzCzqbLqX9jdT8TvlN9Xd5s6ad9U5kZWvpQosSs+aCv4SPkryq2KoFW9eRhZznn+vLVe9rShUvn/5d7CR87EZIym79NP9tNsfMjEqpSsfylYpyJ/Vr7MA1FntOWm3PnZkU5ZUH3PkL5D6txhEWW8eYTQqrGxJK6isKSzKUmSral/IgbHbT5UV2VhmV1tNZUFay6c2OuhHpVnw0tt6uSvIY4wrZatIQ4YVNbakGPmdpjwSjkKVzZmPxzJUk9v1TcrWb4Wdb2qayjG+VPU0pcaqsog38m/5taXlbYWtyqb627KQx72aDEwQKkxdFPa8TRgWMmpkEJI1pmOCUeuDsg5VXnZ60SNl5S2Rcd/6pGzuSs/OU3WUPSgXjoX0L6kOTZSYSJSuLBYzPn+dJRbw2tyUSqQGE4/S88XymTllWSLifhx5hmQyuP9v/pO2qowsRVZGUcUjTFQqFCeVLBEZdvPdrnQFpsj+/OhJ/ov7Ihvf94WZmIRUJUZW/LBIShYy276L5xILarIxiSlP+OS+OkNqJtJrSsRx4o1I8lCrGRYX1nWo8eTDlAvEOHzIlb+42fAXEdz9rVZERjZ3NseM8OIa7plE1JI6YU0WqkCcxxo/vObt9S8Z1Ei3aRXcnxSoUF+tbj+O477TvR5g9RjHN0CZ/EhwnyIho+CXXYlgg3Cc+zg+D+y91r3pCzLmUCNuh0pgb9Ki4mE/Z/EQWXd7tRSGfwaXPFTb5fUss9/m8/fGpvz2sg/JKEvdh7L2/KbG74mcun6XqtbGQBDsxRxFHL3H9jBTwzwiMIEqdy3Fda/qCnJeJ3xgD8OaSxOGj1tOj2JrY6GF/lGKkM771zi9cPzzk9vt3PKPbps9QPEUs+Hdn4gt6PwXEX5wG8cNAEjZcu9h9aviZARz711HlYLrK7Dt2zHMuk3g4gQepUt39DWzhK8Hz0h3j+Mjy5yeUcHPzVff5ejCN3B8L3a1PBIGOhDd6UmPJsrMGvh3pgWbY8ns5rpTRR1f+FW/GloVSFqpM4fA/j62OSlv/G5MJPgS4T4GI5cDs7GXK3hlX6XuTHw1ecCDkXcsCkJ9VG9fEIg3ejVtjeD8STiUS5KTeYpWnV0HwnyPD6HslaKzAT01Ry9YGc0EYovnOvrOO3EK7epJHQnSCeFE1eGrU9KOeVzxH/IaVenvPGGB3LtB7u16GAah5D1bUZRhHfFuaSh8LESdzsRJH7E0voy6W0rE4KvkLg9PvmwhUR/4J0OqYqRKBLcG3QdpyHBfxMEPRa5+xSzeFpvjbEarrJSwhSTXGk9MUT3U3TaOkChXMLXNArARdorOYR+FsSH03bqLlDbef8YrOXUBwMf9Z9goDpIvagzC1Bfm30FcDUZNyDprcPkMpbJS95kF7nDwOVFXsEOAOA7v9gwF5MDECMSEH7tZ/w2s2Pjs1luUeLiDNaoKOrL5qYPf5sGlkyubm2KK1TMQ9kENzkoDQfu0EPs/Zn3kNivB31vxRZLHvbPVwJYPXgUfs05E4IMxSL1BW2ZlR40PQtcWSuTodV9feXZ8P8fNU78Ma4cmFgCl3AXyL3syDuGZ8axsE/u3hKPSqP6CvDAbYxLBA/FFksFVJA1sdZ/T0FMWwz/nKFtsubFpUJmYIlyRc/YEfie32HbyX84SYa9WdzvomCx/poNRypwdWSI4YKJ9JtKMsWhJxituvdrshO/VbljpAbPUh87DQPBNmnMdM/zlMWum1ca5wZYokTIw4hpZQ1cRmJaC+q8l3rNTlvojl/ydtYQ1TLwPwXhPvZ807JGVJUbF+pMg9eVaIHqXsK4bwMUiA4YtRn+zRFxViSOuEraKyTXleX7RmPFoE2wk1/QqcatWvSsaFxOL5O9pliD4TqJwsYIF/xj5RjtWRWNlP5FAiAZwYirl0P04wSUgTaymsWBCDFRy6c2DnlidY6FfCvSXCQXCOdrqBPiY83qNRqNer9MtL98MDTm3F9y9qzaDFDzhVieBwrBDK+Q1svLQTuNeexlNB2/6JAEfmHX1Hi5MOs+Gjm6WdTq9PriNXq+JykgrHx1xDuAppBkiRTnAN2CRZP7HFr/TanLaffyCyBjMqeRIs0AB9YajRMDZ3ZVU4ifiYSOTEeiKn/OW0MKs7pDnG6LHupLTIh8/AsZa6o2UcrAREsQ0ERZxtMK5nTSb5Y9W0aXxgPGTSS2fWOsh1Fezp5SHQDeGbRA1P4g+xmHgO00g05HqB1E7SR31HwGwuLZFcz/H6zulhNaxM7LmBI54MHd+immjyG4i2nWn2AZDva4qzlWUD5ANXkoxG1HLbz2DdrqDET5tsFoXLdUMTmhSa7PAHP4D9zllKFIZSi0flK4LPLjCdOjkEy3MmpIJfBycwlEgTNk8YaqTyoF24Z41PXW/nwdLxCAX9AEQ1xOE/kgZPDJmlwtTcG+oLEHsTuujpZAG9CCwdoTOG21WYF02XDmhWQjYub+EsS9b5YL9HJ7j4N4NLaRFj17ZsDWoZVd9uP2p3pELco0e3tVyrgJ5ylATc8iFLzDpDbpHcIargT5pLFcfGKQXHNMRpjkUp2wY00yyRcCweh/1ywY4w4idKpkuu2wiSPwAqjk+p2Cvh23WiGxg/2ba1Xpeoa/ctB/uLVKV5BvjMLgsaJ1xjo6TRPKYx+Pkw9sAeCxI8TWuF/Fa5IPayTj3z+mkSJx+l4/9gRYJUxYPNHkaN9Dakg6T5YL932eYd5XLFN1XtvkmtpqN449kXhQ8hpZVEqf6MykVHuvuZiKHFWDeVS4pSR04qzxvWLe5eg/3phP7yF9u16U0FbADLWPiDqXr3dK4dc2lyz2fuMg4sefeW7UNG/ZdqPNBt8Aq3TiSOTnyzkoSlIFTKnmRL8TcgSbmxiQp59q8N39Q/qAPGOK4w8WRgN0RxOGZgA4b8s+Ivg/joJJUhoE/gFRkUHQYM4tHmNGAZheAytwzTrFWLcgYYlNXc+7F1Ie7Ys9LTAAYv4WBN0urIgO7h2psbhPReY4ALZJaThKBsiw9agRpHf6BYXO2QSmVpJjejFb7RLZWcxjWM4q8OTcAyP94VVF6kdFe2EL7te2wS6YkocL2P1gy5haJ7I5QdqGeQDfP4PGxCo6VxkooQhtFh2xeDSlnz7R4bv6gG7LHOdBRdfECrZHpcB1n7AD9TzcTt0AZlQQyyNg5H62OFNa2t8RKUtxQcatemtKo1RBJvhf4VPm3eJ5WSHuVmfjESGK6jBzOM80eiLI1YOL+Dzw/Lk4r1zwbiV2XPXz+GjqllPWVexOxXZAeosYQOYvcfXgpRmIGHLJ+lgsaLZMILTbN/GHEVHrPeSXC593gpjahfKSN1kXkN1ZjHyUq5zfnwu8QWAKGkhGb8N78lDghrV3jVb/UrMEdRKTvCdGnAt38BsrHXYSmmlZ+CrxFYMMhT1y//nM2mmqv8uPDAo//Ye+RjoEztBF1POP7qegwuHpV4MiL5RC5UeDoaizqAbZ5tu3NR/RviiB9aoeJSxPfkezdWMvfLahDGeVwqk0I2o8dMDAe87zFzlwSpxAZKkTRquM8Tzz9w7FG7FBAuOrwVHyJ/BLOnQdiqtgzytcZLjF+WOhTEhN0UUi8CxPjrlicoXcIVvPSxxOISSixW8/JZ4zxdoRm5u8MIEzQgbG9WitE8W5kmzTymwIFXnFPjvYKc3+730vOPm8IgRP4uuNjBImAw/H7W6u60J10o0m1rQ2kLfWuC9IAd8STiCAjmPZ1ErDpNBmtsw+HA2f9mGFDzTohG5/e05qj/b8Pkt7EvgkSj2nYLqIjuRRCHqSp6Z6+SPZ2Fp85ZBj2+JywCn+/QqSKxBRl+s3rT9p2aeKdT076MK51kRIcOQVLbk4AlK9QcnYw3/oh3OnWLS9FJlfJViGdcT6Hl+Rt+68oKE0OwaLDGSAGzkPK2aE+olO4Am7fNKW6g9oRZe82COTYNQZqxcx1IRjrwMFpNMdOHxESsv2zQ821bzzJ3GqFWSLTSVkWapfvRsiDymCTTYH4TfxSEYdMNYvUhGkyiVOOi8wSSeL459I2NSUeFnJcYJH/CSvGgzGLgtbtgJhjj3fiaWCWCG+sPqAc6Ba0sQOF6unIn/ouYzyjLxgde6nv4jXP4MjDLBGesWGfjZotmIQdUTVAzZF89O9IV8T5SJhQHh7wyqYrXi7+F7NEeH1ramATqHWsXvxP3bUHVXWc8YMoD5Uo2khsKozYJBqDUSdWbbWNmlo9x4teVB4XEx8oEhTwgZqoiIIUBS0hCKKRRy03jB0eGh5RUEEuNI5mgjpTH0SF2OhI0dgmQqt2sDR1Es45u+exd7+9h9/fsHd3f2f3e+73UV2uNFo1mqC+90suFK9nFDpEbqlOEjfmfXpnpEOUtrO+he5apcXbXIha3QyTV4+lm9WbLrol+OZUe+9mcidKqjieVEb3lUNglbQmtg9Z3Xi5BziBcmy2TlRK2qLb230OzYjedzzpVpHxv6qN7ipTGqQT7E9GCOcu7xNYQ/mJjOSYrNR5WVRpqQStihaxV7+McuJfrqzFzxiOFIhOmjm0s6wbxQ+mmnUFIRrQjJTrGaNIfGGtp503k9TEE7+a1vT+zVZEecbpJSI1JOyaDmGF6cIQpX2IwAvi8F4D7YqBlYhsgIGkhLghl7uKdk7JnFPVYiea5gSJ2zhvvOb0hKNiX+XJp7TXVtmJmF5vUkYGI8svN9Gv7dQuvjjMZzVK+HyV+sqqPl5Jc6A79B++FNSYEPMjbjYkFnh1FVej77W1z4FAtPjuWKnNwVeIY6RGm8tT/P1aYCokJbV9FX31fl13JcSVWI44K1bwp4pUsfwzZ2o4JrnYxgUWDR97epX4gOSAPngReeCm09K1QCkJrBcfb5v65ViLzw5Sdy/USbrqlIDW4hF7tch1rWmQ/l81AW+uVwmTpVfjGQlr1ydBEitAl5ZvIk4LUgy3Q5fiKBLH2PhOZaXrglL9b+WZHpWopE1XQBcmPcx2dKadBOzZkt5cVvGXa6klPCJdJomCXRF4TZIxUQX6jjVQWjdvtB0dEeWVtsphK420SIR1Od4eLVYuko+PtRdJyipFwdZkTk8grKrFaSvUynfCVl1/IkkvSbyv1xZRcwC3SJKiW2/DXsUf0/Nqfd82VN7nJrEDdAW/l6aOliGVoALVVhJm5DxTpFdIIWyFnTrZ3drPzmbtr8gbbprzQNcw56Fks3MQYfj29eo9Uk4ixHWq5Is1X4NdywVZ26Q+b3J2YlhvhG8VtsxGo+ReCbsn/YsrmjpCyt8g3Yxiet6TEuQurbGc3fBxkq+1ugV0JanSDS8RK0MF1bwmJLYp31g22LIQjfKD7DKBo4DxqBZdJaDXb26ztHBnd33iZhivEebuEfeiUjpPK7XqWFVyH6P3ZI4KPFD9EWmHPiU6/GOsPhGYZ+K140dTo1F6sIpBrZAbCDf86704SvBFuuXLkljKRPMza7FRZ1NhWwtGxoLqJ7mZqM/GlxYh3C+Ra22CrW12X3o3FabLckY0oTy7S6eW2pMW2BKOl2vIK5fqbmxlKS55XJ+Xfwq8rFmd1Nmek33WwhPA/DhbGusO64CefXtHfl59ZklxGHE2vBJeFX+rrLq/Ha3mgXCSVWHmQJG9O5MaI28y9W39iNurYAipzma0AIlPayQ1RvxcmOrx3RTWTghCVrFqiCixq5z7cmCiPYxVaeNKAEpWXmE0+fuJUIIdEbriC5N6KiUri9jM/ANZuGAyRUY4ed/g6ntsFtbeSvnKYkRIhcyF8iuahCBaDHYJeDbSpHIlTULWs5EhT+R2E6Z5IzFmo3JwqphcXakUleCTTL6iXCvCbnqRowxkV5LEWhb9rbITaRHCpMtxyqNqUA/KDwmOs9C3wEMG9uIdWow0MbAJo5FG1FQ36oxwg5/DiMpo6H4KSRZajJihr9nAezbkD0/14wDg9xOcPnkVlpNoenLkK1g+bmJ09df6ciBwn4ZbaOe9HnFpUSu8hVF4MYEC1/7uHBR8nHFL/a6xB1xaXddWO9g0bzRhfrPfRA4QQ4ZiVtpQ2RMuLdp1EkSmbJkZ+YtjBnGgcP+12OuYaOFNiaVWQLsr0EbVZAcUeVfyak6aeIso38V5BgcOceXZBvAWb1SPCIP2b+miEkGeHAN4ixWtNtgFpqyny4gN2H4SZzw8z4IQboDUDQzqKvqWtu8X9F1SkcThO5wJIz4y/1YxXDLzB9Qju4lw6lZqiVQtnMiEET+5CmxuPgW0yEL6ESuojmNtCTJlq58bE0akDaOeKTEg+lY0DwAIw/1KHipo8AIbQjgPF4wf7xrteOnlMAhGwmi75IselSJ/yLkXI0a4Ubi1mprO0Vxteg4PAhvNZJrUWpyxrrPDiF1m4lCF5XbW36C01pQ7PBBqaFXLLbAqBJ3HuDNjhOv1U+V8qLIOQxPC8wk0TPfGEkVbaZIXxxAeo1VS0ikQ0swDIoHCKclT/IWf9+KYYvAA4E8wPYEHBYXEzMAGhfF9/TjW8PktVpfJs5+Q2zk8MCg8Og68gMsA8J7AOQB+o6ajZEhCNAVN5mkUDw4alTdyrxYiZMnAmX6cY+D3lrxuYDmF8lspVTwT0KhOUyAVd66zhrlxDsSQUbOkj3m/e2Rn9KrDxjOCvY7r9nyJLdJn6OwhnMMhTwo2fVxfUUTsj0jgGYK8XVhly9kmmSPrZ5wR4N4PfU03NZz99mZddqWugESSNYxnCku9Ll9wSmV23dOH1uJSVIND8pKYlDFcZdFRq0oLrS1a7uyiTMZ8fK8a1ms5z+mnrIWlq1SmN8IgjPzOVcvCo1RdrkeLLbxDYGlQdfxUaMl0dfU0CCPonGAZlFddVNvKOxCt15QPSrZZwyADjEII5+GsYbpK/bmf5JebeQfDVPPoicIUreojTPcwDCPcK71Vp4utXpfb8tjGGwStmRVY87ZE7Z/trwpEE2P7qEhPZL5BytH84lYzbyiYcsryC5BuyGhlse7kwxkKIwcqrVKarpJ7uS26qtlmMDK65Q3YEurzOy6nSxNNFCbsPZ4zGLyG42+u0kxrXt652nN5Z+vLCu80dUbxPQRRttLmhpIqa15tbdfsrVXl2BvrZS/OePD0dXHMPRO6LfbixdjY+cELHUSc88tDOGPCa8bUPgw3Ym7skfgHmzZnCT/gnWPrIj9dGsqUDqc3hvlxBobXWF9vFvuwMGjn4sMCBuEZB75kQ8eU4RMGc4aH+wjofQj++swyQQUfRa5+G5yQEW5cD8D40bC7ELBve5agCdcjTs8FpmTSSMPz4THAFXQL3o15R9CBzTtPAHMywMPYhMxwhly96ZOtgl74/zsIWNF60cB8eA4FVa0ubRGIcOsvJlBOZnkaVaLPBLVHdhPy8T9sgeXEZaa7EQkZ8hzkondsFezChqWgx+Q5Ax6Tt/RIEFNAaOiStADNH25ojL9gLz4HlfEuMwzGh5eWoJVpW9CBP2VsX7vx8LP99T8ft3ZdxM79q+cra6lHNgoUcPguqIHymqE8W5NV7fQv/7ln12H8bs3bEo/drtA/CJSwYbmCE+DE3t37k3f+7bOILkR+Eb/gUtDyJbooGTfZQDqvk+JUF+17sFl9uxZg/jvokEAN85IRF6VpR3LMYvQEQ/6ckRyk2U3mZBQ9uK+v4uG4u0mbDIhE33Tx/gJNrJPv7x5Vh0zEvhPaRJ5vXyMQgqzz/wxLDmhXkT5FDZD2D4EyPtwh/Q1NToDwvy/V4pF53QAWvOc47PQuxizTYVujVKETawXqWHZE8iNab8WQyL3qJ2XcSw73K/bDzS1ou66Neg8xxPJDAgQkEitC+38eS1YV9s4O9j364GT60l36dikrFmEVXhdgsFP0Myt0qdCRsWryfYIjCRmLia3HrtO7Sf+RD3L8vACFf4l+aLE+1+V7KpzQaFVFmZC0PVl6tyg8QM5qiACHuyLqdapz/hnK5n/vYQYj5P3NujfIX+51Cv5QgMQlXfqvzK6JDzDiKfFBErIkg2B/4mXDvL0LlBBh3vHuYclw3f8f974iJQ6RJeORQn0vyae9WK7qfyEA46O07rPO0j9AhJLa5eQAjcsTqfYuIFiaEBcsV9UEcGR0/71kggEOKQUnnX/BmpBeU1Deugd2XyDPBgqHZ0Q43d1Zc4ZgAP94BTN+CuMCA26o8NQ3W+0Xsv/HXQaECGu672caUYRyu4IXcijbzCFUStYJsg/7r4gEoBAWjAhfizyiRNbPGoVMvWksCZmISAGKjSPalgjEWg4wIURYI3JTBZGIQCFkBZ4Shs8XBiGk+kWyON92VKBqKxtGBLFoPkjmuDyNl+6DWBGCKq81n8wpuAllaaX5M2IkRvy78WSWzSd4UcIqRQVRgi6YTIZsQUrGvYwIEeIk0bEYolGy8MbibEZpQPK0rIBbZNGjbWg3DCtGBIl/au7nZKcEK0tc2LwreUMeeiXLTdiMUVTYMSKVAQsXEw1zHptRMZWJO0v+u38kWsdGnFd7BzNGDspE2Caywx7sQH1rsLzQ2WkiSRyC/bBCmTGyX+4o3UA00C5cbpM3/Pur/nJTnUjNun4cr8ivYcXIPsTnQBbaj8St5VVwf5Y8mfQMESHvKrjp9rBiZDXqAdcxoqFwOjB4FeYXZD+5j+jKUiKEnfqLjAUuIqIkZBvuZRzwEZFpvt+EUCeE52+xIeQQ5pkjmdcRkzrkAntI5B7GCJKduKj2VoQNI5/xNCk5iBkNtJy/l+yIrCCYepzq02YTG88W9k1JMIl4D8G45p0h31f/hoZTMFzDQ47l8xgQslbhwQqJXRKBGQyyoP/zFK6XLYu05DSziFnt/i93VxcT1ZmGx11csVur66o13a2tXavtRlvZ1rWtxrhtbe05mZ8MECAzA4MRwhASkMwgIAgmJGjCQAJkCD83wg3CldwgNyTcQMhAk1W8gis10Xgh5cpe2GQVg3XOeb/vvN/vMftdkjnnfLzv9/P+PM/7Ur7fxYO8INyOJ9UFHE/bThd2s+QiDvzPlWZlvIrptPlWeZf7IWUaOSG+RVqD2EICCcUKKXY4PPM5gnUELMRhZbwEWxka5tN2AU884/TU0GPWka09x/zOJniTbFJlAJ+ywd9ZZ7zIUhUjfEGlQu4iTs5nzG8lxOVVka9sqcMF+VLIMHgU4ho7UJcZM4xrhpBMVOSvW1GlYTasQKqflf4aqValkDbkDNZY4RBwhiFLDfXqezELdXiCg5I8MKxCHwH82qhinMDPOo+tXdbPMOXW665wscSXFXjvg0mWYhNsGJs6uDLhLhUKOWJFXt9imelN3ooL3r60ZIVUdDFNIJctW3MDDjeqIPEet35lhCXHJlA7sbBaJlqohrm4U4hpm47CLzmtIzPCcGitilUZjS/I0kfdJEclDiZfMQDvwC8UaOSsVUz4WV4XLjpyfjUlQR9D7UG+k5PlOHgIE90VoOGt18gkdornZg0J4/JT0XI1iV7+SjW9+AXRCb5gs3wExL940+tDVww5IzIxyh+jr6u8JfTxUjSTOw3HJeQXMbdCSyPICpYXw4a8Ee2d4VFK42KBcCGnZbTJBdvWPyj3RmK46fXIrhwerOq4wGJ7Fde2x6SUBIy2Ct2a8uO/J3k4Hr52Q8UINbTUIm6VQKK6Lyav4q8fCVoqAZ/eLVshb1mDWpiQ00qVoW4UFvQ9Hk2ASJi6xMz9+YZc6eWXB1BHZjH43SzZPuLH1i8sOU9tSXX14/X7LBwrnbj9oG9+frKvf+3adDJeqK74XxJVPAGONspulXjUuoWdl8tq0Pi/G2GM/74GPiq7NIcV7pvrGHuffNOl68+d7n3UUd1T3zPXcbdvIoYKd0UqeXMvb0vWyDeMHI/m5ButjanexXu2Xd79a0tVVMJlUgs+941kjVgbJsw7TCr05mrDW9ZBDsn5xlqcKs3FnAJ65VriKNZW7FRL0Hed0QPwXy7tH6leHW1taprpqWzpK32ibne0ObK8m+/TwwxdDoFPH+iD7ZAc1bIS2Otp/1EZ02X58LcL9oNgqHWkQIHNVDaK8y4v5dGOL69D+RfQ2MqSWwNim/X9FFDCKP7Eyp+YoxwBxZ0DhXKNVwaa4fAiDZ2cHGSHbcllt/9ofT0xynOuD+1JTM85pgdT9WXSuiJMMULifOMUCH8X7WW3wUc+lKqRQ9bXk0KhiThSPpefIaPriV4poTF/OzuIglb+z9tPLp0Ll/c+LlUj71tfDx+kvjbk2R9jyUA1ronvkzAf9ivwlOzmxhNsgBS5LuIP1hMHzmEjr/RSVtr4mKh308Cd7momI+gjbQQzYRH8udwCENYkexTaICO44yXOA3vvEbnjI0I1BjvJny6D7ZJVDU77QeshYJ/GBdw6Dt3ny5g38jfZya81hUYRGfsXfOxD41HkUkT3O2lkuB11g3jvcNe59t3ljK53icOHF8m7PwlYnTAzZb9UjWx30MjCZZyBJbRaS7hOrtBFU3ws5ZJ34N0ALme1XWmgsTDTQMWdKN7bgoXgyzkSLiE5nAda8m25FaWRE0rZVU9elxPSOI2Kdz9qjjNf6iWmnJGieL7ea+UIjcjF/lpxD/5Xq/3mGvJ4j8uodlIXY9SIRL5DB2XhReZXHO+RL6Vq5DMDjP2mOguwzluDHED1CptK8mRCuHtoa6/rUZGDrfWZWnqV907neMcEGmXubZeFpm5mud6n5VZ8HKXak13zG8xJOH0qtfrZTsH+rP4KeWIZw4e5oo2m3DFDN/G9pR3PlZJahX/1p50KjV/W67VTplhW0VGuOVP2WHC8NINTxINDovn7oVjP9chy/otpAAAd/UlEQVSoXLFgYXnTpvxRIRD03CIPIHRWSCH5sjvoBXA2cJeSnjJPBSQhjbL7gZhCaqVLZQxlcLeYSka/gCwkNYrJPimE/FhVIJU8jLNerEYjKYG+4rul5NqP7BfaIkpWamDZ+cMjpqJRJwCePSgB/fuJ0A7hq+KIyFk4frhwWJVGzDEBkMxuUWZP9n/EzKyClCKpOLruKhthdQhIZMteoZNrzwExRyQ3rUooo072xIpCjZhCLIx3BDzF038U9AzH1AnFgd14Q6VCzEYhEO2fuRvBncoSxBu0KRTKDP3TrUo1Yo4LyWXzd1z62PoPUUROqcrOLj5q1nJKdVOZBjHR8FSczd4uqpBQo1KZPKJ9+7pihZjdgnSl/czVNLN3iSrE26lWJuW0CNOYao1AzbKZxuFs3QoxJlTLhOI7R9V3wgrkOiQg4jE6O+gw0y7JPiyskK5G1TKZI39cR5Vzqv09VfECoHKJGnDZzqKSj4hyvt558Ze2XIRGHisXyRD52FrUoBGTAqlt2AAMUaGYB/lpoK+uhtmXCz/1s2PwdTmlXiRkMoGOtrwExMmLUfU7gmullyKkT7kLMm544L/H1eudQjszGkQyT7xGTC2DVDstlAH7XiB7k1uOIqsEbYI3SO/rsbsRukLKdEik1tWvkzdJj8XBJ1e92/Q1iuC2A1Z8Jh3SRy2O5L2qQyLnSBtVU19eE5ZB3GroUYiy+xDVsrM/h5ed1XQao7kDBXokQsru6uqDNY41KzqJ/iSiZ/heeNXZL+qke1GljTHr7ufNFFQ7LAglZu4RYz6OrJJDUD4ELD1BSRrd0iSRFjdNrRfjOtoX6iZlPbMcAsF/gC4RuBVHgAxoXNUkENKiSOvSSLfX8V5/lQsm5dj2vcvESli3JQn1cogEvcKUJoHUENIyprZhd8q9pN536SQPsO4YJF9SJa0ekkYe6ZJHALYuCvVpxB7JIRfdXSG1raXQqt8FziwyI6aZZPoOahMIbMLE9WkkbTPA1yhhH0L06cxf0WxDg96MOeyqf/ZiwBZMUt8EbP3EDVr9rUFClIvIGf3abmdRG5ZPuBjmezlirmuk0vpxKqerCfZpsz4mpHHtvqG3h/Z+uK2Kv0ifPApcNb7XrS3rx+lJiEUmQPD79l/SKUr1cHZdozzgXRrTOAPT4mcEHX5+B1bJB2D4JMceDKGn4hKuhjDIGvmvTo1YCKPnnWJxcTwg2NbJzQg7nD/FoPFZo1EcMJJtWadGVhk5K/fgqwTACx351naJONIMoETyZZ3igO+RsM4pDKKNX2oe44wdov2T7UeTrGfo+hjQKQ44j+1P6ZxDIcPNux6bhw1EW++x7DO2ve9cYxnKNFfrlAYh1d3s3j5FcCTgPEaO9Sb5jv3MgiNbF3RK47xbaK3XRh7aQdwYMEvLWhCNq8/3A8DH1ykMk5DC7tQ5h8zQFoYmXgRGzb9yqMMYxNAqJ10NoTw3Jb1uIZNeG1fZFwPcoeQTevdJVEfZR+6luGnReOOBzklkBlxRvOQ0uLczesbssfISulChECCHd1+nMEhgEK1Ouy/CnlAG40+bt9Egczg+J4BG/lWnMCpITKKAzlmE2TWyAqYR/klpiRRMo14MVFG95J6Z89pIuGbwIUEXYLGu9yid9fpMXo0M65RFqau4X3AWSI3UgDbJ34mZKn8Nr0aCOkVhEukAvTpnkUG3wha4KKBmrrZak7lVJq9GpnSKopwIhtEaXMtAjWGL8oBX4D7ioTWOfO2Iu1YOhZ6pM3KQ0Ui3HvlQcZB2bNkKXmNNlbvuOoiU6igjGqdxg9Vnt+txY2x0qH6P18Fqdwvw+3JQijqVuqWRSuxT9ZRIyk7r39Hll+xRlGmNkhikYMH9aX3zyEhkPsM+lYYyV1u2gfn1INq/euCqRippfIkKffMo5UMPgqb7UZB0iCfZzrp6alGLk2g8tmIcnhwpkvKytnwOt3tV4ObNfo5a09SrL92fAePD12O5CiIg1uHw1r/eRL/UzjE6r08jDiW2tIGPzQjfsR0AIRAvOFfHLX97gp9Lrpuu2TRdI2FdyfYhXocMxMofAuK+DLUaQi4SBbqdCNwzmiZylRcH00+K/1qTVfgSTBBZQBvEtMWJUa/rbq/OXJL4+h+grXgCiMTjyyV3uxkHdy5fWaJnIhZWPb6FWQkhIp+dxU3iGwPeOK5JIa3OdUA0WeIWv2IJ/WAdyHDf6vkLfzx9AXhjmyaNFCBKszTpmIivi/v6As33PTaiGwNBCToIZ/UopAlTvr1Kx0wSDIweR1N13dg6xb/X291DQeOKierYJB1MBA/nOMrfPF/wp98ggr93RYdCLuI6HMTUFz6zFWy8JiY/421bVIuhwmHSNTcAW7eyUvlMbLEcBoLXAziy9aXlLwy1pEGeY54GhYxhm4BE61RPxVbklqGSVB7skHzOjW2H2eQa8ro+fHcx5dwJeyt2/CIAndyznq+4HYolOOjarVwjlWiFKC8rNWxPl18V08gBGyge77KPu3R210XxGjGW1QLIKkQING2w076PWyMtLhUY6DVYRp/SuSRFLlJQIzmeb7ltpYeGK8dWE1tvL69KJDLEVm4QW9I7PDu4NUK6X1vUntzLBtsIKVwhN4TQe3kwis56amEhYKYv35VcEXtjr6QypHwNmKMpEvpXcviz7JeIIlBJOhvl6EeojGX0UCwL8BDOtO/mZYzVEyWgsC5JedTgGIpoRgmvWNGLAhhEd4AXMUDpNlGrSiGBWzwKMfy/KJkNgSyxhn0exGS+Y+vzjY40UmJLV1RpZM3gG0EVfGpSDT50PgPc77tsTYzRSQVajfp6NQoZMXhH6JL0yRQ9IdnbadwL0uDTH3msvZGwhXcGaQKYOqdCIZ1+bo0YhTdlz+aaaIJ/DHx4r+dTzqxuvXb8Wkm+ITDCkkGOlO4nT7kjMM/HT/Y2xkiHit7aNiKfUpOIGkKj8J7M2SxRlgfSa4dNo2OeHzkNpTL6/39etlu2FDIER1RikneF1hQH2bMJBm/823NkCxc9KeDUgCTvTVOIYeSPy5pNgL4ecQgh8D/KesvjOcOFJilxjPBJ9dybooaE4ZWEXfLNSvBIYV5rjsdjS+vi6LaOIE8jKPEqqQ0acsY1GU3bfQNOX+G/2HcBSGxvHf8hmBkEldbt7beIIWvExddJasDxxsJcJLcNEhL7GI979z/mriUmqiwN3xZ8a4+vNtq240y/xkczbfsaRzM9xrZ7pm/lFhWwUhgtQEJVgJhIkXpYQoEkJkAikKiBaLEBN6Ar2AAbk95oDGLiY1awckysuPCx0kWbjN3iiPf859zz+M+h/qVc/3tuffee8//f/wrwvLS1Ezh7xGHHxpOgKsk1wJEIw0MRwB3Ff6tWWO7+R55S3TNcTz+GAUnyuI0r15UCJqc7OW7BESKKwf9zHtSmhucgOcz38GPqxQvtzTa2lNTJZ9a1l/HcISJ7EH8Cj6Pk2Grv8iYeZBV3rP5iW4OMSTKPPS18JxpHp3Y4Avt2aOV28W8uw72zlym5ZTEv9j0cHzl87nZ7Y990VU+g/Eg01XCy/0Vrt7cdfE/mVRnu5H3sm5K04O63k5IWCifBCWRMheWzhQL9rDfSKb38OkFhBrLXDnd6vM3hUVFTcCDHb/Kl5TatwpkJSu6glePJk4ZEtogRyVTPQUYZVXDkpNdLXv7q/jG21XVfZAJZz+QxEYvOK00MZmE+numL4qZ/PdtmTov5B2Uy7nuCjnp4pIszL+7qKPMgdtINnGd8YFIwBcaDsGm3KcTvTN9Mgrn2y0XP6B+x6Dy82A3qSTX1RMSA8w9eZ5554/0cS8v2lwk/sUxwZeGqdw223NuWfZut74SwcRPuFdm6mtK0X9E5Lh7Dj/ayAyu1LQnWG5icDEl4qGHm82aLmZuWZf3k/hO78jgpQ2qUjHJaN1U3a+m7jJzVmmzzCHY9HapLQVlmE2dynZLmd52EO/fP98ON57sfncknn5NbY7jDe9f2V1ykm66d8onupy95/rDB6qH+k2cenp8YCASmMw8banIdUwr0DStFKglzUB/NGnu83/1HZsOVMellNo+2M0ApH3zE2K+PXVDyNWPYZIyXpIQ/kX2z+v0eIJxOht+eUCL+jnbUpQAv4nwX24NwepU5spqjRhGhFxOdpuyhm5mjFRhxq4vKiw1Xd+TquipSscZYoqJrMvei08vLHsdo4JAcMYlIkGoSUrLO9rKHWDnUM3S6xDYujzECTW9k0uTaaWQUrYpyg8cUK+qYx1+N4xG86cOS2JS5ZR+FX6Meiim5wjXJivDbaZ0OA2WmAWlOIQbsJ9LmFg7nbb2kXP2Ta0bP6qUExLCP81/TgNT2oSa1+EcdYx8J1G2hkXKsHyxyjxZbxhe/DzQbBiRU7kOWc8YguQX4v7SR4FuJ6XurV3DtW2cNAzKioUDqZrGhxYcbiXs/olz6YxE5onIDSXyQCk8bNrQ6tFTQXTAFScTtD0/SrjwEjZ7eS1x2lyC9h8wCktZU0jhpauNyWcBnaK/CtsXQqOO/AL+IC+NnjlFAIlU+TXLF0BMUf0DFJaiO8GZ4HPh+8soPJ7lmu40CUqqxDecl1JUeS7e97nr+6tmdS7Wud7ZyFmf7kErj7IMBsZYXkNfOLgSZrjYKSOWwPkB8/hDWMsOhuvoPwimtH/z5fZFEggrI0nkURKxDwNXv+20NdBoFxBn06ZQkjhkff0K6bRUf/FDBmUjJK7pRtNGiyj+Ay3tnzpJhs18I34xMBbmKkExMiWj6T36wvcfPNQ0P3qfbd7vogFhrCyCD57dRzn0thu3eWu1dxltUlxihE9LRUn41BasYiJDZdL/vH/FQddgsHnawUTcgPr/aLjzF3FWj/MGYTRZTPrfzQ0z0DY4pvGbBsx5kwnNeR+FrNiBW0ad5AUjcyGSEnDzbFsWyr/cu8UDE+mqBkAd0d6Q319LSdvH6FCYz4Zjp+V4laW+V8GTOTnPtWwv2WJ6yfSHvwsbbKmY51VVX76SxTv+0z4zUyBkdfKXxdRyqFu62OGQZ32ucBt7jQMNFjPSCYmMDJmUs+lucdDRP4GKrxSX7eN4TWhVC4FRImfy6YQoQr9FLgHTzJzF757X9gQ8Qq+hLT1VDrPckdlHNVnYeGkOEuzTp/yaHALVT7kUDfruEExGIBXa9xB7JiZleFUxMjvCbFDzghLLGej20beYFhBz/5pIx7500+0J+7xo0iEhA6Ny7JVbAmPA41ldzI0K003QZf1y2RiIiCUiz3yAi7qFHTINDuFwsztT3CT8gUKREwp+ueSqFSM4kIL4H3N9yUPzbbUE51+HsrdnvMHcywpF7EluX02gUEW4DWKb10AOmxu8FENnBUiTy7f4inm8XNwsIMGQeDhNK+UhMl+QzAUQWMaiUo0LBb/Hs5zbDiDzg4yeiUspZWesFiwUQsdbTFY0KLqpOsJlfu2FEfDw1uFMZOd3PGDr/KgIIi0kRzsJNjIsAUtJjGpHHHIDItkE6zVC6RQgR+kEiMct4WqSS9LhpQFxjWMGjTT71mHGQ/F0IkUUFND0yTdhF+jHljCPyQNsX4mP1oF0qdIwwPBK55so13KxKl3FE/B4HXWlGQTk9T3qfGCBAFvCMSC6vgrfRYr1xRDwqXZuzKrpfyaQEgbKKErcqkw5q88Xrwn7ziDCTmZ+q5fFFaXoL5wkiYm3D5mXPx3kQKTUPiK+fFQ5JaNoSPxYFhGb/KgzqSvKMMQzNASIMRj6oHPCPo9i+v2dAwIquKCxugiNBamgOEBmkc2zqdsZ1iuqVwoiQJe4Kpta7oJo3JL1zgEgTCoVHEUqS0F5xQKx1oCa1r9gbktwcIBKjBqj0HVLLJBD5DNSkGAKf8DpLWuYAkXrKWq5jEDqUHKE9EojA21ZUcYFH4nOfXeqWDIXuRRk1fwpt06JYW8qdxzPNeYcI3Fc0jNPYoEElT8slKyFV6uX+w8xcg//kza51Dkc5aDYsXCuFiPWlFkR8TcE8ildRT/brSMpTOO7hW/kZ0IUxpPaak1/WL9RYtPK0Trg3SCKyvFATEdiWDwmm7+U2sI4aLOXQsNv58yQRIaZXykQQQbInlEcBK5BFOaF1S1wjC4i1kVR2BmWZfWX5xDSShT0lWTTlUDxsuzQiRWRKyjOcdVJrwop7zCNCTqV6iaccONkLlkgjQox4te07SAul9dCxh80jQvAIU4gNi4ARbJ/LAwIkyd9CWmj5OGrUWEV6iIjzK0Ttv6ikxAP9hIimWyNYK33l5ItD8kBrjIYsrPtusQIixBxk7kHIMrv3HBlbbi7QSWBqv0M84ToVQEgCOIgWB8/AZaTBgGlEbmgNmpG+11dKiJAEcBRtrZRU/jOmEXFZ4sW42TBDOLTve9mpL5+KUk1+2DAgbvP0Hq76CEasitkoBTHIdzMvfERXkM9BNr+JPO9Nioj8S6Mh4o/rCFOKimsRHbjaJ3Cih7PddncmXTdiitszbdFt+U0rpVe9XbhIERHrO7fKB7o/kjKjRIqrwjmCrP6kSjkoLGs0xdYYJ8k1g4C4uwB06QXctr9RRmQrUWSPSWCA5lbEICIu97AZ+/tsVc9l9KS2ujEXDSbzO1eNAeIv1ZucNEBwZgeUESFmvKK6cEfAmPsJY4i4JjsWZ5D1V6j0eaDJp1ptIXCCkJMyBEjPlL4dGXJ2bHubOiDW10RmGeaSm+aUbqzTbVMQx8gXCIhs0hNrpzhoM3LbCCATLkqrG5vlTBIhh90IiJAHCeq2BRfqjVeZQGTUddfL2DcgvJF3477V5FuiIQVmZVrGmbPAVcLd7LMB+w5E8ch6DEBIjwR35RGdWbcsCbj7z1ViOyPkAOKfURAhq61Q2ThKN8OpAd2IELGkx9h3eIJRWcUVtQonEZd93sFrZSAi5Lwc9KSLauxoFb1s4azWdc84JTVaAckQ7diKp5Fv0Y5UpMBTtoDauI/WKzyY0HmIEJ4CfUqqrHRgFSnwlC1gulIV1CZjGX2IAF0F+pFvESW2xX9jAQK05BjDfF2pvc2rJ3QBkkMveiXlMnGHQ2iIrC7Qunx6pnxEk8F1BbAmwshOaT3xiSwtQkPE+rNW5onRBSOkxXevg8y7Vt2nCAqnRXdJMOdRNLAaoJXjA/LEweh2KHw6LlyJiAhQ24P4kSRZ/dBak+hnCHw7XGO7pxqxjgeSA+QTPMdbPrOguhQ3x7DnMuU+uBM2AAJ1ByoigAFcjeeTsPs4HsUMWvbReqeHUUktYETWx7iAWH8jn+EJ2vo9ercXX0G7UxP1c0Rt/FwFDNE4gIwIycnbYTSfus6rf82JPpT7+M/S20WOYCJyn9S/HhsQ6CRBo2efezZ5KsMIKkaPM+6AmQAO9ULZjI4IVEqNRV/HvDuhOR2qNpf/HHPuGWJiYH23rdnQeit7CrU9RpKng2PlE6Wzt91jhgIeUxcAOlbNX6kBETIp5c1RgtPk3c83SzEunwJa3+HVAxrP470HaP9CByDWvIPA/p5FeYhum0/G5Kpo6zlGnaG5I78Cyn9crQURqAWEHUehZ4/ZvFJ9QXjvSg3xfILnkQBpgG62ydIk0Pj2EIZnJTJNtSwn8l0O1LTyqUUiaxLQ575LFyDWWmhQzJDfLCJv7K7Ia77fL/D8Bfdc2SMogGShhi/sAezYoSuclljCs5WKO1+mvGYy3hzqFtCI8o0kwQzNjZZG2aXHuZKakFyZbmmAf8dA4vXlKcGhZhgR5GmwU+t+nYBYy1fogCQgP83yaORy/+RgeyybSfZlh1MNF670pktlBpMjlOjC3Yz/OE8rItaBQg3Rnqw996LuWU2AtHLhDkuzwB3+7ylZXBV5gIhyAeIR2KjbohsQa/Ea8MZpFdZxMg8QUWX8+2CW5htLv6yGW/zXKhyNvXmAyCM1QBrhfmF7iwwgYq1cCue7yddz1uYBIrVqeQ7wUKiDay0jsvkjOC4qOxsiWZwHiCila72GebMFf7IMyXbKkKvHciRXjZ0PIl8UE6DMGCncZBmT7ylPNd4k80ShvEBEmnqI0jbdHyyDspXGbrSJF1dGnbxA5KmkAf+MxtVssYzKTtqDTQmHfh7Z+SFSBT1J6lDQZZZhWUdlZofEmuDHwnmCiIy1deopTdtOy7jQx1OX9Ask6/ojdr7IBeHYJP0E3GrNgfyvvTP5aeuI4/gANrbBrGYzhkAwaxxcMCmERYStGLAMFsUyFVuQAAWEBEYJe0IrIYUeIBJYWBAu1CfaU3xBXCrlUoSEkSDqCZ+qSFg5JOWUSyNVantpwntv5i3j5+f5/AFPb35fzcxvm5lWBXVV6Qw6hN8XjSAdvWgZ+e9OKGe3oh4EhWw5TU52Ba4E5LOKR5GOSYTi208e6peCI8pAkCiKphme3QVxJN0jJkE6OlzQeV4PzdtPUQ0gaJhv0bcpnNEnu+YcHSJjEsorGTukq06WV4IgEhfPUBJfX6W6mtQ2P8x9gli7j8Yd3ou37kP3G3dPYH8/0OPe/dEx/szO8oMv/mLKptjmHbT/rY0EQUVZyFzm83qGPj8qPj2FVAT/Uone0d2VR0Nj1A6E3/nnRI/3HF2Z3lWaDX7w9IqhAq1XgmCTHQ1lweGL5x7f1vzW8Vngap2LGvYfdibWoDtHOl9tBBYQGysGFo5vWrxsyx8dTLFTVBkQAZX3ca3y1m+vfX+wSXZsfnCPoC2Rl9dnM6/+C6s6955seHbHISJZQxIQBTF6BQY5nrm2OL2INzu/i9yENNDX39/bDaulIkMJxEJDubBqdI16lvjop1p+fiTcT9YVAxGhKRRumnQ5fDye151z9wnyl7LGUiAucg3C6HH+bs/CLzbYVmAU8rOA6FDpmngfp/1amMuY1yb5zRU0NauAGNFkRPM6zr7ArEUofh7m7z+j1RogVuL0/GnycHXQIiS/9POkR2MkEDORan7WroETv0Vg/Ac8/GeiWtx6/BOdlBnlnAe67rRgYIJjW5L8Xo4ShASa9ghu/u5KpwULp1wqyhH1GhA6VHMJGfuGLLjYYu9z1WWBkCK9ln26ZNqCjx22f3lXA0KNepYr13ucglj83exWLB0IQbJSWe0hmN8MdbH5yUwzCEk0CSwG+xavIKyajvNKQahSFoU8RTYxK/I9sh5ROSCESWtDHO4oZkEsp6iCaJNBSKMqQdvgT3ArsoK4pbeqQKhjRir6/o5bEbQmV0MBkADKChn8kA8xCzKNEiLK1UogDarhp8k4ZkVQDqUazEAyKNWwu4nViVWQl/CJrYg7SiAlKuMhB36AVREvvIuVBCSGSgcXm1iXMQoyD6tHbAuQIJEJUP0qj23YBNmEbEtR5EUCaWKC6ld5g0uQ7XXIPhMTkCxQ/SoCPymGmmRMbFEBKaPJYPa67GtYBFmF6muo0ACpk8y8nTzE4QIfQ8SGsrxkEA4UpDCe4RC+arXF3PWgqK0E4UKukcEY/UsCC/KIWZCULBBO5N6jX7vePxFUkAmmJUuRUg3Cjawa2gTkixkBBQkwCCKvKQDhSFohXU/qgE8oPWwXDEVCfRoIV9JLaI5fW93bggiyRx8Ylreng3BG9bWRekMZXRRAkDW6s28KY5UKhD1JGYmUXjD/m8lHmvz7NxVpRI5/yydVtRSRvPWQ37zjIvUtExF3yfT4346io9Dk8RyPgnygvF0mWpdORPiMIgpJunr4elLu6QK1e1VMBLhBEipf+IiPp/cs2++ob5qIzSXmv4liyvDkV+6px6FzmoMHScT4N2OiLPx27XBzhJcWaKJ0bSQxPWVWOJG6aNLD/uDu2AVdXlGvJIanSaxk0hSyDtl1aTsvBiTbV43DC9bSpbp+Q29UmaG/TCCexISM0WIebdZpZALlVPWs51LyfdUYeEDfJmz3bsAFKINbCwPh1hUnlBfM1LBi9/qYtpTNT5NMFwI2tRBTw5LM3JJqvXQdO2/O1nc6p1xHjG0Ncj1Jm6BsJhVQ7Y/28YPA1Ou56UW/f3bv6ebS8utPgasRqMsya8mChbpy3RLyTrs2E7EwuhucIJge8Q3EvKyoEmaaGEmalzUavYxvOeQ1WcSuXDC38apHbEYysSlXcur4u9yyuZTYkw9HuD6RDzmiCslyxRul7Vw1kRnLYogd+SRGl8pltWqPIybkHVWVkd2l2/l3SLpdKNLUqPGJTPuAyCHsRCm+DX91bWxNNkklYhGlMRNicsSrTaQUhY+47LxU6k1FZtBXaYiRsJNeVJJg+KK9K1qbQdQI7mwxlbU2JqRo8++n1n11u9ksiZXqbzs05edFq7kxAAAAAElFTkSuQmCC;" parent="BhIajO4M1uqcpxpR8eOI-33" vertex="1">
          <mxGeometry x="90" y="10" width="22.17" height="28.31" as="geometry" />
        </mxCell>
        <mxCell id="BhIajO4M1uqcpxpR8eOI-36" value="" style="group" parent="1" vertex="1" connectable="0">
          <mxGeometry x="1110" y="640" width="120" height="60" as="geometry" />
        </mxCell>
        <mxCell id="BhIajO4M1uqcpxpR8eOI-37" value="&lt;font color=&quot;#ffffff&quot;&gt;node-hp-2&lt;/font&gt;" style="rounded=1;whiteSpace=wrap;html=1;fillColor=#fa6800;strokeColor=#C73500;fontColor=#000000;fontSize=15;fontStyle=1" parent="BhIajO4M1uqcpxpR8eOI-36" vertex="1">
          <mxGeometry width="120" height="60" as="geometry" />
        </mxCell>
        <mxCell id="BhIajO4M1uqcpxpR8eOI-38" value="" style="shape=image;verticalLabelPosition=bottom;labelBackgroundColor=default;verticalAlign=top;aspect=fixed;imageAspect=0;image=https://upload.wikimedia.org/wikipedia/commons/thumb/a/ad/HP_logo_2012.svg/2048px-HP_logo_2012.svg.png;" parent="BhIajO4M1uqcpxpR8eOI-36" vertex="1">
          <mxGeometry x="99.99999999999996" y="10" width="20" height="20" as="geometry" />
        </mxCell>
        <mxCell id="BhIajO4M1uqcpxpR8eOI-39" value="" style="group" parent="1" vertex="1" connectable="0">
          <mxGeometry x="1110" y="720" width="120" height="60" as="geometry" />
        </mxCell>
        <mxCell id="BhIajO4M1uqcpxpR8eOI-40" value="&lt;font color=&quot;#ffffff&quot;&gt;node-hp-3&lt;/font&gt;" style="rounded=1;whiteSpace=wrap;html=1;fillColor=#fa6800;strokeColor=#C73500;fontColor=#000000;fontSize=15;fontStyle=1" parent="BhIajO4M1uqcpxpR8eOI-39" vertex="1">
          <mxGeometry width="120" height="60" as="geometry" />
        </mxCell>
        <mxCell id="BhIajO4M1uqcpxpR8eOI-41" value="" style="shape=image;verticalLabelPosition=bottom;labelBackgroundColor=default;verticalAlign=top;aspect=fixed;imageAspect=0;image=https://upload.wikimedia.org/wikipedia/commons/thumb/a/ad/HP_logo_2012.svg/2048px-HP_logo_2012.svg.png;" parent="BhIajO4M1uqcpxpR8eOI-39" vertex="1">
          <mxGeometry x="99.99999999999996" y="10" width="20" height="20" as="geometry" />
        </mxCell>
        <mxCell id="BhIajO4M1uqcpxpR8eOI-51" value="HA Proxy + Vault" style="text;html=1;strokeColor=none;fillColor=none;align=center;verticalAlign=middle;whiteSpace=wrap;rounded=0;fontSize=16;fontStyle=1;fontColor=#0000CC;" parent="1" vertex="1">
          <mxGeometry x="1270" y="112" width="130" height="30" as="geometry" />
        </mxCell>
        <mxCell id="BhIajO4M1uqcpxpR8eOI-52" value="Raspberry Pi 4B (4GB)" style="text;html=1;strokeColor=none;fillColor=none;align=center;verticalAlign=middle;whiteSpace=wrap;rounded=0;fontSize=16;fontStyle=0" parent="1" vertex="1">
          <mxGeometry x="1250" y="82" width="170" height="30" as="geometry" />
        </mxCell>
        <mxCell id="BhIajO4M1uqcpxpR8eOI-53" value="k3 master node" style="text;html=1;strokeColor=none;fillColor=none;align=center;verticalAlign=middle;whiteSpace=wrap;rounded=0;fontSize=16;fontStyle=1;fontColor=#0000CC;" parent="1" vertex="1">
          <mxGeometry x="1270" y="192" width="130" height="30" as="geometry" />
        </mxCell>
        <mxCell id="BhIajO4M1uqcpxpR8eOI-54" value="Raspberry Pi 4B (4GB)" style="text;html=1;strokeColor=none;fillColor=none;align=center;verticalAlign=middle;whiteSpace=wrap;rounded=0;fontSize=16;fontStyle=0" parent="1" vertex="1">
          <mxGeometry x="1250" y="162" width="170" height="30" as="geometry" />
        </mxCell>
        <mxCell id="BhIajO4M1uqcpxpR8eOI-55" value="k3 master node" style="text;html=1;strokeColor=none;fillColor=none;align=center;verticalAlign=middle;whiteSpace=wrap;rounded=0;fontSize=16;fontStyle=1;fontColor=#0000CC;" parent="1" vertex="1">
          <mxGeometry x="1270" y="272" width="130" height="30" as="geometry" />
        </mxCell>
        <mxCell id="BhIajO4M1uqcpxpR8eOI-56" value="Raspberry Pi 4B (4GB)" style="text;html=1;strokeColor=none;fillColor=none;align=center;verticalAlign=middle;whiteSpace=wrap;rounded=0;fontSize=16;fontStyle=0" parent="1" vertex="1">
          <mxGeometry x="1250" y="242" width="170" height="30" as="geometry" />
        </mxCell>
        <mxCell id="BhIajO4M1uqcpxpR8eOI-57" value="k3 master node" style="text;html=1;strokeColor=none;fillColor=none;align=center;verticalAlign=middle;whiteSpace=wrap;rounded=0;fontSize=16;fontStyle=1;fontColor=#0000CC;" parent="1" vertex="1">
          <mxGeometry x="1280" y="352" width="130" height="30" as="geometry" />
        </mxCell>
        <mxCell id="BhIajO4M1uqcpxpR8eOI-58" value="Raspberry Pi 4B (4GB)" style="text;html=1;strokeColor=none;fillColor=none;align=center;verticalAlign=middle;whiteSpace=wrap;rounded=0;fontSize=16;fontStyle=0" parent="1" vertex="1">
          <mxGeometry x="1260" y="322" width="170" height="30" as="geometry" />
        </mxCell>
        <mxCell id="BhIajO4M1uqcpxpR8eOI-59" value="k3 worker node" style="text;html=1;strokeColor=none;fillColor=none;align=center;verticalAlign=middle;whiteSpace=wrap;rounded=0;fontSize=16;fontStyle=1;fontColor=#0000CC;" parent="1" vertex="1">
          <mxGeometry x="1280" y="432" width="130" height="30" as="geometry" />
        </mxCell>
        <mxCell id="BhIajO4M1uqcpxpR8eOI-60" value="Raspberry Pi 4B (8GB)" style="text;html=1;strokeColor=none;fillColor=none;align=center;verticalAlign=middle;whiteSpace=wrap;rounded=0;fontSize=16;fontStyle=0" parent="1" vertex="1">
          <mxGeometry x="1260" y="402" width="170" height="30" as="geometry" />
        </mxCell>
        <mxCell id="BhIajO4M1uqcpxpR8eOI-61" value="k3 worker node" style="text;html=1;strokeColor=none;fillColor=none;align=center;verticalAlign=middle;whiteSpace=wrap;rounded=0;fontSize=16;fontStyle=1;fontColor=#0000CC;" parent="1" vertex="1">
          <mxGeometry x="1280" y="590" width="130" height="30" as="geometry" />
        </mxCell>
        <mxCell id="BhIajO4M1uqcpxpR8eOI-62" value="HP EliteDesk 800 G2 (16GB)" style="text;html=1;strokeColor=none;fillColor=none;align=center;verticalAlign=middle;whiteSpace=wrap;rounded=0;fontSize=16;fontStyle=0" parent="1" vertex="1">
          <mxGeometry x="1250" y="560" width="210" height="30" as="geometry" />
        </mxCell>
        <mxCell id="BhIajO4M1uqcpxpR8eOI-63" value="k3 worker node" style="text;html=1;strokeColor=none;fillColor=none;align=center;verticalAlign=middle;whiteSpace=wrap;rounded=0;fontSize=16;fontStyle=1;fontColor=#0000CC;" parent="1" vertex="1">
          <mxGeometry x="1280" y="670" width="130" height="30" as="geometry" />
        </mxCell>
        <mxCell id="BhIajO4M1uqcpxpR8eOI-64" value="HP EliteDesk 800 G2 (16GB)" style="text;html=1;strokeColor=none;fillColor=none;align=center;verticalAlign=middle;whiteSpace=wrap;rounded=0;fontSize=16;fontStyle=0" parent="1" vertex="1">
          <mxGeometry x="1250" y="640" width="210" height="30" as="geometry" />
        </mxCell>
        <mxCell id="BhIajO4M1uqcpxpR8eOI-65" value="k3 worker node" style="text;html=1;strokeColor=none;fillColor=none;align=center;verticalAlign=middle;whiteSpace=wrap;rounded=0;fontSize=16;fontStyle=1;fontColor=#0000CC;" parent="1" vertex="1">
          <mxGeometry x="1280" y="750" width="130" height="30" as="geometry" />
        </mxCell>
        <mxCell id="BhIajO4M1uqcpxpR8eOI-66" value="HP EliteDesk 800 G2 (16GB)" style="text;html=1;strokeColor=none;fillColor=none;align=center;verticalAlign=middle;whiteSpace=wrap;rounded=0;fontSize=16;fontStyle=0" parent="1" vertex="1">
          <mxGeometry x="1250" y="720" width="210" height="30" as="geometry" />
        </mxCell>
        <mxCell id="BhIajO4M1uqcpxpR8eOI-67" value="LAN Switch" style="text;html=1;strokeColor=none;fillColor=none;align=center;verticalAlign=middle;whiteSpace=wrap;rounded=0;fontSize=16;fontStyle=1;fontColor=#0000CC;" parent="1" vertex="1">
          <mxGeometry x="820" y="500" width="130" height="30" as="geometry" />
        </mxCell>
        <mxCell id="BhIajO4M1uqcpxpR8eOI-68" value="Netgear (8 + 5 Ports)" style="text;html=1;strokeColor=none;fillColor=none;align=center;verticalAlign=middle;whiteSpace=wrap;rounded=0;fontSize=16;fontStyle=0" parent="1" vertex="1">
          <mxGeometry x="800" y="470" width="170" height="30" as="geometry" />
        </mxCell>
        <mxCell id="BhIajO4M1uqcpxpR8eOI-69" value="" style="group" parent="1" vertex="1" connectable="0">
          <mxGeometry x="590" y="401" width="120" height="60" as="geometry" />
        </mxCell>
        <mxCell id="BhIajO4M1uqcpxpR8eOI-70" value="gateway" style="rounded=1;whiteSpace=wrap;html=1;fillColor=#1ba1e2;strokeColor=#006EAF;fontColor=#ffffff;fontSize=15;fontStyle=1" parent="BhIajO4M1uqcpxpR8eOI-69" vertex="1">
          <mxGeometry width="120" height="60" as="geometry" />
        </mxCell>
        <mxCell id="BhIajO4M1uqcpxpR8eOI-71" value="" style="shape=image;verticalLabelPosition=bottom;labelBackgroundColor=default;verticalAlign=top;aspect=fixed;imageAspect=0;image=data:image/png,iVBORw0KGgoAAAANSUhEUgAAAZEAAAIACAMAAAB0LaEeAAAABGdBTUEAALGPC/xhBQAAAAFzUkdCAK7OHOkAAAMAUExURUdwTAAAAAAAAAAAAAAAAAAAAAAAAAAAAAAAAAAAAAAAAAAAAAAAAAAAAAAAAAAAAAAAAAAAAAAAAAAAAAAAAAAAAAAAAAAAAAAAAAAAAAAAAAAAAAAAAAAAAAAAAAAAAAAAAAAAAAAAAAAAAAAAAAAAAAAAAAAAAAAAAAAAAAAAAAAAAAAAAAAAAAAAAAAAAAAAAAAAAAAAAAAAAAAAAAAAAAAAAAAAAAAAAAAAAAAAAAAAAAAAAAAAAAAAAAAAAAAAAAAAAAAAAAAAAAAAAAAAAAAAAAAAAAAAAAAAAAAAALwRQnWpKAEAALsRQQMAAbgRQAECAAkBAxsCCVcIHgcBAnSoKDMFEhICBq8QPQMFAQ8BBRQCBwQAArMQP44NMQ0BBDAEEbYQQAUIAiMDDC0EEKQPOREZBngLKiUDDW8KJxAXBTcFEwcKAklqGXQKKaEPOJ0ON4kMMA0UBB8DC5kONa4QPZYONX0LLDkFFKoPPJ8OOJMNM6kPOxYCCGEJIosNMSkEDiY3DQgMA2QJI26eJXKlJ1kIH5ENMj4GFnOmJ2aUI2wKJioED4ALLQsBBG+gJnGkJ6cPOnoLK0oHGjRLEroRQVAHHGKOIUwHG0gGGaYPOqsPPBYfB3CiJj1ZFUdnGF4IIbUQP2YJJF6IIDtVFBgjCCk7DoMMLkIGF5QNNH4LLGqYJC1BDzFIERwoCWCLIaAOODwFFTBFECAvC1J3HGubJFIHHScEDhkCCTVOEgsQBAoOA1V7HTUFEx4rCkBdFoUML1qDHxIbBjdPEys+DkAGF3ULKThSE1QIHj9bFbIQPoIMLnIKKGkJJVmBHkNhFyEDDEUGGE4HG5sONl8JIWSQImiWI0ttGkFfFhomCR0DCrAQPlyFH09zGyQ0DFR5HUxvGpoONm0KJksHGmWSIyIyDEMGGFsIIBUeB2oKJVd/Hk5xG1F1HBABBnsLK4cML0YGGUVkGBchCEZlGGydJVZ8HWUJI4YML0RiFzNKEWeVI2gJJHEKKBQcB1B0G1MUs30AAABKdFJOUwD3Eu/8+vT+BAEG630Wwp/lIxoMr9ceD4W902UvWuBRNJaajMkqkkQ8c3jMpwm2xVXdN4GyTCdJ0DGkq9q5amxAiehhXuNwLMBvWdPASwAAIABJREFUeNrUXLtP21wUh/IIlEeA0hZoQcBXyqtAW2i/9EH7lb4tM2TJkJUhQ9Qs+Q+IYCBLMkRiIWSAsBBAImEgIBAPCbHAlBIkHhlAQoWFlwSV6JeHE/teO46vYzvumeLbYv/OPT7vc52WJhEV55fnKTKLytur0/4iym0oK+/KzCzqbLqX9jdT8TvlN9Xd5s6ad9U5kZWvpQosSs+aCv4SPkryq2KoFW9eRhZznn+vLVe9rShUvn/5d7CR87EZIym79NP9tNsfMjEqpSsfylYpyJ/Vr7MA1FntOWm3PnZkU5ZUH3PkL5D6txhEWW8eYTQqrGxJK6isKSzKUmSral/IgbHbT5UV2VhmV1tNZUFay6c2OuhHpVnw0tt6uSvIY4wrZatIQ4YVNbakGPmdpjwSjkKVzZmPxzJUk9v1TcrWb4Wdb2qayjG+VPU0pcaqsog38m/5taXlbYWtyqb627KQx72aDEwQKkxdFPa8TRgWMmpkEJI1pmOCUeuDsg5VXnZ60SNl5S2Rcd/6pGzuSs/OU3WUPSgXjoX0L6kOTZSYSJSuLBYzPn+dJRbw2tyUSqQGE4/S88XymTllWSLifhx5hmQyuP9v/pO2qowsRVZGUcUjTFQqFCeVLBEZdvPdrnQFpsj+/OhJ/ov7Ihvf94WZmIRUJUZW/LBIShYy276L5xILarIxiSlP+OS+OkNqJtJrSsRx4o1I8lCrGRYX1nWo8eTDlAvEOHzIlb+42fAXEdz9rVZERjZ3NseM8OIa7plE1JI6YU0WqkCcxxo/vObt9S8Z1Ei3aRXcnxSoUF+tbj+O477TvR5g9RjHN0CZ/EhwnyIho+CXXYlgg3Cc+zg+D+y91r3pCzLmUCNuh0pgb9Ki4mE/Z/EQWXd7tRSGfwaXPFTb5fUss9/m8/fGpvz2sg/JKEvdh7L2/KbG74mcun6XqtbGQBDsxRxFHL3H9jBTwzwiMIEqdy3Fda/qCnJeJ3xgD8OaSxOGj1tOj2JrY6GF/lGKkM771zi9cPzzk9vt3PKPbps9QPEUs+Hdn4gt6PwXEX5wG8cNAEjZcu9h9aviZARz711HlYLrK7Dt2zHMuk3g4gQepUt39DWzhK8Hz0h3j+Mjy5yeUcHPzVff5ejCN3B8L3a1PBIGOhDd6UmPJsrMGvh3pgWbY8ns5rpTRR1f+FW/GloVSFqpM4fA/j62OSlv/G5MJPgS4T4GI5cDs7GXK3hlX6XuTHw1ecCDkXcsCkJ9VG9fEIg3ejVtjeD8STiUS5KTeYpWnV0HwnyPD6HslaKzAT01Ry9YGc0EYovnOvrOO3EK7epJHQnSCeFE1eGrU9KOeVzxH/IaVenvPGGB3LtB7u16GAah5D1bUZRhHfFuaSh8LESdzsRJH7E0voy6W0rE4KvkLg9PvmwhUR/4J0OqYqRKBLcG3QdpyHBfxMEPRa5+xSzeFpvjbEarrJSwhSTXGk9MUT3U3TaOkChXMLXNArARdorOYR+FsSH03bqLlDbef8YrOXUBwMf9Z9goDpIvagzC1Bfm30FcDUZNyDprcPkMpbJS95kF7nDwOVFXsEOAOA7v9gwF5MDECMSEH7tZ/w2s2Pjs1luUeLiDNaoKOrL5qYPf5sGlkyubm2KK1TMQ9kENzkoDQfu0EPs/Zn3kNivB31vxRZLHvbPVwJYPXgUfs05E4IMxSL1BW2ZlR40PQtcWSuTodV9feXZ8P8fNU78Ma4cmFgCl3AXyL3syDuGZ8axsE/u3hKPSqP6CvDAbYxLBA/FFksFVJA1sdZ/T0FMWwz/nKFtsubFpUJmYIlyRc/YEfie32HbyX84SYa9WdzvomCx/poNRypwdWSI4YKJ9JtKMsWhJxituvdrshO/VbljpAbPUh87DQPBNmnMdM/zlMWum1ca5wZYokTIw4hpZQ1cRmJaC+q8l3rNTlvojl/ydtYQ1TLwPwXhPvZ807JGVJUbF+pMg9eVaIHqXsK4bwMUiA4YtRn+zRFxViSOuEraKyTXleX7RmPFoE2wk1/QqcatWvSsaFxOL5O9pliD4TqJwsYIF/xj5RjtWRWNlP5FAiAZwYirl0P04wSUgTaymsWBCDFRy6c2DnlidY6FfCvSXCQXCOdrqBPiY83qNRqNer9MtL98MDTm3F9y9qzaDFDzhVieBwrBDK+Q1svLQTuNeexlNB2/6JAEfmHX1Hi5MOs+Gjm6WdTq9PriNXq+JykgrHx1xDuAppBkiRTnAN2CRZP7HFr/TanLaffyCyBjMqeRIs0AB9YajRMDZ3ZVU4ifiYSOTEeiKn/OW0MKs7pDnG6LHupLTIh8/AsZa6o2UcrAREsQ0ERZxtMK5nTSb5Y9W0aXxgPGTSS2fWOsh1Fezp5SHQDeGbRA1P4g+xmHgO00g05HqB1E7SR31HwGwuLZFcz/H6zulhNaxM7LmBI54MHd+immjyG4i2nWn2AZDva4qzlWUD5ANXkoxG1HLbz2DdrqDET5tsFoXLdUMTmhSa7PAHP4D9zllKFIZSi0flK4LPLjCdOjkEy3MmpIJfBycwlEgTNk8YaqTyoF24Z41PXW/nwdLxCAX9AEQ1xOE/kgZPDJmlwtTcG+oLEHsTuujpZAG9CCwdoTOG21WYF02XDmhWQjYub+EsS9b5YL9HJ7j4N4NLaRFj17ZsDWoZVd9uP2p3pELco0e3tVyrgJ5ylATc8iFLzDpDbpHcIargT5pLFcfGKQXHNMRpjkUp2wY00yyRcCweh/1ywY4w4idKpkuu2wiSPwAqjk+p2Cvh23WiGxg/2ba1Xpeoa/ctB/uLVKV5BvjMLgsaJ1xjo6TRPKYx+Pkw9sAeCxI8TWuF/Fa5IPayTj3z+mkSJx+l4/9gRYJUxYPNHkaN9Dakg6T5YL932eYd5XLFN1XtvkmtpqN449kXhQ8hpZVEqf6MykVHuvuZiKHFWDeVS4pSR04qzxvWLe5eg/3phP7yF9u16U0FbADLWPiDqXr3dK4dc2lyz2fuMg4sefeW7UNG/ZdqPNBt8Aq3TiSOTnyzkoSlIFTKnmRL8TcgSbmxiQp59q8N39Q/qAPGOK4w8WRgN0RxOGZgA4b8s+Ivg/joJJUhoE/gFRkUHQYM4tHmNGAZheAytwzTrFWLcgYYlNXc+7F1Ie7Ys9LTAAYv4WBN0urIgO7h2psbhPReY4ALZJaThKBsiw9agRpHf6BYXO2QSmVpJjejFb7RLZWcxjWM4q8OTcAyP94VVF6kdFe2EL7te2wS6YkocL2P1gy5haJ7I5QdqGeQDfP4PGxCo6VxkooQhtFh2xeDSlnz7R4bv6gG7LHOdBRdfECrZHpcB1n7AD9TzcTt0AZlQQyyNg5H62OFNa2t8RKUtxQcatemtKo1RBJvhf4VPm3eJ5WSHuVmfjESGK6jBzOM80eiLI1YOL+Dzw/Lk4r1zwbiV2XPXz+GjqllPWVexOxXZAeosYQOYvcfXgpRmIGHLJ+lgsaLZMILTbN/GHEVHrPeSXC593gpjahfKSN1kXkN1ZjHyUq5zfnwu8QWAKGkhGb8N78lDghrV3jVb/UrMEdRKTvCdGnAt38BsrHXYSmmlZ+CrxFYMMhT1y//nM2mmqv8uPDAo//Ye+RjoEztBF1POP7qegwuHpV4MiL5RC5UeDoaizqAbZ5tu3NR/RviiB9aoeJSxPfkezdWMvfLahDGeVwqk0I2o8dMDAe87zFzlwSpxAZKkTRquM8Tzz9w7FG7FBAuOrwVHyJ/BLOnQdiqtgzytcZLjF+WOhTEhN0UUi8CxPjrlicoXcIVvPSxxOISSixW8/JZ4zxdoRm5u8MIEzQgbG9WitE8W5kmzTymwIFXnFPjvYKc3+730vOPm8IgRP4uuNjBImAw/H7W6u60J10o0m1rQ2kLfWuC9IAd8STiCAjmPZ1ErDpNBmtsw+HA2f9mGFDzTohG5/e05qj/b8Pkt7EvgkSj2nYLqIjuRRCHqSp6Z6+SPZ2Fp85ZBj2+JywCn+/QqSKxBRl+s3rT9p2aeKdT076MK51kRIcOQVLbk4AlK9QcnYw3/oh3OnWLS9FJlfJViGdcT6Hl+Rt+68oKE0OwaLDGSAGzkPK2aE+olO4Am7fNKW6g9oRZe82COTYNQZqxcx1IRjrwMFpNMdOHxESsv2zQ821bzzJ3GqFWSLTSVkWapfvRsiDymCTTYH4TfxSEYdMNYvUhGkyiVOOi8wSSeL459I2NSUeFnJcYJH/CSvGgzGLgtbtgJhjj3fiaWCWCG+sPqAc6Ba0sQOF6unIn/ouYzyjLxgde6nv4jXP4MjDLBGesWGfjZotmIQdUTVAzZF89O9IV8T5SJhQHh7wyqYrXi7+F7NEeH1ramATqHWsXvxP3bUHVXWc8YMoD5Uo2khsKozYJBqDUSdWbbWNmlo9x4teVB4XEx8oEhTwgZqoiIIUBS0hCKKRRy03jB0eGh5RUEEuNI5mgjpTH0SF2OhI0dgmQqt2sDR1Es45u+exd7+9h9/fsHd3f2f3e+73UV2uNFo1mqC+90suFK9nFDpEbqlOEjfmfXpnpEOUtrO+he5apcXbXIha3QyTV4+lm9WbLrol+OZUe+9mcidKqjieVEb3lUNglbQmtg9Z3Xi5BziBcmy2TlRK2qLb230OzYjedzzpVpHxv6qN7ipTGqQT7E9GCOcu7xNYQ/mJjOSYrNR5WVRpqQStihaxV7+McuJfrqzFzxiOFIhOmjm0s6wbxQ+mmnUFIRrQjJTrGaNIfGGtp503k9TEE7+a1vT+zVZEecbpJSI1JOyaDmGF6cIQpX2IwAvi8F4D7YqBlYhsgIGkhLghl7uKdk7JnFPVYiea5gSJ2zhvvOb0hKNiX+XJp7TXVtmJmF5vUkYGI8svN9Gv7dQuvjjMZzVK+HyV+sqqPl5Jc6A79B++FNSYEPMjbjYkFnh1FVej77W1z4FAtPjuWKnNwVeIY6RGm8tT/P1aYCokJbV9FX31fl13JcSVWI44K1bwp4pUsfwzZ2o4JrnYxgUWDR97epX4gOSAPngReeCm09K1QCkJrBcfb5v65ViLzw5Sdy/USbrqlIDW4hF7tch1rWmQ/l81AW+uVwmTpVfjGQlr1ydBEitAl5ZvIk4LUgy3Q5fiKBLH2PhOZaXrglL9b+WZHpWopE1XQBcmPcx2dKadBOzZkt5cVvGXa6klPCJdJomCXRF4TZIxUQX6jjVQWjdvtB0dEeWVtsphK420SIR1Od4eLVYuko+PtRdJyipFwdZkTk8grKrFaSvUynfCVl1/IkkvSbyv1xZRcwC3SJKiW2/DXsUf0/Nqfd82VN7nJrEDdAW/l6aOliGVoALVVhJm5DxTpFdIIWyFnTrZ3drPzmbtr8gbbprzQNcw56Fks3MQYfj29eo9Uk4ixHWq5Is1X4NdywVZ26Q+b3J2YlhvhG8VtsxGo+ReCbsn/YsrmjpCyt8g3Yxiet6TEuQurbGc3fBxkq+1ugV0JanSDS8RK0MF1bwmJLYp31g22LIQjfKD7DKBo4DxqBZdJaDXb26ztHBnd33iZhivEebuEfeiUjpPK7XqWFVyH6P3ZI4KPFD9EWmHPiU6/GOsPhGYZ+K140dTo1F6sIpBrZAbCDf86704SvBFuuXLkljKRPMza7FRZ1NhWwtGxoLqJ7mZqM/GlxYh3C+Ra22CrW12X3o3FabLckY0oTy7S6eW2pMW2BKOl2vIK5fqbmxlKS55XJ+Xfwq8rFmd1Nmek33WwhPA/DhbGusO64CefXtHfl59ZklxGHE2vBJeFX+rrLq/Ha3mgXCSVWHmQJG9O5MaI28y9W39iNurYAipzma0AIlPayQ1RvxcmOrx3RTWTghCVrFqiCixq5z7cmCiPYxVaeNKAEpWXmE0+fuJUIIdEbriC5N6KiUri9jM/ANZuGAyRUY4ed/g6ntsFtbeSvnKYkRIhcyF8iuahCBaDHYJeDbSpHIlTULWs5EhT+R2E6Z5IzFmo3JwqphcXakUleCTTL6iXCvCbnqRowxkV5LEWhb9rbITaRHCpMtxyqNqUA/KDwmOs9C3wEMG9uIdWow0MbAJo5FG1FQ36oxwg5/DiMpo6H4KSRZajJihr9nAezbkD0/14wDg9xOcPnkVlpNoenLkK1g+bmJ09df6ciBwn4ZbaOe9HnFpUSu8hVF4MYEC1/7uHBR8nHFL/a6xB1xaXddWO9g0bzRhfrPfRA4QQ4ZiVtpQ2RMuLdp1EkSmbJkZ+YtjBnGgcP+12OuYaOFNiaVWQLsr0EbVZAcUeVfyak6aeIso38V5BgcOceXZBvAWb1SPCIP2b+miEkGeHAN4ixWtNtgFpqyny4gN2H4SZzw8z4IQboDUDQzqKvqWtu8X9F1SkcThO5wJIz4y/1YxXDLzB9Qju4lw6lZqiVQtnMiEET+5CmxuPgW0yEL6ESuojmNtCTJlq58bE0akDaOeKTEg+lY0DwAIw/1KHipo8AIbQjgPF4wf7xrteOnlMAhGwmi75IselSJ/yLkXI0a4Ubi1mprO0Vxteg4PAhvNZJrUWpyxrrPDiF1m4lCF5XbW36C01pQ7PBBqaFXLLbAqBJ3HuDNjhOv1U+V8qLIOQxPC8wk0TPfGEkVbaZIXxxAeo1VS0ikQ0swDIoHCKclT/IWf9+KYYvAA4E8wPYEHBYXEzMAGhfF9/TjW8PktVpfJs5+Q2zk8MCg8Og68gMsA8J7AOQB+o6ajZEhCNAVN5mkUDw4alTdyrxYiZMnAmX6cY+D3lrxuYDmF8lspVTwT0KhOUyAVd66zhrlxDsSQUbOkj3m/e2Rn9KrDxjOCvY7r9nyJLdJn6OwhnMMhTwo2fVxfUUTsj0jgGYK8XVhly9kmmSPrZ5wR4N4PfU03NZz99mZddqWugESSNYxnCku9Ll9wSmV23dOH1uJSVIND8pKYlDFcZdFRq0oLrS1a7uyiTMZ8fK8a1ms5z+mnrIWlq1SmN8IgjPzOVcvCo1RdrkeLLbxDYGlQdfxUaMl0dfU0CCPonGAZlFddVNvKOxCt15QPSrZZwyADjEII5+GsYbpK/bmf5JebeQfDVPPoicIUreojTPcwDCPcK71Vp4utXpfb8tjGGwStmRVY87ZE7Z/trwpEE2P7qEhPZL5BytH84lYzbyiYcsryC5BuyGhlse7kwxkKIwcqrVKarpJ7uS26qtlmMDK65Q3YEurzOy6nSxNNFCbsPZ4zGLyG42+u0kxrXt652nN5Z+vLCu80dUbxPQRRttLmhpIqa15tbdfsrVXl2BvrZS/OePD0dXHMPRO6LfbixdjY+cELHUSc88tDOGPCa8bUPgw3Ym7skfgHmzZnCT/gnWPrIj9dGsqUDqc3hvlxBobXWF9vFvuwMGjn4sMCBuEZB75kQ8eU4RMGc4aH+wjofQj++swyQQUfRa5+G5yQEW5cD8D40bC7ELBve5agCdcjTs8FpmTSSMPz4THAFXQL3o15R9CBzTtPAHMywMPYhMxwhly96ZOtgl74/zsIWNF60cB8eA4FVa0ubRGIcOsvJlBOZnkaVaLPBLVHdhPy8T9sgeXEZaa7EQkZ8hzkondsFezChqWgx+Q5Ax6Tt/RIEFNAaOiStADNH25ojL9gLz4HlfEuMwzGh5eWoJVpW9CBP2VsX7vx8LP99T8ft3ZdxM79q+cra6lHNgoUcPguqIHymqE8W5NV7fQv/7ln12H8bs3bEo/drtA/CJSwYbmCE+DE3t37k3f+7bOILkR+Eb/gUtDyJbooGTfZQDqvk+JUF+17sFl9uxZg/jvokEAN85IRF6VpR3LMYvQEQ/6ckRyk2U3mZBQ9uK+v4uG4u0mbDIhE33Tx/gJNrJPv7x5Vh0zEvhPaRJ5vXyMQgqzz/wxLDmhXkT5FDZD2D4EyPtwh/Q1NToDwvy/V4pF53QAWvOc47PQuxizTYVujVKETawXqWHZE8iNab8WQyL3qJ2XcSw73K/bDzS1ou66Neg8xxPJDAgQkEitC+38eS1YV9s4O9j364GT60l36dikrFmEVXhdgsFP0Myt0qdCRsWryfYIjCRmLia3HrtO7Sf+RD3L8vACFf4l+aLE+1+V7KpzQaFVFmZC0PVl6tyg8QM5qiACHuyLqdapz/hnK5n/vYQYj5P3NujfIX+51Cv5QgMQlXfqvzK6JDzDiKfFBErIkg2B/4mXDvL0LlBBh3vHuYclw3f8f974iJQ6RJeORQn0vyae9WK7qfyEA46O07rPO0j9AhJLa5eQAjcsTqfYuIFiaEBcsV9UEcGR0/71kggEOKQUnnX/BmpBeU1Deugd2XyDPBgqHZ0Q43d1Zc4ZgAP94BTN+CuMCA26o8NQ3W+0Xsv/HXQaECGu672caUYRyu4IXcijbzCFUStYJsg/7r4gEoBAWjAhfizyiRNbPGoVMvWksCZmISAGKjSPalgjEWg4wIURYI3JTBZGIQCFkBZ4Shs8XBiGk+kWyON92VKBqKxtGBLFoPkjmuDyNl+6DWBGCKq81n8wpuAllaaX5M2IkRvy78WSWzSd4UcIqRQVRgi6YTIZsQUrGvYwIEeIk0bEYolGy8MbibEZpQPK0rIBbZNGjbWg3DCtGBIl/au7nZKcEK0tc2LwreUMeeiXLTdiMUVTYMSKVAQsXEw1zHptRMZWJO0v+u38kWsdGnFd7BzNGDspE2Caywx7sQH1rsLzQ2WkiSRyC/bBCmTGyX+4o3UA00C5cbpM3/Pur/nJTnUjNun4cr8ivYcXIPsTnQBbaj8St5VVwf5Y8mfQMESHvKrjp9rBiZDXqAdcxoqFwOjB4FeYXZD+5j+jKUiKEnfqLjAUuIqIkZBvuZRzwEZFpvt+EUCeE52+xIeQQ5pkjmdcRkzrkAntI5B7GCJKduKj2VoQNI5/xNCk5iBkNtJy/l+yIrCCYepzq02YTG88W9k1JMIl4D8G45p0h31f/hoZTMFzDQ47l8xgQslbhwQqJXRKBGQyyoP/zFK6XLYu05DSziFnt/i93VxcT1ZmGx11csVur66o13a2tXavtRlvZ1rWtxrhtbe05mZ8MECAzA4MRwhASkMwgIAgmJGjCQAJkCD83wg3CldwgNyTcQMhAk1W8gis10Xgh5cpe2GQVg3XOeb/vvN/vMftdkjnnfLzv9/P+PM/7Ur7fxYO8INyOJ9UFHE/bThd2s+QiDvzPlWZlvIrptPlWeZf7IWUaOSG+RVqD2EICCcUKKXY4PPM5gnUELMRhZbwEWxka5tN2AU884/TU0GPWka09x/zOJniTbFJlAJ+ywd9ZZ7zIUhUjfEGlQu4iTs5nzG8lxOVVka9sqcMF+VLIMHgU4ho7UJcZM4xrhpBMVOSvW1GlYTasQKqflf4aqValkDbkDNZY4RBwhiFLDfXqezELdXiCg5I8MKxCHwH82qhinMDPOo+tXdbPMOXW665wscSXFXjvg0mWYhNsGJs6uDLhLhUKOWJFXt9imelN3ooL3r60ZIVUdDFNIJctW3MDDjeqIPEet35lhCXHJlA7sbBaJlqohrm4U4hpm47CLzmtIzPCcGitilUZjS/I0kfdJEclDiZfMQDvwC8UaOSsVUz4WV4XLjpyfjUlQR9D7UG+k5PlOHgIE90VoOGt18gkdornZg0J4/JT0XI1iV7+SjW9+AXRCb5gs3wExL940+tDVww5IzIxyh+jr6u8JfTxUjSTOw3HJeQXMbdCSyPICpYXw4a8Ee2d4VFK42KBcCGnZbTJBdvWPyj3RmK46fXIrhwerOq4wGJ7Fde2x6SUBIy2Ct2a8uO/J3k4Hr52Q8UINbTUIm6VQKK6Lyav4q8fCVoqAZ/eLVshb1mDWpiQ00qVoW4UFvQ9Hk2ASJi6xMz9+YZc6eWXB1BHZjH43SzZPuLH1i8sOU9tSXX14/X7LBwrnbj9oG9+frKvf+3adDJeqK74XxJVPAGONspulXjUuoWdl8tq0Pi/G2GM/74GPiq7NIcV7pvrGHuffNOl68+d7n3UUd1T3zPXcbdvIoYKd0UqeXMvb0vWyDeMHI/m5ButjanexXu2Xd79a0tVVMJlUgs+941kjVgbJsw7TCr05mrDW9ZBDsn5xlqcKs3FnAJ65VriKNZW7FRL0Hed0QPwXy7tH6leHW1taprpqWzpK32ibne0ObK8m+/TwwxdDoFPH+iD7ZAc1bIS2Otp/1EZ02X58LcL9oNgqHWkQIHNVDaK8y4v5dGOL69D+RfQ2MqSWwNim/X9FFDCKP7Eyp+YoxwBxZ0DhXKNVwaa4fAiDZ2cHGSHbcllt/9ofT0xynOuD+1JTM85pgdT9WXSuiJMMULifOMUCH8X7WW3wUc+lKqRQ9bXk0KhiThSPpefIaPriV4poTF/OzuIglb+z9tPLp0Ll/c+LlUj71tfDx+kvjbk2R9jyUA1ronvkzAf9ivwlOzmxhNsgBS5LuIP1hMHzmEjr/RSVtr4mKh308Cd7momI+gjbQQzYRH8udwCENYkexTaICO44yXOA3vvEbnjI0I1BjvJny6D7ZJVDU77QeshYJ/GBdw6Dt3ny5g38jfZya81hUYRGfsXfOxD41HkUkT3O2lkuB11g3jvcNe59t3ljK53icOHF8m7PwlYnTAzZb9UjWx30MjCZZyBJbRaS7hOrtBFU3ws5ZJ34N0ALme1XWmgsTDTQMWdKN7bgoXgyzkSLiE5nAda8m25FaWRE0rZVU9elxPSOI2Kdz9qjjNf6iWmnJGieL7ea+UIjcjF/lpxD/5Xq/3mGvJ4j8uodlIXY9SIRL5DB2XhReZXHO+RL6Vq5DMDjP2mOguwzluDHED1CptK8mRCuHtoa6/rUZGDrfWZWnqV907neMcEGmXubZeFpm5mud6n5VZ8HKXak13zG8xJOH0qtfrZTsH+rP4KeWIZw4e5oo2m3DFDN/G9pR3PlZJahX/1p50KjV/W67VTplhW0VGuOVP2WHC8NINTxINDovn7oVjP9chy/otpAAAd/UlEQVSoXLFgYXnTpvxRIRD03CIPIHRWSCH5sjvoBXA2cJeSnjJPBSQhjbL7gZhCaqVLZQxlcLeYSka/gCwkNYrJPimE/FhVIJU8jLNerEYjKYG+4rul5NqP7BfaIkpWamDZ+cMjpqJRJwCePSgB/fuJ0A7hq+KIyFk4frhwWJVGzDEBkMxuUWZP9n/EzKyClCKpOLruKhthdQhIZMteoZNrzwExRyQ3rUooo072xIpCjZhCLIx3BDzF038U9AzH1AnFgd14Q6VCzEYhEO2fuRvBncoSxBu0KRTKDP3TrUo1Yo4LyWXzd1z62PoPUUROqcrOLj5q1nJKdVOZBjHR8FSczd4uqpBQo1KZPKJ9+7pihZjdgnSl/czVNLN3iSrE26lWJuW0CNOYao1AzbKZxuFs3QoxJlTLhOI7R9V3wgrkOiQg4jE6O+gw0y7JPiyskK5G1TKZI39cR5Vzqv09VfECoHKJGnDZzqKSj4hyvt558Ze2XIRGHisXyRD52FrUoBGTAqlt2AAMUaGYB/lpoK+uhtmXCz/1s2PwdTmlXiRkMoGOtrwExMmLUfU7gmullyKkT7kLMm544L/H1eudQjszGkQyT7xGTC2DVDstlAH7XiB7k1uOIqsEbYI3SO/rsbsRukLKdEik1tWvkzdJj8XBJ1e92/Q1iuC2A1Z8Jh3SRy2O5L2qQyLnSBtVU19eE5ZB3GroUYiy+xDVsrM/h5ed1XQao7kDBXokQsru6uqDNY41KzqJ/iSiZ/heeNXZL+qke1GljTHr7ufNFFQ7LAglZu4RYz6OrJJDUD4ELD1BSRrd0iSRFjdNrRfjOtoX6iZlPbMcAsF/gC4RuBVHgAxoXNUkENKiSOvSSLfX8V5/lQsm5dj2vcvESli3JQn1cogEvcKUJoHUENIyprZhd8q9pN536SQPsO4YJF9SJa0ekkYe6ZJHALYuCvVpxB7JIRfdXSG1raXQqt8FziwyI6aZZPoOahMIbMLE9WkkbTPA1yhhH0L06cxf0WxDg96MOeyqf/ZiwBZMUt8EbP3EDVr9rUFClIvIGf3abmdRG5ZPuBjmezlirmuk0vpxKqerCfZpsz4mpHHtvqG3h/Z+uK2Kv0ifPApcNb7XrS3rx+lJiEUmQPD79l/SKUr1cHZdozzgXRrTOAPT4mcEHX5+B1bJB2D4JMceDKGn4hKuhjDIGvmvTo1YCKPnnWJxcTwg2NbJzQg7nD/FoPFZo1EcMJJtWadGVhk5K/fgqwTACx351naJONIMoETyZZ3igO+RsM4pDKKNX2oe44wdov2T7UeTrGfo+hjQKQ44j+1P6ZxDIcPNux6bhw1EW++x7DO2ve9cYxnKNFfrlAYh1d3s3j5FcCTgPEaO9Sb5jv3MgiNbF3RK47xbaK3XRh7aQdwYMEvLWhCNq8/3A8DH1ykMk5DC7tQ5h8zQFoYmXgRGzb9yqMMYxNAqJ10NoTw3Jb1uIZNeG1fZFwPcoeQTevdJVEfZR+6luGnReOOBzklkBlxRvOQ0uLczesbssfISulChECCHd1+nMEhgEK1Ouy/CnlAG40+bt9Egczg+J4BG/lWnMCpITKKAzlmE2TWyAqYR/klpiRRMo14MVFG95J6Z89pIuGbwIUEXYLGu9yid9fpMXo0M65RFqau4X3AWSI3UgDbJ34mZKn8Nr0aCOkVhEukAvTpnkUG3wha4KKBmrrZak7lVJq9GpnSKopwIhtEaXMtAjWGL8oBX4D7ioTWOfO2Iu1YOhZ6pM3KQ0Ui3HvlQcZB2bNkKXmNNlbvuOoiU6igjGqdxg9Vnt+txY2x0qH6P18Fqdwvw+3JQijqVuqWRSuxT9ZRIyk7r39Hll+xRlGmNkhikYMH9aX3zyEhkPsM+lYYyV1u2gfn1INq/euCqRippfIkKffMo5UMPgqb7UZB0iCfZzrp6alGLk2g8tmIcnhwpkvKytnwOt3tV4ObNfo5a09SrL92fAePD12O5CiIg1uHw1r/eRL/UzjE6r08jDiW2tIGPzQjfsR0AIRAvOFfHLX97gp9Lrpuu2TRdI2FdyfYhXocMxMofAuK+DLUaQi4SBbqdCNwzmiZylRcH00+K/1qTVfgSTBBZQBvEtMWJUa/rbq/OXJL4+h+grXgCiMTjyyV3uxkHdy5fWaJnIhZWPb6FWQkhIp+dxU3iGwPeOK5JIa3OdUA0WeIWv2IJ/WAdyHDf6vkLfzx9AXhjmyaNFCBKszTpmIivi/v6As33PTaiGwNBCToIZ/UopAlTvr1Kx0wSDIweR1N13dg6xb/X291DQeOKierYJB1MBA/nOMrfPF/wp98ggr93RYdCLuI6HMTUFz6zFWy8JiY/421bVIuhwmHSNTcAW7eyUvlMbLEcBoLXAziy9aXlLwy1pEGeY54GhYxhm4BE61RPxVbklqGSVB7skHzOjW2H2eQa8ro+fHcx5dwJeyt2/CIAndyznq+4HYolOOjarVwjlWiFKC8rNWxPl18V08gBGyge77KPu3R210XxGjGW1QLIKkQING2w076PWyMtLhUY6DVYRp/SuSRFLlJQIzmeb7ltpYeGK8dWE1tvL69KJDLEVm4QW9I7PDu4NUK6X1vUntzLBtsIKVwhN4TQe3kwis56amEhYKYv35VcEXtjr6QypHwNmKMpEvpXcviz7JeIIlBJOhvl6EeojGX0UCwL8BDOtO/mZYzVEyWgsC5JedTgGIpoRgmvWNGLAhhEd4AXMUDpNlGrSiGBWzwKMfy/KJkNgSyxhn0exGS+Y+vzjY40UmJLV1RpZM3gG0EVfGpSDT50PgPc77tsTYzRSQVajfp6NQoZMXhH6JL0yRQ9IdnbadwL0uDTH3msvZGwhXcGaQKYOqdCIZ1+bo0YhTdlz+aaaIJ/DHx4r+dTzqxuvXb8Wkm+ITDCkkGOlO4nT7kjMM/HT/Y2xkiHit7aNiKfUpOIGkKj8J7M2SxRlgfSa4dNo2OeHzkNpTL6/39etlu2FDIER1RikneF1hQH2bMJBm/823NkCxc9KeDUgCTvTVOIYeSPy5pNgL4ecQgh8D/KesvjOcOFJilxjPBJ9dybooaE4ZWEXfLNSvBIYV5rjsdjS+vi6LaOIE8jKPEqqQ0acsY1GU3bfQNOX+G/2HcBSGxvHf8hmBkEldbt7beIIWvExddJasDxxsJcJLcNEhL7GI979z/mriUmqiwN3xZ8a4+vNtq240y/xkczbfsaRzM9xrZ7pm/lFhWwUhgtQEJVgJhIkXpYQoEkJkAikKiBaLEBN6Ar2AAbk95oDGLiY1awckysuPCx0kWbjN3iiPf859zz+M+h/qVc/3tuffee8//f/wrwvLS1Ezh7xGHHxpOgKsk1wJEIw0MRwB3Ff6tWWO7+R55S3TNcTz+GAUnyuI0r15UCJqc7OW7BESKKwf9zHtSmhucgOcz38GPqxQvtzTa2lNTJZ9a1l/HcISJ7EH8Cj6Pk2Grv8iYeZBV3rP5iW4OMSTKPPS18JxpHp3Y4Avt2aOV28W8uw72zlym5ZTEv9j0cHzl87nZ7Y990VU+g/Eg01XCy/0Vrt7cdfE/mVRnu5H3sm5K04O63k5IWCifBCWRMheWzhQL9rDfSKb38OkFhBrLXDnd6vM3hUVFTcCDHb/Kl5TatwpkJSu6glePJk4ZEtogRyVTPQUYZVXDkpNdLXv7q/jG21XVfZAJZz+QxEYvOK00MZmE+numL4qZ/PdtmTov5B2Uy7nuCjnp4pIszL+7qKPMgdtINnGd8YFIwBcaDsGm3KcTvTN9Mgrn2y0XP6B+x6Dy82A3qSTX1RMSA8w9eZ5554/0cS8v2lwk/sUxwZeGqdw223NuWfZut74SwcRPuFdm6mtK0X9E5Lh7Dj/ayAyu1LQnWG5icDEl4qGHm82aLmZuWZf3k/hO78jgpQ2qUjHJaN1U3a+m7jJzVmmzzCHY9HapLQVlmE2dynZLmd52EO/fP98ON57sfncknn5NbY7jDe9f2V1ykm66d8onupy95/rDB6qH+k2cenp8YCASmMw8banIdUwr0DStFKglzUB/NGnu83/1HZsOVMellNo+2M0ApH3zE2K+PXVDyNWPYZIyXpIQ/kX2z+v0eIJxOht+eUCL+jnbUpQAv4nwX24NwepU5spqjRhGhFxOdpuyhm5mjFRhxq4vKiw1Xd+TquipSscZYoqJrMvei08vLHsdo4JAcMYlIkGoSUrLO9rKHWDnUM3S6xDYujzECTW9k0uTaaWQUrYpyg8cUK+qYx1+N4xG86cOS2JS5ZR+FX6Meiim5wjXJivDbaZ0OA2WmAWlOIQbsJ9LmFg7nbb2kXP2Ta0bP6qUExLCP81/TgNT2oSa1+EcdYx8J1G2hkXKsHyxyjxZbxhe/DzQbBiRU7kOWc8YguQX4v7SR4FuJ6XurV3DtW2cNAzKioUDqZrGhxYcbiXs/olz6YxE5onIDSXyQCk8bNrQ6tFTQXTAFScTtD0/SrjwEjZ7eS1x2lyC9h8wCktZU0jhpauNyWcBnaK/CtsXQqOO/AL+IC+NnjlFAIlU+TXLF0BMUf0DFJaiO8GZ4HPh+8soPJ7lmu40CUqqxDecl1JUeS7e97nr+6tmdS7Wud7ZyFmf7kErj7IMBsZYXkNfOLgSZrjYKSOWwPkB8/hDWMsOhuvoPwimtH/z5fZFEggrI0nkURKxDwNXv+20NdBoFxBn06ZQkjhkff0K6bRUf/FDBmUjJK7pRtNGiyj+Ay3tnzpJhs18I34xMBbmKkExMiWj6T36wvcfPNQ0P3qfbd7vogFhrCyCD57dRzn0thu3eWu1dxltUlxihE9LRUn41BasYiJDZdL/vH/FQddgsHnawUTcgPr/aLjzF3FWj/MGYTRZTPrfzQ0z0DY4pvGbBsx5kwnNeR+FrNiBW0ad5AUjcyGSEnDzbFsWyr/cu8UDE+mqBkAd0d6Q319LSdvH6FCYz4Zjp+V4laW+V8GTOTnPtWwv2WJ6yfSHvwsbbKmY51VVX76SxTv+0z4zUyBkdfKXxdRyqFu62OGQZ32ucBt7jQMNFjPSCYmMDJmUs+lucdDRP4GKrxSX7eN4TWhVC4FRImfy6YQoQr9FLgHTzJzF757X9gQ8Qq+hLT1VDrPckdlHNVnYeGkOEuzTp/yaHALVT7kUDfruEExGIBXa9xB7JiZleFUxMjvCbFDzghLLGej20beYFhBz/5pIx7500+0J+7xo0iEhA6Ny7JVbAmPA41ldzI0K003QZf1y2RiIiCUiz3yAi7qFHTINDuFwsztT3CT8gUKREwp+ueSqFSM4kIL4H3N9yUPzbbUE51+HsrdnvMHcywpF7EluX02gUEW4DWKb10AOmxu8FENnBUiTy7f4inm8XNwsIMGQeDhNK+UhMl+QzAUQWMaiUo0LBb/Hs5zbDiDzg4yeiUspZWesFiwUQsdbTFY0KLqpOsJlfu2FEfDw1uFMZOd3PGDr/KgIIi0kRzsJNjIsAUtJjGpHHHIDItkE6zVC6RQgR+kEiMct4WqSS9LhpQFxjWMGjTT71mHGQ/F0IkUUFND0yTdhF+jHljCPyQNsX4mP1oF0qdIwwPBK55so13KxKl3FE/B4HXWlGQTk9T3qfGCBAFvCMSC6vgrfRYr1xRDwqXZuzKrpfyaQEgbKKErcqkw5q88Xrwn7ziDCTmZ+q5fFFaXoL5wkiYm3D5mXPx3kQKTUPiK+fFQ5JaNoSPxYFhGb/KgzqSvKMMQzNASIMRj6oHPCPo9i+v2dAwIquKCxugiNBamgOEBmkc2zqdsZ1iuqVwoiQJe4Kpta7oJo3JL1zgEgTCoVHEUqS0F5xQKx1oCa1r9gbktwcIBKjBqj0HVLLJBD5DNSkGAKf8DpLWuYAkXrKWq5jEDqUHKE9EojA21ZUcYFH4nOfXeqWDIXuRRk1fwpt06JYW8qdxzPNeYcI3Fc0jNPYoEElT8slKyFV6uX+w8xcg//kza51Dkc5aDYsXCuFiPWlFkR8TcE8ildRT/brSMpTOO7hW/kZ0IUxpPaak1/WL9RYtPK0Trg3SCKyvFATEdiWDwmm7+U2sI4aLOXQsNv58yQRIaZXykQQQbInlEcBK5BFOaF1S1wjC4i1kVR2BmWZfWX5xDSShT0lWTTlUDxsuzQiRWRKyjOcdVJrwop7zCNCTqV6iaccONkLlkgjQox4te07SAul9dCxh80jQvAIU4gNi4ARbJ/LAwIkyd9CWmj5OGrUWEV6iIjzK0Ttv6ikxAP9hIimWyNYK33l5ItD8kBrjIYsrPtusQIixBxk7kHIMrv3HBlbbi7QSWBqv0M84ToVQEgCOIgWB8/AZaTBgGlEbmgNmpG+11dKiJAEcBRtrZRU/jOmEXFZ4sW42TBDOLTve9mpL5+KUk1+2DAgbvP0Hq76CEasitkoBTHIdzMvfERXkM9BNr+JPO9Nioj8S6Mh4o/rCFOKimsRHbjaJ3Cih7PddncmXTdiitszbdFt+U0rpVe9XbhIERHrO7fKB7o/kjKjRIqrwjmCrP6kSjkoLGs0xdYYJ8k1g4C4uwB06QXctr9RRmQrUWSPSWCA5lbEICIu97AZ+/tsVc9l9KS2ujEXDSbzO1eNAeIv1ZucNEBwZgeUESFmvKK6cEfAmPsJY4i4JjsWZ5D1V6j0eaDJp1ptIXCCkJMyBEjPlL4dGXJ2bHubOiDW10RmGeaSm+aUbqzTbVMQx8gXCIhs0hNrpzhoM3LbCCATLkqrG5vlTBIhh90IiJAHCeq2BRfqjVeZQGTUddfL2DcgvJF3477V5FuiIQVmZVrGmbPAVcLd7LMB+w5E8ch6DEBIjwR35RGdWbcsCbj7z1ViOyPkAOKfURAhq61Q2ThKN8OpAd2IELGkx9h3eIJRWcUVtQonEZd93sFrZSAi5Lwc9KSLauxoFb1s4azWdc84JTVaAckQ7diKp5Fv0Y5UpMBTtoDauI/WKzyY0HmIEJ4CfUqqrHRgFSnwlC1gulIV1CZjGX2IAF0F+pFvESW2xX9jAQK05BjDfF2pvc2rJ3QBkkMveiXlMnGHQ2iIrC7Qunx6pnxEk8F1BbAmwshOaT3xiSwtQkPE+rNW5onRBSOkxXevg8y7Vt2nCAqnRXdJMOdRNLAaoJXjA/LEweh2KHw6LlyJiAhQ24P4kSRZ/dBak+hnCHw7XGO7pxqxjgeSA+QTPMdbPrOguhQ3x7DnMuU+uBM2AAJ1ByoigAFcjeeTsPs4HsUMWvbReqeHUUktYETWx7iAWH8jn+EJ2vo9ercXX0G7UxP1c0Rt/FwFDNE4gIwIycnbYTSfus6rf82JPpT7+M/S20WOYCJyn9S/HhsQ6CRBo2efezZ5KsMIKkaPM+6AmQAO9ULZjI4IVEqNRV/HvDuhOR2qNpf/HHPuGWJiYH23rdnQeit7CrU9RpKng2PlE6Wzt91jhgIeUxcAOlbNX6kBETIp5c1RgtPk3c83SzEunwJa3+HVAxrP470HaP9CByDWvIPA/p5FeYhum0/G5Kpo6zlGnaG5I78Cyn9crQURqAWEHUehZ4/ZvFJ9QXjvSg3xfILnkQBpgG62ydIk0Pj2EIZnJTJNtSwn8l0O1LTyqUUiaxLQ575LFyDWWmhQzJDfLCJv7K7Ia77fL/D8Bfdc2SMogGShhi/sAezYoSuclljCs5WKO1+mvGYy3hzqFtCI8o0kwQzNjZZG2aXHuZKakFyZbmmAf8dA4vXlKcGhZhgR5GmwU+t+nYBYy1fogCQgP83yaORy/+RgeyybSfZlh1MNF670pktlBpMjlOjC3Yz/OE8rItaBQg3Rnqw996LuWU2AtHLhDkuzwB3+7ylZXBV5gIhyAeIR2KjbohsQa/Ea8MZpFdZxMg8QUWX8+2CW5htLv6yGW/zXKhyNvXmAyCM1QBrhfmF7iwwgYq1cCue7yddz1uYBIrVqeQ7wUKiDay0jsvkjOC4qOxsiWZwHiCila72GebMFf7IMyXbKkKvHciRXjZ0PIl8UE6DMGCncZBmT7ylPNd4k80ShvEBEmnqI0jbdHyyDspXGbrSJF1dGnbxA5KmkAf+MxtVssYzKTtqDTQmHfh7Z+SFSBT1J6lDQZZZhWUdlZofEmuDHwnmCiIy1deopTdtOy7jQx1OX9Ask6/ojdr7IBeHYJP0E3GrNgfyvvTP5aeuI4/gANrbBrGYzhkAwaxxcMCmERYStGLAMFsUyFVuQAAWEBEYJe0IrIYUeIBJYWBAu1CfaU3xBXCrlUoSEkSDqCZ+qSFg5JOWUSyNVantpwntv5i3j5+f5/AFPb35fzcxvm5lWBXVV6Qw6hN8XjSAdvWgZ+e9OKGe3oh4EhWw5TU52Ba4E5LOKR5GOSYTi208e6peCI8pAkCiKphme3QVxJN0jJkE6OlzQeV4PzdtPUQ0gaJhv0bcpnNEnu+YcHSJjEsorGTukq06WV4IgEhfPUBJfX6W6mtQ2P8x9gli7j8Yd3ou37kP3G3dPYH8/0OPe/dEx/szO8oMv/mLKptjmHbT/rY0EQUVZyFzm83qGPj8qPj2FVAT/Uone0d2VR0Nj1A6E3/nnRI/3HF2Z3lWaDX7w9IqhAq1XgmCTHQ1lweGL5x7f1vzW8Vngap2LGvYfdibWoDtHOl9tBBYQGysGFo5vWrxsyx8dTLFTVBkQAZX3ca3y1m+vfX+wSXZsfnCPoC2Rl9dnM6/+C6s6955seHbHISJZQxIQBTF6BQY5nrm2OL2INzu/i9yENNDX39/bDaulIkMJxEJDubBqdI16lvjop1p+fiTcT9YVAxGhKRRumnQ5fDye151z9wnyl7LGUiAucg3C6HH+bs/CLzbYVmAU8rOA6FDpmngfp/1amMuY1yb5zRU0NauAGNFkRPM6zr7ArEUofh7m7z+j1RogVuL0/GnycHXQIiS/9POkR2MkEDORan7WroETv0Vg/Ac8/GeiWtx6/BOdlBnlnAe67rRgYIJjW5L8Xo4ShASa9ghu/u5KpwULp1wqyhH1GhA6VHMJGfuGLLjYYu9z1WWBkCK9ln26ZNqCjx22f3lXA0KNepYr13ucglj83exWLB0IQbJSWe0hmN8MdbH5yUwzCEk0CSwG+xavIKyajvNKQahSFoU8RTYxK/I9sh5ROSCESWtDHO4oZkEsp6iCaJNBSKMqQdvgT3ArsoK4pbeqQKhjRir6/o5bEbQmV0MBkADKChn8kA8xCzKNEiLK1UogDarhp8k4ZkVQDqUazEAyKNWwu4nViVWQl/CJrYg7SiAlKuMhB36AVREvvIuVBCSGSgcXm1iXMQoyD6tHbAuQIJEJUP0qj23YBNmEbEtR5EUCaWKC6ld5g0uQ7XXIPhMTkCxQ/SoCPymGmmRMbFEBKaPJYPa67GtYBFmF6muo0ACpk8y8nTzE4QIfQ8SGsrxkEA4UpDCe4RC+arXF3PWgqK0E4UKukcEY/UsCC/KIWZCULBBO5N6jX7vePxFUkAmmJUuRUg3Cjawa2gTkixkBBQkwCCKvKQDhSFohXU/qgE8oPWwXDEVCfRoIV9JLaI5fW93bggiyRx8Ylreng3BG9bWRekMZXRRAkDW6s28KY5UKhD1JGYmUXjD/m8lHmvz7NxVpRI5/yydVtRSRvPWQ37zjIvUtExF3yfT4346io9Dk8RyPgnygvF0mWpdORPiMIgpJunr4elLu6QK1e1VMBLhBEipf+IiPp/cs2++ob5qIzSXmv4liyvDkV+6px6FzmoMHScT4N2OiLPx27XBzhJcWaKJ0bSQxPWVWOJG6aNLD/uDu2AVdXlGvJIanSaxk0hSyDtl1aTsvBiTbV43DC9bSpbp+Q29UmaG/TCCexISM0WIebdZpZALlVPWs51LyfdUYeEDfJmz3bsAFKINbCwPh1hUnlBfM1LBi9/qYtpTNT5NMFwI2tRBTw5LM3JJqvXQdO2/O1nc6p1xHjG0Ncj1Jm6BsJhVQ7Y/28YPA1Ou56UW/f3bv6ebS8utPgasRqMsya8mChbpy3RLyTrs2E7EwuhucIJge8Q3EvKyoEmaaGEmalzUavYxvOeQ1WcSuXDC38apHbEYysSlXcur4u9yyuZTYkw9HuD6RDzmiCslyxRul7Vw1kRnLYogd+SRGl8pltWqPIybkHVWVkd2l2/l3SLpdKNLUqPGJTPuAyCHsRCm+DX91bWxNNkklYhGlMRNicsSrTaQUhY+47LxU6k1FZtBXaYiRsJNeVJJg+KK9K1qbQdQI7mwxlbU2JqRo8++n1n11u9ksiZXqbzs05edFq7kxAAAAAElFTkSuQmCC;" parent="BhIajO4M1uqcpxpR8eOI-69" vertex="1">
          <mxGeometry x="90" y="10" width="22.17" height="28.31" as="geometry" />
        </mxCell>
        <mxCell id="BhIajO4M1uqcpxpR8eOI-72" style="edgeStyle=orthogonalEdgeStyle;rounded=0;orthogonalLoop=1;jettySize=auto;html=1;exitX=1;exitY=0.5;exitDx=0;exitDy=0;" parent="1" source="BhIajO4M1uqcpxpR8eOI-70" target="BhIajO4M1uqcpxpR8eOI-18" edge="1">
          <mxGeometry relative="1" as="geometry" />
        </mxCell>
        <mxCell id="BhIajO4M1uqcpxpR8eOI-73" value="Lab Router/Firewall&lt;br&gt;Lab DHCP&lt;br&gt;Lab DNS&lt;br&gt;Lab NTP Server&lt;br&gt;Lab SAN Server&lt;br&gt;Lab PXE Server" style="text;html=1;strokeColor=none;fillColor=none;align=center;verticalAlign=middle;whiteSpace=wrap;rounded=0;fontSize=16;fontStyle=1;fontColor=#0000CC;" parent="1" vertex="1">
          <mxGeometry x="570" y="555" width="170" height="30" as="geometry" />
        </mxCell>
        <mxCell id="BhIajO4M1uqcpxpR8eOI-74" value="Raspberry Pi 4B (2 GB)" style="text;html=1;strokeColor=none;fillColor=none;align=center;verticalAlign=middle;whiteSpace=wrap;rounded=0;fontSize=16;fontStyle=0" parent="1" vertex="1">
          <mxGeometry x="570" y="470" width="180" height="30" as="geometry" />
        </mxCell>
        <mxCell id="BhIajO4M1uqcpxpR8eOI-76" value="" style="html=1;strokeWidth=1;shadow=0;dashed=0;shape=mxgraph.ios7.misc.wifi;fillColor=#008a00;strokeColor=#005700;buttonText=;strokeColor2=#222222;fontColor=#ffffff;fontSize=8;verticalLabelPosition=bottom;verticalAlign=top;align=center;sketch=0;" parent="1" vertex="1">
          <mxGeometry x="560" y="375" width="30" height="35" as="geometry" />
        </mxCell>
        <mxCell id="BhIajO4M1uqcpxpR8eOI-77" value="&lt;font style=&quot;font-size: 13px;&quot;&gt;192.168.1.11&lt;/font&gt;" style="text;html=1;strokeColor=none;fillColor=none;align=center;verticalAlign=middle;whiteSpace=wrap;rounded=0;fontSize=11;fontStyle=0;fontColor=#009900;" parent="1" vertex="1">
          <mxGeometry x="500" y="410" width="80" height="30" as="geometry" />
        </mxCell>
        <mxCell id="BhIajO4M1uqcpxpR8eOI-78" value="&lt;font color=&quot;#ff0000&quot;&gt;10.0.0.1&lt;/font&gt;" style="text;html=1;strokeColor=none;fillColor=none;align=center;verticalAlign=middle;whiteSpace=wrap;rounded=0;fontSize=13;fontStyle=0" parent="1" vertex="1">
          <mxGeometry x="720" y="400" width="80" height="30" as="geometry" />
        </mxCell>
        <mxCell id="BhIajO4M1uqcpxpR8eOI-79" value="&lt;font color=&quot;#ff0000&quot; style=&quot;font-size: 13px;&quot;&gt;10.0.0.11&lt;/font&gt;" style="text;html=1;strokeColor=none;fillColor=none;align=center;verticalAlign=middle;whiteSpace=wrap;rounded=0;fontSize=11;fontStyle=0" parent="1" vertex="1">
          <mxGeometry x="1020" y="82" width="80" height="30" as="geometry" />
        </mxCell>
        <mxCell id="BhIajO4M1uqcpxpR8eOI-80" value="&lt;font color=&quot;#ff0000&quot; style=&quot;font-size: 13px;&quot;&gt;10.0.0.12&lt;/font&gt;" style="text;html=1;strokeColor=none;fillColor=none;align=center;verticalAlign=middle;whiteSpace=wrap;rounded=0;fontSize=11;fontStyle=0" parent="1" vertex="1">
          <mxGeometry x="1020" y="162" width="80" height="30" as="geometry" />
        </mxCell>
        <mxCell id="BhIajO4M1uqcpxpR8eOI-82" value="&lt;font color=&quot;#ff0000&quot; style=&quot;font-size: 13px;&quot;&gt;10.0.0.13&lt;/font&gt;" style="text;html=1;strokeColor=none;fillColor=none;align=center;verticalAlign=middle;whiteSpace=wrap;rounded=0;fontSize=11;fontStyle=0" parent="1" vertex="1">
          <mxGeometry x="1020" y="242" width="80" height="30" as="geometry" />
        </mxCell>
        <mxCell id="BhIajO4M1uqcpxpR8eOI-83" value="&lt;font color=&quot;#ff0000&quot; style=&quot;font-size: 13px;&quot;&gt;10.0.0.14&lt;/font&gt;" style="text;html=1;strokeColor=none;fillColor=none;align=center;verticalAlign=middle;whiteSpace=wrap;rounded=0;fontSize=11;fontStyle=0" parent="1" vertex="1">
          <mxGeometry x="1020" y="322" width="80" height="30" as="geometry" />
        </mxCell>
        <mxCell id="BhIajO4M1uqcpxpR8eOI-84" value="&lt;font color=&quot;#ff0000&quot; style=&quot;font-size: 13px;&quot;&gt;10.0.0.15&lt;/font&gt;" style="text;html=1;strokeColor=none;fillColor=none;align=center;verticalAlign=middle;whiteSpace=wrap;rounded=0;fontSize=11;fontStyle=0" parent="1" vertex="1">
          <mxGeometry x="1020" y="402" width="80" height="30" as="geometry" />
        </mxCell>
        <mxCell id="BhIajO4M1uqcpxpR8eOI-85" value="&lt;font style=&quot;font-size: 13px;&quot; color=&quot;#ff0000&quot;&gt;10.0.0.20&lt;/font&gt;" style="text;html=1;strokeColor=none;fillColor=none;align=center;verticalAlign=middle;whiteSpace=wrap;rounded=0;fontSize=11;fontStyle=0" parent="1" vertex="1">
          <mxGeometry x="1020" y="560" width="80" height="30" as="geometry" />
        </mxCell>
        <mxCell id="BhIajO4M1uqcpxpR8eOI-86" value="&lt;font color=&quot;#ff0000&quot; style=&quot;font-size: 13px;&quot;&gt;10.0.0.21&lt;/font&gt;" style="text;html=1;strokeColor=none;fillColor=none;align=center;verticalAlign=middle;whiteSpace=wrap;rounded=0;fontSize=11;fontStyle=0" parent="1" vertex="1">
          <mxGeometry x="1020" y="640" width="80" height="30" as="geometry" />
        </mxCell>
        <mxCell id="BhIajO4M1uqcpxpR8eOI-87" value="&lt;font color=&quot;#ff0000&quot; style=&quot;font-size: 13px;&quot;&gt;10.0.0.22&lt;/font&gt;" style="text;html=1;strokeColor=none;fillColor=none;align=center;verticalAlign=middle;whiteSpace=wrap;rounded=0;fontSize=11;fontStyle=0" parent="1" vertex="1">
          <mxGeometry x="1020" y="720" width="80" height="30" as="geometry" />
        </mxCell>
        <mxCell id="BhIajO4M1uqcpxpR8eOI-88" value="&lt;font style=&quot;font-size: 15px;&quot;&gt;&lt;b&gt;homel router&lt;/b&gt;&lt;/font&gt;" style="image;html=1;image=img/lib/clip_art/networking/Wireless_Router_N_128x128.png;labelPosition=center;verticalLabelPosition=top;align=center;verticalAlign=bottom;" parent="1" vertex="1">
          <mxGeometry x="210" y="375" width="110" height="95" as="geometry" />
        </mxCell>
        <mxCell id="BhIajO4M1uqcpxpR8eOI-89" value="Iternet Router&lt;br&gt;Home DHCP" style="text;html=1;strokeColor=none;fillColor=none;align=center;verticalAlign=middle;whiteSpace=wrap;rounded=0;fontSize=16;fontStyle=1;fontColor=#0000CC;" parent="1" vertex="1">
          <mxGeometry x="200" y="490" width="130" height="30" as="geometry" />
        </mxCell>
        <mxCell id="BhIajO4M1uqcpxpR8eOI-91" value="&lt;font style=&quot;font-size: 13px;&quot; color=&quot;#009900&quot;&gt;192.168.1.1&lt;/font&gt;" style="text;html=1;strokeColor=none;fillColor=none;align=center;verticalAlign=middle;whiteSpace=wrap;rounded=0;fontSize=11;fontStyle=0;fontColor=#003300;" parent="1" vertex="1">
          <mxGeometry x="310" y="405" width="80" height="30" as="geometry" />
        </mxCell>
        <mxCell id="BhIajO4M1uqcpxpR8eOI-92" value="&lt;font style=&quot;font-size: 16px;&quot;&gt;Home LAN&amp;nbsp;&lt;br&gt;(192.168.1.0/24)&lt;/font&gt;" style="ellipse;shape=cloud;whiteSpace=wrap;html=1;fillColor=#60a917;fontColor=#ffffff;strokeColor=#2D7600;" parent="1" vertex="1">
          <mxGeometry x="360" y="247.5" width="150" height="95" as="geometry" />
        </mxCell>
        <mxCell id="BhIajO4M1uqcpxpR8eOI-93" value="&lt;font style=&quot;font-size: 16px;&quot;&gt;Lab LAN&amp;nbsp;&lt;br&gt;(10.0.0.0/24)&lt;/font&gt;" style="ellipse;shape=cloud;whiteSpace=wrap;html=1;fillColor=#e51400;fontColor=#ffffff;strokeColor=#B20000;" parent="1" vertex="1">
          <mxGeometry x="750" y="245" width="150" height="95" as="geometry" />
        </mxCell>
        <mxCell id="BhIajO4M1uqcpxpR8eOI-94" value="&lt;font style=&quot;font-size: 13px;&quot;&gt;&lt;b&gt;pimaster&lt;/b&gt;&lt;/font&gt;" style="pointerEvents=1;shadow=0;dashed=0;html=1;strokeColor=none;fillColor=#4495D1;labelPosition=center;verticalLabelPosition=middle;verticalAlign=middle;align=center;outlineConnect=0;shape=mxgraph.veeam.laptop;" parent="1" vertex="1">
          <mxGeometry x="380" y="534" width="95" height="72" as="geometry" />
        </mxCell>
        <mxCell id="BhIajO4M1uqcpxpR8eOI-95" value="&lt;font style=&quot;font-size: 13px;&quot; color=&quot;#009900&quot;&gt;DHCP&lt;/font&gt;" style="text;html=1;strokeColor=none;fillColor=none;align=center;verticalAlign=middle;whiteSpace=wrap;rounded=0;fontSize=11;fontStyle=0;fontColor=#003300;" parent="1" vertex="1">
          <mxGeometry x="387.5" y="500" width="80" height="26" as="geometry" />
        </mxCell>
        <mxCell id="BhIajO4M1uqcpxpR8eOI-96" value="" style="html=1;strokeWidth=1;shadow=0;dashed=0;shape=mxgraph.ios7.misc.wifi;fillColor=#008a00;strokeColor=#005700;buttonText=;strokeColor2=#222222;fontColor=#ffffff;fontSize=8;verticalLabelPosition=bottom;verticalAlign=top;align=center;sketch=0;" parent="1" vertex="1">
          <mxGeometry x="412.5" y="461" width="30" height="35" as="geometry" />
        </mxCell>
        <mxCell id="BhIajO4M1uqcpxpR8eOI-98" value="Ansible Control Node&lt;br&gt;" style="text;html=1;strokeColor=none;fillColor=none;align=center;verticalAlign=middle;whiteSpace=wrap;rounded=0;fontSize=16;fontStyle=1;fontColor=#0000CC;" parent="1" vertex="1">
          <mxGeometry x="342.5" y="640" width="170" height="30" as="geometry" />
        </mxCell>
        <mxCell id="BhIajO4M1uqcpxpR8eOI-99" value="Laptop" style="text;html=1;strokeColor=none;fillColor=none;align=center;verticalAlign=middle;whiteSpace=wrap;rounded=0;fontSize=16;fontStyle=0" parent="1" vertex="1">
          <mxGeometry x="337.5" y="615" width="180" height="30" as="geometry" />
        </mxCell>
        <mxCell id="BhIajO4M1uqcpxpR8eOI-101" value="" style="shape=image;verticalLabelPosition=bottom;labelBackgroundColor=default;verticalAlign=top;aspect=fixed;imageAspect=0;image=https://cdn.icon-icons.com/icons2/2148/PNG/512/ansible_icon_132595.png;" parent="1" vertex="1">
          <mxGeometry x="480" y="535" width="30" height="30" as="geometry" />
        </mxCell>
        <mxCell id="BhIajO4M1uqcpxpR8eOI-102" value="" style="shape=image;verticalLabelPosition=bottom;labelBackgroundColor=default;verticalAlign=top;aspect=fixed;imageAspect=0;image=https://cdn.icon-icons.com/icons2/1508/PNG/512/ubuntustarthere_104634.png;" parent="1" vertex="1">
          <mxGeometry x="480" y="571" width="35" height="35" as="geometry" />
        </mxCell>
        <mxCell id="ERmWKFbeFvTbtj414zn3-1" value="" style="group" vertex="1" connectable="0" parent="1">
          <mxGeometry x="1110" y="484" width="120" height="60" as="geometry" />
        </mxCell>
        <mxCell id="ERmWKFbeFvTbtj414zn3-2" value="node6" style="rounded=1;whiteSpace=wrap;html=1;fillColor=#1ba1e2;strokeColor=#006EAF;fontColor=#ffffff;fontSize=15;fontStyle=1" vertex="1" parent="ERmWKFbeFvTbtj414zn3-1">
          <mxGeometry width="120" height="60" as="geometry" />
        </mxCell>
        <mxCell id="ERmWKFbeFvTbtj414zn3-3" value="" style="shape=image;verticalLabelPosition=bottom;labelBackgroundColor=default;verticalAlign=top;aspect=fixed;imageAspect=0;image=data:image/png,iVBORw0KGgoAAAANSUhEUgAAAZEAAAIACAMAAAB0LaEeAAAABGdBTUEAALGPC/xhBQAAAAFzUkdCAK7OHOkAAAMAUExURUdwTAAAAAAAAAAAAAAAAAAAAAAAAAAAAAAAAAAAAAAAAAAAAAAAAAAAAAAAAAAAAAAAAAAAAAAAAAAAAAAAAAAAAAAAAAAAAAAAAAAAAAAAAAAAAAAAAAAAAAAAAAAAAAAAAAAAAAAAAAAAAAAAAAAAAAAAAAAAAAAAAAAAAAAAAAAAAAAAAAAAAAAAAAAAAAAAAAAAAAAAAAAAAAAAAAAAAAAAAAAAAAAAAAAAAAAAAAAAAAAAAAAAAAAAAAAAAAAAAAAAAAAAAAAAAAAAAAAAAAAAAAAAAAAAAAAAAAAAALwRQnWpKAEAALsRQQMAAbgRQAECAAkBAxsCCVcIHgcBAnSoKDMFEhICBq8QPQMFAQ8BBRQCBwQAArMQP44NMQ0BBDAEEbYQQAUIAiMDDC0EEKQPOREZBngLKiUDDW8KJxAXBTcFEwcKAklqGXQKKaEPOJ0ON4kMMA0UBB8DC5kONa4QPZYONX0LLDkFFKoPPJ8OOJMNM6kPOxYCCGEJIosNMSkEDiY3DQgMA2QJI26eJXKlJ1kIH5ENMj4GFnOmJ2aUI2wKJioED4ALLQsBBG+gJnGkJ6cPOnoLK0oHGjRLEroRQVAHHGKOIUwHG0gGGaYPOqsPPBYfB3CiJj1ZFUdnGF4IIbUQP2YJJF6IIDtVFBgjCCk7DoMMLkIGF5QNNH4LLGqYJC1BDzFIERwoCWCLIaAOODwFFTBFECAvC1J3HGubJFIHHScEDhkCCTVOEgsQBAoOA1V7HTUFEx4rCkBdFoUML1qDHxIbBjdPEys+DkAGF3ULKThSE1QIHj9bFbIQPoIMLnIKKGkJJVmBHkNhFyEDDEUGGE4HG5sONl8JIWSQImiWI0ttGkFfFhomCR0DCrAQPlyFH09zGyQ0DFR5HUxvGpoONm0KJksHGmWSIyIyDEMGGFsIIBUeB2oKJVd/Hk5xG1F1HBABBnsLK4cML0YGGUVkGBchCEZlGGydJVZ8HWUJI4YML0RiFzNKEWeVI2gJJHEKKBQcB1B0G1MUs30AAABKdFJOUwD3Eu/8+vT+BAEG630Wwp/lIxoMr9ceD4W902UvWuBRNJaajMkqkkQ8c3jMpwm2xVXdN4GyTCdJ0DGkq9q5amxAiehhXuNwLMBvWdPASwAAIABJREFUeNrUXLtP21wUh/IIlEeA0hZoQcBXyqtAW2i/9EH7lb4tM2TJkJUhQ9Qs+Q+IYCBLMkRiIWSAsBBAImEgIBAPCbHAlBIkHhlAQoWFlwSV6JeHE/teO46vYzvumeLbYv/OPT7vc52WJhEV55fnKTKLytur0/4iym0oK+/KzCzqbLqX9jdT8TvlN9Xd5s6ad9U5kZWvpQosSs+aCv4SPkryq2KoFW9eRhZznn+vLVe9rShUvn/5d7CR87EZIym79NP9tNsfMjEqpSsfylYpyJ/Vr7MA1FntOWm3PnZkU5ZUH3PkL5D6txhEWW8eYTQqrGxJK6isKSzKUmSral/IgbHbT5UV2VhmV1tNZUFay6c2OuhHpVnw0tt6uSvIY4wrZatIQ4YVNbakGPmdpjwSjkKVzZmPxzJUk9v1TcrWb4Wdb2qayjG+VPU0pcaqsog38m/5taXlbYWtyqb627KQx72aDEwQKkxdFPa8TRgWMmpkEJI1pmOCUeuDsg5VXnZ60SNl5S2Rcd/6pGzuSs/OU3WUPSgXjoX0L6kOTZSYSJSuLBYzPn+dJRbw2tyUSqQGE4/S88XymTllWSLifhx5hmQyuP9v/pO2qowsRVZGUcUjTFQqFCeVLBEZdvPdrnQFpsj+/OhJ/ov7Ihvf94WZmIRUJUZW/LBIShYy276L5xILarIxiSlP+OS+OkNqJtJrSsRx4o1I8lCrGRYX1nWo8eTDlAvEOHzIlb+42fAXEdz9rVZERjZ3NseM8OIa7plE1JI6YU0WqkCcxxo/vObt9S8Z1Ei3aRXcnxSoUF+tbj+O477TvR5g9RjHN0CZ/EhwnyIho+CXXYlgg3Cc+zg+D+y91r3pCzLmUCNuh0pgb9Ki4mE/Z/EQWXd7tRSGfwaXPFTb5fUss9/m8/fGpvz2sg/JKEvdh7L2/KbG74mcun6XqtbGQBDsxRxFHL3H9jBTwzwiMIEqdy3Fda/qCnJeJ3xgD8OaSxOGj1tOj2JrY6GF/lGKkM771zi9cPzzk9vt3PKPbps9QPEUs+Hdn4gt6PwXEX5wG8cNAEjZcu9h9aviZARz711HlYLrK7Dt2zHMuk3g4gQepUt39DWzhK8Hz0h3j+Mjy5yeUcHPzVff5ejCN3B8L3a1PBIGOhDd6UmPJsrMGvh3pgWbY8ns5rpTRR1f+FW/GloVSFqpM4fA/j62OSlv/G5MJPgS4T4GI5cDs7GXK3hlX6XuTHw1ecCDkXcsCkJ9VG9fEIg3ejVtjeD8STiUS5KTeYpWnV0HwnyPD6HslaKzAT01Ry9YGc0EYovnOvrOO3EK7epJHQnSCeFE1eGrU9KOeVzxH/IaVenvPGGB3LtB7u16GAah5D1bUZRhHfFuaSh8LESdzsRJH7E0voy6W0rE4KvkLg9PvmwhUR/4J0OqYqRKBLcG3QdpyHBfxMEPRa5+xSzeFpvjbEarrJSwhSTXGk9MUT3U3TaOkChXMLXNArARdorOYR+FsSH03bqLlDbef8YrOXUBwMf9Z9goDpIvagzC1Bfm30FcDUZNyDprcPkMpbJS95kF7nDwOVFXsEOAOA7v9gwF5MDECMSEH7tZ/w2s2Pjs1luUeLiDNaoKOrL5qYPf5sGlkyubm2KK1TMQ9kENzkoDQfu0EPs/Zn3kNivB31vxRZLHvbPVwJYPXgUfs05E4IMxSL1BW2ZlR40PQtcWSuTodV9feXZ8P8fNU78Ma4cmFgCl3AXyL3syDuGZ8axsE/u3hKPSqP6CvDAbYxLBA/FFksFVJA1sdZ/T0FMWwz/nKFtsubFpUJmYIlyRc/YEfie32HbyX84SYa9WdzvomCx/poNRypwdWSI4YKJ9JtKMsWhJxituvdrshO/VbljpAbPUh87DQPBNmnMdM/zlMWum1ca5wZYokTIw4hpZQ1cRmJaC+q8l3rNTlvojl/ydtYQ1TLwPwXhPvZ807JGVJUbF+pMg9eVaIHqXsK4bwMUiA4YtRn+zRFxViSOuEraKyTXleX7RmPFoE2wk1/QqcatWvSsaFxOL5O9pliD4TqJwsYIF/xj5RjtWRWNlP5FAiAZwYirl0P04wSUgTaymsWBCDFRy6c2DnlidY6FfCvSXCQXCOdrqBPiY83qNRqNer9MtL98MDTm3F9y9qzaDFDzhVieBwrBDK+Q1svLQTuNeexlNB2/6JAEfmHX1Hi5MOs+Gjm6WdTq9PriNXq+JykgrHx1xDuAppBkiRTnAN2CRZP7HFr/TanLaffyCyBjMqeRIs0AB9YajRMDZ3ZVU4ifiYSOTEeiKn/OW0MKs7pDnG6LHupLTIh8/AsZa6o2UcrAREsQ0ERZxtMK5nTSb5Y9W0aXxgPGTSS2fWOsh1Fezp5SHQDeGbRA1P4g+xmHgO00g05HqB1E7SR31HwGwuLZFcz/H6zulhNaxM7LmBI54MHd+immjyG4i2nWn2AZDva4qzlWUD5ANXkoxG1HLbz2DdrqDET5tsFoXLdUMTmhSa7PAHP4D9zllKFIZSi0flK4LPLjCdOjkEy3MmpIJfBycwlEgTNk8YaqTyoF24Z41PXW/nwdLxCAX9AEQ1xOE/kgZPDJmlwtTcG+oLEHsTuujpZAG9CCwdoTOG21WYF02XDmhWQjYub+EsS9b5YL9HJ7j4N4NLaRFj17ZsDWoZVd9uP2p3pELco0e3tVyrgJ5ylATc8iFLzDpDbpHcIargT5pLFcfGKQXHNMRpjkUp2wY00yyRcCweh/1ywY4w4idKpkuu2wiSPwAqjk+p2Cvh23WiGxg/2ba1Xpeoa/ctB/uLVKV5BvjMLgsaJ1xjo6TRPKYx+Pkw9sAeCxI8TWuF/Fa5IPayTj3z+mkSJx+l4/9gRYJUxYPNHkaN9Dakg6T5YL932eYd5XLFN1XtvkmtpqN449kXhQ8hpZVEqf6MykVHuvuZiKHFWDeVS4pSR04qzxvWLe5eg/3phP7yF9u16U0FbADLWPiDqXr3dK4dc2lyz2fuMg4sefeW7UNG/ZdqPNBt8Aq3TiSOTnyzkoSlIFTKnmRL8TcgSbmxiQp59q8N39Q/qAPGOK4w8WRgN0RxOGZgA4b8s+Ivg/joJJUhoE/gFRkUHQYM4tHmNGAZheAytwzTrFWLcgYYlNXc+7F1Ie7Ys9LTAAYv4WBN0urIgO7h2psbhPReY4ALZJaThKBsiw9agRpHf6BYXO2QSmVpJjejFb7RLZWcxjWM4q8OTcAyP94VVF6kdFe2EL7te2wS6YkocL2P1gy5haJ7I5QdqGeQDfP4PGxCo6VxkooQhtFh2xeDSlnz7R4bv6gG7LHOdBRdfECrZHpcB1n7AD9TzcTt0AZlQQyyNg5H62OFNa2t8RKUtxQcatemtKo1RBJvhf4VPm3eJ5WSHuVmfjESGK6jBzOM80eiLI1YOL+Dzw/Lk4r1zwbiV2XPXz+GjqllPWVexOxXZAeosYQOYvcfXgpRmIGHLJ+lgsaLZMILTbN/GHEVHrPeSXC593gpjahfKSN1kXkN1ZjHyUq5zfnwu8QWAKGkhGb8N78lDghrV3jVb/UrMEdRKTvCdGnAt38BsrHXYSmmlZ+CrxFYMMhT1y//nM2mmqv8uPDAo//Ye+RjoEztBF1POP7qegwuHpV4MiL5RC5UeDoaizqAbZ5tu3NR/RviiB9aoeJSxPfkezdWMvfLahDGeVwqk0I2o8dMDAe87zFzlwSpxAZKkTRquM8Tzz9w7FG7FBAuOrwVHyJ/BLOnQdiqtgzytcZLjF+WOhTEhN0UUi8CxPjrlicoXcIVvPSxxOISSixW8/JZ4zxdoRm5u8MIEzQgbG9WitE8W5kmzTymwIFXnFPjvYKc3+730vOPm8IgRP4uuNjBImAw/H7W6u60J10o0m1rQ2kLfWuC9IAd8STiCAjmPZ1ErDpNBmtsw+HA2f9mGFDzTohG5/e05qj/b8Pkt7EvgkSj2nYLqIjuRRCHqSp6Z6+SPZ2Fp85ZBj2+JywCn+/QqSKxBRl+s3rT9p2aeKdT076MK51kRIcOQVLbk4AlK9QcnYw3/oh3OnWLS9FJlfJViGdcT6Hl+Rt+68oKE0OwaLDGSAGzkPK2aE+olO4Am7fNKW6g9oRZe82COTYNQZqxcx1IRjrwMFpNMdOHxESsv2zQ821bzzJ3GqFWSLTSVkWapfvRsiDymCTTYH4TfxSEYdMNYvUhGkyiVOOi8wSSeL459I2NSUeFnJcYJH/CSvGgzGLgtbtgJhjj3fiaWCWCG+sPqAc6Ba0sQOF6unIn/ouYzyjLxgde6nv4jXP4MjDLBGesWGfjZotmIQdUTVAzZF89O9IV8T5SJhQHh7wyqYrXi7+F7NEeH1ramATqHWsXvxP3bUHVXWc8YMoD5Uo2khsKozYJBqDUSdWbbWNmlo9x4teVB4XEx8oEhTwgZqoiIIUBS0hCKKRRy03jB0eGh5RUEEuNI5mgjpTH0SF2OhI0dgmQqt2sDR1Es45u+exd7+9h9/fsHd3f2f3e+73UV2uNFo1mqC+90suFK9nFDpEbqlOEjfmfXpnpEOUtrO+he5apcXbXIha3QyTV4+lm9WbLrol+OZUe+9mcidKqjieVEb3lUNglbQmtg9Z3Xi5BziBcmy2TlRK2qLb230OzYjedzzpVpHxv6qN7ipTGqQT7E9GCOcu7xNYQ/mJjOSYrNR5WVRpqQStihaxV7+McuJfrqzFzxiOFIhOmjm0s6wbxQ+mmnUFIRrQjJTrGaNIfGGtp503k9TEE7+a1vT+zVZEecbpJSI1JOyaDmGF6cIQpX2IwAvi8F4D7YqBlYhsgIGkhLghl7uKdk7JnFPVYiea5gSJ2zhvvOb0hKNiX+XJp7TXVtmJmF5vUkYGI8svN9Gv7dQuvjjMZzVK+HyV+sqqPl5Jc6A79B++FNSYEPMjbjYkFnh1FVej77W1z4FAtPjuWKnNwVeIY6RGm8tT/P1aYCokJbV9FX31fl13JcSVWI44K1bwp4pUsfwzZ2o4JrnYxgUWDR97epX4gOSAPngReeCm09K1QCkJrBcfb5v65ViLzw5Sdy/USbrqlIDW4hF7tch1rWmQ/l81AW+uVwmTpVfjGQlr1ydBEitAl5ZvIk4LUgy3Q5fiKBLH2PhOZaXrglL9b+WZHpWopE1XQBcmPcx2dKadBOzZkt5cVvGXa6klPCJdJomCXRF4TZIxUQX6jjVQWjdvtB0dEeWVtsphK420SIR1Od4eLVYuko+PtRdJyipFwdZkTk8grKrFaSvUynfCVl1/IkkvSbyv1xZRcwC3SJKiW2/DXsUf0/Nqfd82VN7nJrEDdAW/l6aOliGVoALVVhJm5DxTpFdIIWyFnTrZ3drPzmbtr8gbbprzQNcw56Fks3MQYfj29eo9Uk4ixHWq5Is1X4NdywVZ26Q+b3J2YlhvhG8VtsxGo+ReCbsn/YsrmjpCyt8g3Yxiet6TEuQurbGc3fBxkq+1ugV0JanSDS8RK0MF1bwmJLYp31g22LIQjfKD7DKBo4DxqBZdJaDXb26ztHBnd33iZhivEebuEfeiUjpPK7XqWFVyH6P3ZI4KPFD9EWmHPiU6/GOsPhGYZ+K140dTo1F6sIpBrZAbCDf86704SvBFuuXLkljKRPMza7FRZ1NhWwtGxoLqJ7mZqM/GlxYh3C+Ra22CrW12X3o3FabLckY0oTy7S6eW2pMW2BKOl2vIK5fqbmxlKS55XJ+Xfwq8rFmd1Nmek33WwhPA/DhbGusO64CefXtHfl59ZklxGHE2vBJeFX+rrLq/Ha3mgXCSVWHmQJG9O5MaI28y9W39iNurYAipzma0AIlPayQ1RvxcmOrx3RTWTghCVrFqiCixq5z7cmCiPYxVaeNKAEpWXmE0+fuJUIIdEbriC5N6KiUri9jM/ANZuGAyRUY4ed/g6ntsFtbeSvnKYkRIhcyF8iuahCBaDHYJeDbSpHIlTULWs5EhT+R2E6Z5IzFmo3JwqphcXakUleCTTL6iXCvCbnqRowxkV5LEWhb9rbITaRHCpMtxyqNqUA/KDwmOs9C3wEMG9uIdWow0MbAJo5FG1FQ36oxwg5/DiMpo6H4KSRZajJihr9nAezbkD0/14wDg9xOcPnkVlpNoenLkK1g+bmJ09df6ciBwn4ZbaOe9HnFpUSu8hVF4MYEC1/7uHBR8nHFL/a6xB1xaXddWO9g0bzRhfrPfRA4QQ4ZiVtpQ2RMuLdp1EkSmbJkZ+YtjBnGgcP+12OuYaOFNiaVWQLsr0EbVZAcUeVfyak6aeIso38V5BgcOceXZBvAWb1SPCIP2b+miEkGeHAN4ixWtNtgFpqyny4gN2H4SZzw8z4IQboDUDQzqKvqWtu8X9F1SkcThO5wJIz4y/1YxXDLzB9Qju4lw6lZqiVQtnMiEET+5CmxuPgW0yEL6ESuojmNtCTJlq58bE0akDaOeKTEg+lY0DwAIw/1KHipo8AIbQjgPF4wf7xrteOnlMAhGwmi75IselSJ/yLkXI0a4Ubi1mprO0Vxteg4PAhvNZJrUWpyxrrPDiF1m4lCF5XbW36C01pQ7PBBqaFXLLbAqBJ3HuDNjhOv1U+V8qLIOQxPC8wk0TPfGEkVbaZIXxxAeo1VS0ikQ0swDIoHCKclT/IWf9+KYYvAA4E8wPYEHBYXEzMAGhfF9/TjW8PktVpfJs5+Q2zk8MCg8Og68gMsA8J7AOQB+o6ajZEhCNAVN5mkUDw4alTdyrxYiZMnAmX6cY+D3lrxuYDmF8lspVTwT0KhOUyAVd66zhrlxDsSQUbOkj3m/e2Rn9KrDxjOCvY7r9nyJLdJn6OwhnMMhTwo2fVxfUUTsj0jgGYK8XVhly9kmmSPrZ5wR4N4PfU03NZz99mZddqWugESSNYxnCku9Ll9wSmV23dOH1uJSVIND8pKYlDFcZdFRq0oLrS1a7uyiTMZ8fK8a1ms5z+mnrIWlq1SmN8IgjPzOVcvCo1RdrkeLLbxDYGlQdfxUaMl0dfU0CCPonGAZlFddVNvKOxCt15QPSrZZwyADjEII5+GsYbpK/bmf5JebeQfDVPPoicIUreojTPcwDCPcK71Vp4utXpfb8tjGGwStmRVY87ZE7Z/trwpEE2P7qEhPZL5BytH84lYzbyiYcsryC5BuyGhlse7kwxkKIwcqrVKarpJ7uS26qtlmMDK65Q3YEurzOy6nSxNNFCbsPZ4zGLyG42+u0kxrXt652nN5Z+vLCu80dUbxPQRRttLmhpIqa15tbdfsrVXl2BvrZS/OePD0dXHMPRO6LfbixdjY+cELHUSc88tDOGPCa8bUPgw3Ym7skfgHmzZnCT/gnWPrIj9dGsqUDqc3hvlxBobXWF9vFvuwMGjn4sMCBuEZB75kQ8eU4RMGc4aH+wjofQj++swyQQUfRa5+G5yQEW5cD8D40bC7ELBve5agCdcjTs8FpmTSSMPz4THAFXQL3o15R9CBzTtPAHMywMPYhMxwhly96ZOtgl74/zsIWNF60cB8eA4FVa0ubRGIcOsvJlBOZnkaVaLPBLVHdhPy8T9sgeXEZaa7EQkZ8hzkondsFezChqWgx+Q5Ax6Tt/RIEFNAaOiStADNH25ojL9gLz4HlfEuMwzGh5eWoJVpW9CBP2VsX7vx8LP99T8ft3ZdxM79q+cra6lHNgoUcPguqIHymqE8W5NV7fQv/7ln12H8bs3bEo/drtA/CJSwYbmCE+DE3t37k3f+7bOILkR+Eb/gUtDyJbooGTfZQDqvk+JUF+17sFl9uxZg/jvokEAN85IRF6VpR3LMYvQEQ/6ckRyk2U3mZBQ9uK+v4uG4u0mbDIhE33Tx/gJNrJPv7x5Vh0zEvhPaRJ5vXyMQgqzz/wxLDmhXkT5FDZD2D4EyPtwh/Q1NToDwvy/V4pF53QAWvOc47PQuxizTYVujVKETawXqWHZE8iNab8WQyL3qJ2XcSw73K/bDzS1ou66Neg8xxPJDAgQkEitC+38eS1YV9s4O9j364GT60l36dikrFmEVXhdgsFP0Myt0qdCRsWryfYIjCRmLia3HrtO7Sf+RD3L8vACFf4l+aLE+1+V7KpzQaFVFmZC0PVl6tyg8QM5qiACHuyLqdapz/hnK5n/vYQYj5P3NujfIX+51Cv5QgMQlXfqvzK6JDzDiKfFBErIkg2B/4mXDvL0LlBBh3vHuYclw3f8f974iJQ6RJeORQn0vyae9WK7qfyEA46O07rPO0j9AhJLa5eQAjcsTqfYuIFiaEBcsV9UEcGR0/71kggEOKQUnnX/BmpBeU1Deugd2XyDPBgqHZ0Q43d1Zc4ZgAP94BTN+CuMCA26o8NQ3W+0Xsv/HXQaECGu672caUYRyu4IXcijbzCFUStYJsg/7r4gEoBAWjAhfizyiRNbPGoVMvWksCZmISAGKjSPalgjEWg4wIURYI3JTBZGIQCFkBZ4Shs8XBiGk+kWyON92VKBqKxtGBLFoPkjmuDyNl+6DWBGCKq81n8wpuAllaaX5M2IkRvy78WSWzSd4UcIqRQVRgi6YTIZsQUrGvYwIEeIk0bEYolGy8MbibEZpQPK0rIBbZNGjbWg3DCtGBIl/au7nZKcEK0tc2LwreUMeeiXLTdiMUVTYMSKVAQsXEw1zHptRMZWJO0v+u38kWsdGnFd7BzNGDspE2Caywx7sQH1rsLzQ2WkiSRyC/bBCmTGyX+4o3UA00C5cbpM3/Pur/nJTnUjNun4cr8ivYcXIPsTnQBbaj8St5VVwf5Y8mfQMESHvKrjp9rBiZDXqAdcxoqFwOjB4FeYXZD+5j+jKUiKEnfqLjAUuIqIkZBvuZRzwEZFpvt+EUCeE52+xIeQQ5pkjmdcRkzrkAntI5B7GCJKduKj2VoQNI5/xNCk5iBkNtJy/l+yIrCCYepzq02YTG88W9k1JMIl4D8G45p0h31f/hoZTMFzDQ47l8xgQslbhwQqJXRKBGQyyoP/zFK6XLYu05DSziFnt/i93VxcT1ZmGx11csVur66o13a2tXavtRlvZ1rWtxrhtbe05mZ8MECAzA4MRwhASkMwgIAgmJGjCQAJkCD83wg3CldwgNyTcQMhAk1W8gis10Xgh5cpe2GQVg3XOeb/vvN/vMftdkjnnfLzv9/P+PM/7Ur7fxYO8INyOJ9UFHE/bThd2s+QiDvzPlWZlvIrptPlWeZf7IWUaOSG+RVqD2EICCcUKKXY4PPM5gnUELMRhZbwEWxka5tN2AU884/TU0GPWka09x/zOJniTbFJlAJ+ywd9ZZ7zIUhUjfEGlQu4iTs5nzG8lxOVVka9sqcMF+VLIMHgU4ho7UJcZM4xrhpBMVOSvW1GlYTasQKqflf4aqValkDbkDNZY4RBwhiFLDfXqezELdXiCg5I8MKxCHwH82qhinMDPOo+tXdbPMOXW665wscSXFXjvg0mWYhNsGJs6uDLhLhUKOWJFXt9imelN3ooL3r60ZIVUdDFNIJctW3MDDjeqIPEet35lhCXHJlA7sbBaJlqohrm4U4hpm47CLzmtIzPCcGitilUZjS/I0kfdJEclDiZfMQDvwC8UaOSsVUz4WV4XLjpyfjUlQR9D7UG+k5PlOHgIE90VoOGt18gkdornZg0J4/JT0XI1iV7+SjW9+AXRCb5gs3wExL940+tDVww5IzIxyh+jr6u8JfTxUjSTOw3HJeQXMbdCSyPICpYXw4a8Ee2d4VFK42KBcCGnZbTJBdvWPyj3RmK46fXIrhwerOq4wGJ7Fde2x6SUBIy2Ct2a8uO/J3k4Hr52Q8UINbTUIm6VQKK6Lyav4q8fCVoqAZ/eLVshb1mDWpiQ00qVoW4UFvQ9Hk2ASJi6xMz9+YZc6eWXB1BHZjH43SzZPuLH1i8sOU9tSXX14/X7LBwrnbj9oG9+frKvf+3adDJeqK74XxJVPAGONspulXjUuoWdl8tq0Pi/G2GM/74GPiq7NIcV7pvrGHuffNOl68+d7n3UUd1T3zPXcbdvIoYKd0UqeXMvb0vWyDeMHI/m5ButjanexXu2Xd79a0tVVMJlUgs+941kjVgbJsw7TCr05mrDW9ZBDsn5xlqcKs3FnAJ65VriKNZW7FRL0Hed0QPwXy7tH6leHW1taprpqWzpK32ibne0ObK8m+/TwwxdDoFPH+iD7ZAc1bIS2Otp/1EZ02X58LcL9oNgqHWkQIHNVDaK8y4v5dGOL69D+RfQ2MqSWwNim/X9FFDCKP7Eyp+YoxwBxZ0DhXKNVwaa4fAiDZ2cHGSHbcllt/9ofT0xynOuD+1JTM85pgdT9WXSuiJMMULifOMUCH8X7WW3wUc+lKqRQ9bXk0KhiThSPpefIaPriV4poTF/OzuIglb+z9tPLp0Ll/c+LlUj71tfDx+kvjbk2R9jyUA1ronvkzAf9ivwlOzmxhNsgBS5LuIP1hMHzmEjr/RSVtr4mKh308Cd7momI+gjbQQzYRH8udwCENYkexTaICO44yXOA3vvEbnjI0I1BjvJny6D7ZJVDU77QeshYJ/GBdw6Dt3ny5g38jfZya81hUYRGfsXfOxD41HkUkT3O2lkuB11g3jvcNe59t3ljK53icOHF8m7PwlYnTAzZb9UjWx30MjCZZyBJbRaS7hOrtBFU3ws5ZJ34N0ALme1XWmgsTDTQMWdKN7bgoXgyzkSLiE5nAda8m25FaWRE0rZVU9elxPSOI2Kdz9qjjNf6iWmnJGieL7ea+UIjcjF/lpxD/5Xq/3mGvJ4j8uodlIXY9SIRL5DB2XhReZXHO+RL6Vq5DMDjP2mOguwzluDHED1CptK8mRCuHtoa6/rUZGDrfWZWnqV907neMcEGmXubZeFpm5mud6n5VZ8HKXak13zG8xJOH0qtfrZTsH+rP4KeWIZw4e5oo2m3DFDN/G9pR3PlZJahX/1p50KjV/W67VTplhW0VGuOVP2WHC8NINTxINDovn7oVjP9chy/otpAAAd/UlEQVSoXLFgYXnTpvxRIRD03CIPIHRWSCH5sjvoBXA2cJeSnjJPBSQhjbL7gZhCaqVLZQxlcLeYSka/gCwkNYrJPimE/FhVIJU8jLNerEYjKYG+4rul5NqP7BfaIkpWamDZ+cMjpqJRJwCePSgB/fuJ0A7hq+KIyFk4frhwWJVGzDEBkMxuUWZP9n/EzKyClCKpOLruKhthdQhIZMteoZNrzwExRyQ3rUooo072xIpCjZhCLIx3BDzF038U9AzH1AnFgd14Q6VCzEYhEO2fuRvBncoSxBu0KRTKDP3TrUo1Yo4LyWXzd1z62PoPUUROqcrOLj5q1nJKdVOZBjHR8FSczd4uqpBQo1KZPKJ9+7pihZjdgnSl/czVNLN3iSrE26lWJuW0CNOYao1AzbKZxuFs3QoxJlTLhOI7R9V3wgrkOiQg4jE6O+gw0y7JPiyskK5G1TKZI39cR5Vzqv09VfECoHKJGnDZzqKSj4hyvt558Ze2XIRGHisXyRD52FrUoBGTAqlt2AAMUaGYB/lpoK+uhtmXCz/1s2PwdTmlXiRkMoGOtrwExMmLUfU7gmullyKkT7kLMm544L/H1eudQjszGkQyT7xGTC2DVDstlAH7XiB7k1uOIqsEbYI3SO/rsbsRukLKdEik1tWvkzdJj8XBJ1e92/Q1iuC2A1Z8Jh3SRy2O5L2qQyLnSBtVU19eE5ZB3GroUYiy+xDVsrM/h5ed1XQao7kDBXokQsru6uqDNY41KzqJ/iSiZ/heeNXZL+qke1GljTHr7ufNFFQ7LAglZu4RYz6OrJJDUD4ELD1BSRrd0iSRFjdNrRfjOtoX6iZlPbMcAsF/gC4RuBVHgAxoXNUkENKiSOvSSLfX8V5/lQsm5dj2vcvESli3JQn1cogEvcKUJoHUENIyprZhd8q9pN536SQPsO4YJF9SJa0ekkYe6ZJHALYuCvVpxB7JIRfdXSG1raXQqt8FziwyI6aZZPoOahMIbMLE9WkkbTPA1yhhH0L06cxf0WxDg96MOeyqf/ZiwBZMUt8EbP3EDVr9rUFClIvIGf3abmdRG5ZPuBjmezlirmuk0vpxKqerCfZpsz4mpHHtvqG3h/Z+uK2Kv0ifPApcNb7XrS3rx+lJiEUmQPD79l/SKUr1cHZdozzgXRrTOAPT4mcEHX5+B1bJB2D4JMceDKGn4hKuhjDIGvmvTo1YCKPnnWJxcTwg2NbJzQg7nD/FoPFZo1EcMJJtWadGVhk5K/fgqwTACx351naJONIMoETyZZ3igO+RsM4pDKKNX2oe44wdov2T7UeTrGfo+hjQKQ44j+1P6ZxDIcPNux6bhw1EW++x7DO2ve9cYxnKNFfrlAYh1d3s3j5FcCTgPEaO9Sb5jv3MgiNbF3RK47xbaK3XRh7aQdwYMEvLWhCNq8/3A8DH1ykMk5DC7tQ5h8zQFoYmXgRGzb9yqMMYxNAqJ10NoTw3Jb1uIZNeG1fZFwPcoeQTevdJVEfZR+6luGnReOOBzklkBlxRvOQ0uLczesbssfISulChECCHd1+nMEhgEK1Ouy/CnlAG40+bt9Egczg+J4BG/lWnMCpITKKAzlmE2TWyAqYR/klpiRRMo14MVFG95J6Z89pIuGbwIUEXYLGu9yid9fpMXo0M65RFqau4X3AWSI3UgDbJ34mZKn8Nr0aCOkVhEukAvTpnkUG3wha4KKBmrrZak7lVJq9GpnSKopwIhtEaXMtAjWGL8oBX4D7ioTWOfO2Iu1YOhZ6pM3KQ0Ui3HvlQcZB2bNkKXmNNlbvuOoiU6igjGqdxg9Vnt+txY2x0qH6P18Fqdwvw+3JQijqVuqWRSuxT9ZRIyk7r39Hll+xRlGmNkhikYMH9aX3zyEhkPsM+lYYyV1u2gfn1INq/euCqRippfIkKffMo5UMPgqb7UZB0iCfZzrp6alGLk2g8tmIcnhwpkvKytnwOt3tV4ObNfo5a09SrL92fAePD12O5CiIg1uHw1r/eRL/UzjE6r08jDiW2tIGPzQjfsR0AIRAvOFfHLX97gp9Lrpuu2TRdI2FdyfYhXocMxMofAuK+DLUaQi4SBbqdCNwzmiZylRcH00+K/1qTVfgSTBBZQBvEtMWJUa/rbq/OXJL4+h+grXgCiMTjyyV3uxkHdy5fWaJnIhZWPb6FWQkhIp+dxU3iGwPeOK5JIa3OdUA0WeIWv2IJ/WAdyHDf6vkLfzx9AXhjmyaNFCBKszTpmIivi/v6As33PTaiGwNBCToIZ/UopAlTvr1Kx0wSDIweR1N13dg6xb/X291DQeOKierYJB1MBA/nOMrfPF/wp98ggr93RYdCLuI6HMTUFz6zFWy8JiY/421bVIuhwmHSNTcAW7eyUvlMbLEcBoLXAziy9aXlLwy1pEGeY54GhYxhm4BE61RPxVbklqGSVB7skHzOjW2H2eQa8ro+fHcx5dwJeyt2/CIAndyznq+4HYolOOjarVwjlWiFKC8rNWxPl18V08gBGyge77KPu3R210XxGjGW1QLIKkQING2w076PWyMtLhUY6DVYRp/SuSRFLlJQIzmeb7ltpYeGK8dWE1tvL69KJDLEVm4QW9I7PDu4NUK6X1vUntzLBtsIKVwhN4TQe3kwis56amEhYKYv35VcEXtjr6QypHwNmKMpEvpXcviz7JeIIlBJOhvl6EeojGX0UCwL8BDOtO/mZYzVEyWgsC5JedTgGIpoRgmvWNGLAhhEd4AXMUDpNlGrSiGBWzwKMfy/KJkNgSyxhn0exGS+Y+vzjY40UmJLV1RpZM3gG0EVfGpSDT50PgPc77tsTYzRSQVajfp6NQoZMXhH6JL0yRQ9IdnbadwL0uDTH3msvZGwhXcGaQKYOqdCIZ1+bo0YhTdlz+aaaIJ/DHx4r+dTzqxuvXb8Wkm+ITDCkkGOlO4nT7kjMM/HT/Y2xkiHit7aNiKfUpOIGkKj8J7M2SxRlgfSa4dNo2OeHzkNpTL6/39etlu2FDIER1RikneF1hQH2bMJBm/823NkCxc9KeDUgCTvTVOIYeSPy5pNgL4ecQgh8D/KesvjOcOFJilxjPBJ9dybooaE4ZWEXfLNSvBIYV5rjsdjS+vi6LaOIE8jKPEqqQ0acsY1GU3bfQNOX+G/2HcBSGxvHf8hmBkEldbt7beIIWvExddJasDxxsJcJLcNEhL7GI979z/mriUmqiwN3xZ8a4+vNtq240y/xkczbfsaRzM9xrZ7pm/lFhWwUhgtQEJVgJhIkXpYQoEkJkAikKiBaLEBN6Ar2AAbk95oDGLiY1awckysuPCx0kWbjN3iiPf859zz+M+h/qVc/3tuffee8//f/wrwvLS1Ezh7xGHHxpOgKsk1wJEIw0MRwB3Ff6tWWO7+R55S3TNcTz+GAUnyuI0r15UCJqc7OW7BESKKwf9zHtSmhucgOcz38GPqxQvtzTa2lNTJZ9a1l/HcISJ7EH8Cj6Pk2Grv8iYeZBV3rP5iW4OMSTKPPS18JxpHp3Y4Avt2aOV28W8uw72zlym5ZTEv9j0cHzl87nZ7Y990VU+g/Eg01XCy/0Vrt7cdfE/mVRnu5H3sm5K04O63k5IWCifBCWRMheWzhQL9rDfSKb38OkFhBrLXDnd6vM3hUVFTcCDHb/Kl5TatwpkJSu6glePJk4ZEtogRyVTPQUYZVXDkpNdLXv7q/jG21XVfZAJZz+QxEYvOK00MZmE+numL4qZ/PdtmTov5B2Uy7nuCjnp4pIszL+7qKPMgdtINnGd8YFIwBcaDsGm3KcTvTN9Mgrn2y0XP6B+x6Dy82A3qSTX1RMSA8w9eZ5554/0cS8v2lwk/sUxwZeGqdw223NuWfZut74SwcRPuFdm6mtK0X9E5Lh7Dj/ayAyu1LQnWG5icDEl4qGHm82aLmZuWZf3k/hO78jgpQ2qUjHJaN1U3a+m7jJzVmmzzCHY9HapLQVlmE2dynZLmd52EO/fP98ON57sfncknn5NbY7jDe9f2V1ykm66d8onupy95/rDB6qH+k2cenp8YCASmMw8banIdUwr0DStFKglzUB/NGnu83/1HZsOVMellNo+2M0ApH3zE2K+PXVDyNWPYZIyXpIQ/kX2z+v0eIJxOht+eUCL+jnbUpQAv4nwX24NwepU5spqjRhGhFxOdpuyhm5mjFRhxq4vKiw1Xd+TquipSscZYoqJrMvei08vLHsdo4JAcMYlIkGoSUrLO9rKHWDnUM3S6xDYujzECTW9k0uTaaWQUrYpyg8cUK+qYx1+N4xG86cOS2JS5ZR+FX6Meiim5wjXJivDbaZ0OA2WmAWlOIQbsJ9LmFg7nbb2kXP2Ta0bP6qUExLCP81/TgNT2oSa1+EcdYx8J1G2hkXKsHyxyjxZbxhe/DzQbBiRU7kOWc8YguQX4v7SR4FuJ6XurV3DtW2cNAzKioUDqZrGhxYcbiXs/olz6YxE5onIDSXyQCk8bNrQ6tFTQXTAFScTtD0/SrjwEjZ7eS1x2lyC9h8wCktZU0jhpauNyWcBnaK/CtsXQqOO/AL+IC+NnjlFAIlU+TXLF0BMUf0DFJaiO8GZ4HPh+8soPJ7lmu40CUqqxDecl1JUeS7e97nr+6tmdS7Wud7ZyFmf7kErj7IMBsZYXkNfOLgSZrjYKSOWwPkB8/hDWMsOhuvoPwimtH/z5fZFEggrI0nkURKxDwNXv+20NdBoFxBn06ZQkjhkff0K6bRUf/FDBmUjJK7pRtNGiyj+Ay3tnzpJhs18I34xMBbmKkExMiWj6T36wvcfPNQ0P3qfbd7vogFhrCyCD57dRzn0thu3eWu1dxltUlxihE9LRUn41BasYiJDZdL/vH/FQddgsHnawUTcgPr/aLjzF3FWj/MGYTRZTPrfzQ0z0DY4pvGbBsx5kwnNeR+FrNiBW0ad5AUjcyGSEnDzbFsWyr/cu8UDE+mqBkAd0d6Q319LSdvH6FCYz4Zjp+V4laW+V8GTOTnPtWwv2WJ6yfSHvwsbbKmY51VVX76SxTv+0z4zUyBkdfKXxdRyqFu62OGQZ32ucBt7jQMNFjPSCYmMDJmUs+lucdDRP4GKrxSX7eN4TWhVC4FRImfy6YQoQr9FLgHTzJzF757X9gQ8Qq+hLT1VDrPckdlHNVnYeGkOEuzTp/yaHALVT7kUDfruEExGIBXa9xB7JiZleFUxMjvCbFDzghLLGej20beYFhBz/5pIx7500+0J+7xo0iEhA6Ny7JVbAmPA41ldzI0K003QZf1y2RiIiCUiz3yAi7qFHTINDuFwsztT3CT8gUKREwp+ueSqFSM4kIL4H3N9yUPzbbUE51+HsrdnvMHcywpF7EluX02gUEW4DWKb10AOmxu8FENnBUiTy7f4inm8XNwsIMGQeDhNK+UhMl+QzAUQWMaiUo0LBb/Hs5zbDiDzg4yeiUspZWesFiwUQsdbTFY0KLqpOsJlfu2FEfDw1uFMZOd3PGDr/KgIIi0kRzsJNjIsAUtJjGpHHHIDItkE6zVC6RQgR+kEiMct4WqSS9LhpQFxjWMGjTT71mHGQ/F0IkUUFND0yTdhF+jHljCPyQNsX4mP1oF0qdIwwPBK55so13KxKl3FE/B4HXWlGQTk9T3qfGCBAFvCMSC6vgrfRYr1xRDwqXZuzKrpfyaQEgbKKErcqkw5q88Xrwn7ziDCTmZ+q5fFFaXoL5wkiYm3D5mXPx3kQKTUPiK+fFQ5JaNoSPxYFhGb/KgzqSvKMMQzNASIMRj6oHPCPo9i+v2dAwIquKCxugiNBamgOEBmkc2zqdsZ1iuqVwoiQJe4Kpta7oJo3JL1zgEgTCoVHEUqS0F5xQKx1oCa1r9gbktwcIBKjBqj0HVLLJBD5DNSkGAKf8DpLWuYAkXrKWq5jEDqUHKE9EojA21ZUcYFH4nOfXeqWDIXuRRk1fwpt06JYW8qdxzPNeYcI3Fc0jNPYoEElT8slKyFV6uX+w8xcg//kza51Dkc5aDYsXCuFiPWlFkR8TcE8ildRT/brSMpTOO7hW/kZ0IUxpPaak1/WL9RYtPK0Trg3SCKyvFATEdiWDwmm7+U2sI4aLOXQsNv58yQRIaZXykQQQbInlEcBK5BFOaF1S1wjC4i1kVR2BmWZfWX5xDSShT0lWTTlUDxsuzQiRWRKyjOcdVJrwop7zCNCTqV6iaccONkLlkgjQox4te07SAul9dCxh80jQvAIU4gNi4ARbJ/LAwIkyd9CWmj5OGrUWEV6iIjzK0Ttv6ikxAP9hIimWyNYK33l5ItD8kBrjIYsrPtusQIixBxk7kHIMrv3HBlbbi7QSWBqv0M84ToVQEgCOIgWB8/AZaTBgGlEbmgNmpG+11dKiJAEcBRtrZRU/jOmEXFZ4sW42TBDOLTve9mpL5+KUk1+2DAgbvP0Hq76CEasitkoBTHIdzMvfERXkM9BNr+JPO9Nioj8S6Mh4o/rCFOKimsRHbjaJ3Cih7PddncmXTdiitszbdFt+U0rpVe9XbhIERHrO7fKB7o/kjKjRIqrwjmCrP6kSjkoLGs0xdYYJ8k1g4C4uwB06QXctr9RRmQrUWSPSWCA5lbEICIu97AZ+/tsVc9l9KS2ujEXDSbzO1eNAeIv1ZucNEBwZgeUESFmvKK6cEfAmPsJY4i4JjsWZ5D1V6j0eaDJp1ptIXCCkJMyBEjPlL4dGXJ2bHubOiDW10RmGeaSm+aUbqzTbVMQx8gXCIhs0hNrpzhoM3LbCCATLkqrG5vlTBIhh90IiJAHCeq2BRfqjVeZQGTUddfL2DcgvJF3477V5FuiIQVmZVrGmbPAVcLd7LMB+w5E8ch6DEBIjwR35RGdWbcsCbj7z1ViOyPkAOKfURAhq61Q2ThKN8OpAd2IELGkx9h3eIJRWcUVtQonEZd93sFrZSAi5Lwc9KSLauxoFb1s4azWdc84JTVaAckQ7diKp5Fv0Y5UpMBTtoDauI/WKzyY0HmIEJ4CfUqqrHRgFSnwlC1gulIV1CZjGX2IAF0F+pFvESW2xX9jAQK05BjDfF2pvc2rJ3QBkkMveiXlMnGHQ2iIrC7Qunx6pnxEk8F1BbAmwshOaT3xiSwtQkPE+rNW5onRBSOkxXevg8y7Vt2nCAqnRXdJMOdRNLAaoJXjA/LEweh2KHw6LlyJiAhQ24P4kSRZ/dBak+hnCHw7XGO7pxqxjgeSA+QTPMdbPrOguhQ3x7DnMuU+uBM2AAJ1ByoigAFcjeeTsPs4HsUMWvbReqeHUUktYETWx7iAWH8jn+EJ2vo9ercXX0G7UxP1c0Rt/FwFDNE4gIwIycnbYTSfus6rf82JPpT7+M/S20WOYCJyn9S/HhsQ6CRBo2efezZ5KsMIKkaPM+6AmQAO9ULZjI4IVEqNRV/HvDuhOR2qNpf/HHPuGWJiYH23rdnQeit7CrU9RpKng2PlE6Wzt91jhgIeUxcAOlbNX6kBETIp5c1RgtPk3c83SzEunwJa3+HVAxrP470HaP9CByDWvIPA/p5FeYhum0/G5Kpo6zlGnaG5I78Cyn9crQURqAWEHUehZ4/ZvFJ9QXjvSg3xfILnkQBpgG62ydIk0Pj2EIZnJTJNtSwn8l0O1LTyqUUiaxLQ575LFyDWWmhQzJDfLCJv7K7Ia77fL/D8Bfdc2SMogGShhi/sAezYoSuclljCs5WKO1+mvGYy3hzqFtCI8o0kwQzNjZZG2aXHuZKakFyZbmmAf8dA4vXlKcGhZhgR5GmwU+t+nYBYy1fogCQgP83yaORy/+RgeyybSfZlh1MNF670pktlBpMjlOjC3Yz/OE8rItaBQg3Rnqw996LuWU2AtHLhDkuzwB3+7ylZXBV5gIhyAeIR2KjbohsQa/Ea8MZpFdZxMg8QUWX8+2CW5htLv6yGW/zXKhyNvXmAyCM1QBrhfmF7iwwgYq1cCue7yddz1uYBIrVqeQ7wUKiDay0jsvkjOC4qOxsiWZwHiCila72GebMFf7IMyXbKkKvHciRXjZ0PIl8UE6DMGCncZBmT7ylPNd4k80ShvEBEmnqI0jbdHyyDspXGbrSJF1dGnbxA5KmkAf+MxtVssYzKTtqDTQmHfh7Z+SFSBT1J6lDQZZZhWUdlZofEmuDHwnmCiIy1deopTdtOy7jQx1OX9Ask6/ojdr7IBeHYJP0E3GrNgfyvvTP5aeuI4/gANrbBrGYzhkAwaxxcMCmERYStGLAMFsUyFVuQAAWEBEYJe0IrIYUeIBJYWBAu1CfaU3xBXCrlUoSEkSDqCZ+qSFg5JOWUSyNVantpwntv5i3j5+f5/AFPb35fzcxvm5lWBXVV6Qw6hN8XjSAdvWgZ+e9OKGe3oh4EhWw5TU52Ba4E5LOKR5GOSYTi208e6peCI8pAkCiKphme3QVxJN0jJkE6OlzQeV4PzdtPUQ0gaJhv0bcpnNEnu+YcHSJjEsorGTukq06WV4IgEhfPUBJfX6W6mtQ2P8x9gli7j8Yd3ou37kP3G3dPYH8/0OPe/dEx/szO8oMv/mLKptjmHbT/rY0EQUVZyFzm83qGPj8qPj2FVAT/Uone0d2VR0Nj1A6E3/nnRI/3HF2Z3lWaDX7w9IqhAq1XgmCTHQ1lweGL5x7f1vzW8Vngap2LGvYfdibWoDtHOl9tBBYQGysGFo5vWrxsyx8dTLFTVBkQAZX3ca3y1m+vfX+wSXZsfnCPoC2Rl9dnM6/+C6s6955seHbHISJZQxIQBTF6BQY5nrm2OL2INzu/i9yENNDX39/bDaulIkMJxEJDubBqdI16lvjop1p+fiTcT9YVAxGhKRRumnQ5fDye151z9wnyl7LGUiAucg3C6HH+bs/CLzbYVmAU8rOA6FDpmngfp/1amMuY1yb5zRU0NauAGNFkRPM6zr7ArEUofh7m7z+j1RogVuL0/GnycHXQIiS/9POkR2MkEDORan7WroETv0Vg/Ac8/GeiWtx6/BOdlBnlnAe67rRgYIJjW5L8Xo4ShASa9ghu/u5KpwULp1wqyhH1GhA6VHMJGfuGLLjYYu9z1WWBkCK9ln26ZNqCjx22f3lXA0KNepYr13ucglj83exWLB0IQbJSWe0hmN8MdbH5yUwzCEk0CSwG+xavIKyajvNKQahSFoU8RTYxK/I9sh5ROSCESWtDHO4oZkEsp6iCaJNBSKMqQdvgT3ArsoK4pbeqQKhjRir6/o5bEbQmV0MBkADKChn8kA8xCzKNEiLK1UogDarhp8k4ZkVQDqUazEAyKNWwu4nViVWQl/CJrYg7SiAlKuMhB36AVREvvIuVBCSGSgcXm1iXMQoyD6tHbAuQIJEJUP0qj23YBNmEbEtR5EUCaWKC6ld5g0uQ7XXIPhMTkCxQ/SoCPymGmmRMbFEBKaPJYPa67GtYBFmF6muo0ACpk8y8nTzE4QIfQ8SGsrxkEA4UpDCe4RC+arXF3PWgqK0E4UKukcEY/UsCC/KIWZCULBBO5N6jX7vePxFUkAmmJUuRUg3Cjawa2gTkixkBBQkwCCKvKQDhSFohXU/qgE8oPWwXDEVCfRoIV9JLaI5fW93bggiyRx8Ylreng3BG9bWRekMZXRRAkDW6s28KY5UKhD1JGYmUXjD/m8lHmvz7NxVpRI5/yydVtRSRvPWQ37zjIvUtExF3yfT4346io9Dk8RyPgnygvF0mWpdORPiMIgpJunr4elLu6QK1e1VMBLhBEipf+IiPp/cs2++ob5qIzSXmv4liyvDkV+6px6FzmoMHScT4N2OiLPx27XBzhJcWaKJ0bSQxPWVWOJG6aNLD/uDu2AVdXlGvJIanSaxk0hSyDtl1aTsvBiTbV43DC9bSpbp+Q29UmaG/TCCexISM0WIebdZpZALlVPWs51LyfdUYeEDfJmz3bsAFKINbCwPh1hUnlBfM1LBi9/qYtpTNT5NMFwI2tRBTw5LM3JJqvXQdO2/O1nc6p1xHjG0Ncj1Jm6BsJhVQ7Y/28YPA1Ou56UW/f3bv6ebS8utPgasRqMsya8mChbpy3RLyTrs2E7EwuhucIJge8Q3EvKyoEmaaGEmalzUavYxvOeQ1WcSuXDC38apHbEYysSlXcur4u9yyuZTYkw9HuD6RDzmiCslyxRul7Vw1kRnLYogd+SRGl8pltWqPIybkHVWVkd2l2/l3SLpdKNLUqPGJTPuAyCHsRCm+DX91bWxNNkklYhGlMRNicsSrTaQUhY+47LxU6k1FZtBXaYiRsJNeVJJg+KK9K1qbQdQI7mwxlbU2JqRo8++n1n11u9ksiZXqbzs05edFq7kxAAAAAElFTkSuQmCC;" vertex="1" parent="ERmWKFbeFvTbtj414zn3-1">
          <mxGeometry x="90" y="10" width="22.17" height="28.31" as="geometry" />
        </mxCell>
        <mxCell id="ERmWKFbeFvTbtj414zn3-4" value="k3 worker node" style="text;html=1;strokeColor=none;fillColor=none;align=center;verticalAlign=middle;whiteSpace=wrap;rounded=0;fontSize=16;fontStyle=1;fontColor=#0000CC;" vertex="1" parent="1">
          <mxGeometry x="1280" y="514" width="130" height="30" as="geometry" />
        </mxCell>
        <mxCell id="ERmWKFbeFvTbtj414zn3-5" value="Raspberry Pi 4B (8GB)" style="text;html=1;strokeColor=none;fillColor=none;align=center;verticalAlign=middle;whiteSpace=wrap;rounded=0;fontSize=16;fontStyle=0" vertex="1" parent="1">
          <mxGeometry x="1260" y="484" width="170" height="30" as="geometry" />
        </mxCell>
        <mxCell id="ERmWKFbeFvTbtj414zn3-6" value="&lt;font color=&quot;#ff0000&quot; style=&quot;font-size: 13px;&quot;&gt;10.0.0.16&lt;/font&gt;" style="text;html=1;strokeColor=none;fillColor=none;align=center;verticalAlign=middle;whiteSpace=wrap;rounded=0;fontSize=11;fontStyle=0" vertex="1" parent="1">
          <mxGeometry x="1020" y="484" width="80" height="30" as="geometry" />
        </mxCell>
      </root>
    </mxGraphModel>
  </diagram>
</mxfile>
